<?xml version="1.0" encoding="utf-8" standalone="yes"?>
<!DOCTYPE svg PUBLIC "-//W3C//DTD SVG 1.1//EN" "http://www.w3.org/Graphics/SVG/1.1/DTD/svg11.dtd">
<svg width="842" height="662" viewBox="0 0 842 662" style="fill:none;stroke:none;fill-rule:evenodd;clip-rule:evenodd;stroke-linecap:round;stroke-linejoin:round;stroke-miterlimit:1.5;" version="1.1" xmlns="http://www.w3.org/2000/svg" xmlns:xlink="http://www.w3.org/1999/xlink"><style id="fontImports">@import url("https://fonts.googleapis.com/css2?family=Shantell+Sans:wght@300..800&amp;display=block");</style><g id="items" style="isolation: isolate"><g id="blend" style="mix-blend-mode: normal"><g id="g-root-0.cu_sy_v2z44sk0tssn-fill" data-item-order="-380154" transform="translate(15, 243)"><g id="0.cu_sy_v2z44sk0tssn-fill" stroke="none" fill="#ebebeb"><g><path d="M 250 130C 250 196.274 196.274 250 130 250C 63.7258 250 10 196.274 10 130C 10 63.7258 63.7258 10 130 10C 196.274 10 250 63.7258 250 130Z"></path></g></g></g><g id="g-root-5.cu_sy_hrilrgk0tudk-fill" data-item-order="-380150" transform="translate(214.37451171875, 417)"><g id="5.cu_sy_hrilrgk0tudk-fill" stroke="none" fill="#ffe4cb"><g><path d="M 182.625 100L 602.625 100L 602.625 196L 182.625 196L 10 46C 21.4116 35.9279 30.8929 23.7192 37.8178 10L 182.625 100Z"></path></g></g></g><g id="g-root-4.cu_sy_dcbkq4k0ts01-fill" data-item-order="-380146" transform="translate(242.1923828125, 381)"><g id="4.cu_sy_dcbkq4k0ts01-fill" stroke="none" fill="#fff8b6"><g><path d="M 154.807 40L 574.807 40L 574.807 136L 154.807 136L 10 46C 15.6123 34.8811 19.5456 22.7701 21.4665 10L 154.807 40Z"></path></g></g></g><g id="g-root-3.cu_sy_4gokh8k0tssq-fill" data-item-order="-380142" transform="translate(253.65869140625, 315)"><g id="3.cu_sy_4gokh8k0tssq-fill" stroke="none" fill="#e9ffb9"><g><path d="M 143.341 10L 563.341 10L 563.341 106L 143.341 106L 10 76C 10.8832 70.1285 11.341 64.1177 11.341 58C 11.341 51.8823 10.8832 45.8715 10 40L 143.341 10Z"></path></g></g></g><g id="g-root-2.cu_sy_v2csk0ttkz-fill" data-item-order="-380138" transform="translate(242.1923828125, 219)"><g id="2.cu_sy_v2csk0ttkz-fill" stroke="none" fill="#c8ffe5"><g><path d="M 154.807 10L 574.807 10L 574.807 106L 154.807 106L 21.4665 136C 19.5456 123.23 15.6123 111.119 10 100L 154.807 10Z"></path></g></g></g><g id="g-root-1.cu_sy_v2csk0ttl0-fill" data-item-order="-380134" transform="translate(214.37451171875, 123)"><g id="1.cu_sy_v2csk0ttl0-fill" stroke="none" fill="#d1f4ff"><g><path d="M 182.625 10L 602.625 10L 602.625 106L 182.625 106L 37.8178 196C 30.8929 182.281 21.4116 170.072 10 160L 182.625 10Z"></path></g></g></g><g id="g-root-tx_smallcod_1q6c430k0tu6l-fill" data-item-order="0" transform="translate(159, 27)"><g id="tx_smallcod_1q6c430k0tu6l-fill" stroke="none" fill="#484848"><g><text style="font: bold 25px &quot;Shantell Sans&quot;, cursive; white-space: pre;" font-weight="bold" font-size="25px" font-family="'Shantell Sans', cursive"><tspan x="13.34" y="45" dominant-baseline="ideographic">Small Code Improvements, Big Impact</tspan></text></g></g></g><g id="g-root-thre_5uv1ok0tszw-fill" data-item-order="0" transform="translate(423, 147)"></g><g id="g-root-tx_renaming_143lx2kk0trev-fill" data-item-order="0" transform="translate(483, 159)"><g id="tx_renaming_143lx2kk0trev-fill" stroke="none" fill="#1eabda"><g><text style="font: 20px &quot;Shantell Sans&quot;, cursive; white-space: pre;" font-size="20px" font-family="'Shantell Sans', cursive"><tspan x="12" y="35" dominant-baseline="ideographic">Renaming Unclear Variables</tspan></text></g></g></g><g id="g-root-puzz_qs5ep8k0wlc7-fill" data-item-order="0" transform="translate(423, 243)"></g><g id="g-root-tx_breaking_mcbwksk0tts0-fill" data-item-order="0" transform="translate(483, 243)"><g id="tx_breaking_mcbwksk0tts0-fill" stroke="none" fill="#3cc583"><g><text style="font: 20px &quot;Shantell Sans&quot;, cursive; white-space: pre;" font-size="20px" font-family="'Shantell Sans', cursive"><tspan x="12" y="35" dominant-baseline="ideographic">Breaking Down Complex </tspan><tspan x="12" y="59" dominant-baseline="ideographic">Methods</tspan></text></g></g></g><g id="g-root-tx_boyscout_v4uje4k0trt2-fill" data-item-order="0" transform="translate(51, 351)"><g id="tx_boyscout_v4uje4k0trt2-fill" stroke="none" fill="#969696"><g><text style="font: bold 20px &quot;Shantell Sans&quot;, cursive; white-space: pre;" font-weight="bold" font-size="20px" font-family="'Shantell Sans', cursive"><tspan x="17.09" y="35" dominant-baseline="ideographic">Boy Scout Rule</tspan></text></g></g></g><g id="g-root-draf_1ur5ewck0xzb6-fill" data-item-order="0" transform="translate(423, 339)"></g><g id="g-root-tx_addingmi_dhbdf0k0trex-fill" data-item-order="0" transform="translate(483, 339)"><g id="tx_addingmi_dhbdf0k0trex-fill" stroke="none" fill="#92bd39"><g><text style="font: 20px &quot;Shantell Sans&quot;, cursive; white-space: pre;" font-size="20px" font-family="'Shantell Sans', cursive"><tspan x="12" y="35" dominant-baseline="ideographic">Adding Missing </tspan><tspan x="12" y="59" dominant-baseline="ideographic">Documentation</tspan></text></g></g></g><g id="g-root-by_vagt64k0zgg1-fill" data-item-order="0" transform="translate(423, 435)"></g><g id="g-root-tx_fixingmi_91hvakk0ts76-fill" data-item-order="0" transform="translate(483, 447)"><g id="tx_fixingmi_91hvakk0ts76-fill" stroke="none" fill="#e0cb15"><g><text style="font: 20px &quot;Shantell Sans&quot;, cursive; white-space: pre;" font-size="20px" font-family="'Shantell Sans', cursive"><tspan x="12" y="35" dominant-baseline="ideographic">Fixing Minor Bugs</tspan></text></g></g></g><g id="g-root-500_147crl8k10ufi-fill" data-item-order="0" transform="translate(423, 531)"></g><g id="g-root-tx_improvin_91hvakk0ts77-fill" data-item-order="0" transform="translate(483, 543)"><g id="tx_improvin_91hvakk0ts77-fill" stroke="none" fill="#de8431"><g><text style="font: 20px &quot;Shantell Sans&quot;, cursive; white-space: pre;" font-size="20px" font-family="'Shantell Sans', cursive"><tspan x="12" y="35" dominant-baseline="ideographic">Improving Error Handling</tspan></text></g></g></g><g id="g-root-0.cu_sy_v2z44sk0tssn-stroke" data-item-order="-380154" transform="translate(15, 243)"><g id="0.cu_sy_v2z44sk0tssn-stroke" fill="none" stroke-linecap="round" stroke-linejoin="round" stroke-miterlimit="4" stroke="#ffffff" stroke-width="2"><g><path d="M 250 130C 250 196.2742 196.2742 250 130 250C 63.7258 250 10 196.2742 10 130C 10 63.7258 63.7258 10 130 10C 196.2742 10 250 63.7258 250 130Z"></path></g></g></g><g id="g-root-5.cu_sy_hrilrgk0tudk-stroke" data-item-order="-380150" transform="translate(214.37451171875, 417)"><g id="5.cu_sy_hrilrgk0tudk-stroke" fill="none" stroke-linecap="round" stroke-linejoin="round" stroke-miterlimit="4" stroke="#ffffff" stroke-width="2"><g><path d="M 602.6252 100L 182.6253 100L 37.8178 10C 30.8929 23.7192 21.4116 35.9279 10 46L 182.6253 196L 602.6252 196L 602.6252 100Z"></path></g></g></g><g id="g-root-4.cu_sy_dcbkq4k0ts01-stroke" data-item-order="-380146" transform="translate(242.1923828125, 381)"><g id="4.cu_sy_dcbkq4k0ts01-stroke" fill="none" stroke-linecap="round" stroke-linejoin="round" stroke-miterlimit="4" stroke="#ffffff" stroke-width="2"><g><path d="M 574.8075 40L 154.8075 40L 21.4665 10C 19.5456 22.7701 15.6123 34.8811 10 46L 154.8075 136L 574.8075 136L 574.8075 40Z"></path></g></g></g><g id="g-root-3.cu_sy_4gokh8k0tssq-stroke" data-item-order="-380142" transform="translate(253.65869140625, 315)"><g id="3.cu_sy_4gokh8k0tssq-stroke" fill="none" stroke-linecap="round" stroke-linejoin="round" stroke-miterlimit="4" stroke="#ffffff" stroke-width="2"><g><path d="M 563.3409 10L 143.341 10L 10 40C 10.8832 45.8715 11.341 51.8823 11.341 58C 11.341 64.1177 10.8832 70.1285 10 76L 143.341 106L 563.3409 106L 563.3409 10Z"></path></g></g></g><g id="g-root-2.cu_sy_v2csk0ttkz-stroke" data-item-order="-380138" transform="translate(242.1923828125, 219)"><g id="2.cu_sy_v2csk0ttkz-stroke" fill="none" stroke-linecap="round" stroke-linejoin="round" stroke-miterlimit="4" stroke="#ffffff" stroke-width="2"><g><path d="M 574.8075 10L 154.8075 10L 10 100C 15.6123 111.1189 19.5456 123.2299 21.4665 136L 154.8075 106L 574.8075 106L 574.8075 10Z"></path></g></g></g><g id="g-root-1.cu_sy_v2csk0ttl0-stroke" data-item-order="-380134" transform="translate(214.37451171875, 123)"><g id="1.cu_sy_v2csk0ttl0-stroke" fill="none" stroke-linecap="round" stroke-linejoin="round" stroke-miterlimit="4" stroke="#ffffff" stroke-width="2"><g><path d="M 182.6253 10L 602.6252 10L 602.6252 106L 182.6253 106L 37.8178 196C 30.8929 182.2808 21.4116 170.0721 10 160L 182.6253 10Z"></path></g></g></g><g id="g-root-tx_smallcod_1q6c430k0tu6l-stroke" data-item-order="0" transform="translate(159, 27)"></g><g id="g-root-thre_5uv1ok0tszw-stroke" data-item-order="0" transform="translate(423, 147)"><g id="thre_5uv1ok0tszw-stroke" fill="none" stroke-linecap="round" stroke-linejoin="round" stroke-miterlimit="4" stroke="#1eabda" stroke-width="2"><g><path d="M 13.428572 38.285713L 28 38.285713C 28 38.285713 29.714287 38.285713 29.714287 40L 29.714287 54.57143C 29.714287 54.57143 29.714287 56.285713 28 56.285713L 13.428572 56.285713C 13.428572 56.285713 11.714286 56.285713 11.714286 54.57143L 11.714286 40C 11.714286 40 11.714286 38.285713 13.428572 38.285713M 40 38.285713L 54.57143 38.285713C 54.57143 38.285713 56.285713 38.285713 56.285713 40L 56.285713 54.57143C 56.285713 54.57143 56.285713 56.285713 54.57143 56.285713L 40 56.285713C 40 56.285713 38.285713 56.285713 38.285713 54.57143L 38.285713 40C 38.285713 40 38.285713 38.285713 40 38.285713M 26.73143 11.714286L 41.302856 11.714286C 41.302856 11.714286 43.017143 11.714286 43.017143 13.428572L 43.017143 28C 43.017143 28 43.017143 29.714287 41.302856 29.714287L 26.73143 29.714287C 26.73143 29.714287 25.017143 29.714287 25.017143 28L 25.017143 13.428572C 25.017143 13.428572 25.017143 11.714286 26.73143 11.714286"></path></g></g></g><g id="g-root-tx_renaming_143lx2kk0trev-stroke" data-item-order="0" transform="translate(483, 159)"></g><g id="g-root-puzz_qs5ep8k0wlc7-stroke" data-item-order="0" transform="translate(423, 243)"><g id="puzz_qs5ep8k0wlc7-stroke" fill="none" stroke-linecap="round" stroke-linejoin="round" stroke-miterlimit="4" stroke="#3cc583" stroke-width="2"><g><path d="M 17 57L 12.98 52C 11.693836 50.408497 10.9884 48.426224 10.98 46.380001L 10.98 36C 10.979982 35.200874 11.298797 34.434765 11.865739 33.871578C 12.432681 33.308388 13.200891 32.994675 14 33L 14 33C 15.656855 33 17 34.343147 17 36L 17 43.740002M 26 57L 26 50.720001C 26.003548 48.945229 25.47401 47.210293 24.48 45.739998L 22.200001 42.299999C 21.800718 41.636154 21.145927 41.165794 20.389343 40.999344C 19.632763 40.832893 18.841024 40.98502 18.200001 41.419998L 18.200001 41.419998C 17.030144 42.206562 16.62746 43.740185 17.26 45L 20 49.5M 51 57L 55 51.959999C 56.286163 50.3685 56.9916 48.386223 57 46.34L 57 36C 57 34.343147 55.656857 33 54 33L 54 33C 52.343147 33 51 34.343147 51 36L 51 43.740002M 42 57L 42 50.720001C 41.996452 48.945229 42.52599 47.210293 43.52 45.739998L 45.799999 42.299999C 46.199284 41.636154 46.854073 41.165794 47.610657 40.999344C 48.367237 40.832893 49.158974 40.98502 49.799999 41.419998L 49.799999 41.419998C 50.969856 42.206562 51.37254 43.740185 50.740002 45L 48 49.5M 37.099998 32.799999C 35.536415 31.237141 35.536118 28.702564 37.099342 27.139341C 38.662567 25.576118 41.19714 25.576414 42.759998 27.139999C 43.145176 27.530823 43.450829 27.992699 43.659996 28.499998C 43.770195 28.82168 44.045528 29.058769 44.380001 29.119999C 44.710808 29.191315 45.05545 29.093916 45.299999 28.860001L 48.419998 25.720001C 49.195446 24.939926 49.195446 23.680075 48.419998 22.9L 45.200001 19.700001C 47.074497 19.197004 48.317451 17.420975 48.148067 15.487568C 47.97868 13.554163 46.445839 12.021319 44.512432 11.851933C 42.579025 11.682549 40.802994 12.925502 40.299999 14.8L 37.099998 11.58C 36.319923 10.804553 35.060074 10.804553 34.279999 11.58L 31.379999 14.48C 31.166838 14.69754 31.05755 14.99626 31.079998 15.299999C 31.115868 15.592258 31.276283 15.854759 31.52 16.02C 31.746761 16.176117 31.960768 16.349998 32.16 16.540001C 33.722343 18.103073 33.722054 20.636633 32.15934 22.199341C 30.596634 23.762051 28.063072 23.762344 26.5 22.200001C 26.316902 22.000027 26.149727 21.786041 26 21.559999C 25.836662 21.30575 25.565163 21.141075 25.264208 21.113714C 24.963253 21.086355 24.666508 21.199371 24.459999 21.42L 21.540001 24.32C 20.764553 25.100075 20.764553 26.359924 21.540001 27.139999L 32.860001 38.459999C 33.640076 39.235447 34.899925 39.235447 35.68 38.459999L 38.799999 35.34C 39.039536 35.101784 39.142601 34.758736 39.074024 34.427948C 39.005447 34.09716 38.774494 33.823357 38.459999 33.700001C 37.949673 33.496578 37.486717 33.190208 37.099998 32.799999Z"></path></g></g></g><g id="g-root-tx_breaking_mcbwksk0tts0-stroke" data-item-order="0" transform="translate(483, 243)"></g><g id="g-root-tx_boyscout_v4uje4k0trt2-stroke" data-item-order="0" transform="translate(51, 351)"></g><g id="g-root-draf_1ur5ewck0xzb6-stroke" data-item-order="0" transform="translate(423, 339)"><g id="draf_1ur5ewck0xzb6-stroke" fill="none" stroke-linecap="round" stroke-linejoin="round" stroke-miterlimit="4" stroke="#92bd39" stroke-width="2"><g><path d="M 20 23.5C 23.3137 23.5 26 20.8137 26 17.5C 26 14.1863 23.3137 11.5 20 11.5C 16.6863 11.5 14 14.1863 14 17.5C 14 20.8137 16.6863 23.5 20 23.5ZM 20 56.5C 23.3137 56.5 26 53.813801 26 50.5C 26 47.186199 23.3137 44.5 20 44.5C 16.6863 44.5 14 47.186199 14 50.5C 14 53.813801 16.6863 56.5 20 56.5ZM 20 23.5L 20 44.5M 48 56.5C 51.313801 56.5 54 53.813801 54 50.5C 54 47.186199 51.313801 44.5 48 44.5C 44.686199 44.5 42 47.186199 42 50.5C 42 53.813801 44.686199 56.5 48 56.5ZM 48 37.584C 47.5858 37.584 47.25 37.248199 47.25 36.834C 47.25 36.4198 47.5858 36.084 48 36.084M 48 37.584C 48.4142 37.584 48.75 37.248199 48.75 36.834C 48.75 36.4198 48.4142 36.084 48 36.084M 48 27.917C 47.5858 27.917 47.25 27.5812 47.25 27.167C 47.25 26.752781 47.5858 26.417 48 26.417M 48 27.917C 48.4142 27.917 48.75 27.5812 48.75 27.167C 48.75 26.752781 48.4142 26.417 48 26.417M 48 18.25C 47.5858 18.25 47.25 17.914219 47.25 17.5C 47.25 17.085781 47.5858 16.75 48 16.75M 48 18.25C 48.4142 18.25 48.75 17.914219 48.75 17.5C 48.75 17.085781 48.4142 16.75 48 16.75"></path></g></g></g><g id="g-root-tx_addingmi_dhbdf0k0trex-stroke" data-item-order="0" transform="translate(483, 339)"></g><g id="g-root-by_vagt64k0zgg1-stroke" data-item-order="0" transform="translate(423, 435)"><g id="by_vagt64k0zgg1-stroke" fill="none" stroke-linecap="round" stroke-linejoin="round" stroke-miterlimit="4" stroke="#e0cb15" stroke-width="2"><g><path d="M 56.180801 37.797798C 56.390598 36.563202 56.5 35.294399 56.5 34C 56.5 21.573601 46.426399 11.5 34 11.5C 21.573601 11.5 11.5 21.573601 11.5 34C 11.5 46.426399 21.573601 56.5 34 56.5C 36.444 56.5 38.796799 56.110401 41 55.389801M 29 34C 29 36.761425 31.238577 39 34 39C 36.761425 39 39 36.761425 39 34C 39 31.238577 36.761425 29 34 29C 31.238577 29 29 31.238577 29 34M 10 10M 40 43.797798L 56 43.797798M 10 10M 44 49.797798L 56 49.797798M 10 10M 48 55.797798L 56 55.797798"></path></g></g></g><g id="g-root-tx_fixingmi_91hvakk0ts76-stroke" data-item-order="0" transform="translate(483, 447)"></g><g id="g-root-500_147crl8k10ufi-stroke" data-item-order="0" transform="translate(423, 531)"><g id="500_147crl8k10ufi-stroke" fill="none" stroke-linecap="round" stroke-linejoin="round" stroke-miterlimit="4" stroke="#de8431" stroke-width="2"><g><path d="M 15.002 39L 15.002 17C 15.002 14.790861 16.792862 13 19.001999 13L 49.001999 13C 51.21114 13 53.001999 14.790861 53.001999 17L 53.001999 39M 14.998 22.992001L 52.998001 22.992001M 28.002001 18.492001C 27.725857 18.492001 27.502001 18.268143 27.502001 17.992001C 27.502001 17.715858 27.725857 17.492001 28.002001 17.492001M 28.002001 18.492001C 28.278143 18.492001 28.502001 18.268143 28.502001 17.992001C 28.502001 17.715858 28.278143 17.492001 28.002001 17.492001M 22.001999 18.492001C 21.725857 18.492001 21.501999 18.268143 21.501999 17.992001C 21.501999 17.715858 21.725857 17.492001 22.001999 17.492001M 22.001999 18.492001C 22.278141 18.492001 22.501999 18.268143 22.501999 17.992001C 22.501999 17.715858 22.278141 17.492001 22.001999 17.492001M 33.996002 18.492001C 33.719856 18.492001 33.496002 18.268143 33.496002 17.992001C 33.496002 17.715858 33.719856 17.492001 33.996002 17.492001M 33.996002 18.492001C 34.272141 18.492001 34.496002 18.268143 34.496002 17.992001C 34.496002 17.715858 34.272141 17.492001 33.996002 17.492001M 26.58 30.25L 21.265999 30.25L 20.736 36.09L 21.962 35.478001C 22.552 35.181999 23.202 35.028 23.862 35.028L 23.922001 35.028C 25.681999 35.028 27.108 36.454002 27.108 38.214001L 27.108 39.807999C 27.108 41.568001 25.681999 42.993999 23.922001 42.993999C 22.534 42.993999 21.174 42.105999 20.736 40.870003M 31.059999 33.436001L 31.059999 39.807999C 31.060001 41.567581 32.48642 42.994003 34.246002 42.994003C 36.005581 42.994003 37.431999 41.567581 37.431999 39.808002L 37.431999 33.436001C 37.460995 32.279083 36.860359 31.19742 35.862991 30.610428C 34.865623 30.023438 33.62838 30.023438 32.631012 30.610428C 31.633646 31.19742 31.033009 32.279083 31.062 33.436001ZM 41.384003 33.436001L 41.384003 39.807999C 41.384003 41.567581 42.810421 42.994003 44.570004 42.994003C 46.329582 42.994003 47.756001 41.567581 47.756001 39.808002L 47.756001 33.436001C 47.756001 31.676422 46.329582 30.250002 44.570004 30.250002C 42.810421 30.250002 41.384003 31.676422 41.384003 33.436001ZM 39.486 50.113998L 39.486 54.203999C 39.485821 55.333549 40.401451 56.249325 41.530998 56.249325C 42.660549 56.249325 43.57618 55.333549 43.576 54.204002L 43.576 50.113998C 43.541454 49.009468 42.636074 48.131962 41.530998 48.131962C 40.425926 48.131962 39.520546 49.009468 39.486 50.114002ZM 20.864 48.07L 16.774 48.07L 16.774 56.25L 20.864 56.25M 16.774 51.82L 20.18 51.82M 24.577999 56.25L 24.577999 52.84M 24.577999 52.84L 24.577999 48.068001L 26.282 48.068001C 27.6 48.068001 28.667999 49.136002 28.667999 50.453999L 28.667999 50.453999C 28.667999 51.77 27.6 52.838001 26.282 52.838001L 24.577999 52.838001ZM 27.304001 52.84L 29.007999 56.248001M 32.110001 56.25L 32.110001 52.84M 32.110001 52.84L 32.110001 48.068001L 33.813999 48.068001C 35.132 48.068001 36.200001 49.136002 36.200001 50.453999L 36.200001 50.453999C 36.200001 51.77 35.132 52.838001 33.813999 52.838001L 32.110001 52.838001ZM 34.835999 52.84L 36.540001 56.248001M 47.290001 56.25L 47.290001 52.84M 47.290001 52.84L 47.290001 48.068001L 48.993999 48.068001C 50.312 48.068001 51.380001 49.136002 51.380001 50.453999L 51.380001 50.453999C 51.380001 51.77 50.312 52.838001 48.993999 52.838001L 47.290001 52.838001ZM 50.015999 52.84L 51.720001 56.248001"></path></g></g></g><g id="g-root-tx_improvin_91hvakk0ts77-stroke" data-item-order="0" transform="translate(483, 543)"></g></g></g></svg>