<?xml version="1.0" encoding="utf-8" standalone="yes"?>
<!DOCTYPE svg PUBLIC "-//W3C//DTD SVG 1.1//EN" "http://www.w3.org/Graphics/SVG/1.1/DTD/svg11.dtd">
<svg width="960" height="714" viewBox="0 0 960 714" style="fill:none;stroke:none;fill-rule:evenodd;clip-rule:evenodd;stroke-linecap:round;stroke-linejoin:round;stroke-miterlimit:1.5;" version="1.1" xmlns="http://www.w3.org/2000/svg" xmlns:xlink="http://www.w3.org/1999/xlink"><style id="fontImports">@import url("https://fonts.googleapis.com/css2?family=Shantell+Sans:wght@300..800&amp;display=block");</style><g id="items" style="isolation: isolate"><g id="blend" style="mix-blend-mode: normal"><g id="g-root-6.cu_sy_1q8uz6sf0rbb7-fill" data-item-order="-479462" transform="translate(50, 485.125)"><g id="6.cu_sy_1q8uz6sf0rbb7-fill" stroke="none" fill="#ffd7ef"><g><path d="M 841 120.775L 838.2 100.775L 817.6 98.075L 821.2 123.575ZM 817.6 98.075L 799.8 139.575L 819.9 143.575L 838.2 100.775ZM 819.9 143.575L 818.8 79.375L 798.7 77.075L 799.8 139.575ZM 798.7 77.075L 778.4 158.975L 798.4 161.475L 818.8 79.375ZM 798.4 161.475L 798.4 71.475L 778.4 62.075L 778.4 158.975ZM 778.4 62.075L 750.2 85.075L 770.1 94.675L 798.4 71.475ZM 770.1 94.675L 770.6 60.575L 750.7 51.275L 750.2 85.075ZM 750.7 51.275L 731.8 67.375L 751 77.375L 770.6 60.575ZM 751 77.375L 753.4 52.975L 734.6 39.375L 731.8 67.375ZM 734.6 39.375L 710.6 49.875L 733.7 61.575L 753.4 52.975ZM 733.7 61.575L 730.8 48.375L 707.8 37.775L 710.6 49.875ZM 707.8 37.775L 688.2 47.775L 707.5 60.375L 730.8 48.375ZM 707.5 60.375L 708.2 49.275L 689.2 32.575L 688.2 47.775ZM 689.2 32.575L 685 33.375L 688.1 43.175L 663.3 30.375L 648.7 34.775L 672.6 48.275L 669.2 49.375L 665.6 38.475L 689.8 52.775L 708.2 49.275ZM 672.6 48.275L 668.2 38.475L 651.8 25.275L 623.6 22.475L 638.5 42.975L 650.8 43.275L 648.7 34.775ZM 638.5 42.975L 641.6 32.275L 625.2 16.875L 623.6 22.475ZM 625.2 16.875L 618.1 19.375L 621 27.875L 600.8 19.875L 596.5 19.275L 598.4 26.775L 574.5 13.575L 573 13.575L 575.1 20.775L 551.8 9.975L 533.7 14.875L 554.9 29.175L 557.5 28.275L 554.1 20.275L 579.3 32.575L 579.6 32.475L 577.3 24.975L 602.2 38.375L 605.5 37.475L 600 28.075L 626.2 37.675L 641.6 32.275ZM 554.9 29.175L 554.6 26.375L 533.4 10.775L 533.7 14.875ZM 533.4 10.775L 510 16.075L 528 32.475L 554.6 26.375ZM 528 32.475L 529.5 21.175L 511.1 7.875L 510 16.075ZM 511.1 7.875L 492.1 16.975L 509.9 30.675L 529.5 21.175ZM 509.9 30.675L 513 14.075L 494.9 2.575L 492.1 16.975ZM 494.9 2.575L 468.6 21.675L 489.2 31.375L 513 14.075ZM 489.2 31.375L 488.1 12.475L 467.5 2.075L 468.6 21.675ZM 467.5 2.075L 449.1 14.175L 469.2 24.975L 488.1 12.475ZM 469.2 24.975L 469.1 11.275L 449.1 11.375L 449.1 14.175ZM 777 165.875L 776 120.175L 755.9 116.775L 757 166.375ZM 755.9 116.775L 733.6 175.775L 753.5 179.775L 776 120.175ZM 753.5 179.775L 755.1 137.675L 735.2 132.375L 733.6 175.775ZM 735.2 132.375L 711.8 177.075L 732.2 181.175L 755.1 137.675ZM 732.2 181.175L 729 144.975L 708.6 140.875L 711.8 177.075ZM 708.6 140.875L 685.8 184.275L 705.2 190.375L 729 144.975ZM 705.2 190.375L 709.7 153.875L 690.3 147.775L 685.8 184.275ZM 690.3 147.775L 669.9 186.575L 690.4 190.475L 709.7 153.875ZM 690.4 190.475L 687.6 166.175L 666.9 161.275L 669.9 186.575ZM 666.9 161.275L 646.4 192.975L 665.8 199.875L 687.6 166.175ZM 665.8 199.875L 669.2 166.175L 649.8 159.475L 646.4 192.975ZM 649.8 159.475L 626.7 195.775L 645.9 202.775L 669.2 166.175ZM 645.9 202.775L 650.1 171.475L 631.1 162.275L 626.7 195.775ZM 631.1 162.275L 599.4 194.975L 620.8 201.675L 650.1 171.475ZM 620.8 201.675L 617.1 179.575L 596 174.775L 599.4 194.975ZM 596 174.775L 580.2 197.175L 600.4 203.175L 617.1 179.575ZM 600.4 203.175L 599.4 178.175L 579.1 171.475L 580.2 197.175ZM 579.1 171.475L 554.5 202.075L 574 209.675L 599.4 178.175ZM 574 209.675L 575.5 186.975L 555.9 180.075L 554.5 202.075ZM 555.9 180.075L 537.4 206.375L 557.5 212.575L 575.5 186.975ZM 557.5 212.575L 557.1 188.575L 537 181.575L 537.4 206.375ZM 537 181.575L 516.3 207.375L 537.8 212.475L 557.1 188.575ZM 537.8 212.475L 531 180.275L 510.2 178.475L 516.3 207.375ZM 510.2 178.475L 496.7 212.275L 517.2 214.975L 531 180.275ZM 517.2 214.975L 513.7 184.775L 493 179.175L 496.7 212.275ZM 493 179.175L 472.5 206.975L 493.7 211.875L 513.7 184.775ZM 493.7 211.875L 488.7 184.675L 467.7 180.875L 472.5 206.975ZM 467.7 180.875L 449.7 210.975L 470.7 214.675L 488.7 184.675ZM 470.7 214.675L 466.7 193.075L 445.1 186.475L 449.7 210.975ZM 445.1 186.475L 428.7 203.075L 448 211.975L 466.7 193.075ZM 448 211.975L 449.9 190.275L 430.7 179.775L 428.7 203.075ZM 430.7 179.775L 401 202.175L 421.2 211.975L 449.9 190.275ZM 421.2 211.975L 420.7 187.475L 400.6 181.475L 401 202.175ZM 400.6 181.475L 383.8 205.675L 404.6 210.775L 420.7 187.475ZM 404.6 210.775L 402 190.175L 380.9 182.975L 383.8 205.675ZM 380.9 182.975L 357.9 206.075L 378.4 213.775L 402 190.175ZM 378.4 213.775L 376.8 185.175L 356.4 180.475L 357.9 206.075ZM 356.4 180.475L 341.5 206.575L 362.2 210.775L 376.8 185.175ZM 362.2 210.775L 359.4 187.575L 338.6 182.075L 341.5 206.575ZM 338.6 182.075L 319.5 207.775L 340.1 213.475L 359.4 187.575ZM 340.1 213.475L 337.5 185.675L 316.8 178.575L 319.5 207.775ZM 316.8 178.575L 295.1 201.775L 315.1 209.675L 337.5 185.675ZM 315.1 209.675L 315.1 181.275L 295.1 174.575L 295.1 201.775ZM 295.1 174.575L 272.5 204.575L 292.8 210.975L 315.1 181.275ZM 292.8 210.975L 291.7 180.475L 271.5 175.175L 272.5 204.575ZM 271.5 175.175L 253.4 205.175L 274.9 208.275L 291.7 180.475ZM 274.9 208.275L 268.2 182.975L 246.4 178.675L 253.4 205.175ZM 246.4 178.675L 229.9 200.575L 251 205.875L 268.2 182.975ZM 251 205.875L 246.3 175.575L 225.3 170.175L 229.9 200.575ZM 225.3 170.175L 203.4 199.175L 223.8 205.375L 246.3 175.575ZM 223.8 205.375L 222 172.075L 201.7 167.275L 203.4 199.175ZM 201.7 167.275L 187.7 191.575L 208.9 194.875L 222 172.075ZM 208.9 194.875L 203.3 168.775L 182 164.975L 187.7 191.575ZM 182 164.975L 166.3 190.175L 187.3 194.275L 203.3 168.775ZM 187.3 194.275L 182.2 164.975L 161 159.875L 166.3 190.175ZM 161 159.875L 144.8 181.375L 165.8 186.675L 182.2 164.975ZM 165.8 186.675L 161.3 156.775L 140.3 151.375L 144.8 181.375ZM 140.3 151.375L 120.1 177.675L 141.6 182.475L 161.3 156.775ZM 141.6 182.475L 135.1 152.675L 113.9 149.675L 120.1 177.675ZM 113.9 149.675L 100.8 173.275L 120.7 178.675L 135.1 152.675ZM 120.7 178.675L 121.6 142.175L 101.8 134.575L 100.8 173.275ZM 101.8 134.575L 75.6 165.175L 95.4 172.775L 121.6 142.175ZM 95.4 172.775L 96.9 121.675L 77 115.175L 75.6 165.175ZM 77 115.175L 49.8 154.275L 69.8 160.575L 96.9 121.675ZM 69.8 160.575L 69.9 67.875L 49.9 64.975L 49.8 154.275ZM 49.9 64.975L 26.8 144.875L 46.7 148.175L 69.9 67.875ZM 46.7 148.175L 50.4 77.775L 30.6 73.775L 26.8 144.875ZM 30.6 73.775L 12.9 122.675L 33.4 124.975L 50.4 77.775ZM 33.4 124.975L 30.2 99.475L 10.4 101.975L 12.9 122.675ZM 404.1 20.875L 403.1 16.875L 380 7.275L 384.7 25.775ZM 380 7.275L 358.4 19.975L 376.7 32.375L 403.1 16.875ZM 376.7 32.375L 379.1 16.675L 360.5 5.975L 358.4 19.975ZM 360.5 5.975L 340.8 21.775L 362.2 30.275L 379.1 16.675ZM 362.2 30.275L 361.2 22.875L 338.9 7.575L 340.8 21.775ZM 338.9 7.575L 312.9 13.575L 333.3 29.375L 361.2 22.875ZM 333.3 29.375L 333 18.075L 312.7 5.775L 312.9 13.575ZM 312.7 5.775L 294.4 14.675L 311.2 28.775L 333 18.075ZM 311.2 28.775L 313.7 20.175L 296.7 6.875L 294.4 14.675ZM 296.7 6.875L 284.4 14.075L 290.8 22.675L 263.2 18.875L 253 26.275L 274.1 35.475L 275.1 34.775L 267.8 25.375L 295.4 30.775L 313.7 20.175ZM 274.1 35.475L 273.7 31.775L 251.8 15.675L 253 26.275ZM 251.8 15.675L 231.1 19.775L 251.1 36.175L 273.7 31.775ZM 251.1 36.175L 251.1 26.675L 231.1 15.475L 231.1 19.775ZM 231.1 15.475L 206.7 30.575L 227 41.575L 251.1 26.675ZM 227 41.575L 226.7 28.075L 206.4 17.775L 206.7 30.575ZM 206.4 17.775L 182 34.575L 201.7 45.275L 226.7 28.075ZM 201.7 45.275L 202.1 30.575L 182.3 21.075L 182 34.575ZM 182.3 21.075L 163.3 37.075L 181.1 48.275L 202.1 30.575ZM 181.1 48.275L 183.2 39.775L 165.9 26.875L 163.3 37.075ZM 165.9 26.875L 141.4 41.675L 153.9 57.475L 183.2 39.775ZM 153.9 57.475L 161.9 49.275L 149.3 33.675L 141.4 41.675ZM 149.3 33.675L 120.8 51.775L 142.6 61.575L 161.9 49.275ZM 142.6 61.575L 139.4 41.575L 118.3 36.175L 120.8 51.775ZM 118.3 36.175L 96.3 64.975L 118.2 69.275L 139.4 41.575ZM 118.2 69.275L 113.9 53.575L 92.3 50.475L 96.3 64.975ZM 92.3 50.475L 71.9 83.775L 91 90.875L 113.9 53.575ZM 91 90.875L 95.7 60.875L 76 57.775L 71.9 83.775Z" fill-rule="nonzero"></path></g></g></g><g id="g-root-5.cu_sy_1hdug10f0r8y4-fill" data-item-order="-479458" transform="translate(122, 494.173828125)"><g id="5.cu_sy_1hdug10f0r8y4-fill" stroke="none" fill="#f5e0ff"><g><path d="M 694 103.826172L 692.7 88.026172L 672.4 85.226172L 674.1 105.426172ZM 672.4 85.226172L 657.9 124.626172L 677.9 128.126172L 692.7 88.026172ZM 677.9 128.126172L 677.3 64.126172L 657.3 61.226172L 657.9 124.626172ZM 657.3 61.226172L 636.3 129.526172L 656.4 132.326172L 677.3 64.126172ZM 656.4 132.326172L 655 55.526172L 635 53.526172L 636.3 129.526172ZM 635 53.526172L 614.9 145.326172L 635 147.126172L 655 55.526172ZM 635 147.126172L 633.4 99.826172L 613.2 94.826172L 614.9 145.326172ZM 613.2 94.826172L 583.8 146.026172L 603.4 151.926172L 633.4 99.826172ZM 603.4 151.926172L 605.4 120.826172L 585.7 114.626172L 583.8 146.026172ZM 585.7 114.626172L 561.6 154.326172L 581.4 160.126172L 605.4 120.826172ZM 581.4 160.126172L 582.3 127.826172L 562.4 122.926172L 561.6 154.326172ZM 562.4 122.926172L 546 156.226172L 567 158.926172L 582.3 127.826172ZM 567 158.926172L 561.3 130.726172L 540.5 129.026172L 546 156.226172ZM 540.5 129.026172L 527.8 162.726172L 548.1 165.426172L 561.3 130.726172ZM 548.1 165.426172L 545.8 141.126172L 525 134.826172L 527.8 162.726172ZM 525 134.826172L 500.7 164.126172L 520.5 171.726172L 545.8 141.126172ZM 520.5 171.726172L 521.7 139.026172L 501.9 133.326172L 500.7 164.126172ZM 501.9 133.326172L 481.8 168.226172L 502.6 172.226172L 521.7 139.026172ZM 502.6 172.226172L 499 146.726172L 478.2 142.526172L 481.8 168.226172ZM 478.2 142.526172L 460.9 171.726172L 481 177.026172L 499 146.726172ZM 481 177.026172L 480.5 146.126172L 460.4 139.526172L 460.9 171.726172ZM 460.4 139.526172L 436.2 171.426172L 457.7 176.126172L 480.5 146.126172ZM 457.7 176.126172L 451.2 146.926172L 430 143.626172L 436.2 171.426172ZM 430 143.626172L 415.9 167.626172L 435.7 173.426172L 451.2 146.926172ZM 435.7 173.426172L 436.7 151.526172L 417.1 143.026172L 415.9 167.626172ZM 417.1 143.026172L 387.3 173.926172L 406.5 182.726172L 436.7 151.526172ZM 406.5 182.726172L 408.6 160.026172L 389.4 150.426172L 387.3 173.926172ZM 389.4 150.426172L 367.3 170.526172L 386.4 180.226172L 408.6 160.026172ZM 386.4 180.226172L 388.6 158.826172L 369.5 149.226172L 367.3 170.526172ZM 369.5 149.226172L 347.1 169.626172L 366.6 178.926172L 388.6 158.826172ZM 366.6 178.926172L 367.9 156.126172L 348.3 148.426172L 347.1 169.626172ZM 348.3 148.426172L 328.4 172.326172L 348.5 179.426172L 367.9 156.126172ZM 348.5 179.426172L 348.3 158.326172L 328.2 149.426172L 328.4 172.326172ZM 328.2 149.426172L 304.8 169.926172L 323.6 180.026172L 348.3 158.326172ZM 323.6 180.026172L 326.6 158.826172L 307.9 147.826172L 304.8 169.926172ZM 307.9 147.826172L 280.9 168.326172L 301.5 177.826172L 326.6 158.826172ZM 301.5 177.826172L 299.9 152.126172L 279.4 144.126172L 280.9 168.326172ZM 279.4 144.126172L 253.4 169.226172L 272.1 179.026172L 299.9 152.126172ZM 272.1 179.026172L 276.1 153.926172L 257.1 146.226172L 253.4 169.226172ZM 257.1 146.226172L 238.7 172.526172L 259.9 177.226172L 276.1 153.926172ZM 259.9 177.226172L 254.9 149.726172L 233.5 143.726172L 238.7 172.526172ZM 233.5 143.726172L 211.2 168.626172L 231.3 176.126172L 254.9 149.726172ZM 231.3 176.126172L 230.9 144.726172L 210.8 138.426172L 211.2 168.626172ZM 210.8 138.426172L 192.4 163.826172L 213.2 169.226172L 230.9 144.726172ZM 213.2 169.226172L 209.7 139.126172L 189 133.726172L 192.4 163.826172ZM 189 133.726172L 171.1 158.526172L 193 162.326172L 209.7 139.126172ZM 193 162.326172L 185.1 135.526172L 163.4 132.426172L 171.1 158.526172ZM 163.4 132.426172L 146.9 158.226172L 166.2 165.226172L 185.1 135.526172ZM 166.2 165.226172L 169.7 138.526172L 151 127.626172L 146.9 158.226172ZM 151 127.626172L 122.9 148.926172L 142.1 159.426172L 169.7 138.526172ZM 142.1 159.426172L 144.2 133.826172L 124.8 125.326172L 122.9 148.926172ZM 124.8 125.326172L 100.4 151.626172L 120.3 159.626172L 144.2 133.826172ZM 120.3 159.626172L 120.8 120.026172L 100.9 113.426172L 100.4 151.626172ZM 100.9 113.426172L 80 142.326172L 100.1 148.726172L 120.8 120.026172ZM 100.1 148.726172L 99.8 107.026172L 79.8 103.126172L 80 142.326172ZM 79.8 103.126172L 64.6 140.026172L 84.7 143.826172L 99.8 107.026172ZM 84.7 143.826172L 83 50.726172L 62.9 47.926172L 64.6 140.026172ZM 62.9 47.926172L 36.7 131.726172L 56.3 135.926172L 83 50.726172ZM 56.3 135.926172L 64.7 62.926172L 45.2 57.026172L 36.7 131.726172ZM 45.2 57.026172L 18.1 109.426172L 38.1 114.326172L 64.7 62.926172ZM 38.1 114.326172L 38.2 74.426172L 18.2 74.426172L 18.1 109.426172ZM 633.2 73.426172L 632.1 49.326172L 611.4 36.326172L 613.3 74.426172ZM 611.4 36.326172L 587.7 46.426172L 603.1 61.526172L 632.1 49.326172ZM 603.1 61.526172L 610.2 43.826172L 594.5 29.226172L 587.7 46.426172ZM 594.5 29.226172L 564.6 43.926172L 583.4 56.926172L 610.2 43.826172ZM 583.4 56.926172L 585.1 40.126172L 566.8 23.026172L 564.6 43.926172ZM 566.8 23.026172L 542.4 27.126172L 560.6 44.326172L 585.1 40.126172ZM 560.6 44.326172L 561.2 39.326172L 542.8 23.726172L 542.4 27.126172ZM 542.8 23.726172L 524.3 29.026172L 545.5 43.826172L 561.2 39.326172ZM 545.5 43.826172L 544.8 35.326172L 523.4 19.026172L 524.3 29.026172ZM 523.4 19.026172L 500.4 23.326172L 515.9 40.726172L 544.8 35.326172ZM 515.9 40.726172L 520 27.426172L 503.8 12.226172L 500.4 23.326172ZM 503.8 12.226172L 480.4 21.026172L 502.1 34.226172L 520 27.426172ZM 502.1 34.226172L 501.2 27.026172L 479.7 14.326172L 480.4 21.026172ZM 479.7 14.326172L 460.5 22.226172L 483.7 34.226172L 501.2 27.026172ZM 483.7 34.226172L 480.6 20.726172L 457.6 9.726172L 460.5 22.226172ZM 457.6 9.726172L 434.4 20.926172L 455.2 33.126172L 480.6 20.726172ZM 455.2 33.126172L 454.1 14.426172L 433.6 6.526172L 434.4 20.926172ZM 433.6 6.526172L 417.7 21.926172L 440.8 27.326172L 454.1 14.426172ZM 440.8 27.326172L 436.5 14.926172L 412.3 6.726172L 417.7 21.926172ZM 412.3 6.726172L 391.5 20.326172L 412.5 30.526172L 436.5 14.926172ZM 412.5 30.526172L 410.8 12.526172L 389.9 3.526172L 391.5 20.326172ZM 389.9 3.526172L 373.4 16.526172L 390.9 28.226172L 410.8 12.526172ZM 390.9 28.226172L 395.4 12.326172L 376.2 6.826172L 373.4 16.526172ZM 320.2 26.626172L 326 17.426172L 312.9 0.726172L 303.3 15.926172ZM 312.9 0.726172L 282.6 10.726172L 297.6 26.826172L 326 17.426172ZM 297.6 26.826172L 303.2 13.326172L 286.7 0.826172L 282.6 10.726172ZM 286.7 0.826172L 260.1 21.826172L 281.1 30.726172L 303.2 13.326172ZM 281.1 30.726172L 279.8 18.026172L 258.7 8.526172L 260.1 21.826172ZM 258.7 8.526172L 236.7 24.126172L 263.8 29.426172L 279.8 18.026172ZM 263.8 29.426172L 258 20.526172L 230.7 14.326172L 215.5 23.626172L 242.6 30.326172L 241.2 31.226172L 236.7 24.126172ZM 242.6 30.326172L 234.9 20.326172L 213.5 12.426172L 194.3 17.426172L 205.3 34.826172L 219.2 29.926172L 215.5 23.626172ZM 205.3 34.826172L 209.9 30.026172L 198.8 12.826172L 194.3 17.426172ZM 198.8 12.826172L 168.8 23.726172L 183.6 39.626172L 209.9 30.026172ZM 183.6 39.626172L 189.1 27.226172L 172.2 16.026172L 168.8 23.726172ZM 172.2 16.026172L 152.5 37.226172L 173.4 44.226172L 189.1 27.226172ZM 173.4 44.226172L 171.6 27.626172L 150.7 19.226172L 152.5 37.226172ZM 150.7 19.226172L 130.7 36.226172L 149.7 46.226172L 171.6 27.626172ZM 149.7 46.226172L 150.9 35.426172L 131.9 25.026172L 130.7 36.226172ZM 131.9 25.026172L 104.8 46.626172L 127.9 53.826172L 150.9 35.426172ZM 127.9 53.826172L 123.5 39.226172L 101.4 35.126172L 104.8 46.626172ZM 101.4 35.126172L 82.5 59.326172L 101.9 67.026172L 123.5 39.226172ZM 101.9 67.026172L 104.1 44.726172L 84.2 42.726172L 82.5 59.326172Z" fill-rule="nonzero"></path></g></g></g><g id="g-root-4.cu_sy_1hdug10f0r8y5-fill" data-item-order="-479454" transform="translate(194, 503.251953125)"><g id="4.cu_sy_1hdug10f0r8y5-fill" stroke="none" fill="#ffe4cb"><g><path d="M 553.3 82.948047L 552.4 68.248047L 532.1 62.548047L 533.3 84.148047ZM 532.1 62.548047L 508.3 96.648047L 527.7 103.848047L 552.4 68.248047ZM 527.7 103.848047L 533.3 49.448047L 513.7 44.648047L 508.3 96.648047ZM 513.7 44.648047L 488.4 109.248047L 508.5 112.948047L 533.3 49.448047ZM 508.5 112.948047L 508.1 42.948047L 488.1 31.548047L 488.4 109.248047ZM 488.1 31.548047L 466 44.648047L 484.9 56.748047L 508.1 42.948047ZM 484.9 56.748047L 487.1 35.748047L 468.5 21.748047L 466 44.648047ZM 468.5 21.748047L 442.5 32.448047L 466 44.348047L 487.1 35.748047ZM 466 44.348047L 462 36.148047L 445.7 22.848047L 427.2 20.248047L 443.8 40.848047L 444.6 40.848047L 442.5 32.448047ZM 443.8 40.848047L 445.2 33.248047L 427.8 17.348047L 427.2 20.248047ZM 427.8 17.348047L 405.5 23.448047L 424.4 38.948047L 445.2 33.248047ZM 424.4 38.948047L 425.5 24.648047L 406.5 10.848047L 405.5 23.448047ZM 406.5 10.848047L 378.1 22.748047L 393.3 38.048047L 425.5 24.648047ZM 393.3 38.048047L 401.5 18.648047L 385.7 4.748047L 378.1 22.748047ZM 385.7 4.748047L 355.5 22.148047L 374.2 34.448047L 401.5 18.648047ZM 374.2 34.448047L 376.1 17.248047L 357.4 5.248047L 355.5 22.148047ZM 357.4 5.248047L 337.7 17.148047L 355.4 29.748047L 376.1 17.248047ZM 355.4 29.748047L 358 18.248047L 340.5 4.448047L 337.7 17.148047ZM 340.5 4.448047L 314.9 16.748047L 333 30.248047L 358 18.248047ZM 333 30.248047L 335.9 12.348047L 316.1 9.248047L 314.9 16.748047ZM 490.6 119.048047L 486.3 93.848047L 465.2 88.848047L 470.9 122.348047ZM 465.2 88.848047L 442.4 119.548047L 462.4 126.148047L 486.3 93.848047ZM 462.4 126.148047L 462.5 101.748047L 442.5 95.748047L 442.4 119.548047ZM 442.5 95.748047L 423.6 124.548047L 442.5 132.248047L 462.5 101.748047ZM 442.5 132.248047L 446.7 111.148047L 428.5 100.048047L 423.6 124.548047ZM 428.5 100.048047L 401.5 121.648047L 418.6 133.648047L 446.7 111.148047ZM 418.6 133.648047L 425.6 112.948047L 408.2 102.048047L 401.5 121.648047ZM 408.2 102.048047L 380.2 129.748047L 402.2 136.148047L 425.6 112.948047ZM 402.2 136.148047L 398.3 118.648047L 376 110.348047L 380.2 129.748047ZM 376 110.348047L 353.8 126.848047L 372 138.148047L 398.3 118.648047ZM 372 138.148047L 374.1 127.148047L 356 114.948047L 353.8 126.848047ZM 356 114.948047L 333.6 129.448047L 354.8 139.548047L 374.1 127.148047ZM 354.8 139.548047L 353 122.948047L 332.3 117.648047L 333.6 129.448047ZM 332.3 117.648047L 317 139.048047L 337.7 144.448047L 353 122.948047ZM 337.7 144.448047L 335.7 125.548047L 314.5 115.848047L 317 139.048047ZM 314.5 115.848047L 291.2 131.848047L 307.6 144.848047L 335.7 125.548047ZM 307.6 144.848047L 312.8 131.248047L 296.2 118.648047L 291.2 131.848047ZM 296.2 118.648047L 271 137.148047L 289.3 148.448047L 312.8 131.248047ZM 289.3 148.448047L 292 132.748047L 273.9 120.448047L 271 137.148047ZM 273.9 120.448047L 246.4 137.548047L 268 147.648047L 292 132.748047ZM 268 147.648047L 264.9 124.748047L 243.8 118.348047L 246.4 137.548047ZM 243.8 118.348047L 227.7 136.448047L 247.1 144.748047L 264.9 124.748047ZM 247.1 144.748047L 248.2 130.248047L 229.1 117.248047L 227.7 136.448047ZM 229.1 117.248047L 205.4 128.748047L 226.6 140.648047L 248.2 130.248047ZM 226.6 140.648047L 224.6 119.748047L 203.7 111.848047L 205.4 128.748047ZM 203.7 111.848047L 186.6 127.948047L 207.4 135.848047L 224.6 119.748047ZM 207.4 135.848047L 205.7 117.648047L 184.9 109.448047L 186.6 127.948047ZM 184.9 109.448047L 160.8 130.748047L 178.9 141.448047L 205.7 117.648047ZM 178.9 141.448047L 183.9 119.748047L 166.1 107.648047L 160.8 130.748047ZM 166.1 107.648047L 134.2 129.448047L 154 140.148047L 183.9 119.748047ZM 154 140.148047L 154.6 115.148047L 134.8 105.548047L 134.2 129.448047ZM 134.8 105.548047L 116.1 120.948047L 137.4 129.248047L 154.6 115.148047ZM 137.4 129.248047L 135.1 112.748047L 113.9 105.048047L 116.1 120.948047ZM 113.9 105.048047L 95.1 122.148047L 114.3 131.748047L 135.1 112.748047ZM 114.3 131.748047L 116.7 107.048047L 97.4 98.348047L 95.1 122.148047ZM 97.4 98.348047L 78.3 118.848047L 99.3 125.648047L 116.7 107.048047ZM 99.3 125.648047L 95.9 99.248047L 74.4 89.148047L 78.3 118.848047ZM 74.4 89.148047L 45.8 107.248047L 65.7 118.348047L 95.9 99.248047ZM 65.7 118.348047L 66.5 40.448047L 46.5 38.048047L 45.8 107.248047ZM 46.5 38.048047L 31.9 98.548047L 52 100.648047L 66.5 40.448047ZM 52 100.648047L 50.5 50.548047L 30.3 46.348047L 31.9 98.548047ZM 30.3 46.348047L 11.2 86.848047L 31.3 91.048047L 50.5 50.548047ZM 31.3 91.048047L 30.5 65.348047L 10.5 65.948047L 11.2 86.848047ZM 250.7 25.448047L 251.2 14.048047L 231.8 1.948047L 230.7 24.448047ZM 231.8 1.948047L 201.1 18.748047L 219.7 31.348047L 251.2 14.048047ZM 219.7 31.348047L 221.3 18.248047L 202.4 8.148047L 201.1 18.748047ZM 202.4 8.148047L 184.9 23.448047L 208.6 29.348047L 221.3 18.248047ZM 208.6 29.348047L 205.8 22.248047L 180.2 10.748047L 157.9 19.148047L 179.9 32.148047L 187.2 29.448047L 184.9 23.448047ZM 179.9 32.148047L 178.2 19.948047L 156.6 9.748047L 157.9 19.148047ZM 156.6 9.748047L 133.4 23.848047L 158.7 31.848047L 178.2 19.948047ZM 158.7 31.848047L 156.9 27.748047L 131.7 19.848047L 133.4 23.848047ZM 131.7 19.848047L 115.1 30.148047L 137.6 39.648047L 156.9 27.748047ZM 137.6 39.648047L 135.7 30.548047L 113.8 23.948047L 115.1 30.148047ZM 113.8 23.948047L 94.6 42.548047L 119.1 46.648047L 135.7 30.548047ZM 119.1 46.648047L 111.4 31.548047L 88.3 30.148047L 94.6 42.548047ZM 88.3 30.148047L 77.9 45.648047L 97.9 51.748047L 111.4 31.548047ZM 97.9 51.748047L 98 35.148047L 78 35.048047L 77.9 45.648047Z" fill-rule="nonzero"></path></g></g></g><g id="g-root-3.cu_sy_1cy0xwkf0r9qe-fill" data-item-order="-479450" transform="translate(254, 512.37890625)"><g id="3.cu_sy_1cy0xwkf0r9qe-fill" stroke="none" fill="#fff8b6"><g><path d="M 431 71.321094L 434.5 55.421094L 415.9 47.021094L 411.5 67.021094ZM 415.9 47.021094L 393.2 78.221094L 412.8 85.221094L 434.5 55.421094ZM 412.8 85.221094L 415.2 44.521094L 396 30.021094L 393.2 78.221094ZM 396 30.021094L 369.5 39.321094L 387.6 54.221094L 415.2 44.521094ZM 387.6 54.221094L 389.8 38.721094L 372.2 20.421094L 369.5 39.321094ZM 372.2 20.421094L 365.8 21.021094L 368.2 31.721094L 346.7 19.221094L 345.5 18.421094L 346.5 22.421094L 323.9 14.021094L 326 22.721094L 349.8 37.921094L 350.3 37.821094L 346.3 25.721094L 369.6 40.721094L 389.8 38.721094ZM 323.9 14.021094L 308.6 24.921094L 333.1 32.021094L 346.5 22.421094ZM 333.1 32.021094L 327.2 17.721094L 301.7 8.021094L 308.6 24.921094ZM 301.7 8.021094L 285.8 15.921094L 310.2 26.121094L 327.2 17.721094ZM 310.2 26.121094L 306.4 14.721094L 282.9 6.921094L 285.8 15.921094ZM 282.9 6.921094L 263.3 20.721094L 284.8 30.021094L 306.4 14.721094ZM 284.8 30.021094L 282.1 11.321094L 262.3 14.021094L 263.3 20.721094ZM 386.5 88.121094L 385.7 69.321094L 365.4 65.021094L 366.5 88.921094ZM 365.4 65.021094L 349.3 96.921094L 369.7 101.021094L 385.7 69.321094ZM 369.7 101.021094L 368.1 79.421094L 347.6 73.221094L 349.3 96.921094ZM 347.6 73.221094L 326.3 101.021094L 347.4 106.321094L 368.1 79.421094ZM 347.4 106.321094L 344.5 88.621094L 323.1 81.721094L 326.3 101.021094ZM 323.1 81.721094L 309.5 95.221094L 326.9 106.121094L 344.5 88.621094ZM 326.9 106.121094L 328.7 100.821094L 312.5 86.421094L 309.5 95.221094ZM 312.5 86.421094L 285.9 99.121094L 303.1 113.021094L 328.7 100.821094ZM 303.1 113.021094L 306.5 99.121094L 289 86.121094L 285.9 99.121094ZM 289 86.121094L 264.5 100.221094L 285.7 111.021094L 306.5 99.121094ZM 285.7 111.021094L 285.3 106.521094L 263.8 93.521094L 264.5 100.221094ZM 263.8 93.521094L 242.2 102.021094L 267 113.721094L 285.3 106.521094ZM 267 113.721094L 262.3 99.321094L 239.6 94.121094L 242.2 102.021094ZM 239.6 94.121094L 224.4 110.221094L 247.8 114.621094L 262.3 99.321094ZM 247.8 114.621094L 241.1 98.321094L 216.4 90.621094L 224.4 110.221094ZM 216.4 90.621094L 195.7 104.121094L 217.5 113.721094L 241.1 98.321094ZM 217.5 113.721094L 216.2 105.521094L 194.2 94.421094L 195.7 104.121094ZM 194.2 94.421094L 179.7 101.921094L 195.8 116.121094L 216.2 105.521094ZM 195.8 116.121094L 198.5 108.621094L 183.3 91.821094L 179.7 101.921094ZM 183.3 91.821094L 158.1 98.221094L 170.5 115.721094L 198.5 108.621094ZM 170.5 115.721094L 179.2 102.521094L 166.1 86.121094L 158.1 98.221094ZM 166.1 86.121094L 132.7 98.721094L 152.5 112.621094L 179.2 102.521094ZM 152.5 112.621094L 152.7 99.221094L 132.8 85.421094L 132.7 98.721094ZM 132.8 85.421094L 128.7 86.921094L 132.1 95.421094L 108.6 87.021094L 108.5 85.921094L 108.5 85.921094L 83.9 79.721094L 90.1 93.721094L 116.3 104.421094L 115.6 104.721094L 110.5 95.521094L 136.9 105.221094L 152.7 99.221094ZM 83.9 79.721094L 69.3 91.221094L 89.9 100.521094L 108.5 85.921094ZM 89.9 100.521094L 88.8 81.521094L 68.3 73.721094L 69.3 91.221094ZM 68.3 73.721094L 53.7 88.121094L 75.3 94.821094L 88.8 81.521094ZM 75.3 94.821094L 70.5 69.221094L 48.9 62.421094L 53.7 88.121094ZM 48.9 62.421094L 27.5 83.421094L 47.5 91.821094L 70.5 69.221094ZM 47.5 91.821094L 47.8 40.421094L 27.8 34.521094L 27.5 83.421094ZM 27.8 34.521094L 6.7 67.221094L 28.8 69.921094L 47.8 40.421094ZM 28.8 69.921094L 23.4 54.321094L 4.5 60.921094L 6.7 67.221094ZM 193.7 24.021094L 194.1 14.321094L 174.6 2.221094L 173.7 23.221094ZM 174.6 2.221094L 156.9 12.021094L 172.3 26.421094L 194.1 14.321094ZM 172.3 26.421094L 176.1 18.221094L 160.5 4.421094L 156.9 12.021094ZM 160.5 4.421094L 132.7 21.921094L 148.6 35.521094L 176.1 18.221094ZM 148.6 35.521094L 156.4 17.221094L 140.3 3.921094L 132.7 21.921094ZM 140.3 3.921094L 113.8 21.921094L 137.4 30.121094L 156.4 17.221094ZM 137.4 30.121094L 134.6 21.221094L 110.5 11.421094L 113.8 21.921094ZM 110.5 11.421094L 89.9 22.321094L 112.2 33.121094L 134.6 21.221094ZM 112.2 33.121094L 110 21.221094L 88.6 15.321094L 89.9 22.321094ZM 88.6 15.321094L 71 34.921094L 93 40.321094L 110 21.221094ZM 93 40.321094L 90.1 28.921094L 67.8 21.921094L 71 34.921094ZM 67.8 21.921094L 48.4 38.721094L 68.2 48.021094L 90.1 28.921094ZM 68.2 48.021094L 68.6 30.021094L 48.6 29.521094L 48.4 38.721094Z" fill-rule="nonzero"></path></g></g></g><g id="g-root-2.cu_sy_1cy0xwkf0r9qf-fill" data-item-order="-479446" transform="translate(302, 520.5859375)"><g id="2.cu_sy_1cy0xwkf0r9qf-fill" stroke="none" fill="#c8ffe5"><g><path d="M 334.8 59.214062L 338.2 48.114063L 320.5 37.514063L 315.7 53.314062ZM 320.5 37.514063L 295.8 62.414063L 314.9 71.614063L 338.2 48.114063ZM 314.9 71.614063L 319.2 34.414063L 300.9 18.014063L 295.8 62.414063ZM 300.9 18.014063L 278.1 23.214062L 298.2 39.114063L 319.2 34.414063ZM 298.2 39.114063L 298.1 25.314062L 278.1 12.714062L 278.1 23.214062ZM 278.1 12.714062L 254.1 24.014063L 273.6 37.014063L 298.1 25.314062ZM 273.6 37.014063L 274 25.414063L 254.7 8.514063L 254.1 24.014063ZM 254.7 8.514063L 249 9.514063L 249.9 14.114063L 227.4 4.414063L 205.5 10.214062L 220.6 26.414063L 233 22.414063L 230.1 16.314062L 254.5 28.814062L 274 25.414063ZM 220.6 26.414063L 225.1 15.214062L 206.5 7.714062L 205.5 10.214062ZM 292.8 74.514063L 292.8 74.314062L 270.1 64.014063L 273.3 78.814062ZM 270.1 64.014063L 248.7 75.914063L 267 88.614063L 292.8 74.314062ZM 267 88.614063L 269.2 74.414063L 250.9 61.414063L 248.7 75.914063ZM 250.9 61.414063L 229.6 72.614063L 241.5 88.914063L 269.2 74.414063ZM 241.5 88.914063L 248.4 82.014063L 237 65.214062L 229.6 72.614063ZM 237 65.214062L 208 77.814062L 222.6 93.214062L 248.4 82.014063ZM 222.6 93.214062L 227.6 83.214062L 212.7 68.214062L 208 77.814062ZM 212.7 68.214062L 180.8 83.614063L 201.2 95.914063L 227.6 83.214062ZM 201.2 95.914063L 200.9 85.314062L 180.5 73.614063L 180.8 83.614063ZM 180.5 73.614063L 166.9 80.914063L 192.5 89.814062L 200.9 85.314062ZM 192.5 89.814062L 187.5 78.314062L 162.5 70.614063L 166.9 80.914063ZM 162.5 70.614063L 139.6 85.214062L 160.5 95.614063L 187.5 78.314062ZM 160.5 95.614063L 159.2 79.014063L 138.5 71.214062L 139.6 85.214062ZM 138.5 71.214062L 122.1 87.214062L 143.1 94.614063L 159.2 79.014063ZM 143.1 94.614063L 141.6 81.214062L 120.2 70.514063L 122.1 87.214062ZM 120.2 70.514063L 98.8 82.914063L 117.1 95.414063L 141.6 81.214062ZM 117.1 95.414063L 119.1 82.214062L 101.1 67.814062L 98.8 82.914063ZM 101.1 67.814062L 91.8 71.514063L 90.1 73.314062L 79.4 67.514063L 74.8 65.014063L 74.8 73.314062L 61.1 61.914063L 51.4 58.414063L 49.8 53.014063L 26.2 43.514063L 31.5 61.614063L 51.8 78.614063L 58.2 79.314062L 54.9 68.414063L 76.3 85.014063L 76.9 85.114063L 74.4 81.614063L 100.9 89.414063L 119.1 82.214062ZM 26.2 43.514063L 6.7 54.914063L 22.4 68.914063L 49.8 53.014063ZM 22.4 68.914063L 31.5 48.114063L 13.1 40.114063L 6.7 54.914063ZM 140.4 18.514063L 136.9 7.814062L 114.5 3.714062L 121.4 24.714062ZM 114.5 3.714062L 98.5 23.514063L 119.9 28.814062L 136.9 7.814062ZM 119.9 28.814062L 116.6 12.214062L 94.9 5.614063L 98.5 23.514063ZM 94.9 5.614063L 74 26.614063L 95.3 33.614063L 116.6 12.214062ZM 95.3 33.614063L 92.9 18.314062L 71.5 10.314062L 74 26.614063ZM 71.5 10.314062L 52.3 26.714062L 71 37.114063L 92.9 18.314062ZM 71 37.114063L 72.8 24.814062L 53.9 16.614063L 52.3 26.714062ZM 53.9 16.614063L 32.1 43.914063L 53.3 49.414063L 72.8 24.814062ZM 53.3 49.414063L 49.8 28.014063L 30.1 31.214062L 32.1 43.914063Z" fill-rule="nonzero"></path></g></g></g><g id="g-root-1.cu_sy_18i7fs4f0raio-fill" data-item-order="-479442" transform="translate(338, 529.958984375)"><g id="1.cu_sy_18i7fs4f0raio-fill" stroke="none" fill="#dce9ff"><g><path d="M 265.1 41.541016L 265.1 36.341016L 245.2 29.141016L 245.1 41.341016ZM 245.2 29.141016L 223.6 56.141016L 241.9 65.241016L 265.1 36.341016ZM 241.9 65.241016L 244.9 53.541016L 226.9 42.941016L 223.6 56.141016ZM 226.9 42.941016L 202.2 65.941016L 226.6 70.641016L 244.9 53.541016ZM 226.6 70.641016L 221.9 60.841016L 195.9 52.541016L 202.2 65.941016ZM 195.9 52.541016L 180.7 61.141016L 197.2 74.841016L 221.9 60.841016ZM 197.2 74.841016L 202.4 59.641016L 185.8 46.641016L 180.7 61.141016ZM 185.8 46.641016L 155.7 66.041016L 181.7 73.041016L 202.4 59.641016ZM 181.7 73.041016L 176.4 62.641016L 152.3 59.241016L 155.7 66.041016ZM 152.3 59.241016L 137.6 74.841016L 160.3 79.841016L 176.4 62.641016ZM 160.3 79.841016L 153.2 58.241016L 130.8 54.241016L 137.6 74.841016ZM 130.8 54.241016L 117.4 71.041016L 136.1 79.641016L 153.2 58.241016ZM 136.1 79.641016L 138.7 66.341016L 121 52.441016L 117.4 71.041016ZM 121 52.441016L 88.4 67.441016L 106.7 81.041016L 138.7 66.341016ZM 106.7 81.041016L 108.7 66.541016L 90.4 52.841016L 88.4 67.441016ZM 90.4 52.841016L 73.4 60.341016L 96.8 71.841016L 108.7 66.541016ZM 96.8 71.841016L 95.3 65.641016L 71.6 52.941016L 73.4 60.341016ZM 71.6 52.941016L 46.4 62.241016L 68.6 75.341016L 95.3 65.641016ZM 68.6 75.341016L 65.9 63.741016L 46.4 47.741016L 26.1 47.641016L 43.3 66.941016L 47.1 66.741016L 46.4 62.241016ZM 43.3 66.941016L 44.7 57.841016L 27.6 38.341016L 26.1 47.641016ZM 27.6 38.341016L 28.8 38.341016L 26.3 32.041016L 7.8 39.341016L 9.4 43.441016L 31.8 58.241016L 44.7 57.841016ZM 239.5 36.541016L 244.9 26.741016L 231.4 9.941016L 222 26.841016ZM 231.4 9.941016L 199.5 19.341016L 220.9 33.841016L 244.9 26.741016ZM 220.9 33.841016L 219.3 16.941016L 198.3 5.841016L 199.5 19.341016ZM 198.3 5.841016L 180.7 15.741016L 207.3 23.741016L 219.3 16.941016ZM 207.3 23.741016L 197.2 4.041016L 179.4 13.141016L 180.7 15.741016ZM 87.1 25.941016L 91.1 18.341016L 76.1 3.841016L 69.4 16.541016ZM 76.1 3.841016L 50.4 18.541016L 70.4 30.141016L 91.1 18.341016ZM 70.4 30.141016L 70.4 18.941016L 50.4 9.141016L 50.4 18.541016ZM 50.4 9.141016L 26.7 27.441016L 46.1 37.741016L 70.4 18.941016ZM 46.1 37.741016L 47.3 18.041016L 27.4 16.741016L 26.7 27.441016Z" fill-rule="nonzero"></path></g></g></g><g id="g-root-0.cu_sy_18i7fs4f0raip-fill" data-item-order="-479438" transform="translate(362, 325.561767578125)"><g id="0.cu_sy_18i7fs4f0raip-fill" stroke="none" fill="#ffe4cb"><g><path d="M 213.8 253.838141L 214.8 241.438141L 195.4 233.138141L 193.9 252.238141ZM 195.4 233.138141L 178.7 252.338141L 199.5 258.938141L 214.8 241.438141ZM 199.5 258.938141L 197.1 236.638141L 176.2 229.238141L 178.7 252.338141ZM 176.2 229.238141L 150.6 254.638141L 169.5 264.038141L 197.1 236.638141ZM 169.5 264.038141L 174.5 225.938141L 155.2 219.238141L 150.6 254.638141ZM 155.2 219.238141L 131.6 259.338141L 151.1 265.838141L 174.5 225.938141ZM 151.1 265.838141L 155.7 222.838141L 136.2 216.938141L 131.6 259.338141ZM 136.2 216.938141L 111.5 263.638141L 131.6 268.338141L 155.7 222.838141ZM 131.6 268.338141L 128.7 173.838141L 108.6 172.538141L 111.5 263.638141ZM 108.6 172.538141L 93.1 269.038141L 113.1 270.638141L 128.7 173.838141ZM 113.1 270.638141L 113.3 174.838141L 93.3 172.138141L 93.1 269.038141ZM 93.3 172.138141L 68.3 265.038141L 88.2 268.138141L 113.3 174.838141ZM 88.2 268.138141L 90.3 220.338141L 70.5 215.238141L 68.3 265.038141ZM 70.5 215.238141L 48.9 258.638141L 68.7 263.838141L 90.3 220.338141ZM 68.7 263.838141L 70.6 231.138141L 50.9 224.238141L 48.9 258.638141ZM 50.9 224.238141L 30.5 252.438141L 50.3 259.138141L 70.6 231.138141ZM 50.3 259.138141L 51.1 232.238141L 31.3 222.838141L 30.5 252.438141ZM 31.3 222.838141L 10.4 240.938141L 25.6 254.238141L 51.1 232.238141ZM 25.6 254.238141L 29.8 247.838141L 13.1 236.838141L 10.4 240.938141Z" fill-rule="nonzero"></path></g></g><g id="0.cu_sy_18i7fs4f0raip-fill" stroke="none" fill="#ffe4cb"><g><path d="M 116.4 9.938141L 106.7 10.638141L 102 31.038141L 117.8 29.938141ZM 102 31.038141L 135 49.938141L 141.2 30.438141L 106.7 10.638141ZM 141.2 30.438141L 89.2 25.838141L 83.4 45.438141L 135 49.938141ZM 83.4 45.438141L 126 67.838141L 128.8 46.738141L 89.2 25.838141ZM 128.8 46.738141L 97.7 53.638141L 102 73.138141L 126 67.838141ZM 114.8 88.938141L 114.1 88.938141L 99.8 109.238141L 115.2 108.938141ZM 99.8 109.238141L 107 130.738141L 121.9 112.338141L 114.1 88.938141ZM 121.9 112.338141L 110.9 111.038141L 108.7 130.938141L 107 130.738141Z" fill-rule="nonzero"></path></g></g></g><g id="g-root--1.vector_sy_zmkfj8f0rbbe-fill" data-item-order="-479433" transform="translate(674, 398)"></g><g id="g-root--1.vector_1_sy_zmkfj8f0rbbf-fill" data-item-order="-479429" transform="translate(230, 398)"></g><g id="g-root--1.vector_2_sy_zmkfj8f0rbbg-fill" data-item-order="-479425" transform="translate(626, 254)"></g><g id="g-root--1.vector_3_sy_v7dehwf0r8xx-fill" data-item-order="-479421" transform="translate(230, 254)"></g><g id="g-root--1.vector_4_sy_v7dehwf0r8xy-fill" data-item-order="-479417" transform="translate(578, 110)"></g><g id="g-root--1.vector_5_sy_v7dehwf0r8xz-fill" data-item-order="-479413" transform="translate(230, 110)"></g><g id="g-root-tx_develope_1luwwbof0rb4a-fill" data-item-order="0" transform="translate(770, 230)"><g id="tx_develope_1luwwbof0rb4a-fill" stroke="none" fill="#484848"><g><text style="font: bold 20px &quot;Shantell Sans&quot;, cursive; white-space: pre;" font-weight="bold" font-size="20px" font-family="'Shantell Sans', cursive"><tspan x="12" y="35" dominant-baseline="ideographic">Developer </tspan><tspan x="12" y="59" dominant-baseline="ideographic">Frustration</tspan></text></g></g></g><g id="g-root-outd_4otsisf0n1tv-fill" data-item-order="0" transform="translate(710, 230)"></g><g id="g-root-tx_morefreq_dg3e04f0rbb7-fill" data-item-order="0" transform="translate(2, 290)"><g id="tx_morefreq_dg3e04f0rbb7-fill" stroke="none" fill="#484848"><g><text style="font: 15px &quot;Shantell Sans&quot;, cursive; white-space: pre;" font-size="15px" font-family="'Shantell Sans', cursive"><tspan x="59.75" y="32" dominant-baseline="ideographic">More frequent </tspan><tspan x="17.14" y="50" dominant-baseline="ideographic">software errors and </tspan><tspan x="108.08" y="68" dominant-baseline="ideographic">glitches</tspan></text></g></g></g><g id="g-root-tx_risingst_dg3e04f0rbb8-fill" data-item-order="0" transform="translate(770, 290)"><g id="tx_risingst_dg3e04f0rbb8-fill" stroke="none" fill="#484848"><g><text style="font: 15px &quot;Shantell Sans&quot;, cursive; white-space: pre;" font-size="15px" font-family="'Shantell Sans', cursive"><tspan x="12" y="32" dominant-baseline="ideographic">Rising stress and </tspan><tspan x="12" y="50" dominant-baseline="ideographic">dissatisfaction among </tspan><tspan x="12" y="68" dominant-baseline="ideographic">developers</tspan></text></g></g></g><g id="g-root-bust_1464s6cf0u2h0-fill" data-item-order="0" transform="translate(170, 230)"></g><g id="g-root-tx_harderto_1luwwbof0rb4b-fill" data-item-order="0" transform="translate(2, 350)"><g id="tx_harderto_1luwwbof0rb4b-fill" stroke="none" fill="#484848"><g><text style="font: bold 20px &quot;Shantell Sans&quot;, cursive; white-space: pre;" font-weight="bold" font-size="20px" font-family="'Shantell Sans', cursive"><tspan x="60.61" y="35" dominant-baseline="ideographic">Harder to </tspan><tspan x="51.31" y="59" dominant-baseline="ideographic">Implement </tspan><tspan x="20.05" y="83" dominant-baseline="ideographic">New Features</tspan></text></g></g></g><g id="g-root-3_1hfpvacf0r8qt-fill" data-item-order="0" transform="translate(170, 374)"></g><g id="g-root-fall_dj7rfof12io6-fill" data-item-order="0" transform="translate(710, 374)"></g><g id="g-root-tx_riskofsy_1hfpvacf0r8qs-fill" data-item-order="0" transform="translate(770, 374)"><g id="tx_riskofsy_1hfpvacf0r8qs-fill" stroke="none" fill="#484848"><g><text style="font: bold 20px &quot;Shantell Sans&quot;, cursive; white-space: pre;" font-weight="bold" font-size="20px" font-family="'Shantell Sans', cursive"><tspan x="12" y="35" dominant-baseline="ideographic">Risk of System </tspan><tspan x="12" y="59" dominant-baseline="ideographic">Instability</tspan></text></g></g></g><g id="g-root-tx_increase_1uqjwkkf0rabl-fill" data-item-order="0" transform="translate(2, 230)"><g id="tx_increase_1uqjwkkf0rabl-fill" stroke="none" fill="#484848"><g><text style="font: bold 20px &quot;Shantell Sans&quot;, cursive; white-space: pre;" font-weight="bold" font-size="20px" font-family="'Shantell Sans', cursive"><tspan x="12.94" y="35" dominant-baseline="ideographic">Increased Bug </tspan><tspan x="57.83" y="59" dominant-baseline="ideographic">Frequency</tspan></text></g></g></g><g id="g-root-tx_increase_hvww4kf0raiy-fill" data-item-order="0" transform="translate(770, 146)"><g id="tx_increase_hvww4kf0raiy-fill" stroke="none" fill="#484848"><g><text style="font: 15px &quot;Shantell Sans&quot;, cursive; white-space: pre;" font-size="15px" font-family="'Shantell Sans', cursive"><tspan x="12" y="29" dominant-baseline="ideographic">Increased expenses </tspan><tspan x="12" y="47" dominant-baseline="ideographic">for system upkeep</tspan></text></g></g></g><g id="g-root-tx_impactof_qrjwdgf0r9q8-fill" data-item-order="0" transform="translate(296, 2)"><g id="tx_impactof_qrjwdgf0r9q8-fill" stroke="none" fill="#484848"><g><text style="font: bold 25px &quot;Shantell Sans&quot;, cursive; white-space: pre;" font-weight="bold" font-size="25px" font-family="'Shantell Sans', cursive"><tspan x="14.96" y="45" dominant-baseline="ideographic">Impact of Technical Debt</tspan></text></g></g></g><g id="g-root-tx_potentia_59cpwf0r9qe-fill" data-item-order="0" transform="translate(770, 434)"><g id="tx_potentia_59cpwf0r9qe-fill" stroke="none" fill="#484848"><g><text style="font: 15px &quot;Shantell Sans&quot;, cursive; white-space: pre;" font-size="15px" font-family="'Shantell Sans', cursive"><tspan x="12" y="29" dominant-baseline="ideographic">Potential for system </tspan><tspan x="12" y="47" dominant-baseline="ideographic">crashes and failures</tspan></text></g></g></g><g id="g-root-cost_1lynu04f0ohe7-fill" data-item-order="0" transform="translate(710, 86)"></g><g id="g-root-3_4l2uucf0vg97-fill" data-item-order="0" transform="translate(170, 86)"></g><g id="g-root-tx_decrease_59cpwf0r9qf-fill" data-item-order="0" transform="translate(38, 86)"><g id="tx_decrease_59cpwf0r9qf-fill" stroke="none" fill="#484848"><g><text style="font: bold 20px &quot;Shantell Sans&quot;, cursive; white-space: pre;" font-weight="bold" font-size="20px" font-family="'Shantell Sans', cursive"><tspan x="19.92" y="35" dominant-baseline="ideographic">Decreased </tspan><tspan x="45.44" y="59" dominant-baseline="ideographic">Velocity</tspan></text></g></g></g><g id="g-root-tx_higherma_1uqjwkkf0rabk-fill" data-item-order="0" transform="translate(770, 62)"><g id="tx_higherma_1uqjwkkf0rabk-fill" stroke="none" fill="#484848"><g><text style="font: bold 20px &quot;Shantell Sans&quot;, cursive; white-space: pre;" font-weight="bold" font-size="20px" font-family="'Shantell Sans', cursive"><tspan x="12" y="35" dominant-baseline="ideographic">Higher </tspan><tspan x="12" y="59" dominant-baseline="ideographic">Maintenance </tspan><tspan x="12" y="83" dominant-baseline="ideographic">Costs</tspan></text></g></g></g><g id="g-root-tx_slowerpr_hvww4kf0raix-fill" data-item-order="0" transform="translate(2, 146)"><g id="tx_slowerpr_hvww4kf0raix-fill" stroke="none" fill="#484848"><g><text style="font: 15px &quot;Shantell Sans&quot;, cursive; white-space: pre;" font-size="15px" font-family="'Shantell Sans', cursive"><tspan x="29.19" y="29" dominant-baseline="ideographic">Slower progress in </tspan><tspan x="23.44" y="47" dominant-baseline="ideographic">development cycles</tspan></text></g></g></g><g id="g-root-tx_challeng_4l2uucf0r8y5-fill" data-item-order="0" transform="translate(2, 434)"><g id="tx_challeng_4l2uucf0r8y5-fill" stroke="none" fill="#484848"><g><text style="font: 15px &quot;Shantell Sans&quot;, cursive; white-space: pre;" font-size="15px" font-family="'Shantell Sans', cursive"><tspan x="11.66" y="29" dominant-baseline="ideographic">Challenges in adding </tspan><tspan x="26.31" y="47" dominant-baseline="ideographic">new functionalities</tspan></text></g></g></g><g id="g-root-6.cu_sy_1q8uz6sf0rbb7-stroke" data-item-order="-479462" transform="translate(50, 485.125)"><g id="6.cu_sy_1q8uz6sf0rbb7-stroke" fill="none" stroke-linecap="round" stroke-linejoin="round" stroke-miterlimit="4" stroke="#484848" stroke-width="4"><g><path d="M 409.7 9.975C 374.8 8.775 340.8 10.575 308.7 13.975C 271.5 17.875 236.3 21.675 204 25.575C 172.4 29.275 144.2 37.275 119 42.975C 95.7 48.275 75.2 54.675 59.6 63.475C 43.6 72.475 29.7 79.075 21.5 87.975C 14.2 95.875 10.9 103.775 10 111.975C 8.9 121.775 14.7 132.675 26.3 140.375C 36.6 147.275 48.8 156.675 65.7 163.075C 82.2 169.375 101.6 175.975 123.6 182.175C 150.4 189.575 181.4 194.475 215.2 200.075C 245.2 204.975 277.8 207.775 312 210.175C 347.6 212.675 385.2 213.275 424 213.975C 463.8 214.675 502.4 213.375 538.8 209.975C 574.8 206.575 609 203.875 640.4 198.875C 667.5 194.675 693 191.175 715.2 184.475C 740.2 176.875 763.2 172.275 781 163.675C 798 155.275 811.3 146.975 822 140.075C 833.6 132.675 839.1 121.675 838 111.975C 837.2 104.975 834.4 98.575 829.6 91.375C 824.7 84.075 816 77.275 804.7 71.775C 793.8 66.475 781.6 58.675 766.2 54.475C 752.5 50.875 738 44.775 721.6 40.975C 703.4 36.875 683.5 33.175 662.4 28.575C 639.7 23.575 614.9 21.775 589.1 18.375C 565.1 15.275 539.8 14.375 513.7 12.375C 489.2 10.475 463.9 10.075 438 9.975C 439.8 12.375 440.7 15.675 441.4 19.075C 467.9 19.075 493.5 21.975 518.1 22.175C 541.8 22.275 564.5 25.175 585.5 28.875C 605.3 32.375 624.5 33.475 641.6 38.175C 658.6 42.775 674.8 45.475 689 49.775C 704.7 54.675 719.4 58.175 729.8 65.275C 739.9 72.175 749.8 75.875 755.5 82.175C 761.9 89.275 767.6 95.975 766 102.975C 764.1 111.175 760.9 119.475 751.5 127.175C 743.4 133.775 731.6 139.075 717.9 145.875C 704.2 152.775 686.8 156.875 667.6 161.875C 646.9 167.375 623.5 173.175 597.7 175.275C 570.9 177.475 542.3 183.275 511.6 184.175C 483.6 184.975 454.3 187.175 424 186.975C 402.7 186.775 381.9 185.775 361.6 185.575C 339.6 185.375 318.5 182.475 298.2 181.075C 278.4 179.675 259.9 175.075 242 174.075C 223.5 173.075 206.2 169.475 190.9 164.375C 174.9 159.075 159.6 156.275 146.4 151.975C 132.2 147.375 119.8 142.675 110.4 136.575C 101.3 130.475 93.5 125.475 88.7 119.575C 84.4 114.175 83.2 108.475 82 102.975C 80.1 93.875 87.1 83.175 99.4 76.475C 110.2 70.575 123.6 63.375 140.4 55.975C 160.3 47.275 186.1 42.675 214.8 36.475C 239.5 31.175 267 26.875 296.7 24.975C 330.9 22.675 367.8 20.175 406.3 19.075C 408 16.075 408.4 12.775 409.7 9.975"></path><path d="M 409.6809 10.0026C 187.6654 11.8618 10 56.7905 10 111.9427C 10 168.2758 195.3541 213.9427 424 213.9427C 652.6459 213.9427 838 168.2758 838 111.9427C 838 56.7644 660.1666 11.8194 438.0043 10C 439.1682 12.7567 440.2757 15.805 441.3792 19.0493C 622.1851 21.272 766 57.9823 766 102.9427C 766 149.3347 612.8813 186.9427 424 186.9427C 235.1186 186.9427 82 149.3347 82 102.9427C 82 58.0069 225.6575 21.3122 406.3239 19.053C 407.42 15.8085 408.5218 12.7598 409.6809 10.0026Z"></path></g></g></g><g id="g-root-5.cu_sy_1hdug10f0r8y4-stroke" data-item-order="-479458" transform="translate(122, 494.173828125)"><g id="5.cu_sy_1hdug10f0r8y4-stroke" fill="none" stroke-linecap="round" stroke-linejoin="round" stroke-miterlimit="4" stroke="#484848" stroke-width="4"><g><path d="M 334.3 10.026172C 300.9 12.026172 268.4 10.626172 238.3 14.626172C 205.9 19.026172 175.7 22.726172 148.3 26.426172C 122.4 29.926172 99 35.126172 80.1 42.926172C 57.9 52.126172 39.1 58.626172 27.1 67.626172C 16 75.926172 10 84.726172 10 93.926172C 10 103.726172 17.7 112.226172 29.6 122.026172C 39.8 130.326172 55.6 135.826172 73.8 142.726172C 95.3 151.026172 122.1 158.526172 152.7 162.126172C 181 165.526172 212 170.226172 245.4 173.726172C 278.9 177.226172 314.8 178.226172 352 177.926172C 371.3 177.726172 390.3 175.626172 408.7 176.726172C 425.6 177.726172 442.2 174.626172 458.2 173.726172C 476.7 172.826172 494.3 169.026172 511.3 168.226172C 526.1 167.526172 540.2 165.326172 553.3 161.826172C 567.7 157.926172 582.1 157.126172 594.6 153.126172C 606.2 149.426172 618 148.626172 627.2 143.726172C 636.2 139.126172 645.2 136.526172 653.2 133.726172C 661.6 130.726172 668.4 126.126172 674.2 122.126172C 680.9 117.526172 685.4 112.326172 689.3 107.826172C 692.9 103.726172 693.9 98.626172 694 93.926172C 694.2 85.026172 687.6 77.526172 678.2 68.526172C 668 58.926172 650.5 52.226172 629.7 44.826172C 608.3 37.326172 582.3 29.426172 552.3 25.826172C 527.3 22.726172 500.3 16.726172 471.1 15.126172C 439.1 13.326172 405 9.026172 369.4 10.026172C 369.5 12.726172 370.4 15.726172 372.1 18.226172C 372.2 18.426172 372.2 18.826172 372.4 19.126172C 406.8 20.226172 439.8 20.026172 469.1 25.426172C 497.2 30.526172 523.3 32.426172 544.9 38.726172C 568.7 45.626172 589.1 50.826172 601.7 59.726172C 614.1 68.526172 622.5 76.026172 622 84.926172C 621.7 90.926172 618.8 96.826172 612.5 102.326172C 606.7 107.326172 599.1 113.626172 588.3 116.826172C 575.3 120.826172 560.5 128.226172 542.3 131.726172C 525.2 134.926172 506.4 140.626172 485.4 142.326172C 464.5 143.926172 442 146.026172 418.4 148.926172C 397.3 151.426172 374.9 152.126172 352 150.926172C 323.4 149.326172 295.6 151.426172 269.9 147.826172C 240.8 143.726172 213.5 141.526172 189.3 137.526172C 169.4 134.326172 151.7 129.826172 136.8 124.726172C 119.4 118.826172 105.9 111.926172 96 105.926172C 86.4 100.126172 82.1 92.226172 82 84.926172C 81.8 75.626172 89.4 66.026172 103.9 58.826172C 118.1 51.726172 137.2 42.726172 161.9 38.026172C 184.5 33.726172 210.3 26.426172 239.4 24.926172C 267.9 23.326172 298.8 18.226172 331.4 19.126172C 331.5 18.926172 331.5 18.626172 331.6 18.426172C 333.3 15.926172 333.4 12.726172 334.3 10.026172"></path><path d="M 334.3239 10.0037C 153.6575 12.2629 10 48.9576 10 93.8934C 10 140.2853 163.1186 177.8934 352 177.8934C 540.8813 177.8934 694 140.2853 694 93.8934C 694 48.933 550.1851 12.2227 369.3792 10C 370.2707 12.6208 371.1595 15.3695 372.0735 18.1959C 372.1683 18.4892 372.2634 18.7833 372.3588 19.0782C 511.966 21.6223 622 50.1168 622 84.8934C 622 121.3442 501.1169 150.8934 352 150.8934C 202.8831 150.8934 82 121.3442 82 84.8934C 82 50.1395 191.8903 21.6595 331.3677 19.0832C 331.4386 18.8622 331.5093 18.6416 331.5798 18.4215C 332.5103 15.5173 333.4152 12.6932 334.3239 10.0037Z"></path></g></g></g><g id="g-root-4.cu_sy_1hdug10f0r8y5-stroke" data-item-order="-479454" transform="translate(194, 503.251953125)"><g id="4.cu_sy_1hdug10f0r8y5-stroke" fill="none" stroke-linecap="round" stroke-linejoin="round" stroke-miterlimit="4" stroke="#484848" stroke-width="4"><g><path d="M 259.4 10.048047C 212.2 10.548047 168.5 15.048047 131.1 20.748047C 98.1 25.848047 69.5 31.648047 49.5 41.448047C 25.2 53.248047 10 63.248047 10 75.848047C 10 85.748047 18.7 95.748047 35.1 103.648047C 48.5 110.148047 66.6 115.248047 87.8 122.148047C 110.1 129.448047 137.4 132.848047 167.3 135.848047C 201.6 139.148047 239.8 141.048047 280 141.848047C 312.3 142.448047 343.5 141.648047 372.1 137.848047C 397.1 134.648047 420.4 130.748047 441.7 128.648047C 463.7 126.548047 483.4 121.748047 498.6 114.548047C 515.2 106.648047 530.7 103.248047 538.4 94.948047C 545 87.948047 549.4 82.448047 550 75.848047C 550.4 70.948047 547.8 66.248047 543.8 61.648047C 540 57.248047 535 51.748047 527.3 49.248047C 518.5 46.448047 508.7 41.348047 497.1 36.548047C 486.9 32.348047 475 28.248047 461.7 26.948047C 447.9 25.648047 433.5 19.548047 417.4 18.948047C 399.6 18.448047 380.9 13.748047 360.9 12.848047C 341.6 11.948047 321.3 10.748047 300.4 10.048047C 301.7 12.848047 302.3 16.048047 303.4 19.148047C 334.9 20.248047 364.3 22.648047 390.1 26.348047C 421.4 30.948047 447.6 37.148047 464.8 45.548047C 480.6 53.348047 491.1 61.148047 490 69.848047C 489.4 74.248047 487.3 78.348047 483.1 82.848047C 478.5 87.648047 471.4 93.148047 461.4 95.548047C 452.3 97.648047 442.4 102.348047 430.6 105.348047C 417.8 108.648047 403.3 111.648047 387.4 113.648047C 371.7 115.648047 354.7 117.648047 336.7 118.948047C 318.6 120.248047 299.6 121.948047 280 120.848047C 261.6 119.748047 243.6 120.148047 226.6 119.148047C 207.8 118.048047 189.9 116.948047 173.6 113.748047C 158.8 110.948047 144.4 110.748047 132.7 106.148047C 121.4 101.748047 110.5 99.648047 101.5 96.748047C 91.3 93.348047 84 87.948047 78.2 83.948047C 72.5 80.048047 70.6 74.648047 70 69.848047C 69.4 65.048047 73.5 61.048047 77.9 55.848047C 82.6 50.348047 91.5 45.848047 102.4 42.648047C 114 39.048047 128 35.848047 143.7 31.048047C 159.1 26.248047 177.3 24.548047 196.8 22.948047C 215.4 21.548047 235.4 19.148047 256.4 19.148047C 256.8 15.948047 258.9 13.148047 259.4 10.048047"></path><path d="M 259.3677 10.005C 119.8903 12.5813 10 41.0613 10 75.8152C 10 112.266 130.8831 141.8152 280 141.8152C 429.1169 141.8152 550 112.266 550 75.8152C 550 41.0386 439.966 12.5441 300.3588 10C 301.3236 12.9821 302.3193 16.0441 303.3777 19.1276C 408.3552 21.9514 490 43.5678 490 69.8152C 490 97.9817 395.9798 120.8152 280 120.8152C 164.0202 120.8152 70 97.9817 70 69.8152C 70 43.5879 151.5195 21.9846 256.3805 19.1342C 257.4265 16.0505 258.4117 12.988 259.3677 10.005Z"></path></g></g></g><g id="g-root-3.cu_sy_1cy0xwkf0r9qe-stroke" data-item-order="-479450" transform="translate(254, 512.37890625)"><g id="3.cu_sy_1cy0xwkf0r9qe-stroke" fill="none" stroke-linecap="round" stroke-linejoin="round" stroke-miterlimit="4" stroke="#484848" stroke-width="4"><g><path d="M 196.4 10.021094C 160.3 10.321094 127 14.821094 98.8 19.021094C 70.2 23.321094 46.5 29.321094 31.6 38.121094C 18.4 46.021094 9.9 52.621094 10 60.721094C 10.1 70.221094 20.2 80.521094 39.3 86.721094C 56.9 92.321094 80.2 98.721094 108.3 103.921094C 140.5 109.821094 178.9 111.621094 220 111.721094C 258.5 111.721094 294.5 107.621094 325.7 104.721094C 359.5 101.621094 387.8 94.821094 405.3 84.721094C 420.3 76.021094 430 69.421094 430 60.721094C 430 55.021094 425.8 50.221094 419.2 44.521094C 413 39.121094 403.4 34.021094 391.1 31.121094C 380.7 28.721094 369.2 23.821094 355.8 21.821094C 339.6 19.321094 321.7 15.721094 302.1 13.721094C 283.7 11.921094 264 10.621094 243.4 10.021094C 244.8 12.521094 245.1 15.621094 246.4 18.221094C 287.8 20.121094 324.3 24.621094 348.5 33.121094C 369.3 40.421094 381.3 48.121094 382 57.221094C 382.3 61.121094 380.1 65.621094 375.2 68.521094C 369.3 72.021094 361.4 76.521094 350.7 80.521094C 341.4 84.021094 329.7 85.321094 317.2 88.821094C 303.5 92.621094 287.3 92.721094 270.3 94.721094C 254.5 96.621094 237.5 98.121094 220 96.721094C 178.2 93.321094 139.5 94.221094 111 86.421094C 78.8 77.621094 58.7 68.721094 58 57.221094C 57.5 47.721094 71.7 39.321094 94.3 32.321094C 118.6 24.721094 153.6 18.921094 193.4 18.221094C 194.9 15.721094 195.9 12.821094 196.4 10.021094"></path><path d="M 196.3805 10.0065C 91.5195 12.857 10 34.4603 10 60.6875C 10 88.8541 104.0202 111.6875 220 111.6875C 335.9798 111.6875 430 88.8541 430 60.6875C 430 34.4401 348.3552 12.8238 243.3777 10C 244.3157 12.7324 245.3029 15.4819 246.3617 18.2079C 323.2938 21.2777 382 37.561 382 57.1875C 382 79.0028 309.4701 96.6875 220 96.6875C 130.5299 96.6875 58 79.0028 58 57.1875C 58 37.5784 116.6021 21.3066 193.4337 18.2161C 194.4783 15.49 195.4533 12.7399 196.3805 10.0065Z"></path></g></g></g><g id="g-root-2.cu_sy_1cy0xwkf0r9qf-stroke" data-item-order="-479446" transform="translate(302, 520.5859375)"><g id="2.cu_sy_1cy0xwkf0r9qf-stroke" fill="none" stroke-linecap="round" stroke-linejoin="round" stroke-miterlimit="4" stroke="#484848" stroke-width="4"><g><path d="M 145.4 10.014063C 108.2 11.814062 75.1 15.514063 51.2 22.614063C 25.8 30.314062 10.3 38.914063 10 49.014063C 9.8 56.114063 17.2 64.714062 31.5 68.614063C 46 72.614063 65.3 79.114063 89.2 82.914063C 113.4 86.814062 141.7 88.214062 172 88.514063C 203.9 88.714062 233.6 86.214062 258.7 82.314062C 279.1 79.214062 296.6 75.514063 309.3 70.014063C 324.6 63.214062 332.8 56.614063 334 49.014063C 335.6 39.114063 318.9 29.414063 293.6 22.914063C 269.3 16.614063 236 13.214062 198.4 10.014063C 199.2 13.314062 201.1 16.214062 202.4 19.414063C 229.7 22.114063 253.8 24.314062 270.6 30.014063C 287.6 35.714062 299.3 41.914063 298 49.014063C 296.4 57.514063 282.7 64.914063 258.5 71.114063C 236.1 76.914063 205.4 77.614063 172 79.514063C 148.7 80.814062 126.9 77.314062 108.1 75.314062C 88.3 73.114063 72.2 68.014063 61.1 63.514063C 51.4 59.414063 47.1 54.114063 46 49.014063C 44.5 42.114063 56.4 37.314062 72.1 30.414063C 88.5 23.214062 113.5 21.914063 141.5 19.414063C 143 16.414063 144.4 13.214062 145.4 10.014063"></path><path d="M 145.4337 10.008201C 68.6021 13.0987 10 29.370501 10 48.9796C 10 70.794901 82.5299 88.4796 172 88.4796C 261.4701 88.4796 334 70.794901 334 48.9796C 334 29.3531 275.2938 13.069801 198.3617 10.000001C 199.5958 13.1774 200.9272 16.323001 202.391 19.3727C 257.2975 22.6643 298 34.671401 298 48.9796C 298 65.824301 241.5879 79.4796 172 79.4796C 102.4121 79.4796 46 65.824301 46 48.9796C 46 34.6843 86.6291 22.686 141.4603 19.3817C 142.9028 16.332601 144.2157 13.186601 145.4337 10.008201Z"></path></g></g></g><g id="g-root-1.cu_sy_18i7fs4f0raio-stroke" data-item-order="-479442" transform="translate(338, 529.958984375)"><g id="1.cu_sy_18i7fs4f0raio-stroke" fill="none" stroke-linecap="round" stroke-linejoin="round" stroke-miterlimit="4" stroke="#484848" stroke-width="4"><g><path d="M 105.5 10.041016C 78.5 13.341016 54.7 15.141016 37.8 20.541016C 20.5 25.941016 10.6 32.441016 10 39.641016C 9.4 47.241016 22.1 53.341016 41.3 59.741016C 64 67.341016 98.3 68.841016 136 70.141016C 171.8 71.341016 204.7 68.141016 227.1 60.641016C 248.3 53.641016 263.4 47.641016 262 39.641016C 261.1 34.441016 257 28.441016 247.2 25.241016C 238.1 22.341016 226 19.341016 211.8 15.241016C 198.8 11.541016 183.1 11.041016 166.4 10.041016C 167.4 12.441016 169.5 14.441016 170.1 16.941016C 209.8 18.841016 237.4 29.141016 238 39.641016C 238.2 44.041016 232.3 46.841016 224.1 51.741016C 216.5 56.241016 204.5 58.941016 190.6 59.841016C 174.7 60.941016 156 65.541016 136 63.641016C 109.6 61.141016 85.3 61.141016 67.1 57.341016C 46.7 53.041016 33 46.541016 34 39.641016C 35.5 29.241016 62.3 20.241016 101.8 17.041016C 103.3 14.841016 104.3 12.341016 105.5 10.041016"></path><path d="M 105.4603 10.0089C 50.6291 13.3132 10 25.3115 10 39.6069C 10 56.4516 66.4121 70.1069 136 70.1069C 205.5879 70.1069 262 56.4516 262 39.6069C 262 25.2986 221.2975 13.2915 166.391 10C 167.5421 12.3981 168.7751 14.737 170.1072 16.9854C 209.6677 20.2872 237.9999 29.1705 237.9999 39.6108C 237.9999 52.8656 192.3327 63.6108 135.9995 63.6108C 79.6662 63.6108 33.999 52.8656 33.999 39.6108C 33.999 29.1787 62.2868 20.3012 101.7986 16.9932C 103.1108 14.7459 104.3257 12.4074 105.4603 10.0089Z"></path></g></g></g><g id="g-root-0.cu_sy_18i7fs4f0raip-stroke" data-item-order="-479438" transform="translate(362, 325.561767578125)"><g id="0.cu_sy_18i7fs4f0raip-stroke" fill="none" stroke-linecap="round" stroke-linejoin="round" stroke-miterlimit="4" stroke="#484848" stroke-width="4"><g><path d="M 91.6 187.038141C 97 169.638141 101.9 156.238141 111.8 155.138141C 121.8 154.038141 127.4 169.238141 132.1 186.838141C 135.1 198.338141 140.4 210.438141 146.1 221.338141C 185.5 226.238141 215.2 233.638141 214 244.038141C 213.2 250.938141 201.4 256.738141 181.4 261.538141C 163.3 266.038141 138.8 266.738141 112 268.038141C 92.5 268.938141 73.9 268.138141 58.7 264.438141C 44.1 260.938141 31.6 258.938141 23 255.738141C 14.6 252.638141 11.1 248.138141 10 244.038141C 7.4 233.938141 38.4 225.738141 77.8 221.438141C 84.1 210.938141 89.2 198.638141 91.6 187.038141M 50.2 244.038141C 63.1 242.838141 71.5 232.138141 77.8 221.438141M 146.1 221.338141C 152.4 232.038141 160.9 242.038141 173.8 244.038141"></path><path d="M 91.5808 187.032563C 97.1439 169.669663 101.7895 155.170563 111.8222 155.170563C 121.8442 155.170563 126.4906 169.539263 132.0744 186.806963C 135.7476 198.166163 139.8265 210.779863 146.1082 221.383063C 185.6687 224.684863 214.0009 233.568163 214.0009 244.008463C 214.0009 257.263263 168.3337 268.008463 112.0004 268.008463C 55.6672 268.008463 10 257.263263 10 244.008463C 10 233.576363 38.2878 224.698863 77.7996 221.390863C 83.9442 210.866763 87.9571 198.342163 91.5808 187.032563ZM 50.209961 244.009054C 62.828761 240.931454 71.497761 232.100354 77.799661 221.391254M 146.108161 221.383454C 152.445561 231.976454 161.184161 240.806254 173.792561 244.009054"></path></g></g><g id="0.cu_sy_18i7fs4f0raip-stroke" fill="none" stroke-linecap="round" stroke-linejoin="round" stroke-miterlimit="4" stroke="#484848" stroke-width="4"><g><path d="M 82 40.038141C 82.1 56.538141 95.5 71.138141 112 70.038141C 128.5 68.938141 141 56.538141 142 40.038141C 143 23.438141 128.5 10.838141 112 10.038141C 95.4 9.238141 83.2 23.438141 82 40.038141M 94 112.438141C 94.5 122.338141 102.2 128.838141 112 130.438141C 121.8 132.038141 131.3 122.338141 130 112.438141C 128.7 102.538141 121.8 95.938141 112 94.438141C 102.2 92.938141 93.6 102.538141 94 112.438141"></path><path d="M 82.000702 40.008007C 81.996081 56.579619 95.428732 70.016017 112.000346 70.016017C 128.57196 70.016017 142.004611 56.579619 141.99999 40.008006C 142.004611 23.436393 128.57196 9.999995 112.000346 9.999995C 95.428732 9.999995 81.996081 23.436393 82.000702 40.008006M 94 112.437939C 94.000001 122.379004 102.058826 130.437829 111.99989 130.437829C 121.940954 130.437829 129.999779 122.379004 129.999779 112.437939C 129.999779 102.496875 121.940954 94.43805 111.99989 94.43805C 102.058826 94.43805 94.000001 102.496875 94.000001 112.437939"></path></g></g></g><g id="g-root--1.vector_sy_zmkfj8f0rbbe-stroke" data-item-order="-479433" transform="translate(674, 398)"><g id="-1.vector_sy_zmkfj8f0rbbe-stroke" fill="none" stroke-linecap="round" stroke-linejoin="round" stroke-miterlimit="4" stroke="#484848" stroke-width="2"><style>.fillAsStrokeColor-hs5yg4h8s9aa { fill:#484848; }</style><g><path d="M 34 10C 30 10.6 26 9.9 22 10C 15.4 10.2 8.9 15.5 10 22.1C 12.3 35.4 10.9 49.2 10 62.7C 8.9 78.8 8.5 95 10 111"></path><path d="M 34 10L 22 10C 15.3726 10 10 15.4062 10 22.075L 10 111"></path><path d="M 7 111C 7.3 112.6 8.3 114.1 10 114C 11.7 113.9 13.4 112.6 13 111C 12.6 109.4 11.6 108.4 10 108C 8.4 107.6 6.8 109.3 7 111" stroke-dasharray="none" class="fillAsStrokeColor-hs5yg4h8s9aa"></path><path d="M 7 111C 7 112.656857 8.343146 114.000003 10 114.000003C 11.656854 114.000003 13 112.656857 13 111.000003C 13 109.343149 11.656854 108.000003 10 108.000003C 8.343146 108.000003 7 109.343149 7 111.000003Z" stroke-dasharray="none" class="fillAsStrokeColor-hs5yg4h8s9aa"></path></g></g></g><g id="g-root--1.vector_1_sy_zmkfj8f0rbbf-stroke" data-item-order="-479429" transform="translate(230, 398)"><g id="-1.vector_1_sy_zmkfj8f0rbbf-stroke" fill="none" stroke-linecap="round" stroke-linejoin="round" stroke-miterlimit="4" stroke="#484848" stroke-width="2"><style>.fillAsStrokeColor-4hbx5wh8s7pf { fill:#484848; }</style><g><path d="M 10 10C 14 9.9 18 9.8 22 10C 28.6 10.3 33.4 15.5 34 22.1C 36.8 56 32.9 90.1 34 124"></path><path d="M 10 10L 22 10C 28.6274 10 34 15.4351 34 22.1395L 34 124"></path><path d="M 31 124C 31.1 125.7 32.3 126.9 34 127C 35.7 127.1 37.5 125.6 37 124C 36.5 122.4 35.6 120.5 34 121C 32.4 121.5 31 122.3 31 124" stroke-dasharray="none" class="fillAsStrokeColor-4hbx5wh8s7pf"></path><path d="M 31 124C 31.000001 125.656858 32.343146 127.000003 34.000001 127.000003C 35.656855 127.000003 37.000001 125.656858 37.000001 124.000003C 37.000001 122.343149 35.656855 121.000003 34.000001 121.000003C 32.343146 121.000003 31.000001 122.343149 31.000001 124.000003Z" stroke-dasharray="none" class="fillAsStrokeColor-4hbx5wh8s7pf"></path></g></g></g><g id="g-root--1.vector_2_sy_zmkfj8f0rbbg-stroke" data-item-order="-479425" transform="translate(626, 254)"><g id="-1.vector_2_sy_zmkfj8f0rbbg-stroke" fill="none" stroke-linecap="round" stroke-linejoin="round" stroke-miterlimit="4" stroke="#484848" stroke-width="2"><style>.fillAsStrokeColor-4hbx5wh8s7pg { fill:#484848; }</style><g><path d="M 82 10C 66.1 11.8 50 9.3 34 10C 20.8 10.6 9.4 20.8 10 34.1C 10.8 52.1 10.1 70.2 10 88.2C 9.9 108.1 8.8 128.1 10 148C 11.2 168 10.6 188 10 208.1C 9.3 229.4 8.6 250.7 10 272"></path><path d="M 82 10L 34 10C 20.7452 10 10 20.7786 10 34.0748L 10 272"></path><path d="M 7 272C 7.3 273.6 8.3 275.1 10 275C 11.7 274.9 13.2 273.6 13 272C 12.8 270.4 11.6 269.1 10 269C 8.3 268.9 6.6 270.4 7 272" stroke-dasharray="none" class="fillAsStrokeColor-4hbx5wh8s7pg"></path><path d="M 7 272C 7 273.656862 8.343146 275.000008 10 275.000008C 11.656854 275.000008 13 273.656862 13 272.000008C 13 270.343154 11.656854 269.000008 10 269.000008C 8.343146 269.000008 7 270.343154 7 272.000008Z" stroke-dasharray="none" class="fillAsStrokeColor-4hbx5wh8s7pg"></path></g></g></g><g id="g-root--1.vector_3_sy_v7dehwf0r8xx-stroke" data-item-order="-479421" transform="translate(230, 254)"><g id="-1.vector_3_sy_v7dehwf0r8xx-stroke" fill="none" stroke-linecap="round" stroke-linejoin="round" stroke-miterlimit="4" stroke="#484848" stroke-width="2"><style>.fillAsStrokeColor-1umsyw4h8s8b1 { fill:#484848; }</style><g><path d="M 10 10C 25.9 8.6 42 9 58 10C 71.2 10.9 83.1 20.9 82 34.1C 80.8 49.7 81.9 65.4 82 81.1C 82.1 99.9 80.8 118.7 82 137.5C 83.2 154.9 81.1 172.5 82 189.9C 82.9 207.2 81.4 224.6 82 241.9C 82.5 256.9 81 272 82 287"></path><path d="M 10 10L 58 10C 71.2548 10 82 20.8093 82 34.1433L 82 287"></path><path d="M 79 287C 79.2 288.6 80.3 289.9 82 290C 83.7 290.1 84.4 288.5 85 287C 85.6 285.5 83.7 283.9 82 284C 80.3 284.1 78.9 285.4 79 287" stroke-dasharray="none" class="fillAsStrokeColor-1umsyw4h8s8b1"></path><path d="M 79 287C 79.000002 288.656863 80.343148 290.000008 82.000002 290.000008C 83.656856 290.000008 85.000002 288.656863 85.000002 287.000008C 85.000002 285.343154 83.656856 284.000008 82.000002 284.000008C 80.343148 284.000008 79.000002 285.343154 79.000002 287.000008Z" stroke-dasharray="none" class="fillAsStrokeColor-1umsyw4h8s8b1"></path></g></g></g><g id="g-root--1.vector_4_sy_v7dehwf0r8xy-stroke" data-item-order="-479417" transform="translate(578, 110)"><g id="-1.vector_4_sy_v7dehwf0r8xy-stroke" fill="none" stroke-linecap="round" stroke-linejoin="round" stroke-miterlimit="4" stroke="#484848" stroke-width="2"><style>.fillAsStrokeColor-1umsyw4h8s8b2 { fill:#484848; }</style><g><path d="M 130 10C 115.7 8.3 101.1 10.7 86.7 10C 73.3 9.4 59.8 9.2 46.3 10C 26.3 11.1 9.8 26.1 10 46C 10.2 73 10 100 10 127C 10 151.5 9.6 175.9 10 200.3C 10.4 224.6 10.1 248.9 10 273.1C 9.9 299.4 9.7 325.7 10 351.9C 10.3 378.6 10.9 405.3 10 432"></path><path d="M 130 10L 46.3025 10C 26.2532 10 10 26.1178 10 46L 10 432"></path><path d="M 7 432C 6.6 433.6 8.4 434.8 10 435C 11.6 435.2 13.5 433.6 13 432C 12.5 430.4 11.6 428.9 10 429C 8.3 429.1 7 430.3 7 432" stroke-dasharray="none" class="fillAsStrokeColor-1umsyw4h8s8b2"></path><path d="M 7 432C 7 433.656867 8.343146 435.000013 10 435.000013C 11.656854 435.000013 13 433.656867 13 432.000013C 13 430.343158 11.656854 429.000013 10 429.000013C 8.343146 429.000013 7 430.343158 7 432.000013Z" stroke-dasharray="none" class="fillAsStrokeColor-1umsyw4h8s8b2"></path></g></g></g><g id="g-root--1.vector_5_sy_v7dehwf0r8xz-stroke" data-item-order="-479413" transform="translate(230, 110)"><g id="-1.vector_5_sy_v7dehwf0r8xz-stroke" fill="none" stroke-linecap="round" stroke-linejoin="round" stroke-miterlimit="4" stroke="#484848" stroke-width="2"><style>.fillAsStrokeColor-1q6zgroh8s93b { fill:#484848; }</style><g><path d="M 10 10C 24.9 9 40 8.6 54.9 10C 67.9 11.2 81 9.5 94 10C 113.9 10.7 130 26.1 130 46C 130 63.8 130.5 81.6 130 99.3C 129.5 116.3 130.9 133.3 130 150.2C 129.2 165 129.2 179.9 130 194.7C 131 212.9 131.5 231.1 130 249.2C 128.5 266.8 130.1 284.5 130 302.1C 129.9 318.6 130.3 335.2 130 351.7C 129.7 367.3 131.1 383 130 398.6C 128.9 414.7 131.9 431 130 447"></path><path d="M 10 10L 94 10C 113.8822 10 130 26.1177 130 46L 130 447"></path><path d="M 127 447C 127.5 448.6 128.4 449.8 130 450C 131.6 450.2 132.5 448.6 133 447C 133.5 445.4 131.7 444 130 444C 128.3 444 127.5 445.4 127 447" stroke-dasharray="none" class="fillAsStrokeColor-1q6zgroh8s93b"></path><path d="M 127 447C 127.000004 448.656867 128.343149 450.000013 130.000004 450.000013C 131.656858 450.000013 133.000004 448.656867 133.000004 447.000013C 133.000004 445.343159 131.656858 444.000013 130.000004 444.000013C 128.343149 444.000013 127.000004 445.343159 127.000004 447.000013Z" stroke-dasharray="none" class="fillAsStrokeColor-1q6zgroh8s93b"></path></g></g></g><g id="g-root-tx_develope_1luwwbof0rb4a-stroke" data-item-order="0" transform="translate(770, 230)"></g><g id="g-root-outd_4otsisf0n1tv-stroke" data-item-order="0" transform="translate(710, 230)"><g id="outd_4otsisf0n1tv-stroke" fill="none" stroke-linecap="round" stroke-linejoin="round" stroke-miterlimit="4" stroke="#484848" stroke-width="2"><g><path d="M 34 27.142857C 34.685715 30.914286 37.085716 34.342857 40.857143 34C 44.628574 33.657143 47.371429 30.914286 47.714287 27.142857C 48.057144 23.371429 44.628574 19.6 40.857143 20.285715C 37.085716 20.971428 34 23.371429 34 27.142857M 40.857143 40.857143C 44.971428 40.171429 49.771431 41.885715 51.828571 45.314285C 53.542858 49.085712 55.942856 52.171429 56.285713 56.285713M 32.285713 39.142857C 25.428572 40.171429 18.228571 41.542858 11.714286 39.142857C 13.428572 44.628574 13.771429 50.457146 15.142858 56.285713C 22 55.257141 28.857143 56.285713 35.714287 56.285713C 36.399998 50.457146 35.371429 44.285713 32.285713 39.142857M 22 47.714287C 23.028572 47.371429 24.4 48.057144 25.428572 47.714287M 35.714287 56.285713C 39.142857 56.971428 42.57143 55.257141 46 56.285713M 28.857143 11.714286C 29.885715 11.371428 31.257143 11.714286 32.285713 11.714286M 23.714287 23.714287C 24.742859 24.4 25.428572 25.771429 26.114285 26.114285M 11.714286 28.857143C 11.714286 29.885715 11.714286 31.257143 11.714286 32.285713M 22 11.714286C 23.714287 17.199999 17.199999 23.714287 11.714286 22"></path><path d="M 34 27.142857C 34 30.929953 37.070049 34 40.857143 34C 44.644238 34 47.714287 30.929953 47.714287 27.142857C 47.714287 23.355762 44.644238 20.285715 40.857143 20.285715C 37.070049 20.285715 34 23.355762 34 27.142857M 40.857143 40.857143C 44.951847 40.848011 48.88147 42.470589 51.776871 45.365986C 54.672268 48.261387 56.294846 52.19101 56.285713 56.285713M 32.285713 39.142857L 11.714286 39.142857L 15.142858 56.285713L 35.714287 56.285713L 32.285713 39.142857ZM 22 47.714287L 25.428572 47.714287M 35.714287 56.285713L 46 56.285713M 28.857143 11.714286L 32.285713 11.714286M 23.851429 23.851429L 26.251429 26.251429M 11.714286 28.857143L 11.714286 32.285713M 22 11.714286C 22 17.39493 17.39493 22 11.714286 22"></path></g></g></g><g id="g-root-tx_morefreq_dg3e04f0rbb7-stroke" data-item-order="0" transform="translate(2, 290)"></g><g id="g-root-tx_risingst_dg3e04f0rbb8-stroke" data-item-order="0" transform="translate(770, 290)"></g><g id="g-root-bust_1464s6cf0u2h0-stroke" data-item-order="0" transform="translate(170, 230)"><g id="bust_1464s6cf0u2h0-stroke" fill="none" stroke-linecap="round" stroke-linejoin="round" stroke-miterlimit="4" stroke="#484848" stroke-width="2"><g><path d="M 49.599998 49.799999C 52.200001 51.799999 54.799999 54.400002 56.799999 57M 33.200001 43C 32.599998 48.200001 37.799999 54.200001 42.799999 52.599998C 47.799999 51 53 48.200001 52.200001 43C 51.599998 37.799999 47.799999 32.200001 42.799999 33.599998C 37.799999 35 33.599998 37.799999 33.200001 43M 11.6 54.200001C 12 54.200001 12.2 54.200001 12.6 54.200001M 17.200001 54.200001C 17.4 54.200001 17.799999 54.200001 18.200001 54.200001M 24.6 54.200001C 25 54.200001 25.4 54.200001 25.6 54.200001M 40.599998 46.799999C 41.200001 46.400002 41.200001 46 41.799999 45.599998M 42.799999 40.200001C 42.799999 39.799999 42.599998 39.200001 42.799999 38.599998M 32.200001 29.799999C 32.599998 30.200001 32.799999 30.6 33.200001 31M 31 54.200001C 31.4 54.200001 31.799999 54.200001 32.200001 54.200001M 21.4 22.799999C 22 22.200001 22.6 21.799999 23 21C 23.799999 20 25.6 20.200001 26.6 21C 27 21.6 27.6 22.200001 28.200001 22.6C 29.799999 23.799999 30 27 28.200001 27.799999C 26.4 28.799999 24.799999 28.799999 23 27.799999C 22.200001 27.6 21.6 27 21.4 26.200001C 20.799999 25 20.4 23.799999 21.4 22.799999M 16.6 17.4C 17 17.200001 17.200001 16.6 17.799999 16.200001C 17.799999 16.200001 20 14 21.799999 16.200001C 22 16.6 22.4 17 22.799999 17.4C 22.799999 17.4 24.6 19.200001 22.799999 21.4C 22.4 21.799999 21.799999 22 21.6 22.4C 21.6 22.4 19.6 24.4 17.6 22.4C 17.200001 22.200001 16.799999 21.799999 16.6 21.4C 16.6 21.4 15 19.799999 16.6 17.4M 11.2 16C 10.8 17.4 13.6 20 15.8 18.200001M 16.200001 11C 17.6 11.2 20.799999 14 18.4 15.6M 22.6 17.200001C 23 15.8 24.4 14.8 24.4 13.4M 26.6 21C 27 19.799999 27.799999 18.4 28.799999 17.4M 17.4 22.4C 16.200001 23 14.8 23.4 13.6 24.200001M 21.4 26.200001C 20 26.6 19 28 17.6 28.6"></path><path d="M 49.526001 49.740002L 56.844002 57.057999M 33.295998 43.085999C 33.295998 48.320553 37.539444 52.563999 42.773998 52.563999C 48.008553 52.563999 52.251999 48.320553 52.251999 43.085999C 52.251999 37.851444 48.008553 33.608002 42.773998 33.608002C 37.539444 33.608002 33.295998 37.851444 33.295998 43.085999M 11.584 54.194L 12.654 54.194M 17.119999 54.194L 18.189999 54.194M 24.612 54.194L 25.684 54.194M 40.669998 46.700001L 41.739998 45.630001M 42.810001 40.278L 42.810001 38.672001M 32.167999 29.837999L 33.237999 30.908001M 31.035999 54.194L 32.106003 54.194M 21.327696 22.727135L 22.973843 21.080988C 23.954964 20.1061 25.539854 20.108631 26.517862 21.086647L 28.113092 22.681881C 29.545677 24.114456 29.548206 26.436346 28.11875 27.872042L 28.11875 27.872042C 26.683964 29.306828 24.357716 29.306829 22.92293 27.872042L 21.327696 26.27681C 20.347481 25.296593 20.347481 23.70735 21.327696 22.727135ZM 16.527557 17.468136L 17.714081 16.28161C 17.714081 16.28161 19.719437 14.276257 21.724794 16.28161L 22.744442 17.301258C 22.744442 17.301258 24.749796 19.306612 22.744442 21.311968L 21.557915 22.498493C 21.557915 22.498493 19.552559 24.503849 17.547207 22.498493L 16.527557 21.478846C 16.527557 21.478846 14.522202 19.47349 16.527557 17.468136M 11.164 15.948C 10.964 17.468 14.04 20.397999 15.896 18.222M 16.162001 10.95C 17.68 10.75 20.610001 13.828 18.434 15.682M 22.66 17.216L 24.493999 13.426001M 26.524 21.08L 28.864 17.386M 17.462 22.411999L 13.674 24.248001M 21.327999 26.278L 17.632 28.618"></path></g></g></g><g id="g-root-tx_harderto_1luwwbof0rb4b-stroke" data-item-order="0" transform="translate(2, 350)"></g><g id="g-root-3_1hfpvacf0r8qt-stroke" data-item-order="0" transform="translate(170, 374)"><g id="3_1hfpvacf0r8qt-stroke" fill="none" stroke-linecap="round" stroke-linejoin="round" stroke-miterlimit="4" stroke="#484848" stroke-width="2"><g><path d="M 29.4 43.599998C 25 44.799999 20.200001 42.799999 15.6 43.599998C 13.2 44 11.6 41.400002 11 38.799999C 10.2 35 10.6 31.200001 11 27.200001C 12.8 27.799999 15 26.6 16.799999 27.200001C 16.200001 25.4 18.4 24.4 20.200001 23.799999C 22.200001 23.200001 23.6 25.4 23.799999 27.200001C 25.6 27.4 27.6 27.6 29.6 27.200001C 29.6 30.6 30.200001 33.799999 29.6 37M 11 27.200001C 12 23.6 9.8 19.4 11 15.6C 11.8 13.2 13 11.2 15.6 11C 20.200001 10.6 25 12 29.6 11C 29 12.4 29.4 14 29.6 15.6C 30.799999 15.8 32 16.200001 32.599998 17.4C 33.400002 18.4 33.200001 19.799999 32.599998 20.799999C 32.200001 22 30.799999 22.4 29.6 22.6C 29.6 24.200001 30.200001 25.799999 29.6 27.200001M 41.599998 27.200001C 37.799999 25.799999 33.400002 28.200001 29.6 27.200001M 29.6 11C 33.799999 11.6 38.200001 9.8 42.400002 11C 44.799999 11.6 47.799999 13.2 47 15.6C 45.799999 19.4 45.799999 23.6 47 27.200001M 33 45C 33.200001 51.599998 38.400002 57.400002 45 57C 51.599998 56.599998 57.400002 51.599998 57 45C 56.599998 38.400002 51.400002 34.400002 45 33C 38.599998 31.6 33.599998 38.400002 33 45M 48 50.200001C 46.599998 51.799999 44 51.200001 42 50.200001M 45 33C 46.599998 33.200001 48 34.400002 48 36C 48 37.599998 46.599998 39.200001 45 39M 50.200001 42C 50.599998 42 51.200001 42.400002 51 42.799999M 49.599998 42.799999C 49.400002 42.400002 49.799999 42 50.200001 42M 50.200001 43.599998C 49.799999 43.599998 49.599998 43.200001 49.599998 42.799999M 51 42.799999C 51 43.200001 50.599998 43.599998 50.200001 43.599998M 39.799999 42C 40.200001 41.799999 40.400002 42.400002 40.599998 42.799999M 39 42.799999C 39 42.400002 39.400002 42 39.799999 42M 39.799999 43.599998C 39.400002 43.599998 38.799999 43.200001 39 42.799999M 40.599998 42.799999C 40.400002 43.200001 40.200001 43.400002 39.799999 43.599998"></path><path d="M 29.436001 43.515999L 15.646 43.515999C 13.080085 43.515999 11 41.435913 11 38.869999L 11 27.257999L 16.799999 27.257999C 16.800167 25.333958 18.359959 23.774303 20.284 23.774303C 22.208042 23.774303 23.767832 25.333958 23.768 27.257999L 29.568001 27.257999L 29.568001 36.986M 11 27.257999L 11 15.646C 11 13.080085 13.080085 11 15.646 11L 29.58 11L 29.58 15.646C 30.844254 15.615703 32.025658 16.272852 32.666695 17.362957C 33.307728 18.453064 33.307728 19.804935 32.666695 20.895042C 32.025658 21.985147 30.844254 22.642298 29.58 22.612L 29.58 27.257999M 41.548 27.257999L 29.58 27.257999M 29.58 11L 42.354 11C 44.919914 11 47 13.080085 47 15.646L 47 27.257999M 33 45C 33 51.627419 38.372581 57 45 57C 51.627419 57 57 51.627419 57 45C 57 38.372581 51.627419 33 45 33C 38.372581 33 33 38.372581 33 45M 48 50.200001C 46.143593 51.271797 43.856407 51.271797 42 50.200001M 45 33C 46.656857 33 48 34.343147 48 36C 48 37.656853 46.656857 39 45 39M 50.25 42C 50.664215 42 51 42.335789 51 42.75M 49.5 42.75C 49.5 42.335789 49.835789 42 50.25 42M 50.25 43.5C 49.835789 43.5 49.5 43.164215 49.5 42.75M 51 42.75C 51 43.164215 50.664215 43.5 50.25 43.5M 39.75 42C 40.164215 42 40.5 42.335789 40.5 42.75M 39 42.75C 39 42.335789 39.335785 42 39.75 42M 39.75 43.5C 39.335785 43.5 39 43.164215 39 42.75M 40.5 42.75C 40.5 43.164215 40.164215 43.5 39.75 43.5"></path></g></g></g><g id="g-root-fall_dj7rfof12io6-stroke" data-item-order="0" transform="translate(710, 374)"><g id="fall_dj7rfof12io6-stroke" fill="none" stroke-linecap="round" stroke-linejoin="round" stroke-miterlimit="4" stroke="#484848" stroke-width="2"><g><path d="M 57 43C 57.200001 43.599998 56.599998 44 56 44C 51.400002 44.799999 46.400002 45.599998 42 44C 41.400002 43.799999 40.799999 43.599998 41 43C 44.599998 33.799999 38.599998 23 41 13.4C 41 13.2 41.200001 12.8 41.400002 12.6C 41.599998 12.4 42 12.4 42.400002 12.4C 46.599998 15 51.400002 17 56.400002 16.799999C 56.799999 16.799999 57 17.200001 57 17.799999C 57 26.200001 59 34.799999 57 43M 55 16C 54.599998 14.4 55.400002 12.6 55 11M 41 21C 43 21.4 45 21 47 21M 27 29C 29 29.200001 31.200001 29.6 33 29M 27 35C 29.6 35 32.400002 34.799999 35 35M 41 27C 44.599998 28 48.400002 26.6 52 27M 46 44C 45.400002 41.799999 45.400002 39.200001 46 37C 46.200001 36.400002 46.400002 36 47 36C 48.400002 36 49.799999 36.400002 51 36C 51.599998 35.799999 51.799999 36.400002 52 37C 52.799999 39.200001 51.599998 41.799999 52 44M 41 23C 36.799999 24.200001 32.200001 23.6 28 23C 27.4 23 27 23.4 27 24C 27.200001 28.6 25.799999 33.400002 27 38M 11 38.400002C 14.6 41.200001 17.200001 45.200001 20.799999 48.200001C 21.200001 48.400002 21.6 48.599998 22 48.599998C 22.4 48.599998 22.799999 48.599998 23 48.200001C 24.4 46 26.200001 44 28.4 42.799999C 29.200001 42.400002 30.200001 42 30.799999 42.799999C 34.400002 48.400002 39.799999 52.599998 45 57M 45 48C 44 50.799999 45.799999 54 45 57C 42 56.599998 38.799999 56 36 57"></path><path d="M 57 43C 57 43.552284 56.552284 44 56 44L 42 44C 41.447716 44 41 43.552284 41 43L 41 13.42C 41.000137 13.094191 41.158989 12.788875 41.42572 12.601768C 41.692444 12.414661 42.0336 12.369225 42.34 12.48L 56.34 16.76C 56.735947 16.903151 56.999821 17.278969 57 17.700001ZM 55 16L 55 11M 41 21L 47 21M 27 29L 33 29M 27 35L 35 35M 41 27L 52 27M 46 44L 46 37C 46 36.447716 46.447716 36 47 36L 51 36C 51.552284 36 52 36.447716 52 37L 52 44M 41 23L 28 23C 27.447716 23 27 23.447716 27 24L 27 38M 11 38.419998L 20.779999 48.18C 21.084167 48.486565 21.498146 48.658993 21.93 48.658993C 22.361855 48.658993 22.775833 48.486565 23.08 48.18L 28.48 42.779999C 29.111368 42.154667 30.128632 42.154667 30.76 42.779999L 45 57M 45 48L 45 57L 36 57"></path></g></g></g><g id="g-root-tx_riskofsy_1hfpvacf0r8qs-stroke" data-item-order="0" transform="translate(770, 374)"></g><g id="g-root-tx_increase_1uqjwkkf0rabl-stroke" data-item-order="0" transform="translate(2, 230)"></g><g id="g-root-tx_increase_hvww4kf0raiy-stroke" data-item-order="0" transform="translate(770, 146)"></g><g id="g-root-tx_impactof_qrjwdgf0r9q8-stroke" data-item-order="0" transform="translate(296, 2)"></g><g id="g-root-tx_potentia_59cpwf0r9qe-stroke" data-item-order="0" transform="translate(770, 434)"></g><g id="g-root-cost_1lynu04f0ohe7-stroke" data-item-order="0" transform="translate(710, 86)"><g id="cost_1lynu04f0ohe7-stroke" fill="none" stroke-linecap="round" stroke-linejoin="round" stroke-miterlimit="4" stroke="#484848" stroke-width="2"><g><path d="M 19.200001 56.599998C 20 49 19 41.400002 19.200001 33.799999C 14.6 32.400002 10.6 27.799999 11.6 23C 11.8 21.200001 12.4 19.4 13 17.6C 13 17.6 18.200001 23 18.799999 23.6C 19.4 24.4 20.4 24.799999 21.4 25C 22.200001 25.200001 23.6 24.799999 24 24C 24.6 23.200001 25.4 22.200001 25 21.200001C 24.6 20.4 24.6 19.4 23.6 18.799999C 23 18.200001 17.6 13 17.6 12.8C 20.799999 11.6 24 12.2 27.4 12.4C 31.4 14.8 34.400002 18.4 34.599998 23.200001C 34.799999 28 30.6 30.799999 27 33.799999C 26 41.400002 24.200001 49.400002 27 56.599998M 47.599998 38.400002C 46.200001 38.599998 44.799999 38.400002 43.400002 38.400002C 42.200001 38.400002 41.400002 39.400002 40.799999 40.599998C 40.200001 41.799999 41.200001 43 42.400002 43.599998C 43.799999 44.400002 45.400002 44.400002 46.599998 45.200001C 47.599998 46 48.599998 47 48.200001 48.200001C 47.799999 49.599998 46.799999 50.599998 45.599998 50.400002C 44.200001 50.400002 42.799999 50.799999 41.599998 50.400002M 44.599998 38.400002C 44.599998 38 44.400002 37.400002 44.599998 37M 44.599998 52C 44.599998 51.400002 44.599998 51 44.599998 50.400002M 32.599998 44.400002C 34.400002 50.799999 38 55 44.599998 56.400002C 51 58 58.200001 50.799999 56.599998 44.400002C 54.799999 38 51 33.799999 44.599998 32.400002C 38 31 34.400002 38.200001 32.599998 44.400002"></path><path d="M 19.200001 56.532001L 19.200001 33.874001C 14.594264 32.254532 11.509167 27.908152 11.5 23.026001C 11.511802 21.115585 12.003529 19.23877 12.93 17.568001C 12.93 17.568001 18.188 22.939999 18.746 23.653999C 19.366087 24.452248 20.298935 24.945992 21.307709 25.009876C 22.316483 25.073761 23.304165 24.701645 24.02 23.987999L 24.02 23.987999C 24.733644 23.272167 25.105762 22.284485 25.041878 21.275709C 24.977991 20.266933 24.484249 19.334087 23.686001 18.714001C 22.972 18.156 17.6 12.898 17.6 12.898C 20.586475 11.224331 24.174404 11.008466 27.34 12.312C 31.813871 14.074877 34.71891 18.434818 34.623032 23.242529C 34.527153 28.05024 31.450598 32.290894 26.91 33.874001L 26.91 56.532001M 47.5 38.468002L 43.433998 38.468002C 42.148754 38.468895 41.044533 39.380783 40.800644 40.642677C 40.556751 41.904568 41.241653 43.162247 42.433998 43.641998L 46.562 45.293999C 47.754345 45.77375 48.439247 47.031429 48.195358 48.293324C 47.951466 49.555214 46.847244 50.467102 45.562 50.467999L 41.5 50.467999M 44.5 38.468002L 44.5 36.968002M 44.5 51.967999L 44.5 50.467999M 32.5 44.467999C 32.5 51.095417 37.872581 56.468002 44.5 56.468002C 51.127419 56.468002 56.5 51.095417 56.5 44.468002C 56.5 37.840584 51.127419 32.468002 44.5 32.468002C 37.872581 32.468002 32.5 37.840584 32.5 44.468002"></path></g></g></g><g id="g-root-3_4l2uucf0vg97-stroke" data-item-order="0" transform="translate(170, 86)"><g id="3_4l2uucf0vg97-stroke" fill="none" stroke-linecap="round" stroke-linejoin="round" stroke-miterlimit="4" stroke="#484848" stroke-width="2"><g><path d="M 32.400002 47.200001C 34.799999 47.799999 37.400002 46.599998 40 47.200001C 42 47.599998 44.799999 46.799999 45.599998 45C 47 43 48 41.200001 48 39.200001C 48.400002 35.799999 48 32.200001 48 29M 36.200001 54.200001C 34.400002 56.400002 30.6 56.200001 27.6 56.599998C 18.799999 57.400002 10.8 49.200001 11.6 40.599998C 12.2 31.799999 18.6 24.6 27.6 24.6C 35 24.4 42.599998 29.799999 43.200001 37M 27.6 48.599998C 31.799999 48 34 44.599998 35.599998 40.599998C 37 36.400002 31.799999 33 27.6 32.599998C 23.200001 32 18.200001 36.200001 19.6 40.599998C 20.799999 44.799999 23.200001 48 27.6 48.599998M 27.4 41C 27.200001 40.799999 27.200001 40.799999 27 40.599998C 27 40.200001 27.200001 40 27.4 40.200001M 27.4 41C 27.799999 40.799999 28 40.799999 27.799999 40.599998C 27.799999 40.200001 27.799999 40.200001 27.4 40.200001M 48.200001 28.200001C 52.400002 26.799999 55.200001 24.4 56.599998 19.799999C 57.799999 15.4 52.799999 11 48.200001 11.4C 43.400002 12 41.200001 15.6 39.799999 19.799999C 38.200001 24.200001 43.599998 27.6 48.200001 28.200001M 10 10M 48 20C 49 19.200001 49.400002 18.200001 50.200001 17.799999"></path><path d="M 32.299999 47.099998L 39.900002 47.099998C 42.099998 47.099998 44.099998 46.299999 45.700001 44.900002C 47.299999 43.299999 48.099998 41.299999 48.099998 39.099998L 48.099998 28.9M 36.099998 54.099998C 33.700001 55.700001 30.700001 56.5 27.5 56.5C 18.700001 56.5 11.5 49.299999 11.5 40.5C 11.5 31.700001 18.700001 24.500019 27.5 24.500019C 35.099998 24.500019 41.5 29.900021 43.099998 36.900002M 27.5 48.5C 31.9182 48.5 35.5 44.9184 35.5 40.5C 35.5 36.081802 31.9182 32.5 27.5 32.5C 23.08172 32.5 19.5 36.081802 19.5 40.5C 19.5 44.9184 23.08172 48.5 27.5 48.5ZM 27.499981 40.900002C 27.279079 40.900002 27.099979 40.721001 27.099979 40.5C 27.099979 40.278999 27.279079 40.099998 27.499981 40.099998M 27.499901 40.900002C 27.7208 40.900002 27.8999 40.721001 27.8999 40.5C 27.8999 40.278999 27.7208 40.099998 27.499901 40.099998M 48.099998 28.29998C 52.739201 28.29998 56.5 24.53916 56.5 19.899979C 56.5 15.26078 52.739201 11.499978 48.099998 11.499978C 43.4608 11.499978 39.700001 15.26078 39.700001 19.899979C 39.700001 24.53916 43.4608 28.29998 48.099998 28.29998ZM 10 10M 48.0998 19.900059L 50.299801 17.70006"></path></g></g></g><g id="g-root-tx_decrease_59cpwf0r9qf-stroke" data-item-order="0" transform="translate(38, 86)"></g><g id="g-root-tx_higherma_1uqjwkkf0rabk-stroke" data-item-order="0" transform="translate(770, 62)"></g><g id="g-root-tx_slowerpr_hvww4kf0raix-stroke" data-item-order="0" transform="translate(2, 146)"></g><g id="g-root-tx_challeng_4l2uucf0r8y5-stroke" data-item-order="0" transform="translate(2, 434)"></g></g></g></svg>