<?xml version="1.0" encoding="utf-8" standalone="yes"?>
<!DOCTYPE svg PUBLIC "-//W3C//DTD SVG 1.1//EN" "http://www.w3.org/Graphics/SVG/1.1/DTD/svg11.dtd">
<svg width="698" height="598" viewBox="0 0 698 598" style="fill:none;stroke:none;fill-rule:evenodd;clip-rule:evenodd;stroke-linecap:round;stroke-linejoin:round;stroke-miterlimit:1.5;" version="1.1" xmlns="http://www.w3.org/2000/svg" xmlns:xlink="http://www.w3.org/1999/xlink"><style id="fontImports">@import url("https://fonts.googleapis.com/css2?family=Roboto:wght@400;700&amp;display=block");</style><g id="items" style="isolation: isolate"><g id="blend" style="mix-blend-mode: normal"><g id="g-root--1.cu_sy_1hi75ag1rl91ce-fill" data-item-order="-384156" transform="translate(387.826171875, 132.115234375)"><g id="-1.cu_sy_1hi75ag1rl91ce-fill" stroke="none" fill="url(#gradient-cbcbcb-248399021)"><g><path d="M 67.3469 87.71361L 55.991 87.71361L 45.9513 80.28711L 33.1782 95.84081L 27.2343 95.84081L 10 116.82691L 69.3386 116.82691L 96.4739 116.82691L 92.0979 111.42371L 86.1997 111.42371L 80.2971 103.48291L 67.3469 87.71361ZM 132.163221 89.8979L 132.163221 10L 121.006421 10L 114.100121 19.3811L 104.005721 22.9393L 80.297121 51.809L 69.338621 51.809L 48.355621 77.3598L 56.782821 83.9137L 69.338621 83.9137L 85.409721 103.4833L 94.965521 103.5194L 100.432021 107.5191L 120.990821 107.5191L 132.163221 89.8979ZM 176.765091 116.827359L 185.118291 116.827359L 216.904591 116.827359L 261.797391 116.827359L 246.390391 97.984659L 240.280591 97.984659L 210.097291 60.138459L 203.090491 60.138459L 197.777591 48.696259L 186.189091 48.696259L 166.963591 72.106959L 160.05179 72.106959L 153.150391 77.414759L 153.150391 89.897859L 176.765091 116.827359ZM 166.963591 64.3436L 184.230391 43.9649L 168.556791 10L 153.150391 10L 153.150391 64.3436L 166.963591 64.3436Z"></path></g></g></g><g id="g-root--1.cu_1_sy_146qmx41rl92xb-fill" data-item-order="-384154" transform="translate(463.470703125, 3)"><g id="-1.cu_1_sy_146qmx41rl92xb-fill" stroke="none" fill="url(#gradient-cbcbcb-248399021)"><g><path d="M 111.927 78.7666C 111.419 78.7666 110.923 78.7155 110.445 78.6181C 109.3285 84.2559 105.0084 88.7413 99.4609 90.0978C 99.4445 94.1682 96.1397 97.4629 92.0654 97.4629C 90.8772 97.4629 89.7545 97.1827 88.7597 96.6847C 86.8713 99.2336 83.8415 100.8857 80.4258 100.8857C 79.4119 100.8857 78.432 100.7402 77.5059 100.4688L 77.5059 91.4926C 76.8098 91.7286 76.0808 91.9009 75.3248 92.0019C 70.9809 92.5819 66.8803 90.6541 64.482 87.334C 63.4755 88.0371 62.2904 88.5166 60.9894 88.6903C 59.4029 88.9021 57.8633 88.63 56.5195 87.9876L 56.5195 101.2775C 53.5785 99.733 51.2212 97.2273 49.8651 94.178C 48.8752 94.6698 47.7594 94.9463 46.5791 94.9463C 42.6032 94.9463 39.3602 91.8089 39.1906 87.8748C 38.2299 88.0709 37.2354 88.1738 36.2168 88.1738C 28.0479 88.1738 21.4258 81.5517 21.4258 73.3828C 21.4258 73.1578 21.4308 72.9339 21.4408 72.7113C 18.0945 72.3278 15.4272 69.7109 14.9669 66.3887C 12.0456 65.1323 10 62.2284 10 58.8467C 10 54.3146 13.674 50.6406 18.2061 50.6406C 19.0179 50.6406 19.8023 50.7585 20.5429 50.9781C 21.0532 47.3916 24.1367 44.6338 27.8643 44.6338C 28.7087 44.6338 29.5201 44.7753 30.276 45.036C 30.6731 43.9109 31.259 42.875 31.9955 41.9661C 30.8855 40.8741 30.1973 39.3549 30.1973 37.6748C 30.1973 34.3503 32.8923 31.6553 36.2168 31.6553C 36.9251 31.6553 37.6049 31.7776 38.236 32.0023C 38.2323 31.8871 38.2305 31.7714 38.2305 31.6553C 38.2305 25.8029 42.9748 21.0586 48.8271 21.0586C 49.4434 21.0586 50.0473 21.1112 50.6347 21.2122C 51.6128 16.5038 55.7848 12.9658 60.7832 12.9658C 61.539 12.9658 62.276 13.0467 62.9858 13.2003C 64.3199 11.267 66.5505 10 69.0771 10C 72.7739 10 75.8371 12.7124 76.3853 16.2555C 77.0682 16.0475 77.793 15.9356 78.5439 15.9356C 81.8821 15.9356 84.7037 18.1472 85.6233 21.1852C 90.2127 21.7876 94.1397 24.494 96.404 28.3041C 97.8476 27.388 99.5601 26.8574 101.3965 26.8574C 106.4362 26.8574 110.543 30.8533 110.721 35.8496L 110.727 35.8496C 114.051 35.8496 116.746 38.5446 116.746 41.8691C 116.746 44.5952 114.934 46.898 112.449 47.6387C 112.465 47.9196 112.473 48.2025 112.473 48.4873C 112.473 49.2212 112.419 49.9425 112.316 50.6478C 117.156 50.826 121.148 54.3227 122.085 58.9298C 125.086 59.8716 127.264 62.6752 127.264 65.9873C 127.264 70.0717 123.953 73.3828 119.868 73.3828C 119.594 73.3828 119.324 73.3679 119.058 73.3389C 118.196 76.4681 115.33 78.7666 111.927 78.7666ZM 70.934531 126.047484C 66.996131 126.047484 63.713831 128.856684 62.982231 132.580784C 62.005431 131.731484 60.729531 131.217384 59.333531 131.217384C 58.306831 131.217384 57.345131 131.495484 56.519531 131.980384L 56.519531 87.987584C 57.863331 88.629984 59.402931 88.902084 60.989431 88.690284C 62.290331 88.516584 63.475431 88.037084 64.482031 87.333984C 66.880231 90.654084 70.980831 92.581884 75.324831 92.001884C 76.080831 91.900884 76.809831 91.728584 77.505831 91.492584L 77.505831 129.407384C 76.033631 127.371884 73.638731 126.047484 70.934531 126.047484Z"></path></g></g></g><g id="g-root--1.cu_2_sy_18mk51k1rl92ww-fill" data-item-order="-384151" transform="translate(3, 227)"></g><g id="g-root--1.cu_3_sy_i09le01rl92wx-fill" data-item-order="-384150" transform="translate(401.3828125, 97.52047729492188)"><g id="-1.cu_3_sy_i09le01rl92wx-fill" stroke="none" fill="url(#gradient-fdac61-172712277)"><g><path d="M 133.022 31.523423C 136.478 31.523423 139.428001 33.685623 140.594001 36.730723C 140.768 36.706123 140.946 36.693323 141.127 36.693323C 143.209001 36.693323 144.896 38.381023 144.896 40.462923L 145.122001 40.462923C 145.577001 39.421323 146.616001 38.693323 147.826 38.693323C 149.035001 38.693323 150.074001 39.421323 150.529001 40.462923L 152.73 40.462923C 152.992001 40.462923 153.243 40.565323 153.430001 40.748323L 154.261001 41.562423C 154.448001 41.745423 154.699001 41.847823 154.961 41.847823L 157.304001 41.847823C 157.698001 41.847823 158.056 42.079423 158.217001 42.439223L 164.575001 56.644123C 165.216 58.076023 164.646001 59.760023 163.267001 60.507523L 162.542 60.900123L 155.049001 44.610423L 139.596 44.610423L 139.596 98.954123L 153.409001 98.954123L 170.223001 78.575423L 183.972001 78.575423C 185.140001 78.575423 186.201 79.252723 186.693001 80.311623L 191.845 91.403023L 192.472001 91.403023C 193.577001 91.403023 194.472001 92.298423 194.472001 93.403023L 194.472001 94.630423C 194.472001 94.685723 194.428001 94.730423 194.372001 94.730423L 189.538 94.730423L 184.23 83.287423L 172.634 83.306723L 153.409001 106.717223L 146.502 106.717223L 139.596 112.041923L 139.596 124.508123L 163.245 151.426423L 171.641001 151.426423L 191.999 179.433423L 191.71 199.101423L 204.472001 219.409423L 223.402001 246.900423L 223.402001 260.645423L 252.331 299.154423L 252.331 356.174423L 194.472001 409.102423L 194.472001 440.534423L 141.812 487.149423L 100.711301 457.220423L 71.855501 457.220423L 55.784401 439.535423L 55.784401 408.347423L 33.2385 382.123423L 32.837601 367.670423L 10 342.298423L 10 284.926423L 48.797301 240.590423L 48.797301 211.118423L 86.8427 169.048423L 86.8427 156.259423L 78.537501 145.996423L 72.641901 145.996423L 66.7428 138.093423L 53.7926 122.324323L 42.436801 122.324323L 32.400301 114.880123L 26.281901 122.324323C 24.743601 121.029923 24.548801 118.732423 25.847101 117.197523L 28.9634 113.513023C 30.6934 111.467723 33.728001 111.149223 35.8449 112.790723L 43.2385 118.524023L 55.784401 118.524023L 71.855501 138.093423L 81.4014 138.093423L 86.8427 142.104423L 107.452201 142.104423L 118.609 124.556823L 118.609 44.610423L 107.452201 44.610423L 100.678101 53.795423L 100.3923 53.645823C 98.749701 52.785823 98.2727 50.656723 99.391301 49.178023L 105.6844 40.859523C 105.873401 40.609723 106.1686 40.462923 106.481901 40.462923L 110.429 40.462923C 110.843001 39.425923 111.857001 38.693323 113.042 38.693323C 114.228001 38.693323 115.242001 39.425923 115.656001 40.462923L 116.153001 40.462923C 116.9 38.270423 118.976001 36.693323 121.421 36.693323C 122.817001 36.693323 124.093 37.207523 125.07 38.056723C 125.802 34.332723 129.084001 31.523423 133.022 31.523423ZM 167.789269 31.870921C 164.064468 30.253521 157.111869 31.740121 153.417969 34.173321C 158.306169 32.344221 162.805169 33.075321 166.792768 34.859321C 168.745268 35.732821 170.202168 32.918621 167.789269 31.870921ZM 157.568115 15.479516C 152.447016 16.971016 146.669215 24.307616 144.978515 29.866016C 148.383016 23.915816 153.542516 20.879016 159.068816 19.335516C 161.774916 18.579616 160.885416 14.513416 157.568115 15.479516ZM 104.82989 32.788969C 102.14739 30.367069 96.71599 28.306569 93.50759 29.152269C 91.42929 29.699969 92.25789 32.153069 93.942991 31.688969C 97.384091 30.741269 101.108091 30.707269 104.82989 32.788969ZM 114.308651 27.793085C 113.67735 24.813985 111.039551 17.624485 105.53945 12.699485C 98.66425 6.543285 95.82955 12.574385 98.71245 14.514185C 99.38525 14.966885 100.11535 15.230585 100.95095 15.532285C 103.696251 16.523585 107.580151 17.925885 114.308651 27.793085Z"></path></g></g></g><g id="g-root--1.cu_4_sy_94ml541rl93pm-fill" data-item-order="-384148" transform="translate(447, 231.96484375)"><defs><linearGradient id="gradient-cbcbcb-248399021" x2="0" y2="1"><stop offset="0" stop-color="#d9d9d9"></stop><stop offset="1" stop-color="#bcbcbc"></stop></linearGradient><linearGradient id="gradient-fdac61-172712277" x2="0" y2="1"><stop offset="0" stop-color="#ffc188"></stop><stop offset="1" stop-color="#fa963a"></stop></linearGradient><linearGradient id="gradient-ffed4b-499785973" x2="0" y2="1"><stop offset="0" stop-color="#fff282"></stop><stop offset="1" stop-color="#ffe714"></stop></linearGradient></defs><g id="-1.cu_4_sy_94ml541rl93pm-fill" stroke="none" fill="url(#gradient-ffed4b-499785973)"><g><path d="M 118 84.8245L 118 45.1326L 88.6943 10L 79.2523 10L 64.8652 35.3462L 64.8652 45.1326L 34 79.0041L 34 127.004L 22 139.004L 10 151.004L 10 199.004L 24 213.004L 24 237.004L 71.3642 294.368L 94.6358 294.368L 166 223.004L 166 175.004L 142 139.004L 142 119.03L 118 84.8245Z"></path></g></g></g><g id="g-root--1.line_sy_4pfk3s1rl91c3-fill" data-item-order="-384143" transform="translate(351, 154.99609375)"></g><g id="g-root-1.line_sy_4pfk3s1rl91c4-fill" data-item-order="-384137" transform="translate(351, 322.99609375)"></g><g id="g-root-2.line_sy_4pfk3s1rl91c5-fill" data-item-order="-384131" transform="translate(351, 383.00018310546875)"></g><g id="g-root-3.line_sy_4pfk3s1rl91c6-fill" data-item-order="-384125" transform="translate(351, 442.99609375)"></g><g id="g-root-4.line_sy_1uuwlu01rl91xr-fill" data-item-order="-384119" transform="translate(351, 502.99609375)"></g><g id="g-root-tx_technica_18eg22w1rknzes-fill" data-item-order="0" transform="translate(135, 143)"><g id="tx_technica_18eg22w1rknzes-fill" stroke="none" fill="#969696"><g><text style="font: 20px Roboto, sans-serif; white-space: pre;" font-size="20px" font-family="Roboto, sans-serif"><tspan x="20.36" y="33.5" dominant-baseline="ideographic">Technical Debt</tspan></text></g></g></g><g id="g-root-shar_1lrrzpk1rks9hn-fill" data-item-order="0" transform="translate(291, 131)"></g><g id="g-root-tx_codequal_1d3mlc81rl94az-fill" data-item-order="0" transform="translate(159, 311)"><g id="tx_codequal_1d3mlc81rl94az-fill" stroke="none" fill="#484848"><g><text style="font: 20px Roboto, sans-serif; white-space: pre;" font-size="20px" font-family="Roboto, sans-serif"><tspan x="15.33" y="33.5" dominant-baseline="ideographic">Code Quality</tspan></text></g></g></g><g id="g-root-aler_18itdoo1rkqtj5-fill" data-item-order="0" transform="translate(291, 299)"></g><g id="g-root-tx_developm_1d3mlc81rl94ay-fill" data-item-order="0" transform="translate(75, 371)"><g id="tx_developm_1d3mlc81rl94ay-fill" stroke="none" fill="#484848"><g><text style="font: 20px Roboto, sans-serif; white-space: pre;" font-size="20px" font-family="Roboto, sans-serif"><tspan x="19.52" y="33.5" dominant-baseline="ideographic">Development Velocity</tspan></text></g></g></g><g id="g-root-cate_1lviu881rkpfyn-fill" data-item-order="0" transform="translate(291, 359)"></g><g id="g-root-tx_hiddenca_1lz9ll41rl93i9-fill" data-item-order="0" transform="translate(135, 431)"><g id="tx_hiddenca_1lz9ll41rl93i9-fill" stroke="none" fill="#484848"><g><text style="font: 20px Roboto, sans-serif; white-space: pre;" font-size="20px" font-family="Roboto, sans-serif"><tspan x="17.52" y="33.5" dominant-baseline="ideographic">Hidden Causes</tspan></text></g></g></g><g id="g-root-book_dikr601rko1s5-fill" data-item-order="0" transform="translate(291, 419)"></g><g id="g-root-tx_longterm_9m1zc1rl924g-fill" data-item-order="0" transform="translate(39, 491)"><g id="tx_longterm_9m1zc1rl924g-fill" stroke="none" fill="#484848"><g><text style="font: 20px Roboto, sans-serif; white-space: pre;" font-size="20px" font-family="Roboto, sans-serif"><tspan x="15.33" y="33.5" dominant-baseline="ideographic">Long-Term Consequences</tspan></text></g></g></g><g id="g-root-2_18eg22w1rknzet-fill" data-item-order="0" transform="translate(291, 479)"></g><g id="g-root--1.cu_sy_1hi75ag1rl91ce-stroke" data-item-order="-384156" transform="translate(387.826171875, 132.115234375)"><g id="-1.cu_sy_1hi75ag1rl91ce-stroke" fill="none" stroke-linecap="round" stroke-linejoin="round" stroke-miterlimit="4" stroke="#484848" stroke-width="2"><g><path d="M 55.991 87.71361L 67.3469 87.71361L 80.2971 103.48291L 86.1997 111.42371L 92.0979 111.42371L 96.4739 116.82691L 69.3386 116.82691L 10 116.82691L 27.2343 95.84081L 33.1782 95.84081L 45.9513 80.28711L 55.991 87.71361ZM 132.163221 10L 132.163221 89.8979L 120.990821 107.5191L 100.432021 107.5191L 94.965521 103.5194L 85.409721 103.4833L 69.338621 83.9137L 56.782821 83.9137L 48.355621 77.3598L 69.338621 51.809L 80.297121 51.809L 104.005721 22.9393L 114.100121 19.3811L 121.006421 10L 132.163221 10ZM 216.904591 116.827359L 261.797691 116.827359L 246.390391 97.984659L 240.280591 97.984659L 210.097291 60.138459L 203.090491 60.138459L 197.777591 48.696259L 186.189091 48.696259L 166.963591 72.106959L 160.05179 72.106959L 153.150391 77.414759L 153.150391 89.897859L 176.765091 116.827359L 185.118291 116.827359L 216.904591 116.827359ZM 184.230391 43.9649L 166.963591 64.3436L 153.150391 64.3436L 153.150391 10L 168.556791 10L 184.230391 43.9649ZM 33.173828 95.894776L 51.673828 95.894776L 58.189628 88.261976M 81.173828 75.394776L 69.173828 75.394776L 61.604328 84.261976M 240.960327 97.980469L 227.237732 97.980469L 216.168518 85.013672L 204.466858 85.013672L 195.457031 74.036271"></path></g></g></g><g id="g-root--1.cu_1_sy_146qmx41rl92xb-stroke" data-item-order="-384154" transform="translate(463.470703125, 3)"><g id="-1.cu_1_sy_146qmx41rl92xb-stroke" fill="none" stroke-linecap="round" stroke-linejoin="round" stroke-miterlimit="4" stroke="#484848" stroke-width="2"><g><path d="M 110.4446 78.6181C 110.9235 78.7155 111.4192 78.7666 111.9268 78.7666C 115.3298 78.7666 118.196 76.4681 119.0576 73.3389C 119.3238 73.3679 119.5942 73.3828 119.8682 73.3828C 123.9526 73.3828 127.2637 70.0717 127.2637 65.9873C 127.2637 62.6752 125.0864 59.8716 122.085 58.9298C 121.1484 54.3227 117.156 50.826 112.316 50.6478C 112.4192 49.9425 112.4727 49.2212 112.4727 48.4873C 112.4727 48.2025 112.4646 47.9196 112.4487 47.6387C 114.934 46.898 116.7461 44.5952 116.7461 41.8691C 116.7461 38.5446 114.0511 35.8496 110.7266 35.8496L 110.7206 35.8496C 110.5427 30.8533 106.4362 26.8574 101.3965 26.8574C 99.5601 26.8574 97.8476 27.388 96.404 28.3041C 94.1397 24.494 90.2127 21.7876 85.6233 21.1852C 84.7037 18.1472 81.8821 15.9355 78.5439 15.9355C 77.793 15.9355 77.0682 16.0475 76.3853 16.2555C 75.8371 12.7124 72.7739 10 69.0771 10C 66.5505 10 64.3199 11.267 62.9858 13.2003C 62.276 13.0467 61.539 12.9658 60.7832 12.9658C 55.7848 12.9658 51.6128 16.5038 50.6347 21.2122C 50.0473 21.1112 49.4434 21.0586 48.8271 21.0586C 42.9748 21.0586 38.2305 25.8029 38.2305 31.6553C 38.2305 31.7714 38.2323 31.8871 38.236 32.0023C 37.6049 31.7776 36.9251 31.6553 36.2168 31.6553C 32.8923 31.6553 30.1973 34.3503 30.1973 37.6748C 30.1973 39.3549 30.8855 40.8741 31.9955 41.9661C 31.259 42.875 30.6731 43.9109 30.276 45.036C 29.5201 44.7753 28.7087 44.6338 27.8643 44.6338C 24.1367 44.6338 21.0532 47.3916 20.5429 50.9781C 19.8023 50.7585 19.0179 50.6406 18.2061 50.6406C 13.674 50.6406 10 54.3146 10 58.8467C 10 62.2284 12.0456 65.1323 14.9669 66.3887C 15.4272 69.7109 18.0945 72.3278 21.4408 72.7113C 21.4308 72.9339 21.4258 73.1578 21.4258 73.3828C 21.4258 81.5517 28.0479 88.1738 36.2168 88.1738C 37.2354 88.1738 38.2299 88.0709 39.1906 87.8748C 39.3602 91.8089 42.6032 94.9463 46.5791 94.9463C 47.7594 94.9463 48.8752 94.6698 49.8651 94.178C 51.2212 97.2273 53.5785 99.733 56.5195 101.2775L 56.5195 87.9876C 57.8633 88.63 59.4029 88.9021 60.9894 88.6903C 62.2904 88.5166 63.4755 88.0371 64.482 87.334C 66.8803 90.6541 70.9809 92.5819 75.3248 92.0019C 76.0808 91.9009 76.8098 91.7286 77.5059 91.4926L 77.5059 100.4688C 78.432 100.7402 79.4119 100.8857 80.4258 100.8857C 83.8415 100.8857 86.8713 99.2336 88.7597 96.6847C 89.7545 97.1827 90.8772 97.4629 92.0654 97.4629C 96.1397 97.4629 99.4445 94.1682 99.4609 90.0978C 105.0084 88.7413 109.3285 84.2559 110.4446 78.6181ZM 70.934531 126.047484C 66.996131 126.047484 63.713831 128.856684 62.982231 132.580784C 62.005431 131.731484 60.729531 131.217384 59.333531 131.217384C 58.306831 131.217384 57.345131 131.495484 56.519531 131.980384L 56.519531 87.987584C 57.863331 88.629984 59.402931 88.902084 60.989431 88.690284C 62.290331 88.516584 63.475431 88.037084 64.482031 87.333984C 66.880231 90.654084 70.980831 92.581884 75.324831 92.001884C 76.080831 91.900884 76.809831 91.728584 77.505831 91.492584L 77.505831 129.407384C 76.033631 127.371884 73.638731 126.047484 70.934531 126.047484ZM 52.066406 81.86965C 52.435106 84.63075 54.180906 86.87005 56.519606 87.98805C 57.863406 88.63035 59.403006 88.90245 60.989506 88.69065C 62.290506 88.51695 63.475606 88.03755 64.482106 87.33435C 66.880406 90.65455 70.981006 92.58225 75.324906 92.00225C 76.080906 91.90135 76.809906 91.72905 77.506006 91.49305C 80.861206 90.35545 83.451606 87.73845 84.618406 84.50335C 85.932406 84.98715 87.380206 85.16695 88.864706 84.96875C 93.737006 84.31825 97.159406 79.84105 96.508906 74.96875M 51.150543 38.94368C 47.73291 38.027927 44.248627 39.171707 42.015289 41.614197C 41.196716 40.85569 40.186524 40.279816 39.0336 39.970886C 35.24939 38.956913 31.359619 41.202587 30.345642 44.986794M 104.730347 42.677586C 105.68634 42.468586 106.7052 42.478935 107.715637 42.749687C 111.092346 43.654465 113.096192 47.125271 112.191406 50.501953M 32.38263 73.510818C 31.854431 74.334579 31.126709 75.047684 30.220764 75.57074C 27.193298 77.318634 23.322113 76.281357 21.574219 73.253906M 52.120514 81.655434C 51.291596 82.240044 50.314392 82.640511 49.240387 82.788857C 45.651062 83.284615 42.339508 80.776825 41.84375 77.1875M 99.751953 90.026367C 95.332214 91.402428 90.685608 89.649902 88.198242 86.021812M 93.5 41.965641C 93.5 39.153542 91.636719 36.776642 89.077393 36.002041C 88.919129 31.699841 85.381409 28.260742 81.040527 28.260742C 77.104675 28.260742 73.829224 31.087944 73.133972 34.822243C 73.088928 34.821243 73.043701 34.820641 72.998291 34.820641C 69.928223 34.820641 67.439514 37.309441 67.439514 40.379543M 70.060547 92.104492L 70.060547 108.56929M 63.962891 101.628906L 63.962891 122.878906M 70.060547 113.599609L 70.060547 119.778511M 63.962891 87.333984L 63.962891 95.336884"></path></g></g></g><g id="g-root--1.cu_2_sy_18mk51k1rl92ww-stroke" data-item-order="-384151" transform="translate(3, 227)"><g id="-1.cu_2_sy_18mk51k1rl92ww-stroke" fill="none" stroke-linecap="round" stroke-linejoin="round" stroke-miterlimit="4" stroke="#484848" stroke-width="2"><g><path d="M 478.7607 22L 369.9995 22L 357.9995 10L 345.9995 10L 333.9995 16.8371L 321.9995 16.8371L 309.9995 22L 237.9995 22L 225.9995 16.8371L 213.9995 16.8371L 207.8438 22L 190 22L 183.3372 16.8371L 170.7578 22L 10 22M 572.523 22L 658 22L 670 16.8371L 682 22"></path></g></g></g><g id="g-root--1.cu_3_sy_i09le01rl92wx-stroke" data-item-order="-384150" transform="translate(401.3828125, 97.52047729492188)"><g id="-1.cu_3_sy_i09le01rl92wx-stroke" fill="none" stroke-linecap="round" stroke-linejoin="round" stroke-miterlimit="4" stroke="#484848" stroke-width="2"><g><path d="M 133.0225 31.523423C 136.4777 31.523423 139.4279 33.685623 140.593801 36.730723C 140.768 36.706123 140.946 36.693323 141.127 36.693323C 143.208801 36.693323 144.896501 38.381023 144.896501 40.462923L 145.1222 40.462923C 145.577101 39.421323 146.616401 38.693323 147.825701 38.693323C 149.035001 38.693323 150.0742 39.421323 150.529201 40.462923L 152.73 40.462923C 152.991501 40.462923 153.2427 40.565323 153.4296 40.748323L 154.2612 41.562423C 154.448101 41.745423 154.6992 41.847823 154.960701 41.847823L 157.3038 41.847823C 157.698101 41.847823 158.0555 42.079423 158.216601 42.439223L 164.575401 56.644123C 165.2164 58.076023 164.645901 59.760023 163.2666 60.507523L 162.542201 60.900123L 155.0493 44.610423L 139.595801 44.610423L 139.595801 98.954123L 153.409001 98.954123L 170.222601 78.575423L 183.972101 78.575423C 185.139601 78.575423 186.201101 79.252723 186.6929 80.311623L 191.8446 91.403023L 192.4723 91.403023C 193.5769 91.403023 194.4723 92.298423 194.4723 93.403023L 194.4723 94.630423C 194.4723 94.685723 194.4275 94.730423 194.372301 94.730423L 189.538 94.730423L 184.2296 83.287423L 172.6344 83.306723L 153.409001 106.717223L 146.5024 106.717223L 139.595801 112.041923L 139.595801 124.508123L 163.244701 151.426023L 171.6412 151.426023L 191.9985 179.433123L 191.7096 199.100923L 204.4723 219.409023L 223.4016 246.900223L 223.4016 260.645823L 252.331 299.154923L 252.331 356.173923L 194.4723 409.102423L 194.4723 440.534423L 141.8115 487.149423L 100.711301 457.220223L 71.855501 457.220223L 55.784401 439.535423L 55.784401 408.347223L 33.2385 382.123623L 32.837601 367.670423L 10 342.297923L 10 284.926223L 48.797301 240.590623L 48.797301 211.118823L 86.8427 169.048023L 86.8427 156.259323L 78.537501 145.996323L 72.641901 145.996323L 66.7428 138.093623L 53.7926 122.324323L 42.436801 122.324323L 32.400301 114.880123L 26.281901 122.324323C 24.743601 121.029923 24.548801 118.732423 25.847101 117.197523L 28.9634 113.513023C 30.6934 111.467723 33.728001 111.149223 35.8449 112.790723L 43.2385 118.524023L 55.784401 118.524023L 71.855501 138.093623L 81.4014 138.093623L 86.8427 142.104523L 107.452201 142.104523L 118.608901 124.556823L 118.608901 44.610423L 107.452201 44.610423L 100.678101 53.795423L 100.3923 53.645823C 98.749701 52.785823 98.2727 50.656723 99.391301 49.178023L 105.6844 40.859523C 105.873401 40.609723 106.1686 40.462923 106.481901 40.462923L 110.4287 40.462923C 110.843501 39.425923 111.8574 38.693323 113.042501 38.693323C 114.227501 38.693323 115.2415 39.425923 115.656201 40.462923L 116.153101 40.462923C 116.899701 38.270423 118.976401 36.693323 121.421401 36.693323C 122.817401 36.693323 124.093301 37.207423 125.070201 38.056723C 125.8018 34.332723 129.084001 31.523423 133.0225 31.523423ZM 167.789269 31.870921C 164.064468 30.253521 157.111869 31.740121 153.417969 34.173321C 158.306169 32.344221 162.805169 33.075321 166.792768 34.859321C 168.745268 35.732821 170.202168 32.918621 167.789269 31.870921ZM 157.568115 15.479516C 152.447016 16.971016 146.669215 24.307616 144.978515 29.866016C 148.383016 23.915816 153.542516 20.879016 159.068816 19.335416C 161.774916 18.579616 160.885416 14.513416 157.568115 15.479516ZM 104.82989 32.788969C 102.14739 30.367069 96.71599 28.306569 93.50759 29.152269C 91.42929 29.699969 92.25789 32.153069 93.942991 31.688969C 97.384091 30.741269 101.108091 30.707269 104.82989 32.788969ZM 114.308651 27.793085C 113.67735 24.813985 111.039551 17.624485 105.53945 12.699485C 98.66425 6.543285 95.82955 12.574385 98.71245 14.514185C 99.38525 14.966885 100.11535 15.230585 100.95095 15.532285C 103.696251 16.523485 107.580151 17.925885 114.308651 27.793085ZM 126.050781 45.996079L 126.050781 69.225586M 126.050781 90.114243L 126.050781 119.55484M 132.148438 67.289048L 132.148438 75.585953M 126.050781 77.244126L 126.050781 82.224625M 132.148438 111.124008L 132.148438 130.108414M 132.148438 45.996079L 132.148438 61.246079M 132.148438 82.222641L 132.148438 104.688645"></path></g></g></g><g id="g-root--1.cu_4_sy_94ml541rl93pm-stroke" data-item-order="-384148" transform="translate(447, 231.96484375)"><g id="-1.cu_4_sy_94ml541rl93pm-stroke" fill="none" stroke-linecap="round" stroke-linejoin="round" stroke-miterlimit="4" stroke="#484848" stroke-width="2"><g><path d="M 118 45.1326L 118 84.8245L 142 119.0299L 142 139.004L 166 175.004L 166 223.004L 94.6358 294.3681L 71.3642 294.3681L 24 237.004L 24 213.004L 10 199.004L 10 151.004L 22 139.004L 34 127.0041L 34 79.0041L 64.8652 45.1326L 64.8652 35.3462L 79.2523 10L 88.6943 10L 118 45.1326Z"></path></g></g></g><g id="g-root--1.line_sy_4pfk3s1rl91c3-stroke" data-item-order="-384143" transform="translate(351, 154.99609375)"><g id="-1.line_sy_4pfk3s1rl91c3-stroke" fill="none" stroke-linecap="round" stroke-linejoin="round" stroke-miterlimit="4" stroke="#484848" stroke-width="2"><g><path d="M 10 10.003906L 152 10.003906"></path><path d="M 146 16.503906L 152.5 10.003906L 146 3.503906" stroke-dasharray="none"></path></g></g></g><g id="g-root-1.line_sy_4pfk3s1rl91c4-stroke" data-item-order="-384137" transform="translate(351, 322.99609375)"><g id="1.line_sy_4pfk3s1rl91c4-stroke" fill="none" stroke-linecap="round" stroke-linejoin="round" stroke-miterlimit="4" stroke="#484848" stroke-width="2"><g><path d="M 10 10.003906L 188 10.003906"></path><path d="M 182 16.503906L 188.5 10.003906L 182 3.503906" stroke-dasharray="none"></path></g></g></g><g id="g-root-2.line_sy_4pfk3s1rl91c5-stroke" data-item-order="-384131" transform="translate(351, 383.00018310546875)"><g id="2.line_sy_4pfk3s1rl91c5-stroke" fill="none" stroke-linecap="round" stroke-linejoin="round" stroke-miterlimit="4" stroke="#484848" stroke-width="2"><g><path d="M 10 9.999817L 150 9.999817"></path><path d="M 144 16.499817L 150.5 9.999817L 144 3.499817" stroke-dasharray="none"></path></g></g></g><g id="g-root-3.line_sy_4pfk3s1rl91c6-stroke" data-item-order="-384125" transform="translate(351, 442.99609375)"><g id="3.line_sy_4pfk3s1rl91c6-stroke" fill="none" stroke-linecap="round" stroke-linejoin="round" stroke-miterlimit="4" stroke="#484848" stroke-width="2"><g><path d="M 10 10.003906L 212 10.003906"></path><path d="M 206 16.503906L 212.5 10.003906L 206 3.503906" stroke-dasharray="none"></path></g></g></g><g id="g-root-4.line_sy_1uuwlu01rl91xr-stroke" data-item-order="-384119" transform="translate(351, 502.99609375)"><g id="4.line_sy_1uuwlu01rl91xr-stroke" fill="none" stroke-linecap="round" stroke-linejoin="round" stroke-miterlimit="4" stroke="#484848" stroke-width="2"><g><path d="M 10 10.003906L 176 10.003906"></path><path d="M 170 16.503906L 176.5 10.003906L 170 3.503906" stroke-dasharray="none"></path></g></g></g><g id="g-root-tx_technica_18eg22w1rknzes-stroke" data-item-order="0" transform="translate(135, 143)"></g><g id="g-root-shar_1lrrzpk1rks9hn-stroke" data-item-order="0" transform="translate(291, 131)"><g id="shar_1lrrzpk1rks9hn-stroke" fill="none" stroke-linecap="round" stroke-linejoin="round" stroke-miterlimit="4" stroke="#484848" stroke-width="2"><g><path d="M 17 15L 49 15M 29 57L 17 57C 14.790861 57 13 55.209141 13 53L 13 15M 51 11L 17 11C 14.790861 11 13 12.790861 13 15C 13 17.209139 14.790861 19 17 19L 49 19C 50.104568 19 51 19.895432 51 21L 51 28M 30.993999 46.5C 30.993999 48.985283 33.00872 51 35.493999 51C 37.979282 51 39.993999 48.985283 39.993999 46.5C 39.993999 44.014717 37.979282 42 35.493999 42C 33.00872 42 30.993999 44.014717 30.993999 46.5ZM 45.993999 52.5C 45.993999 54.985283 48.00872 57 50.493999 57C 52.979282 57 54.993999 54.985283 54.993999 52.5C 54.993999 50.014717 52.979282 48 50.493999 48C 48.00872 48 45.993999 50.014717 45.993999 52.5ZM 45.993999 37.5C 45.993999 39.985283 48.00872 42 50.493999 42C 52.979282 42 54.993999 39.985283 54.993999 37.5C 54.993999 35.014717 52.979282 33 50.493999 33C 48.00872 33 45.993999 35.014717 45.993999 37.5ZM 39.344002 44.189999L 46.644001 39.809998M 39.669998 48.169998L 46.318001 50.830002"></path></g></g></g><g id="g-root-tx_codequal_1d3mlc81rl94az-stroke" data-item-order="0" transform="translate(159, 311)"></g><g id="g-root-aler_18itdoo1rkqtj5-stroke" data-item-order="0" transform="translate(291, 299)"><g id="aler_18itdoo1rkqtj5-stroke" fill="none" stroke-linecap="round" stroke-linejoin="round" stroke-miterlimit="4" stroke="#484848" stroke-width="2"><g><path d="M 31.124001 45L 15.124001 45C 12.914861 45 11.124 43.209141 11.124 41L 11.124 15C 11.124 12.790861 12.914861 11 15.124001 11L 45.124001 11C 47.333138 11 49.124001 12.790861 49.124001 15L 49.124001 29M 22.27 21.619999L 17.986 25.987999L 22.27 30.358M 37.251999 21.619999L 41.535999 25.987999L 37.251999 30.358M 27.122 31.450001L 31.492001 21.619999"></path></g></g></g><g id="g-root-tx_developm_1d3mlc81rl94ay-stroke" data-item-order="0" transform="translate(75, 371)"></g><g id="g-root-cate_1lviu881rkpfyn-stroke" data-item-order="0" transform="translate(291, 359)"><g id="cate_1lviu881rkpfyn-stroke" fill="none" stroke-linecap="round" stroke-linejoin="round" stroke-miterlimit="4" stroke="#484848" stroke-width="2"><g><path d="M 13 30C 13 36.075134 17.924868 41 24 41C 30.075132 41 35 36.075134 35 30C 35 23.92487 30.075132 19 24 19C 17.924868 19 13 23.92487 13 30ZM 34.599998 32.954002C 37.861862 35.549347 38.914707 40.04493 37.144485 43.818771C 35.374264 47.592613 31.244272 49.657043 27.16325 48.808022C 23.08223 47.959 20.118252 44.418724 20 40.251999M 37.882 38.534C 41.302292 39.857555 43.384579 43.337269 42.934345 46.976974C 42.484112 50.61668 39.616684 53.484112 35.976974 53.934345C 32.337265 54.384579 28.857555 52.302288 27.534 48.882M 42.484001 43.164001C 45.995766 42.386261 49.525398 44.396549 50.647957 47.813744C 51.770512 51.230942 50.12059 54.942722 46.83173 56.399002C 43.542866 57.855282 39.685616 56.582031 37.910004 53.454002M 50.438 47.248001C 52.315239 46.633659 54.378201 47.182026 55.702606 48.647419C 57.027016 50.112812 57.364616 52.220547 56.564152 54.026287C 55.763687 55.832024 53.975204 56.997288 52 57C 50.63475 57.001823 49.328476 56.443748 48.385998 55.456001M 11 14C 11 15.656855 12.343145 17 14 17C 15.656855 17 17 15.656855 17 14C 17 12.343145 15.656855 11 14 11C 12.343145 11 11 12.343145 11 14ZM 34 16C 34 17.656855 35.343147 19 37 19C 38.656853 19 40 17.656855 40 16C 40 14.343145 38.656853 13 37 13C 35.343147 13 34 14.343145 34 16ZM 15.954 16.276001C 18.044916 17.582294 19.441839 19.755447 19.762001 22.200001L 20 24.032M 34.214001 17.116001C 31.791643 18.60709 30.226135 21.164507 30 24M 19.5 28C 19.776142 28 20 28.223858 20 28.5M 19 28.5C 19 28.223858 19.223858 28 19.5 28M 19.5 29C 19.223858 29 19 28.776142 19 28.5M 20 28.5C 20 28.776142 19.776142 29 19.5 29M 28.5 28C 28.776142 28 29 28.223858 29 28.5M 28 28.5C 28 28.223858 28.223858 28 28.5 28M 28.5 29C 28.223858 29 28 28.776142 28 28.5M 29 28.5C 29 28.776142 28.776142 29 28.5 29M 21 33.582001C 21.492683 34.782681 22.706638 35.52562 24 35.417999C 25.293362 35.52562 26.507317 34.782681 27 33.582001"></path></g></g></g><g id="g-root-tx_hiddenca_1lz9ll41rl93i9-stroke" data-item-order="0" transform="translate(135, 431)"></g><g id="g-root-book_dikr601rko1s5-stroke" data-item-order="0" transform="translate(291, 419)"><g id="book_dikr601rko1s5-stroke" fill="none" stroke-linecap="round" stroke-linejoin="round" stroke-miterlimit="4" stroke="#484848" stroke-width="2"><g><path d="M 50 11L 19 11C 17.343145 11 16 12.343145 16 14C 16 15.656855 17.343145 17 19 17L 51 17C 51.552284 17 52 17.447716 52 18L 52 56C 52 56.552284 51.552284 57 51 57L 20 57C 17.790861 57 16 55.209141 16 53L 16 14M 45 47L 38 44L 38 40C 38 40 39.732002 39.299999 39.732002 35C 41.099998 35 41.620003 31 39.718002 31C 40.539703 29.840317 40.857128 28.397467 40.598 27C 39.615997 23 29.936001 23 28.954 27C 24.821999 26.139999 28.110001 30.424 28.110001 31C 26.148001 31 26.148001 35 28.110001 35C 28.110001 39.299999 30 40 30 40L 30 44L 23 47"></path></g></g></g><g id="g-root-tx_longterm_9m1zc1rl924g-stroke" data-item-order="0" transform="translate(39, 491)"></g><g id="g-root-2_18eg22w1rknzet-stroke" data-item-order="0" transform="translate(291, 479)"><g id="2_18eg22w1rknzet-stroke" fill="none" stroke-linecap="round" stroke-linejoin="round" stroke-miterlimit="4" stroke="#484848" stroke-width="2"><g><path d="M 23.236 33.992001L 34.007999 33.992001L 41.841999 43.784M 46.245998 50.638C 46.245712 52.287327 47.582672 53.624523 49.231998 53.624523C 50.881325 53.624523 52.218288 52.287327 52.217999 50.638C 52.218288 48.988674 50.881325 47.651478 49.231998 47.651478C 47.582672 47.651478 46.245712 48.988674 46.245998 50.638M 12.23 28.426001C 12.854139 25.954893 13.894326 23.608047 15.306 21.486M 20.09 16.336C 22.079926 14.739687 24.338631 13.511113 26.76 12.708M 33.683998 11.508C 36.231365 11.48674 38.76498 11.883335 41.183998 12.682M 47.400002 15.946C 49.446419 17.465603 51.226006 19.314804 52.666 21.417999M 55.624001 27.799999C 56.326744 30.250824 56.611397 32.802563 56.466 35.348M 54.958 42.209999C 54.081425 44.47942 52.809025 46.575256 51.199997 48.399998M 42.366001 54.888C 35.434166 57.655064 27.581539 56.806618 21.400723 52.62278C 15.219908 48.438942 11.51455 41.463707 11.507999 34"></path></g></g></g></g></g></svg>