<?xml version="1.0" encoding="utf-8" standalone="yes"?>
<!DOCTYPE svg PUBLIC "-//W3C//DTD SVG 1.1//EN" "http://www.w3.org/Graphics/SVG/1.1/DTD/svg11.dtd">
<svg width="638" height="746" viewBox="0 0 638 746" style="fill:none;stroke:none;fill-rule:evenodd;clip-rule:evenodd;stroke-linecap:round;stroke-linejoin:round;stroke-miterlimit:1.5;" version="1.1" xmlns="http://www.w3.org/2000/svg" xmlns:xlink="http://www.w3.org/1999/xlink"><style id="fontImports">@import url("https://fonts.googleapis.com/css2?family=Shantell+Sans:wght@300..800&amp;display=block");</style><g id="items" style="isolation: isolate"><g id="blend" style="mix-blend-mode: normal"><g id="g-root--1.cu_sy_1hd79l8hsrgn7-fill" data-item-order="-338682" transform="translate(15, 111)"><g id="-1.cu_sy_1hd79l8hsrgn7-fill" stroke="none" fill="#ebebeb"><g><path d="M 10 514L 10 586L 82 586L 82 514L 10 514ZM 34 490L 10 514L 82 514L 106 490L 34 490ZM 34 490L 34 418L 106.5 418L 106.5 490L 34 490ZM 58 394L 34 418L 106.5 418L 130 394L 58 394ZM 58 394L 58 322L 130 322L 130 394L 58 394ZM 82 298L 58 322L 130 322L 154 298L 82 298ZM 82 298L 82 226L 154 226L 154 298L 82 298ZM 106 202L 82 226L 154 226L 178 202L 106 202ZM 106 202L 106 130L 178 130L 178 202L 106 202ZM 130 106L 106 130L 178 130L 202 106L 130 106ZM 130 106L 130 34L 202 34L 202 106L 130 106ZM 154 10L 130 34L 202 34L 226 10L 154 10Z"></path></g></g></g><g id="g-root--1.cu_1_sy_18i6qfghsrea4-fill" data-item-order="-338678" transform="translate(387, 111)"><g id="-1.cu_1_sy_18i6qfghsrea4-fill" stroke="none" fill="#ebebeb"><g><path d="M 226 586L 226 514L 154.5 514L 154.5 586L 226 586ZM 226 514L 202 490L 130 490L 155 514L 226 514ZM 202 490L 202 418L 130.5 418L 130.5 490L 202 490ZM 202 418L 178 394L 106 394L 130.5 418L 202 418ZM 178 322L 178 394L 106 394L 106 322L 178 322ZM 178 322L 154 298L 82 298L 106 322L 178 322ZM 154 226L 154 298L 82 298L 82 226L 154 226ZM 154 226L 130 202L 58 202L 82 226L 154 226ZM 130 130L 130 202L 58 202L 58 130L 130 130ZM 130 130L 106 106L 34 106L 58 130L 130 130ZM 106 34L 106 106L 34 106L 34 34L 106 34ZM 106 34L 82 10L 10 10L 34 34L 106 34Z"></path></g></g></g><g id="g-root-1.cu_sy_142d8b0hsrf2d-fill" data-item-order="-338674" transform="translate(87, 591)"><g id="1.cu_sy_142d8b0hsrf2d-fill" stroke="none" fill="#dce9ff"><g><path d="M 10 106L 10 34L 454.5 34L 454.5 106L 10 106ZM 430 10L 455 34L 10 34L 34 10L 430 10Z"></path></g></g></g><g id="g-root-2.cu_sy_142d8b0hsrf2e-fill" data-item-order="-338670" transform="translate(111.49984741210938, 495)"><g id="2.cu_sy_142d8b0hsrf2e-fill" stroke="none" fill="#c8ffe5"><g><path d="M 10 106L 10 34L 406 34L 406 106L 10 106ZM 381.5 10L 406 34L 10 34L 33.5 10L 381.5 10Z"></path></g></g></g><g id="g-root-3.cu_sy_v6q824hsrfv3-fill" data-item-order="-338666" transform="translate(135, 399)"><g id="3.cu_sy_v6q824hsrfv3-fill" stroke="none" fill="#e9ffb9"><g><path d="M 10 106L 10 34L 358 34L 358 106L 10 106ZM 334 10L 358 34L 10 34L 34 10L 334 10Z"></path></g></g></g><g id="g-root-4.cu_sy_zmjq6khsrfuo-fill" data-item-order="-338662" transform="translate(159, 303)"><g id="4.cu_sy_zmjq6khsrfuo-fill" stroke="none" fill="#d1f4ff"><g><path d="M 10 34L 10 106L 310 106L 310 34L 10 34ZM 286 10L 310 34L 10 34L 34 10L 286 10Z"></path></g></g></g><g id="g-root-5.cu_sy_qqwpxohsrgnd-fill" data-item-order="-338658" transform="translate(183.00009155273438, 207)"><g id="5.cu_sy_qqwpxohsrgnd-fill" stroke="none" fill="#fff8b6"><g><path d="M 10 106L 10 34L 262 34L 262 106L 10 106ZM 238 10L 262 34L 10 34L 34 10L 238 10Z"></path></g></g></g><g id="g-root-6.cu_sy_qqwpxohsrgne-fill" data-item-order="-338654" transform="translate(207.00009155273438, 111)"><g id="6.cu_sy_qqwpxohsrgne-fill" stroke="none" fill="#ffe4cb"><g><path d="M 10 106L 10 34L 214 34L 214 106L 10 106ZM 190 10L 214 34L 10 34L 34 10L 190 10Z"></path></g></g></g><g id="g-root-48px_4mxkr0ht2o77-fill" data-item-order="0" transform="translate(123, 243)"></g><g id="g-root-3_1hckytohsj0ua-fill" data-item-order="0" transform="translate(543, 627)"></g><g id="g-root-scan_4o6ix8ht1am9-fill" data-item-order="0" transform="translate(447, 243)"></g><g id="g-root-robo_1uqj77whsre2y-fill" data-item-order="0" transform="translate(423, 147)"></g><g id="g-root-48px_v3lxschsokxv-fill" data-item-order="0" transform="translate(99, 339)"></g><g id="g-root-tx_debttrac_9096j0hsrfuv-fill" data-item-order="0" transform="translate(237, 351)"><g id="tx_debttrac_9096j0hsrfuv-fill" stroke="none" fill="#1eabda"><g><text style="font: 20px &quot;Shantell Sans&quot;, cursive; white-space: pre;" font-size="20px" font-family="'Shantell Sans', cursive"><tspan x="15.59" y="35.5" dominant-baseline="ideographic">Debt Tracking</tspan></text></g></g></g><g id="g-root-valu_1qf33v0hskd8q-fill" data-item-order="0" transform="translate(471, 339)"></g><g id="g-root-tx_automate_4kfoekhsrgn5-fill" data-item-order="0" transform="translate(249, 147)"><g id="tx_automate_4kfoekhsrgn5-fill" stroke="none" fill="#de8431"><g><text style="font: 20px &quot;Shantell Sans&quot;, cursive; white-space: pre;" font-size="20px" font-family="'Shantell Sans', cursive"><tspan x="12.88" y="35.5" dominant-baseline="ideographic">Automated </tspan><tspan x="32.35" y="59.5" dominant-baseline="ideographic">Testing</tspan></text></g></g></g><g id="g-root-48px_1q8uczwhsvnd3-fill" data-item-order="0" transform="translate(75, 435)"></g><g id="g-root-tx_boyscout_9096j0hsrfuu-fill" data-item-order="0" transform="translate(231, 447)"><g id="tx_boyscout_9096j0hsrfuu-fill" stroke="none" fill="#92bd39"><g><text style="font: 20px &quot;Shantell Sans&quot;, cursive; white-space: pre;" font-size="20px" font-family="'Shantell Sans', cursive"><tspan x="16.05" y="35.5" dominant-baseline="ideographic">Boy Scout Rule</tspan></text></g></g></g><g id="g-root-code_qss8cshsrfv1-fill" data-item-order="0" transform="translate(495, 435)"></g><g id="g-root-48px_1usemh8hsyf49-fill" data-item-order="0" transform="translate(147, 147)"></g><g id="g-root-48px_1cuvya4ht2nez-fill" data-item-order="0" transform="translate(51, 531)"></g><g id="g-root-tx_refactor_dg2onghsrf2l-fill" data-item-order="0" transform="translate(213, 543)"><g id="tx_refactor_dg2onghsrf2l-fill" stroke="none" fill="#3cc583"><g><text style="font: 20px &quot;Shantell Sans&quot;, cursive; white-space: pre;" font-size="20px" font-family="'Shantell Sans', cursive"><tspan x="13.82" y="35.5" dominant-baseline="ideographic">Refactoring Sprints</tspan></text></g></g></g><g id="g-root-code_dl2ki4hsyfwt-fill" data-item-order="0" transform="translate(519, 531)"></g><g id="g-root-48px_92r970hskfeu-fill" data-item-order="0" transform="translate(27, 627)"></g><g id="g-root-tx_coderevi_dg2onghsrf2k-fill" data-item-order="0" transform="translate(237, 639)"><g id="tx_coderevi_dg2onghsrf2k-fill" stroke="none" fill="#4e88e7"><g><text style="font: 20px &quot;Shantell Sans&quot;, cursive; white-space: pre;" font-size="20px" font-family="'Shantell Sans', cursive"><tspan x="15.58" y="35.5" dominant-baseline="ideographic">Code Reviews</tspan></text></g></g></g><g id="g-root-tx_stepstom_mbpowchsre9v-fill" data-item-order="0" transform="translate(93, 27)"><g id="tx_stepstom_mbpowchsre9v-fill" stroke="none" fill="#484848"><g><text style="font: bold 25px &quot;Shantell Sans&quot;, cursive; white-space: pre;" font-weight="bold" font-size="25px" font-family="'Shantell Sans', cursive"><tspan x="15.96" y="44.5" dominant-baseline="ideographic">Steps to Manage Technical Debt</tspan></text></g></g></g><g id="g-root-tx_qualityg_4kfoekhsrgn4-fill" data-item-order="0" transform="translate(237, 255)"><g id="tx_qualityg_4kfoekhsrgn4-fill" stroke="none" fill="#e0cb15"><g><text style="font: 20px &quot;Shantell Sans&quot;, cursive; white-space: pre;" font-size="20px" font-family="'Shantell Sans', cursive"><tspan x="15.71" y="35.5" dominant-baseline="ideographic">Quality Gates</tspan></text></g></g></g><g id="g-root--1.cu_sy_1hd79l8hsrgn7-stroke" data-item-order="-338682" transform="translate(15, 111)"><g id="-1.cu_sy_1hd79l8hsrgn7-stroke" fill="none" stroke-linecap="round" stroke-linejoin="round" stroke-miterlimit="4" stroke="#ffffff" stroke-width="2"><g><path d="M 10 586L 10 514L 82 514L 82 586L 10 586ZM 10 514L 34 490L 106 490L 82 514L 10 514ZM 34 490L 34 418L 106.5 418L 106.5 490L 34 490ZM 34 418L 58 394L 130 394L 106.5 418L 34 418ZM 58 394L 58 322L 130 322L 130 394L 58 394ZM 58 322L 82 298L 154 298L 130 322L 58 322ZM 82 298L 82 226L 154 226L 154 298L 82 298ZM 82 226L 106 202L 178 202L 154 226L 82 226ZM 106 202L 106 130L 178 130L 178 202L 106 202ZM 106 130L 130 106L 202 106L 178 130L 106 130ZM 130 106L 130 34L 202 34L 202 106L 130 106ZM 130 34L 154 10L 226 10L 202 34L 130 34Z"></path></g></g></g><g id="g-root--1.cu_1_sy_18i6qfghsrea4-stroke" data-item-order="-338678" transform="translate(387, 111)"><g id="-1.cu_1_sy_18i6qfghsrea4-stroke" fill="none" stroke-linecap="round" stroke-linejoin="round" stroke-miterlimit="4" stroke="#ffffff" stroke-width="2"><g><path d="M 226 586L 226 514L 154.5 514L 154.5 586L 226 586ZM 226 514L 202 490L 130 490L 155 514L 226 514ZM 202 418L 202 490L 130.5 490L 130.5 418L 202 418ZM 202 418L 178 394L 106 394L 130.5 418L 202 418ZM 178 322L 178 394L 106 394L 106 322L 178 322ZM 178 322L 154 298L 82 298L 106 322L 178 322ZM 154 226L 154 298L 82 298L 82 226L 154 226ZM 154 226L 130 202L 58 202L 82 226L 154 226ZM 130 130L 130 202L 58 202L 58 130L 130 130ZM 130 130L 106 106L 34 106L 58 130L 130 130ZM 106 106L 106 34L 34 34L 34 106L 106 106ZM 106 34L 82 10L 10 10L 34 34L 106 34Z"></path></g></g></g><g id="g-root-1.cu_sy_142d8b0hsrf2d-stroke" data-item-order="-338674" transform="translate(87, 591)"><g id="1.cu_sy_142d8b0hsrf2d-stroke" fill="none" stroke-linecap="round" stroke-linejoin="round" stroke-miterlimit="4" stroke="#ffffff" stroke-width="2"><g><path d="M 10 34L 10 106L 454.5 106L 454.5 34L 10 34ZM 455 34L 430 10L 34 10L 10 34L 455 34Z"></path></g></g></g><g id="g-root-2.cu_sy_142d8b0hsrf2e-stroke" data-item-order="-338670" transform="translate(111.49984741210938, 495)"><g id="2.cu_sy_142d8b0hsrf2e-stroke" fill="none" stroke-linecap="round" stroke-linejoin="round" stroke-miterlimit="4" stroke="#ffffff" stroke-width="2"><g><path d="M 10 34L 10 106L 406 106L 406 34L 10 34ZM 406 34L 381.5 10L 33.5 10L 10 34L 406 34Z"></path></g></g></g><g id="g-root-3.cu_sy_v6q824hsrfv3-stroke" data-item-order="-338666" transform="translate(135, 399)"><g id="3.cu_sy_v6q824hsrfv3-stroke" fill="none" stroke-linecap="round" stroke-linejoin="round" stroke-miterlimit="4" stroke="#ffffff" stroke-width="2"><g><path d="M 10 34L 10 106L 358 106L 358 34L 10 34ZM 358 34L 334 10L 34 10L 10 34L 358 34Z"></path></g></g></g><g id="g-root-4.cu_sy_zmjq6khsrfuo-stroke" data-item-order="-338662" transform="translate(159, 303)"><g id="4.cu_sy_zmjq6khsrfuo-stroke" fill="none" stroke-linecap="round" stroke-linejoin="round" stroke-miterlimit="4" stroke="#ffffff" stroke-width="2"><g><path d="M 10 106L 10 34L 310 34L 310 106L 10 106ZM 310 34L 286 10L 34 10L 10 34L 310 34Z"></path></g></g></g><g id="g-root-5.cu_sy_qqwpxohsrgnd-stroke" data-item-order="-338658" transform="translate(183.00009155273438, 207)"><g id="5.cu_sy_qqwpxohsrgnd-stroke" fill="none" stroke-linecap="round" stroke-linejoin="round" stroke-miterlimit="4" stroke="#ffffff" stroke-width="2"><g><path d="M 10 34L 10 106L 262 106L 262 34L 10 34ZM 262 34L 238 10L 34 10L 10 34L 262 34Z"></path></g></g></g><g id="g-root-6.cu_sy_qqwpxohsrgne-stroke" data-item-order="-338654" transform="translate(207.00009155273438, 111)"><g id="6.cu_sy_qqwpxohsrgne-stroke" fill="none" stroke-linecap="round" stroke-linejoin="round" stroke-miterlimit="4" stroke="#ffffff" stroke-width="2"><g><path d="M 10 34L 10 106L 214 106L 214 34L 10 34ZM 214 34L 190 10L 34 10L 10 34L 214 34Z"></path></g></g></g><g id="g-root-48px_4mxkr0ht2o77-stroke" data-item-order="0" transform="translate(123, 243)"><g id="48px_4mxkr0ht2o77-stroke" fill="none" stroke-linecap="round" stroke-linejoin="round" stroke-miterlimit="4" stroke="#969696" stroke-width="2"><g><path d="M 15.07227 30.179C 15.07227 24.4822 17.78873 19.69573 23.0107 19.69573C 28.2328 19.69573 30.9492 24.4822 30.9492 30.179L 30.9492 37.2732C 30.9492 42.97 28.1054 47.8821 23.0107 47.8821C 17.91609 47.8821 15.07227 42.97 15.07227 37.2732L 15.07227 30.179ZM 53.6933 20.1206L 40.3788 20.1206L 38.9878 33.1442C 39.8169 32.315 42.3531 30.6566 45.8651 30.6566C 49.9711 30.6566 53.8125 33.4467 53.427 40.0524C 53.0278 46.8938 48.912 47.9042 45.5285 47.9042C 41.9445 47.9042 38.405 45.3609 38.0728 40.565"></path></g></g></g><g id="g-root-3_1hckytohsj0ua-stroke" data-item-order="0" transform="translate(543, 627)"><g id="3_1hckytohsj0ua-stroke" fill="none" stroke-linecap="round" stroke-linejoin="round" stroke-miterlimit="4" stroke="#4e88e7" stroke-width="2"><g><path d="M 21 27C 21 28.10457 21.895432 29 23 29L 27 29L 33 35L 33 29L 49 29C 50.104568 29 51 28.10457 51 27L 51 13C 51 11.895431 50.104568 11 49 11L 23 11C 21.895432 11 21 11.895431 21 13ZM 15.5 39.5C 15.5 41.985283 17.514719 44 20 44C 22.485281 44 24.5 41.985283 24.5 39.5C 24.5 37.014717 22.485281 35 20 35C 17.514719 35 15.5 37.014717 15.5 39.5M 26.34 48.540001C 23.952589 46.282539 20.547699 45.459248 17.392637 46.37656C 14.237577 47.293873 11.804879 49.814404 11 53M 43.5 39.5C 43.5 41.985283 45.514717 44 48 44C 50.485283 44 52.5 41.985283 52.5 39.5C 52.5 37.014717 50.485283 35 48 35C 45.514717 35 43.5 37.014717 43.5 39.5M 41.66 48.540001C 44.047413 46.282539 47.452305 45.459248 50.607365 46.37656C 53.762424 47.293873 56.195122 49.814404 57 53M 29.5 43.5C 29.5 45.985283 31.514719 48 34 48C 36.485283 48 38.5 45.985283 38.5 43.5C 38.5 41.014717 36.485283 39 34 39C 31.514719 39 29.5 41.014717 29.5 43.5M 43 57C 41.933315 52.902744 38.233833 50.043076 34 50.043076C 29.766167 50.043076 26.066687 52.902744 25 57M 42 16L 46 20L 42 24M 30 16L 26 20L 30 24M 38 16L 34 24"></path></g></g></g><g id="g-root-scan_4o6ix8ht1am9-stroke" data-item-order="0" transform="translate(447, 243)"><g id="scan_4o6ix8ht1am9-stroke" fill="none" stroke-linecap="round" stroke-linejoin="round" stroke-miterlimit="4" stroke="#e0cb15" stroke-width="2"><g><path d="M 40 26C 40 28.209139 41.790863 30 44 30C 46.209141 30 48 28.209139 48 26C 48 23.790861 46.209141 22 44 22C 41.790863 22 40 23.790861 40 26M 23 24L 23 26C 23 28.209139 21.209139 30 19 30C 16.790861 30 15 28.209139 15 26L 15 24M 31 57L 31 18L 57 18L 57 57M 33 11L 55 11C 56.104568 11 57 11.895431 57 13L 57 18L 57 18L 31 18L 31 18L 31 13C 31 11.895431 31.89543 11 33 11ZM 41.5 14C 41.776142 14 42 14.223858 42 14.5C 42 14.776142 41.776142 15 41.5 15C 41.223858 15 41 14.776142 41 14.5C 41 14.223858 41.223858 14 41.5 14M 47.5 14C 47.776142 14 48 14.223858 48 14.5C 48 14.776142 47.776142 15 47.5 15C 47.223858 15 47 14.776142 47 14.5C 47 14.223858 47.223858 14 47.5 14M 14.9 35.139999L 23 47M 14.42 22.82C 14.178673 22.354771 14.346096 21.782009 14.8 21.52L 18.48 19.299999C 18.802845 19.118252 19.197155 19.118252 19.52 19.299999L 23.200001 21.52C 23.653904 21.782009 23.821327 22.354771 23.58 22.82L 23 24L 15 24ZM 47 57L 48 47L 51 47C 51.552284 47 52 46.552284 52 46L 52 42C 52 37.581722 48.418278 34 44 34C 39.581722 34 36 37.581722 36 42L 36 46C 36 46.552284 36.447716 47 37 47L 40 47L 41 57ZM 22 57L 23 47L 26 47C 26.552284 47 27 46.552284 27 46L 27 42C 27 37.581722 23.418278 34 19 34C 14.581722 34 11 37.581722 11 42L 11 46C 11 46.552284 11.447716 47 12 47L 15 47L 16 57Z"></path></g></g></g><g id="g-root-robo_1uqj77whsre2y-stroke" data-item-order="0" transform="translate(423, 147)"><g id="robo_1uqj77whsre2y-stroke" fill="none" stroke-linecap="round" stroke-linejoin="round" stroke-miterlimit="4" stroke="#de8431" stroke-width="2"><g><path d="M 33.301399 20.75L 16.07682 20.75C 13.92234 20.75 12.17578 22.496559 12.17578 24.651039L 12.17578 44.1562C 12.17578 46.310799 13.92234 48.057201 16.07682 48.057201L 47.285198 48.057201C 49.439602 48.057201 51.186199 46.310799 51.186199 44.1562L 51.186199 35.765602M 31.681601 48.0546L 31.681601 55.8568M 25.828121 55.859402L 37.5312 55.859402M 12.17578 40.585999L 51.186199 40.585999M 43.049999 17.296L 51.821999 17.296C 51.821999 17.296 55.821999 17.296 55.821999 21.296L 55.821999 26.344C 55.821999 26.344 55.821999 30.344 51.821999 30.344L 43.049999 30.344C 43.049999 30.344 39.049999 30.344 39.049999 26.344L 39.049999 21.296C 39.049999 21.296 39.049999 17.296 43.049999 17.296M 10 10M 47.437599 12.15052L 47.437599 17.296879M 10 10M 44.687401 22.66078L 44.687599 24.984379M 10 10M 50.187401 22.66078L 50.187599 24.984379"></path></g></g></g><g id="g-root-48px_v3lxschsokxv-stroke" data-item-order="0" transform="translate(99, 339)"><g id="48px_v3lxschsokxv-stroke" fill="none" stroke-linecap="round" stroke-linejoin="round" stroke-miterlimit="4" stroke="#969696" stroke-width="2"><g><path d="M 15.07227 30.179C 15.07227 24.4822 17.78873 19.69573 23.0107 19.69573C 28.2328 19.69573 30.9492 24.4822 30.9492 30.179L 30.9492 37.2732C 30.9492 42.97 28.1054 47.8821 23.0107 47.8821C 17.91609 47.8821 15.07227 42.97 15.07227 37.2732L 15.07227 30.179ZM 49.9098 47.9788L 49.9098 19.55127L 36.2949 39.738L 55.3147 39.738"></path></g></g></g><g id="g-root-tx_debttrac_9096j0hsrfuv-stroke" data-item-order="0" transform="translate(237, 351)"></g><g id="g-root-valu_1qf33v0hskd8q-stroke" data-item-order="0" transform="translate(471, 339)"><g id="valu_1qf33v0hskd8q-stroke" fill="none" stroke-linecap="round" stroke-linejoin="round" stroke-miterlimit="4" stroke="#1eabda" stroke-width="2"><g><path d="M 56.486 56.5L 11.5 56.5L 11.5 11.5M 18.75 56.5L 18.75 25.234901L 25.533939 42L 41.625 18L 41.625 55.5M 25.625 56.5L 25.625 15L 35.437202 40.375L 47.604198 36L 49.697601 27L 56.486401 18L 56.486401 55.5"></path></g></g></g><g id="g-root-tx_automate_4kfoekhsrgn5-stroke" data-item-order="0" transform="translate(249, 147)"></g><g id="g-root-48px_1q8uczwhsvnd3-stroke" data-item-order="0" transform="translate(75, 435)"><g id="48px_1q8uczwhsvnd3-stroke" fill="none" stroke-linecap="round" stroke-linejoin="round" stroke-miterlimit="4" stroke="#969696" stroke-width="2"><g><path d="M 15.07227 30.1785C 15.07227 24.4817 17.78873 19.69524 23.0107 19.69524C 28.2328 19.69524 30.9492 24.4817 30.9492 30.1785L 30.9492 37.2727C 30.9492 42.9695 28.1054 47.8816 23.0107 47.8816C 17.91609 47.8816 15.07227 42.9695 15.07227 37.2727L 15.07227 30.1785ZM 37.1212 27.0681C 37.0021 24.6592 38.4826 19.70994 45.0653 19.70994C 51.648 19.70994 52.6563 24.5974 52.4282 27.357C 52.1767 30.3999 50.2718 33.5079 42.2007 33.5079C 49.7136 33.5079 53.1255 35.562 53.1255 41.1245C 53.1255 45.9328 48.8755 47.8898 44.9922 47.8898C 42.2014 47.866 36.6196 46.2871 36.6196 40.1622"></path></g></g></g><g id="g-root-tx_boyscout_9096j0hsrfuu-stroke" data-item-order="0" transform="translate(231, 447)"></g><g id="g-root-code_qss8cshsrfv1-stroke" data-item-order="0" transform="translate(495, 435)"><g id="code_qss8cshsrfv1-stroke" fill="none" stroke-linecap="round" stroke-linejoin="round" stroke-miterlimit="4" stroke="#92bd39" stroke-width="2"><g><path d="M 35.071999 54.858002C 35.070896 56.041317 34.11132 57 32.928001 57L 13.642 57C 12.459463 56.998898 11.501102 56.040539 11.5 54.858002L 11.5 49.5C 11.5 42.990772 16.776772 37.714001 23.285999 37.714001C 29.795229 37.714001 35.071999 42.990772 35.071999 49.5ZM 18.785999 45C 18.785999 45.276142 19.009857 45.5 19.285999 45.5C 19.562141 45.5 19.785999 45.276142 19.785999 45C 19.785999 44.723858 19.562141 44.5 19.285999 44.5C 19.009857 44.5 18.785999 44.723858 18.785999 45M 26.785999 44.987999C 26.785999 45.264141 27.009857 45.487999 27.285999 45.487999C 27.562143 45.487999 27.785999 45.264141 27.785999 44.987999C 27.785999 44.711857 27.562143 44.487999 27.285999 44.487999C 27.009857 44.487999 26.785999 44.711857 26.785999 44.987999M 23.285999 37.714001L 23.285999 33.428001M 20.071999 30.214001C 20.072001 31.989044 21.510956 33.428001 23.285999 33.428001C 25.061043 33.428001 26.5 31.989044 26.5 30.214001C 26.5 28.438957 25.061043 27 23.285999 27C 21.510956 27 20.072001 28.438957 20.072001 30.214001M 11.5 51.630001L 35.071999 51.630001M 48.5 12L 56.5 20L 48.5 28M 32.5 12L 24.5 20L 32.5 28M 42.5 11L 38.5 29"></path></g></g></g><g id="g-root-48px_1usemh8hsyf49-stroke" data-item-order="0" transform="translate(147, 147)"><g id="48px_1usemh8hsyf49-stroke" fill="none" stroke-linecap="round" stroke-linejoin="round" stroke-miterlimit="4" stroke="#969696" stroke-width="2"><g><path d="M 15.07227 30.179C 15.07227 24.4822 17.78873 19.69573 23.0107 19.69573C 28.2328 19.69573 30.9492 24.4822 30.9492 30.179L 30.9492 37.2732C 30.9492 42.97 28.1054 47.8821 23.0107 47.8821C 17.91609 47.8821 15.07227 42.97 15.07227 37.2732L 15.07227 30.179ZM 50.4177 19.66455C 41.5841 19.66455 37.3689 25.3826 37.0372 34.1429L 37.0366 38.3591C 37.0366 43.8898 40.1088 47.444 45.2315 47.8822C 50.0566 48.0693 53.0601 44.2805 53.2764 38.7917C 53.4138 35.3065 51.6448 30.4145 46.2143 29.8714C 41.4554 29.3956 37.7358 32.5583 37.0372 35.9766"></path></g></g></g><g id="g-root-48px_1cuvya4ht2nez-stroke" data-item-order="0" transform="translate(51, 531)"><g id="48px_1cuvya4ht2nez-stroke" fill="none" stroke-linecap="round" stroke-linejoin="round" stroke-miterlimit="4" stroke="#969696" stroke-width="2"><g><path d="M 15.07227 30.1785C 15.07227 24.4817 17.78873 19.69524 23.0107 19.69524C 28.2328 19.69524 30.9492 24.4817 30.9492 30.1785L 30.9492 37.2727C 30.9492 42.9695 28.1054 47.8816 23.0107 47.8816C 17.91609 47.8816 15.07227 42.9695 15.07227 37.2727L 15.07227 30.1785ZM 36.8315 27.5154C 36.8315 22.8951 40.0559 19.69531 44.4376 19.69531C 51.7066 19.69531 54.1859 26.7886 49.4213 33.0984L 37.33 47.4175L 53.9507 47.4175"></path></g></g></g><g id="g-root-tx_refactor_dg2onghsrf2l-stroke" data-item-order="0" transform="translate(213, 543)"></g><g id="g-root-code_dl2ki4hsyfwt-stroke" data-item-order="0" transform="translate(519, 531)"><g id="code_dl2ki4hsyfwt-stroke" fill="none" stroke-linecap="round" stroke-linejoin="round" stroke-miterlimit="4" stroke="#3cc583" stroke-width="2"><g><path d="M 28.300039 18.17502L 28.300039 13.57502C 28.300039 12.37502 29.10004 11.575012 30.299999 11.575012L 49.5 11.575012C 49.900002 11.575012 50.5 11.775012 50.700001 11.975012L 55.5 15.975019C 55.900002 16.375019 56.299999 16.975019 56.299999 17.57502L 56.299999 42.575001C 56.299999 43.775002 55.5 44.575001 54.299999 44.575001L 39.299999 44.575001M 10 10M 36.299999 19.974979L 33.299999 22.974979L 36.299999 25.974979M 10 10M 48.299999 19.974979L 51.299999 22.974979L 48.299999 25.974979M 10 10M 40.299999 26.97504L 44.299999 17.97504M 37.099998 56.424999C 35.299999 51.224998 30.299999 47.424999 24.49996 47.424999C 18.699959 47.424999 13.49996 51.224998 11.699952 56.424999M 24.299999 29.42498L 24.299999 23.42498M 13.2998 35.224998L 35.299801 35.224998M 16.0998 37.424999C 16.299801 41.825001 19.899799 45.424999 24.299801 45.424999C 28.899799 45.424999 32.499802 41.825001 32.499802 37.224998L 32.499802 33.625C 32.499802 29.024981 28.899799 25.42498 24.299801 25.42498C 19.899799 25.42498 16.299801 29.024981 16.0998 33.424999L 16.0998 37.424999Z"></path></g></g></g><g id="g-root-48px_92r970hskfeu-stroke" data-item-order="0" transform="translate(27, 627)"><g id="48px_92r970hskfeu-stroke" fill="none" stroke-linecap="round" stroke-linejoin="round" stroke-miterlimit="4" stroke="#969696" stroke-width="2"><g><path d="M 37.8418 23.3774L 46.2969 20.1836L 46.2969 47.951M 15.07227 30.1785C 15.07227 24.4817 17.78873 19.69524 23.0107 19.69524C 28.2328 19.69524 30.9492 24.4817 30.9492 30.1785L 30.9492 37.2727C 30.9492 42.9695 28.1054 47.8816 23.0107 47.8816C 17.91609 47.8816 15.07227 42.9695 15.07227 37.2727L 15.07227 30.1785Z"></path></g></g></g><g id="g-root-tx_coderevi_dg2onghsrf2k-stroke" data-item-order="0" transform="translate(237, 639)"></g><g id="g-root-tx_stepstom_mbpowchsre9v-stroke" data-item-order="0" transform="translate(93, 27)"></g><g id="g-root-tx_qualityg_4kfoekhsrgn4-stroke" data-item-order="0" transform="translate(237, 255)"></g></g></g></svg>