<?xml version="1.0" encoding="utf-8" standalone="yes"?>
<!DOCTYPE svg PUBLIC "-//W3C//DTD SVG 1.1//EN" "http://www.w3.org/Graphics/SVG/1.1/DTD/svg11.dtd">
<svg width="604" height="532" viewBox="0 0 604 532" style="fill:none;stroke:none;fill-rule:evenodd;clip-rule:evenodd;stroke-linecap:round;stroke-linejoin:round;stroke-miterlimit:1.5;" version="1.1" xmlns="http://www.w3.org/2000/svg" xmlns:xlink="http://www.w3.org/1999/xlink"><style class="text-font-style fontImports" data-font-family="Shantell Sans">@import url('https://fonts.googleapis.com/css2?family=Shantell+Sans:wght@300..800&amp;display=block');</style><rect id="" x="0" y="0" width="604" height="532" style="fill: #ffffff;"></rect><g id="items" style="isolation: isolate"><g id="blend" style="mix-blend-mode: normal"><g id="g-root-tf_me8h1o1dz7xfr-fill" data-item-order="-316800" transform="translate(-8, -8)"><g id="tf_me8h1o1dz7xfr-fill" stroke="none" fill="#ffffff"><g><path d="M 10 10L 610 10L 610 538L 10 538Z"></path></g></g></g><g id="g-root-4.cu_sy_90wd3g1dzrl72-fill" data-item-order="-105977" transform="translate(123.95700073242188, 280.75)"></g><g id="g-root-3.Exclude_sy_90wd3g1dzrl73-fill" data-item-order="-105974" transform="translate(245.055908203125, 318)"><g id="3.Exclude_sy_90wd3g1dzrl73-fill" stroke="none" fill="#ebebeb"><g><path d="M 73.344107 10L 58.644107 4.6L 46.344107 21.5L 66.444107 28.8ZM 46.344107 21.5L 73.844107 56.7L 85.644107 39.3L 58.644107 4.6ZM 85.644107 39.3L 42.544107 26.9L 33.244107 45.1L 73.844107 56.7ZM 33.244107 45.1L 84.444107 85.5L 95.044107 68.5L 42.544107 26.9ZM 95.044107 68.5L 41.144107 42.6L 29.944107 59.4L 84.444107 85.5ZM 29.944107 59.4L 86.044107 109.2L 96.344107 91.6L 41.144107 42.6ZM 96.344107 91.6L 31.044107 68.9L 20.444107 86.4L 86.044107 109.2ZM 20.444107 86.4L 69.744107 133L 81.644107 116.7L 31.044107 68.9ZM 81.644107 116.7L 28.944107 87.7L 10.144107 100.2L 69.744107 133ZM 10.144107 100.2L 13.544107 130L 32.644107 121.1L 28.944107 87.7ZM 32.644107 121.1L 20.744107 108.7L 6.344107 122.5L 13.544107 130Z" fill-rule="nonzero"></path></g></g></g><g id="g-root-2.right-bucket_sy_dgpv7w1dzrl6o-fill" data-item-order="-105970" transform="translate(340, 244)"><g id="2.right-bucket_sy_dgpv7w1dzrl6o-fill" stroke="none" fill="#c8ffe5"><g><path d="M 6.1 9.4L 5.3 18L 24.3 28.8L 26 11.3ZM 24.3 28.8L 44.8 13.6L 24.5 3.8L 5.3 18ZM 24.5 3.8L 25.3 28.2L 45.6 37.5L 44.8 13.6ZM 45.6 37.5L 71.1 16.8L 53.7 5.2L 25.3 28.2ZM 53.7 5.2L 46.4 29.7L 64.3 40L 71.1 16.8ZM 64.3 40L 90 12.8L 70.5 4.2L 46.4 29.7ZM 70.5 4.2L 68.4 34.9L 88 42.2L 90 12.8ZM 88 42.2L 106.9 17L 86.5 10.9L 68.4 34.9ZM 86.5 10.9L 88.4 44L 108.8 50.2L 106.9 17ZM 108.8 50.2L 135.4 15.4L 116.5 7.2L 88.4 44ZM 116.5 7.2L 111.5 36.5L 130.6 43.5L 135.4 15.4ZM 130.6 43.5L 150.9 9.3L 130.1 5.2L 111.5 36.5ZM 130.1 5.2L 135.5 40.6L 156.4 45.3L 150.9 9.3ZM 156.4 45.3L 178.7 12.3L 158.5 6.4L 135.5 40.6ZM 158.5 6.4L 159.6 43.9L 179.7 47.7L 178.7 12.3ZM 179.7 47.7L 195.4 10L 175.4 6.1L 159.6 43.9ZM 175.4 6.1L 175.7 36L 195.8 43.5L 195.4 10ZM 195.8 43.5L 223.3 12.5L 205.4 2.6L 175.7 36ZM 205.4 2.6L 199 24.3L 216.5 35.4L 223.3 12.5ZM 216.5 35.4L 238.3 16L 220.3 5.3L 199 24.3ZM 220.3 5.3L 218.2 14.3L 237.7 18.9L 238.3 16Z" fill-rule="nonzero"></path></g></g></g><g id="g-root-1.left-bucket_sy_dgpv7w1dzrl6p-fill" data-item-order="-105966" transform="translate(16, 292)"><g id="1.left-bucket_sy_dgpv7w1dzrl6p-fill" stroke="none" fill="#ffd9d8"><g><path d="M 3.4 11.9L 3.1 15.8L 22 29.6L 23.4 13.7ZM 22 29.6L 49 18.3L 31.3 4L 3.1 15.8ZM 31.3 4L 27.9 22.3L 46.4 32.6L 49 18.3ZM 46.4 32.6L 64.5 16.4L 43.5 8.4L 27.9 22.3ZM 43.5 8.4L 46.6 36.6L 67.6 44L 64.5 16.4ZM 67.6 44L 91.8 20L 72.7 10.8L 46.6 36.6ZM 72.7 10.8L 69.5 40.7L 88.8 48.1L 91.8 20ZM 88.8 48.1L 112.9 14.9L 92.3 9.2L 69.5 40.7ZM 92.3 9.2L 94.7 36.6L 115.2 41.4L 112.9 14.9ZM 115.2 41.4L 134.5 10.5L 115.1 3.8L 94.7 36.6ZM 115.1 3.8L 110.7 44.7L 130.1 50.9L 134.5 10.5ZM 130.1 50.9L 151.9 11.8L 132 6.4L 110.7 44.7ZM 132 6.4L 131.3 42.8L 151.1 49.6L 151.9 11.8ZM 151.1 49.6L 179.2 12.1L 160.1 4.2L 131.3 42.8ZM 160.1 4.2L 155.1 41L 174.2 48.9L 179.2 12.1ZM 174.2 48.9L 201 13.4L 181.9 5.4L 155.1 41ZM 181.9 5.4L 177.7 34.2L 196.6 43.3L 201 13.4ZM 196.6 43.3L 220.2 18.1L 201.4 8.9L 177.7 34.2ZM 201.4 8.9L 198.8 25.6L 217.4 35.6L 220.2 18.1ZM 217.4 35.6L 238.3 16.7L 218.4 7.8L 198.8 25.6ZM 218.4 7.8L 218.3 18.3L 238.3 18.4L 238.3 16.7Z" fill-rule="nonzero"></path></g></g></g><g id="g-root-lamp_4il1sc1dzszd4-fill" data-item-order="0" transform="translate(352, 40)"></g><g id="g-root-tx_cleansys_5w0981dz7xmw-fill" data-item-order="0" transform="translate(412, 40)"><g id="tx_cleansys_5w0981dz7xmw-fill" stroke="none" fill="#484848"><g><text style="font: 20px &quot;Shantell Sans&quot;, cursive; white-space: pre;" font-size="20px" font-family="'Shantell Sans', cursive"><tspan x="12" y="35" dominant-baseline="ideographic">Clean System </tspan><tspan x="12" y="59" dominant-baseline="ideographic">Design</tspan></text></g></g></g><g id="g-root-1_18mkuoc1dzgc1y-fill" data-item-order="0" transform="translate(28, 88)"></g><g id="g-root-tx_poorsyst_mcd1sc1dz7xn0-fill" data-item-order="0" transform="translate(88, 88)"><g id="tx_poorsyst_mcd1sc1dz7xn0-fill" stroke="none" fill="#484848"><g><text style="font: 20px &quot;Shantell Sans&quot;, cursive; white-space: pre;" font-size="20px" font-family="'Shantell Sans', cursive"><tspan x="12" y="35" dominant-baseline="ideographic">Poor System </tspan><tspan x="12" y="59" dominant-baseline="ideographic">Design</tspan></text></g></g></g><g id="g-root-side_dcz3v01dzrj0k-fill" data-item-order="0" transform="translate(352, 112)"></g><g id="g-root-tx_fasterde_4lpido1dz7wuk-fill" data-item-order="0" transform="translate(412, 100)"><g id="tx_fasterde_4lpido1dz7wuk-fill" stroke="none" fill="#484848"><g><text style="font: 20px &quot;Shantell Sans&quot;, cursive; white-space: pre;" font-size="20px" font-family="'Shantell Sans', cursive"><tspan x="12" y="35" dominant-baseline="ideographic">Faster </tspan><tspan x="12" y="59" dominant-baseline="ideographic">Development </tspan><tspan x="12" y="83" dominant-baseline="ideographic">Velocity</tspan></text></g></g></g><g id="g-root-3_1qbcyto1dz7vgu-fill" data-item-order="0" transform="translate(28, 160)"></g><g id="g-root-tx_slowerde_v802181dz7wu8-fill" data-item-order="0" transform="translate(88, 148)"><g id="tx_slowerde_v802181dz7wu8-fill" stroke="none" fill="#484848"><g><text style="font: 20px &quot;Shantell Sans&quot;, cursive; white-space: pre;" font-size="20px" font-family="'Shantell Sans', cursive"><tspan x="12" y="35" dominant-baseline="ideographic">Slower </tspan><tspan x="12" y="59" dominant-baseline="ideographic">Development </tspan><tspan x="12" y="83" dominant-baseline="ideographic">Velocity</tspan></text></g></g></g><g id="g-root-1_1cy11701dzoruo-fill" data-item-order="0" transform="translate(352, 184)"></g><g id="g-root-tx_enhanced_hx60r01dz7v9k-fill" data-item-order="0" transform="translate(412, 184)"><g id="tx_enhanced_hx60r01dz7v9k-fill" stroke="none" fill="#484848"><g><text style="font: 20px &quot;Shantell Sans&quot;, cursive; white-space: pre;" font-size="20px" font-family="'Shantell Sans', cursive"><tspan x="12" y="35" dominant-baseline="ideographic">Enhanced Code </tspan><tspan x="12" y="59" dominant-baseline="ideographic">Quality</tspan></text></g></g></g><g id="g-root-fall_4l2uz01dzrlze-fill" data-item-order="0" transform="translate(28, 232)"></g><g id="g-root-tx_codequal_143n2a41dz7v9o-fill" data-item-order="0" transform="translate(88, 232)"><g id="tx_codequal_143n2a41dz7v9o-fill" stroke="none" fill="#484848"><g><text style="font: 20px &quot;Shantell Sans&quot;, cursive; white-space: pre;" font-size="20px" font-family="'Shantell Sans', cursive"><tspan x="12" y="35" dominant-baseline="ideographic">Code Quality </tspan><tspan x="12" y="59" dominant-baseline="ideographic">Degradation</tspan></text></g></g></g><g id="g-root-tx_improved_1hgcito1dz7wnc-fill" data-item-order="0" transform="translate(364, 352)"><g id="tx_improved_1hgcito1dz7wnc-fill" stroke="none" fill="#484848"><g><text style="font: 20px &quot;Shantell Sans&quot;, cursive; white-space: pre;" font-size="20px" font-family="'Shantell Sans', cursive"><tspan x="14.63" y="35" dominant-baseline="ideographic">Improved Version</tspan></text></g></g></g><g id="g-root-tx_currenti_1lw60y41dz7vv0-fill" data-item-order="0" transform="translate(46, 388)"><g id="tx_currenti_1lw60y41dz7vv0-fill" stroke="none" fill="#484848"><g><text style="font: 20px &quot;Shantell Sans&quot;, cursive; white-space: pre;" font-size="20px" font-family="'Shantell Sans', cursive"><tspan x="57.84" y="35" dominant-baseline="ideographic">Current </tspan><tspan x="16.7" y="59" dominant-baseline="ideographic">Implementation</tspan></text></g></g></g><g id="g-root-tx_balancin_145ihjg1dz7v2k-fill" data-item-order="0" transform="translate(40, 448)"><g id="tx_balancin_145ihjg1dz7v2k-fill" stroke="none" fill="#484848"><g><text style="font: bold 25px &quot;Shantell Sans&quot;, cursive; white-space: pre;" font-weight="bold" font-size="25px" font-family="'Shantell Sans', cursive"><tspan x="14.64" y="42" dominant-baseline="ideographic">Balancing Technical Debt in Software </tspan><tspan x="174.11" y="72" dominant-baseline="ideographic">Development</tspan></text></g></g></g><g id="g-root-tf_me8h1o1dz7xfr-stroke" data-item-order="-316800" transform="translate(-8, -8)"></g><g id="g-root-4.cu_sy_90wd3g1dzrl72-stroke" data-item-order="-105977" transform="translate(123.95700073242188, 280.75)"><g id="4.cu_sy_90wd3g1dzrl72-stroke" fill="none" stroke-linecap="round" stroke-linejoin="round" stroke-miterlimit="4" stroke="#484848" stroke-width="2"><g><path d="M 340.042999 45.25C 343.342999 44.75 346.142999 42.55 346.042999 39.25C 345.842999 35.95 343.242999 32.35 340.042999 33.25C 336.842999 34.15 333.742999 35.95 334.042999 39.25C 334.342999 42.55 336.742999 44.65 340.042999 45.25M 16.042999 93.25C 19.342999 93.25 22.442999 90.55 22.042999 87.25C 21.642999 83.95 19.342999 81.45 16.042999 81.25C 12.742999 81.05 10.842999 84.05 10.042999 87.25C 9.142999 90.45 12.842999 94.25 16.042999 93.25M 340.042999 33.25C 339.742999 25.55 338.642999 17.65 340.042999 10.05M 16.042999 58.25C 15.442999 65.85 15.142999 73.65 16.042999 81.25M 194.042999 60.95C 205.542999 60.85 216.842999 57.85 228.142999 55.85C 239.142999 53.85 250.142999 52.25 261.242999 50.95C 273.542999 49.55 285.842999 47.65 298.042999 45.55C 310.042999 43.35 322.342999 42.75 334.242999 40.15M 160.542999 65.85C 135.442999 69.95 110.242999 74.35 84.942999 77.05C 63.842999 79.35 42.942999 83.35 22.042999 86.35"></path><path d="M 340.042999 45.25C 343.356999 45.25 346.042999 42.564 346.042999 39.25C 346.042999 35.936 343.356999 33.25 340.042999 33.25C 336.728999 33.25 334.042999 35.936 334.042999 39.25C 334.042999 42.564 336.728999 45.25 340.042999 45.25ZM 16.021999 93.25C 19.346999 93.25 22.042999 90.564 22.042999 87.25C 22.042999 83.936 19.346999 81.25 16.021999 81.25C 12.695999 81.25 9.999999 83.936 9.999999 87.25C 9.999999 90.564 12.695999 93.25 16.021999 93.25ZM 340.042999 33.25L 340.042999 10M 16.042999 58.25L 16.042999 81.25M 194.062999 60.907L 334.195999 40.141M 160.540999 65.869L 21.992999 86.395"></path></g></g></g><g id="g-root-3.Exclude_sy_90wd3g1dzrl73-stroke" data-item-order="-105974" transform="translate(245.055908203125, 318)"><g id="3.Exclude_sy_90wd3g1dzrl73-stroke" fill="none" stroke-linecap="round" stroke-linejoin="round" stroke-miterlimit="4" stroke="#484848" stroke-width="4"><g><path d="M 56.944107 10C 49.544107 11.1 44.644107 15.6 41.444107 22C 32.244107 56.4 22.244107 90.6 10.144107 124.1C 9.444107 126 11.044107 128.5 13.044107 128C 28.444107 124.5 44.744107 129.5 60.444107 128C 73.844107 126.7 87.444107 127.1 100.844107 128C 102.944107 128.1 104.844107 125.8 103.744107 124.1C 94.644107 110.2 95.344107 91.7 89.044107 76.3C 81.944107 58.8 78.144107 40.1 72.444107 22.1C 70.744107 15.1 64.344107 10.9 56.944107 10M 56.944107 33C 60.844107 33.2 64.644107 29.8 63.944107 26C 63.244107 22.2 60.744107 18.2 56.944107 19C 53.144107 19.8 50.844107 22.2 49.944107 26C 49.044107 29.8 53.144107 32.6 56.944107 33"></path><path d="M 56.944107 10C 49.471107 10 43.195107 15.122 41.436107 22.047L 10.134107 124.12C 9.542107 126.049 10.984107 128 13.002107 128L 100.886107 128C 102.903107 128 104.346107 126.049 103.754107 124.12L 72.454107 22.054C 70.696107 15.126 64.419107 10 56.944107 10ZM 56.944107 33C 60.810107 33 63.944107 29.866 63.944107 26C 63.944107 22.134 60.810107 19 56.944107 19C 53.078107 19 49.944107 22.134 49.944107 26C 49.944107 29.866 53.078107 33 56.944107 33Z"></path></g></g></g><g id="g-root-2.right-bucket_sy_dgpv7w1dzrl6o-stroke" data-item-order="-105970" transform="translate(340, 244)"><g id="2.right-bucket_sy_dgpv7w1dzrl6o-stroke" fill="none" stroke-linecap="round" stroke-linejoin="round" stroke-miterlimit="4" stroke="#484848" stroke-width="4"><g><path d="M 11.1 15.7C 10.6 14.7 10.2 13.8 10 12.7C 9.8 11.2 11.2 9.9 12.7 10C 36 12 59.5 10.8 82.8 10C 109.2 9.1 135.5 9.5 161.9 10C 186.3 10.4 210.8 9.6 235.3 10C 236.8 10 237.8 11.2 238 12.7C 238.2 13.8 237.3 14.7 236.9 15.7C 235.5 19.1 227.3 24.9 212.7 31.5C 195.5 39.2 167.5 47.5 124 46C 84.8 44.7 58.8 38.5 40.7 33.7C 21.7 28.5 14.1 18.5 11.1 15.7"></path><path d="M 11.081 15.729C 10.338 14.904 10 13.826 10 12.716L 10 12.716C 10 11.216 11.216 10 12.716 10L 235.284 10C 236.784 10 238 11.216 238 12.716L 238 12.716C 238 13.826 237.662 14.904 236.919 15.729C 231.551 21.692 204.717 46 124 46C 43.283 46 16.449 21.692 11.081 15.729Z"></path></g></g></g><g id="g-root-1.left-bucket_sy_dgpv7w1dzrl6p-stroke" data-item-order="-105966" transform="translate(16, 292)"><g id="1.left-bucket_sy_dgpv7w1dzrl6p-stroke" fill="none" stroke-linecap="round" stroke-linejoin="round" stroke-miterlimit="4" stroke="#484848" stroke-width="4"><g><path d="M 11.1 15.7C 10.5 14.8 10.2 13.8 10 12.7C 9.8 11.2 11.3 10.4 12.7 10C 37.4 3.7 63.6 9.5 89 10C 111.4 10.4 133.8 11 156.2 10C 182.5 8.8 208.9 10.9 235.3 10C 236.8 10 237.6 11.3 238 12.7C 238.3 13.8 237.9 15.2 236.9 15.7C 234.4 17.2 230.4 23 220.9 27.5C 213 31.3 201.9 34.4 187.6 39.6C 172.1 45.2 150.7 45.5 124 46C 86.2 46.7 60.1 41.1 42.7 34.4C 23.1 26.8 14.6 18.1 11.1 15.7"></path><path d="M 11.0812 15.729C 10.3384 14.904 10 13.826 10 12.716L 10 12.716C 10 11.216 11.2158 10 12.7157 10L 235.284 10C 236.784 10 238 11.216 238 12.716L 238 12.716C 238 13.826 237.662 14.904 236.919 15.729C 231.551 21.692 204.717 46 124 46C 43.2826 46 16.4488 21.692 11.0812 15.729Z"></path></g></g></g><g id="g-root-lamp_4il1sc1dzszd4-stroke" data-item-order="0" transform="translate(352, 40)"><g id="lamp_4il1sc1dzszd4-stroke" fill="none" stroke-linecap="round" stroke-linejoin="round" stroke-miterlimit="4" stroke="#484848" stroke-width="2"><g><path d="M 14.8 29C 14 31.6 13.2 34.200001 11.6 36.599998C 11.4 36.799999 11.4 37.200001 11.6 37.599998C 11.8 37.799999 12.2 38.200001 12.6 38C 26 33 41.200001 38.200001 55.400002 38C 55.799999 38 56.200001 37.799999 56.400002 37.599998C 56.400002 37.200001 56.599998 36.799999 56.400002 36.599998C 53.200001 33.400002 52.200001 28.4 51 24C 43.400002 26.6 35 24 27 24M 41.599998 34C 36.599998 33.400002 31.4 33.599998 26.4 34C 26 34 25.799999 33.799999 25.6 33.599998C 25.4 33.400002 25.4 33 25.4 32.599998C 25.4 31.200001 26.6 30 26.799999 28.6C 26.799999 28.200001 27.200001 27.799999 27.799999 28C 31.799999 29.200001 36.200001 28.799999 40.200001 28C 40.799999 28 41.200001 28.200001 41.200001 28.6C 41.599998 30 42 31.4 42.599998 32.599998C 42.599998 33 42.599998 33.200001 42.400002 33.599998C 42.400002 33.799999 42 34 41.599998 34M 32 11C 36.400002 11.2 40.599998 10.8 45 11C 45.200001 11.6 45.200001 12.4 45 13C 44.799999 14 44 14.8 43 15C 39.799999 15.6 36.200001 14.4 33 15C 32 15.2 31.4 14 31 13C 31 12.6 31 12.4 31 12C 31 11.4 31.4 11 32 11M 45 11C 48.200001 10.2 50 13.8 51 17C 51.799999 19.200001 51.400002 21.6 51 24M 17 20C 19 20 21 20.4 23 20C 22.6 22 22.4 24.200001 23 26C 21.200001 25.4 19 26 17 26C 17.200001 24 17.4 22 17 20M 19 16C 19.200001 17.4 19.4 18.799999 19 20M 21 20C 21.4 18.799999 22.4 18 23 17M 17 38C 17.200001 44.599998 12 50.400002 11 57M 17 38C 20.4 43.599998 21.200001 50.599998 23 57M 11.6 55C 15 56 18.799999 54.400002 22.4 55M 51 38C 48.599998 44.200001 48.599998 51.400002 45 57M 51 38C 52.799999 44.400002 54.799999 50.799999 57 57M 45.599998 55C 49.200001 55 53 56.400002 56.400002 55"></path><path d="M 14.866 28.978001L 11.6 36.599998C 11.464967 36.909401 11.495151 37.266041 11.680262 37.548344C 11.865372 37.83065 12.180419 38.000504 12.518 38L 55.484001 38C 55.821583 38.000504 56.136627 37.83065 56.321739 37.548344C 56.506847 37.266041 56.537033 36.909401 56.402 36.599998L 51 24L 26.92 24M 41.612 34L 26.388 34C 26.06638 34.000397 25.764198 33.846085 25.575951 33.585312C 25.387703 33.324539 25.336369 32.98914 25.438 32.683998L 26.771999 28.684C 26.907955 28.275806 27.289761 28.000326 27.719999 28L 40.279999 28C 40.710239 28.000326 41.092045 28.275806 41.228001 28.684L 42.562 32.683998C 42.663631 32.98914 42.612297 33.324539 42.424049 33.585312C 42.235802 33.846085 41.93362 34.000397 41.612 34ZM 32 11L 45 11L 45 11L 45 13C 45 14.104569 44.104568 15 43 15L 33 15C 31.89543 15 31 14.104569 31 13L 31 12C 31 11.447716 31.447716 11 32 11ZM 45 11C 48.313709 11 51 13.686292 51 17L 51 24M 17 20L 23 20L 23 26L 17 26ZM 19 16L 19 20M 21 20L 23 17M 17 38L 11 57M 17 38L 23 57M 11.632 55L 22.368 55M 51 38L 45 57M 51 38L 57 57M 45.632 55L 56.368 55"></path></g></g></g><g id="g-root-tx_cleansys_5w0981dz7xmw-stroke" data-item-order="0" transform="translate(412, 40)"></g><g id="g-root-1_18mkuoc1dzgc1y-stroke" data-item-order="0" transform="translate(28, 88)"><g id="1_18mkuoc1dzgc1y-stroke" fill="none" stroke-linecap="round" stroke-linejoin="round" stroke-miterlimit="4" stroke="#484848" stroke-width="2"><g><path d="M 33 45C 32.400002 51.599998 38.599998 55.400002 45 57C 51.400002 58.599998 56.799999 51.599998 57 45C 57.200001 38.400002 51.400002 31.4 45 33C 38.599998 34.599998 32.400002 38.400002 33 45M 51 45C 47 45.200001 43 45 39 45M 21 51C 22.799999 50.200001 25 51 27 51M 27 41C 27.4 44.200001 25.799999 47.799999 27 51M 16.6 50C 16.200001 50 16 50.200001 16 50.599998C 16 50.799999 16.200001 51 16.6 51C 16.799999 51 17 50.799999 17 50.599998C 17 50.200001 16.799999 50 16.6 50M 11.6 50C 11.2 50 11 50.200001 11 50.599998C 11 50.799999 11.2 51 11.6 51C 11.8 51 12 50.799999 12 50.599998C 12 50.200001 11.8 50 11.6 50M 18.6 35.599998C 18.200001 35.599998 18 35.799999 18 36C 18 36.200001 18.200001 36.599998 18.6 36.599998C 18.799999 36.400002 19 36.200001 19 36C 19 35.799999 18.799999 35.599998 18.6 35.599998M 23.6 35.599998C 23.200001 35.400002 22.799999 35.799999 23 36C 23 36.200001 23.200001 36.599998 23.6 36.599998C 23.799999 36.400002 24 36.200001 24 36C 24 35.799999 23.799999 35.599998 23.6 35.599998M 35 31C 28.6 31 22 33.200001 16 31C 13.4 30 11.4 33.200001 11 36C 10.6 38.799999 13.2 40.799999 16 41C 20.4 41.200001 24.799999 42.200001 29 41M 18.6 25.6C 18.200001 25.6 18 25.799999 18 26C 18 26.200001 18.200001 26.4 18.6 26.6C 18.799999 26.6 18.799999 26.200001 19 26C 19 25.799999 18.799999 25.4 18.6 25.6M 23.6 25.6C 23.200001 25.6 23 25.799999 23 26C 23 26.200001 23.200001 26.6 23.6 26.6C 23.799999 26.4 24 26.200001 24 26C 24 25.799999 23.799999 25.4 23.6 25.6M 45 26C 44.799999 23.200001 42.599998 22 40 21C 32.599998 18 24 20.799999 16 21C 13.2 21 10.6 23.200001 11 26C 11.4 28.799999 13.2 31.200001 16 31C 22.200001 30.4 29.200001 33.400002 35 31M 18.6 15.6C 18.200001 15.4 18 15.8 18 16C 18 16.200001 18.200001 16.6 18.6 16.6C 18.799999 16.4 18.799999 16.200001 19 16C 19 15.8 18.799999 15.4 18.6 15.6M 23.6 15.6C 23.200001 15.4 23.200001 15.8 23 16C 23 16.200001 23.200001 16.6 23.6 16.6C 23.799999 16.6 24 16.200001 24 16C 24 15.8 23.799999 15.4 23.6 15.6M 45 16C 46 13.4 42.599998 10 40 11C 32.599998 13.8 23.799999 9.8 16 11C 13.2 11.4 11.2 13.2 11 16C 10.8 18.799999 13.2 21.200001 16 21C 24 20.6 32 21.6 40 21C 42.799999 20.799999 45.599998 18.6 45 16"></path><path d="M 33 45C 33 51.627419 38.372581 57 45 57C 51.627419 57 57 51.627419 57 45C 57 38.372581 51.627419 33 45 33C 38.372581 33 33 38.372581 33 45ZM 51 45L 39 45M 21 51L 27 51M 27.002001 41L 27.002001 51M 16.5 50C 16.223858 50 16 50.223858 16 50.5C 16 50.776142 16.223858 51 16.5 51C 16.776142 51 17 50.776142 17 50.5C 17 50.223858 16.776142 50 16.5 50L 16.5 50M 11.5 50C 11.223858 50 11 50.223858 11 50.5C 11 50.776142 11.223858 51 11.5 51C 11.776142 51 12 50.776142 12 50.5C 12 50.223858 11.776142 50 11.5 50L 11.5 50M 18.5 35.5C 18.223858 35.5 18 35.723858 18 36C 18 36.276142 18.223858 36.5 18.5 36.5C 18.776142 36.5 19 36.276142 19 36C 19 35.723858 18.776142 35.5 18.5 35.5L 18.5 35.5M 23.5 35.5C 23.223858 35.5 23 35.723858 23 36C 23 36.276142 23.223858 36.5 23.5 36.5C 23.776142 36.5 24 36.276142 24 36C 24 35.723858 23.776142 35.5 23.5 35.5L 23.5 35.5M 35 31L 16 31C 13.238577 31 11 33.238579 11 36C 11 38.761425 13.238577 41 16 41L 29 41M 18.5 25.5C 18.223858 25.5 18 25.723858 18 26C 18 26.276142 18.223858 26.5 18.5 26.5C 18.776142 26.5 19 26.276142 19 26C 19 25.723858 18.776142 25.5 18.5 25.5L 18.5 25.5M 23.5 25.5C 23.223858 25.5 23 25.723858 23 26C 23 26.276142 23.223858 26.5 23.5 26.5C 23.776142 26.5 24 26.276142 24 26C 24 25.723858 23.776142 25.5 23.5 25.5L 23.5 25.5M 45 26C 45 23.238577 42.761425 21 40 21L 16 21C 13.238577 21 11 23.238577 11 26C 11 28.761423 13.238577 31 16 31L 35 31M 18.5 15.5C 18.223858 15.5 18 15.723858 18 16C 18 16.276142 18.223858 16.5 18.5 16.5C 18.776142 16.5 19 16.276142 19 16C 19 15.723858 18.776142 15.5 18.5 15.5L 18.5 15.5M 23.5 15.5C 23.223858 15.5 23 15.723858 23 16C 23 16.276142 23.223858 16.5 23.5 16.5C 23.776142 16.5 24 16.276142 24 16C 24 15.723858 23.776142 15.5 23.5 15.5L 23.5 15.5M 45 16C 45 13.238576 42.761425 11 40 11L 16 11C 13.238577 11 11 13.238577 11 16C 11 18.761425 13.238577 21 16 21L 40 21C 42.761425 21 45 18.761425 45 16Z"></path></g></g></g><g id="g-root-tx_poorsyst_mcd1sc1dz7xn0-stroke" data-item-order="0" transform="translate(88, 88)"></g><g id="g-root-side_dcz3v01dzrj0k-stroke" data-item-order="0" transform="translate(352, 112)"><g id="side_dcz3v01dzrj0k-stroke" fill="none" stroke-linecap="round" stroke-linejoin="round" stroke-miterlimit="4" stroke="#484848" stroke-width="2"><g><path d="M 11.8 37C 15.2 31.200001 27.4 22.4 32 19.6C 33.799999 15.6 35.799999 14.2 37.599998 12.2C 40.400002 16.799999 39.599998 18.799999 38.799999 21.4C 45.200001 21 48 24.799999 50.400002 28.4C 52.200001 31.200001 53.799999 32 56 32C 57 34.200001 56.599998 41.400002 53.200001 43C 53.799999 47 47.799999 50.400002 42.799999 47.799999C 37.799999 45.400002 35.400002 46.200001 32.799999 48.200001C 30.200001 50.400002 30.6 50.400002 29.799999 55.799999M 55 40.799999C 53.400002 42.799999 50.599998 44 48.200001 43.599998M 42.599998 30.799999C 43.200001 30.6 43.599998 30.4 43.599998 29.799999C 43.599998 29.4 43.200001 29.200001 42.599998 29M 42.599998 30.799999C 42.200001 31 42 30.4 41.799999 29.799999C 41.599998 29.4 42.200001 28.799999 42.599998 29M 45 30C 43.799999 28 40.599998 27.6 39.799999 27.200001M 56 32.200001C 54.200001 33.599998 53.599998 33.599998 52.599998 33.799999M 37.799999 46.799999C 34.400002 46.400002 32.400002 43 31.200001 39.799999M 10 10M 44.400002 36.799999C 43.599998 37 42.599998 36.799999 41.599998 36.599998M 44.400002 39.799999C 43.400002 39.799999 42.599998 40.400002 41.599998 40.200001M 10 10M 32.799999 25C 32.599998 25 32.400002 25.6 32.200001 25.6M 10 10M 25.6 36.200001C 25.4 36.400002 25.200001 36.599998 25 37M 10 10M 32.400002 33.400002C 32.200001 33.599998 32.200001 34 31.799999 34.200001M 10 10M 14.4 50.799999C 14.2 51.200001 14 51.400002 13.8 51.599998M 10 10M 15 41.799999C 15 42 14.6 42.200001 14.4 42.599998M 10 10M 26 49.599998C 25.6 49.799999 25.4 50 25.200001 50.400002M 10 10M 27.200001 29C 27.4 29.4 27.799999 29.6 27.799999 29.799999M 10 10M 18.6 36.599998C 18.799999 36.799999 19 37.200001 19.200001 37.200001M 10 10M 20.4 53.599998C 20.6 53.799999 20.799999 54 21 54.400002M 10 10M 19.6 46C 19.799999 46.200001 20.200001 46.400002 20.4 46.799999M 10 10M 26.6 43.200001C 26.799999 43.400002 27 43.799999 27.200001 44"></path><path d="M 11.825352 36.9702C 16.564781 32.190002 27.626341 22.66514 31.952999 19.615799C 33.0238 15.439819 35.150398 13.45174 37.6782 12.21876C 41.582199 15.896259 40.5858 19.331039 38.894798 21.40764C 45.2136 21.40764 47.882999 24.930439 50.3134 28.33288C 52.257599 31.0548 54.000401 31.2628 56.084599 32.012398C 56.287201 34.402199 56.405998 40.938801 53.215199 43.021999C 52.309601 46.964001 48.352001 49.109798 42.719398 47.869598C 37.260201 46.667801 35.003201 45.709599 32.816002 48.2616C 30.628599 50.8134 31.478399 50.683399 29.77714 55.787201M 55.011799 40.765602C 53.572201 42.969398 50.6922 43.5798 48.164001 43.5798M 42.654999 30.7994C 43.173401 30.7994 43.5938 30.3792 43.5938 29.86068C 43.5938 29.34222 43.173401 28.921881 42.654999 28.921881M 42.6562 30.7994C 42.137798 30.7994 41.7174 30.3792 41.7174 29.86068C 41.7174 29.34222 42.137798 28.921881 42.6562 28.921881M 44.970001 30.0828C 43.378201 28.30654 40.550201 27.4146 39.753601 27.29064M 56.004002 32.265602C 54.3246 33.606003 53.666401 33.819199 52.658798 33.818398M 37.753998 46.749001C 34.549599 45.656799 32.222198 43.127602 31.280399 39.703201M 10 10M 44.421799 36.820198L 41.624802 36.515602M 44.421799 39.858398L 41.624802 40.172199M 10 10M 32.808601 24.921879L 32.142601 25.69532M 10 10M 25.605461 36.140602L 24.939461 36.914001M 10 10M 32.472603 33.484398L 31.806601 34.257797M 10 10M 14.41016 50.859402L 13.74414 51.632801M 10 10M 15.074221 41.7812L 14.408199 42.5546M 10 10M 25.933601 49.5938L 25.26758 50.367199M 10 10M 27.17968 29.046881L 27.845699 29.82032M 10 10M 18.550781 36.515602L 19.216801 37.289001M 10 10M 20.324219 53.546799L 20.99024 54.3204M 10 10M 19.65624 45.9688L 20.32226 46.742199M 10 10M 26.511721 43.187599L 27.17774 43.960999"></path></g></g></g><g id="g-root-tx_fasterde_4lpido1dz7wuk-stroke" data-item-order="0" transform="translate(412, 100)"></g><g id="g-root-3_1qbcyto1dz7vgu-stroke" data-item-order="0" transform="translate(28, 160)"><g id="3_1qbcyto1dz7vgu-stroke" fill="none" stroke-linecap="round" stroke-linejoin="round" stroke-miterlimit="4" stroke="#484848" stroke-width="2"><g><path d="M 32.400002 47.200001C 34.799999 47.400002 37.400002 46.599998 40 47.200001C 42 47.400002 44.400002 46.599998 45.599998 45C 47 43 48.200001 41.200001 48 39.200001C 48 35.799999 48.599998 32.200001 48 29M 36.200001 54.200001C 33.599998 55.599998 30.6 56.200001 27.6 56.599998C 18.799999 57.599998 10.2 49.200001 11.6 40.599998C 12.8 31.799999 18.6 24.6 27.6 24.6C 35 24.4 42 29.799999 43.200001 37M 27.6 48.599998C 31.799999 47.200001 36 44.799999 35.599998 40.599998C 35 36.200001 31.799999 32.200001 27.6 32.599998C 23 33 19.4 36 19.6 40.599998C 19.6 45 23.200001 49 27.6 48.599998M 27.4 41C 27.200001 40.799999 27 40.799999 27 40.599998C 27.200001 40.200001 27.200001 40 27.4 40.200001M 27.4 41C 27.799999 41 27.799999 40.799999 27.799999 40.599998C 28 40.200001 27.799999 40 27.4 40.200001M 48.200001 28.200001C 52.799999 28.200001 57.599998 24.4 56.599998 19.799999C 55.400002 15.4 52.799999 11.2 48.200001 11.4C 43.400002 11.8 41 15.4 39.799999 19.799999C 38.400002 24.4 43.599998 27.6 48.200001 28.200001M 10 10M 48 20C 49 19.6 49.599998 18.6 50.200001 17.799999"></path><path d="M 32.299999 47.099998L 39.900002 47.099998C 42.099998 47.099998 44.099998 46.299999 45.700001 44.900002C 47.299999 43.299999 48.099998 41.299999 48.099998 39.099998L 48.099998 28.9M 36.099998 54.099998C 33.700001 55.700001 30.700001 56.5 27.5 56.5C 18.700001 56.5 11.5 49.299999 11.5 40.5C 11.5 31.700001 18.700001 24.500019 27.5 24.500019C 35.099998 24.500019 41.5 29.900021 43.099998 36.900002M 27.5 48.5C 31.9182 48.5 35.5 44.9184 35.5 40.5C 35.5 36.081802 31.9182 32.5 27.5 32.5C 23.08172 32.5 19.5 36.081802 19.5 40.5C 19.5 44.9184 23.08172 48.5 27.5 48.5ZM 27.499981 40.900002C 27.279079 40.900002 27.099979 40.721001 27.099979 40.5C 27.099979 40.278999 27.279079 40.099998 27.499981 40.099998M 27.499901 40.900002C 27.7208 40.900002 27.8999 40.721001 27.8999 40.5C 27.8999 40.278999 27.7208 40.099998 27.499901 40.099998M 48.099998 28.29998C 52.739201 28.29998 56.5 24.53916 56.5 19.899979C 56.5 15.26078 52.739201 11.499978 48.099998 11.499978C 43.4608 11.499978 39.700001 15.26078 39.700001 19.899979C 39.700001 24.53916 43.4608 28.29998 48.099998 28.29998ZM 10 10M 48.0998 19.900059L 50.299801 17.70006"></path></g></g></g><g id="g-root-tx_slowerde_v802181dz7wu8-stroke" data-item-order="0" transform="translate(88, 148)"></g><g id="g-root-1_1cy11701dzoruo-stroke" data-item-order="0" transform="translate(352, 184)"><g id="1_1cy11701dzoruo-stroke" fill="none" stroke-linecap="round" stroke-linejoin="round" stroke-miterlimit="4" stroke="#484848" stroke-width="2"><g><path d="M 31 57C 25 56.200001 19 57.200001 13 57C 12 57 10.8 56 11 55C 14.4 41.400002 12.2 27 11 13C 11 11.8 12 10.8 13 11C 21.6 13.2 31.200001 14 39.599998 11C 40 10.8 40.599998 11.2 41 11.6C 43.799999 13.6 45.400002 17.200001 48.400002 19C 48.799999 19.200001 49 19.799999 49 20.4C 48.799999 22.6 49 24.799999 49 27M 23 24C 20.4 25.200001 19.200001 28.200001 17 30C 19 32 20.799999 34.200001 23 36M 29 24C 31.6 25.200001 33.200001 27.799999 35 30M 45 37C 45.799999 41 44.599998 45 45 49M 51 43C 47 42.200001 43 43.200001 39 43M 46 56.799999C 46.400002 56.599998 46.799999 56.599998 47.200001 56.400002C 52.200001 53.799999 57.200001 49.400002 57 43.799999C 57 41.400002 57.599998 39.200001 57 37C 56.799999 36.200001 56.599998 35.200001 55.799999 35C 52.799999 32.799999 48.599998 34 45 33C 41.400002 32.400002 37.200001 33 34.200001 35C 33.400002 35.200001 33 36 33 37C 33 39.200001 32.599998 41.400002 33 43.799999C 34 49.200001 37.200001 55.599998 42.799999 56.400002C 43.200001 56.400002 43.400002 56.599998 43.799999 56.799999C 44.599998 57 45.599998 57.200001 46 56.799999"></path><path d="M 31.011999 57L 13.012 57C 11.907431 57 11.012 56.104568 11.012 55L 11.012 13C 11.012 11.895431 11.907431 11 13.012 11L 39.599998 11C 40.131714 11.004347 40.639809 11.220251 41.012001 11.6L 48.425999 19C 48.801098 19.374985 49.011887 19.88361 49.012001 20.414L 49.012001 27M 23.012001 24.007999L 17.012001 30.007999L 23.012001 36.007999M 29.011999 24.007999L 35.012001 30.007999M 45.012001 37.007999L 45.012001 49.007999M 51.012001 43.007999L 39.012001 43.007999M 46.082001 56.799999L 47.188 56.380001C 52.448002 54.380001 57.012001 49.332001 57.012001 43.702L 57.012001 36.919998C 57.012367 36.088165 56.518948 35.335461 55.756001 35.003998C 52.303982 33.713932 48.653057 33.037083 44.968002 33.004002C 41.311371 33.035233 37.689026 33.712303 34.267998 35.003998C 33.505054 35.335461 33.011635 36.088165 33.012001 36.919998L 33.012001 43.703999C 33.012001 49.334 37.487999 54.377998 42.748001 56.382L 43.854 56.801998C 44.571636 57.075375 45.364857 57.074661 46.082001 56.799999Z"></path></g></g></g><g id="g-root-tx_enhanced_hx60r01dz7v9k-stroke" data-item-order="0" transform="translate(412, 184)"></g><g id="g-root-fall_4l2uz01dzrlze-stroke" data-item-order="0" transform="translate(28, 232)"><g id="fall_4l2uz01dzrlze-stroke" fill="none" stroke-linecap="round" stroke-linejoin="round" stroke-miterlimit="4" stroke="#484848" stroke-width="2"><g><path d="M 57 43C 56.799999 43.599998 56.599998 44 56 44C 51.400002 44.400002 46.599998 44 42 44C 41.400002 44 41 43.599998 41 43C 39.599998 33.200001 41.599998 23.200001 41 13.4C 41 13 41.200001 12.8 41.400002 12.6C 41.599998 12.4 42 12.4 42.400002 12.4C 47.200001 12.8 51.599998 15.8 56.400002 16.799999C 56.799999 16.799999 57.200001 17.4 57 17.799999C 54.599998 25.799999 57 34.599998 57 43M 55 16C 55 14.4 55.400002 12.6 55 11M 41 21C 43 20.4 45 21.4 47 21M 27 29C 29 28.6 31 28.6 33 29M 27 35C 29.6 35.599998 32.599998 34 35 35M 41 27C 44.599998 26.200001 48.400002 26 52 27M 46 44C 45.599998 41.799999 45.599998 39.200001 46 37C 46.200001 36.400002 46.400002 35.799999 47 36C 48.200001 36.400002 49.599998 35.799999 51 36C 51.599998 36 52 36.400002 52 37C 52 39.400002 51.599998 41.799999 52 44M 41 23C 36.599998 22.6 32.200001 21.6 28 23C 27.4 23.200001 26.799999 23.4 27 24C 28.6 28.4 28 33.400002 27 38M 11 38.400002C 13.8 42 17 45.599998 20.799999 48.200001C 21.200001 48.400002 21.6 48.599998 22 48.599998C 22.4 48.599998 22.6 48.400002 23 48.200001C 25.4 47.200001 26.799999 44.599998 28.4 42.799999C 29.200001 42.200001 30.200001 42.200001 30.799999 42.799999C 35.400002 47.599998 39 53.799999 45 57M 45 48C 46.200001 50.799999 45 54 45 57C 42.200001 56 38.799999 56.200001 36 57"></path><path d="M 57 43C 57 43.552284 56.552284 44 56 44L 42 44C 41.447716 44 41 43.552284 41 43L 41 13.42C 41.000137 13.094191 41.158989 12.788875 41.42572 12.601768C 41.692444 12.414661 42.0336 12.369225 42.34 12.48L 56.34 16.76C 56.735947 16.903151 56.999821 17.278969 57 17.700001ZM 55 16L 55 11M 41 21L 47 21M 27 29L 33 29M 27 35L 35 35M 41 27L 52 27M 46 44L 46 37C 46 36.447716 46.447716 36 47 36L 51 36C 51.552284 36 52 36.447716 52 37L 52 44M 41 23L 28 23C 27.447716 23 27 23.447716 27 24L 27 38M 11 38.419998L 20.779999 48.18C 21.084167 48.486565 21.498146 48.658993 21.93 48.658993C 22.361855 48.658993 22.775833 48.486565 23.08 48.18L 28.48 42.779999C 29.111368 42.154667 30.128632 42.154667 30.76 42.779999L 45 57M 45 48L 45 57L 36 57"></path></g></g></g><g id="g-root-tx_codequal_143n2a41dz7v9o-stroke" data-item-order="0" transform="translate(88, 232)"></g><g id="g-root-tx_improved_1hgcito1dz7wnc-stroke" data-item-order="0" transform="translate(364, 352)"></g><g id="g-root-tx_currenti_1lw60y41dz7vv0-stroke" data-item-order="0" transform="translate(46, 388)"></g><g id="g-root-tx_balancin_145ihjg1dz7v2k-stroke" data-item-order="0" transform="translate(40, 448)"></g></g></g></svg>