<?xml version="1.0" encoding="utf-8" standalone="yes"?>
<!DOCTYPE svg PUBLIC "-//W3C//DTD SVG 1.1//EN" "http://www.w3.org/Graphics/SVG/1.1/DTD/svg11.dtd">
<svg width="842" height="530" viewBox="0 0 842 530" style="fill:none;stroke:none;fill-rule:evenodd;clip-rule:evenodd;stroke-linecap:round;stroke-linejoin:round;stroke-miterlimit:1.5;" version="1.1" xmlns="http://www.w3.org/2000/svg" xmlns:xlink="http://www.w3.org/1999/xlink"><style id="fontImports">@import url("https://fonts.googleapis.com/css2?family=Roboto:wght@400;700&amp;display=block");</style><g id="items" style="isolation: isolate"><g id="blend" style="mix-blend-mode: normal"><g id="g-root-ro_v4uj7c1tt1nnn-fill" data-item-order="-25056" transform="translate(339, 210)"><g id="ro_v4uj7c1tt1nnn-fill" stroke="none" fill="#f5f5f5"><g><path d="M 34 10L 130 10C 130 10 154 10 154 34L 154 160C 154 160 154 184 130 184L 34 184C 34 184 10 184 10 160L 10 34C 10 34 10 10 34 10"></path></g></g></g><g id="g-root-ro_8z01x41tsqex2-fill" data-item-order="-13608" transform="translate(39, 309)"><g id="ro_8z01x41tsqex2-fill" stroke="none" fill="#f4ffdc"><g><path d="M 22 10L 250 10C 250 10 262 10 262 22L 262 52C 262 52 262 64 250 64L 22 64C 22 64 10 64 10 52L 10 22C 10 22 10 10 22 10"></path></g></g></g><g id="g-root-ro_qv9v3s1tsksue-fill" data-item-order="-12960" transform="translate(531, 309)"><g id="ro_qv9v3s1tsksue-fill" stroke="none" fill="#fffbda"><g><path d="M 22 10L 238 10C 238 10 250 10 250 22L 250 52C 250 52 250 64 238 64L 22 64C 22 64 10 64 10 52L 10 22C 10 22 10 10 22 10"></path></g></g></g><g id="g-root-ro_1qd7bug1tt5uyx-fill" data-item-order="-12312" transform="translate(531, 123)"><g id="ro_1qd7bug1tt5uyx-fill" stroke="none" fill="#faf0ff"><g><path d="M 22 10L 226 10C 226 10 238 10 238 22L 238 52C 238 52 238 64 226 64L 22 64C 22 64 10 64 10 52L 10 22C 10 22 10 10 22 10"></path></g></g></g><g id="g-root-ro_dfg14o1tsoxl7-fill" data-item-order="-9072" transform="translate(123, 123)"><g id="ro_dfg14o1tsoxl7-fill" stroke="none" fill="#ffeceb"><g><path d="M 22 10L 166 10C 166 10 178 10 178 22L 178 52C 178 52 178 64 166 64L 22 64C 22 64 10 64 10 52L 10 22C 10 22 10 10 22 10"></path></g></g></g><g id="g-root-cu_1upa2m01tsqd53-fill" data-item-order="0" transform="translate(291, 150)"></g><g id="g-root-cu_4log541tsqccj-fill" data-item-order="0" transform="translate(249, 363)"></g><g id="g-root-cu_1hdtk8o1tsqeq2-fill" data-item-order="0" transform="translate(483, 150)"></g><g id="g-root-cu_4log541tsqccl-fill" data-item-order="0" transform="translate(249, 363)"></g><g id="g-root-tx_typesoft_1ur5hvc1tsqcy7-fill" data-item-order="0" transform="translate(273, 39)"><g id="tx_typesoft_1ur5hvc1tsqcy7-fill" stroke="none" fill="#484848"><g><text style="font: 25px Roboto, sans-serif; white-space: pre;" font-size="25px" font-family="Roboto, sans-serif"><tspan x="15.26" y="42" dominant-baseline="ideographic">Types of Technical Debt</tspan></text></g></g></g><g id="g-root-tx_poorcode_4jt0vs1tsnkzp-fill" data-item-order="0" transform="translate(75, 189)"><g id="tx_poorcode_4jt0vs1tsnkzp-fill" stroke="none" fill="#484848"><g><text style="font: 20px Roboto, sans-serif; white-space: pre;" font-size="20px" font-family="Roboto, sans-serif"><tspan x="14.14" y="34" dominant-baseline="ideographic">Poor Code Quality</tspan></text></g></g></g><g id="g-root-cu_18it12w1tsqd4z-fill" data-item-order="0" transform="translate(249, 177)"></g><g id="g-root-tx_manualpr_1cymj7c1tsnkst-fill" data-item-order="0" transform="translate(579, 447)"><g id="tx_manualpr_1cymj7c1tsnkst-fill" stroke="none" fill="#484848"><g><text style="font: 20px Roboto, sans-serif; white-space: pre;" font-size="20px" font-family="Roboto, sans-serif"><tspan x="11.81" y="34" dominant-baseline="ideographic">Manual Processes</tspan></text></g></g></g><g id="g-root-cu_hwihfc1tsqd54-fill" data-item-order="0" transform="translate(249, 177)"></g><g id="g-root-cu_mcbzjs1tsqccu-fill" data-item-order="0" transform="translate(249, 177)"></g><g id="g-root-cu_90vh6g1tsqept-fill" data-item-order="0" transform="translate(555, 363)"></g><g id="g-root-cu_hwihfc1tsqd56-fill" data-item-order="0" transform="translate(555, 177)"></g><g id="g-root-cu_dgozaw1tsqdxh-fill" data-item-order="0" transform="translate(555, 177)"></g><g id="g-root-cu_dgozaw1tsqdxj-fill" data-item-order="0" transform="translate(555, 177)"></g><g id="g-root-cu_1cymj7c1tsqcco-fill" data-item-order="0" transform="translate(291, 326)"></g><g id="g-root-cu_90vh6g1tsqepw-fill" data-item-order="0" transform="translate(555, 363)"></g><g id="g-root-cu_90vh6g1tsqepy-fill" data-item-order="0" transform="translate(555, 363)"></g><g id="g-root-tx_violated_1qa31ko1tsnj7s-fill" data-item-order="0" transform="translate(579, 189)"><g id="tx_violated_1qa31ko1tsnj7s-fill" stroke="none" fill="#484848"><g><text style="font: 20px Roboto, sans-serif; white-space: pre;" font-size="20px" font-family="Roboto, sans-serif"><tspan x="17.32" y="34" dominant-baseline="ideographic">Violated Patterns</tspan></text></g></g></g><g id="g-root-tx_lackofte_1upa2m01tsnlla-fill" data-item-order="0" transform="translate(111, 225)"><g id="tx_lackofte_1upa2m01tsnlla-fill" stroke="none" fill="#484848"><g><text style="font: 20px Roboto, sans-serif; white-space: pre;" font-size="20px" font-family="Roboto, sans-serif"><tspan x="16.55" y="34" dominant-baseline="ideographic">Lack of Tests</tspan></text></g></g></g><g id="g-root-tx_legacysy_1cymj7c1tsnkss-fill" data-item-order="0" transform="translate(579, 411)"><g id="tx_legacysy_1cymj7c1tsnkss-fill" stroke="none" fill="#484848"><g><text style="font: 20px Roboto, sans-serif; white-space: pre;" font-size="20px" font-family="Roboto, sans-serif"><tspan x="15.47" y="34" dominant-baseline="ideographic">Legacy Systems</tspan></text></g></g></g><g id="g-root-cu_1cymj7c1tsqccl-fill" data-item-order="0" transform="translate(483, 326)"></g><g id="g-root-tx_tribalkn_143m01k1tsnj7k-fill" data-item-order="0" transform="translate(75, 447)"><g id="tx_tribalkn_143m01k1tsnj7k-fill" stroke="none" fill="#484848"><g><text style="font: 20px Roboto, sans-serif; white-space: pre;" font-size="20px" font-family="Roboto, sans-serif"><tspan x="17.41" y="34" dominant-baseline="ideographic">Tribal Knowledge</tspan></text></g></g></g><g id="g-root-tx_poorsyst_1qa31ko1tsnj7t-fill" data-item-order="0" transform="translate(579, 225)"><g id="tx_poorsyst_1qa31ko1tsnj7t-fill" stroke="none" fill="#484848"><g><text style="font: 20px Roboto, sans-serif; white-space: pre;" font-size="20px" font-family="Roboto, sans-serif"><tspan x="16.23" y="34" dominant-baseline="ideographic">Poor System Design</tspan></text></g></g></g><g id="g-root-tx_duplicat_1upa2m01tsnllb-fill" data-item-order="0" transform="translate(99, 261)"><g id="tx_duplicat_1upa2m01tsnllb-fill" stroke="none" fill="#484848"><g><text style="font: 20px Roboto, sans-serif; white-space: pre;" font-size="20px" font-family="Roboto, sans-serif"><tspan x="14.56" y="34" dominant-baseline="ideographic">Duplicate Code</tspan></text></g></g></g><g id="g-root-tx_outdated_1lu9jg81tsnk03-fill" data-item-order="0" transform="translate(579, 375)"><g id="tx_outdated_1lu9jg81tsnk03-fill" stroke="none" fill="#484848"><g><text style="font: 20px Roboto, sans-serif; white-space: pre;" font-size="20px" font-family="Roboto, sans-serif"><tspan x="17.66" y="34" dominant-baseline="ideographic">Outdated Dependencies</tspan></text></g></g></g><g id="g-root-tx_outdated_18it12w1tsnll3-fill" data-item-order="0" transform="translate(15, 411)"><g id="tx_outdated_18it12w1tsnll3-fill" stroke="none" fill="#484848"><g><text style="font: 20px Roboto, sans-serif; white-space: pre;" font-size="20px" font-family="Roboto, sans-serif"><tspan x="17.73" y="34" dominant-baseline="ideographic">Outdated Specifications</tspan></text></g></g></g><g id="g-root-tx_missingd_18it12w1tsnll2-fill" data-item-order="0" transform="translate(111, 375)"><g id="tx_missingd_18it12w1tsnll2-fill" stroke="none" fill="#484848"><g><text style="font: 20px Roboto, sans-serif; white-space: pre;" font-size="20px" font-family="Roboto, sans-serif"><tspan x="15.8" y="34" dominant-baseline="ideographic">Missing Docs</tspan></text></g></g></g><g id="g-root-cu_90vh6g1tsqeq0-fill" data-item-order="0" transform="translate(249, 363)"></g><g id="g-root-tx_tightcou_1lu9jg81tsnk02-fill" data-item-order="0" transform="translate(579, 261)"><g id="tx_tightcou_1lu9jg81tsnk02-fill" stroke="none" fill="#484848"><g><text style="font: 20px Roboto, sans-serif; white-space: pre;" font-size="20px" font-family="Roboto, sans-serif"><tspan x="17.38" y="34" dominant-baseline="ideographic">Tight Coupling</tspan></text></g></g></g><g id="g-root-tx_architec_4njs8o1tt5tl3-fill" data-item-order="1000000000" transform="translate(579, 138)"><g id="tx_architec_4njs8o1tt5tl3-fill" stroke="none" fill="#ba5de5"><g><text style="font: 20px Roboto, sans-serif; white-space: pre;" font-size="20px" font-family="Roboto, sans-serif"><tspan x="14.12" y="34" dominant-baseline="ideographic">Architectural Debt</tspan></text></g></g></g><g id="g-root-buil_7qa481tt5udc-fill" data-item-order="1000000000" transform="translate(543, 135)"></g><g id="g-root-beta_18gb1ko1tt1m2q-fill" data-item-order="1000000000" transform="translate(387, 234)"></g><g id="g-root-tx_typesoft_1cw4jp41tt1lah-fill" data-item-order="1000000000" transform="translate(363, 288)"><g id="tx_typesoft_1cw4jp41tt1lah-fill" stroke="none" fill="#484848"><g><text style="font: 20px Roboto, sans-serif; white-space: pre;" font-size="20px" font-family="Roboto, sans-serif"><tspan x="17.42" y="34" dominant-baseline="ideographic">Types of </tspan><tspan x="12.92" y="58" dominant-baseline="ideographic">Technical </tspan><tspan x="34.75" y="82" dominant-baseline="ideographic">Debt</tspan></text></g></g></g><g id="g-root-aler_magkag1tsozya-fill" data-item-order="1000000000" transform="translate(249, 135)"></g><g id="g-root-tx_document_magkag1tsqdc4-fill" data-item-order="1000000000" transform="translate(51, 324)"><g id="tx_document_magkag1tsqdc4-fill" stroke="none" fill="#92bd39"><g><text style="font: 20px Roboto, sans-serif; white-space: pre;" font-size="20px" font-family="Roboto, sans-serif"><tspan x="14.52" y="34" dominant-baseline="ideographic">Documentation Debt</tspan></text></g></g></g><g id="g-root-docs_detk1k1tsqe4t-fill" data-item-order="1000000000" transform="translate(249, 321)"></g><g id="g-root-tx_codedebt_qqa2ew1tsoz61-fill" data-item-order="1000000000" transform="translate(135, 138)"><g id="tx_codedebt_qqa2ew1tsoz61-fill" stroke="none" fill="#e55753"><g><text style="font: 20px Roboto, sans-serif; white-space: pre;" font-size="20px" font-family="Roboto, sans-serif"><tspan x="17.61" y="34" dominant-baseline="ideographic">Code Debt</tspan></text></g></g></g><g id="g-root-cash_qv9v3s1tsksud-fill" data-item-order="1000000000" transform="translate(543, 321)"></g><g id="g-root-tx_infrastr_146qdh41tskr9g-fill" data-item-order="1000000000" transform="translate(579, 324)"><g id="tx_infrastr_146qdh41tskr9g-fill" stroke="none" fill="#e0cb15"><g><text style="font: 20px Roboto, sans-serif; white-space: pre;" font-size="20px" font-family="Roboto, sans-serif"><tspan x="16.46" y="34" dominant-baseline="ideographic">Infrastructure Debt</tspan></text></g></g></g><g id="g-root-ro_v4uj7c1tt1nnn-stroke" data-item-order="-25056" transform="translate(339, 210)"><g id="ro_v4uj7c1tt1nnn-stroke" fill="none" stroke-linecap="round" stroke-linejoin="round" stroke-miterlimit="4" stroke="#484848" stroke-width="2"><g><path d="M 34 10L 130 10C 130 10 154 10 154 34L 154 160C 154 160 154 184 130 184L 34 184C 34 184 10 184 10 160L 10 34C 10 34 10 10 34 10"></path></g></g></g><g id="g-root-ro_8z01x41tsqex2-stroke" data-item-order="-13608" transform="translate(39, 309)"><g id="ro_8z01x41tsqex2-stroke" fill="none" stroke-linecap="round" stroke-linejoin="round" stroke-miterlimit="4" stroke="#92bd39" stroke-width="2"><g><path d="M 22 10L 250 10C 250 10 262 10 262 22L 262 52C 262 52 262 64 250 64L 22 64C 22 64 10 64 10 52L 10 22C 10 22 10 10 22 10"></path></g></g></g><g id="g-root-ro_qv9v3s1tsksue-stroke" data-item-order="-12960" transform="translate(531, 309)"><g id="ro_qv9v3s1tsksue-stroke" fill="none" stroke-linecap="round" stroke-linejoin="round" stroke-miterlimit="4" stroke="#e0cb15" stroke-width="2"><g><path d="M 22 10L 238 10C 238 10 250 10 250 22L 250 52C 250 52 250 64 238 64L 22 64C 22 64 10 64 10 52L 10 22C 10 22 10 10 22 10"></path></g></g></g><g id="g-root-ro_1qd7bug1tt5uyx-stroke" data-item-order="-12312" transform="translate(531, 123)"><g id="ro_1qd7bug1tt5uyx-stroke" fill="none" stroke-linecap="round" stroke-linejoin="round" stroke-miterlimit="4" stroke="#ba5de5" stroke-width="2"><g><path d="M 22 10L 226 10C 226 10 238 10 238 22L 238 52C 238 52 238 64 226 64L 22 64C 22 64 10 64 10 52L 10 22C 10 22 10 10 22 10"></path></g></g></g><g id="g-root-ro_dfg14o1tsoxl7-stroke" data-item-order="-9072" transform="translate(123, 123)"><g id="ro_dfg14o1tsoxl7-stroke" fill="none" stroke-linecap="round" stroke-linejoin="round" stroke-miterlimit="4" stroke="#e55753" stroke-width="2"><g><path d="M 22 10L 166 10C 166 10 178 10 178 22L 178 52C 178 52 178 64 166 64L 22 64C 22 64 10 64 10 52L 10 22C 10 22 10 10 22 10"></path></g></g></g><g id="g-root-cu_1upa2m01tsqd53-stroke" data-item-order="0" transform="translate(291, 150)"><g id="cu_1upa2m01tsqd53-stroke" fill="none" stroke-linecap="round" stroke-linejoin="round" stroke-miterlimit="4" stroke="#969696" stroke-width="2" stroke-dasharray="5.0, 7.0"><g><path d="M 58 128L 55 128L 54.9 128C 43.357244 127.999994 33.999996 118.642745 33.999997 107.099995L 34 107L 34 30.9C 33.999998 19.357248 24.64275 10 13.1 10L 13 10L 10 10"></path></g></g></g><g id="g-root-cu_4log541tsqccj-stroke" data-item-order="0" transform="translate(249, 363)"><g id="cu_4log541tsqccj-stroke" fill="none" stroke-linecap="round" stroke-linejoin="round" stroke-miterlimit="4" stroke="#969696" stroke-width="2" stroke-dasharray="5.0, 7.0"><g><path d="M 28 10L 28 40L 28 70L 19 70L 10 70"></path></g></g></g><g id="g-root-cu_1hdtk8o1tsqeq2-stroke" data-item-order="0" transform="translate(483, 150)"><g id="cu_1hdtk8o1tsqeq2-stroke" fill="none" stroke-linecap="round" stroke-linejoin="round" stroke-miterlimit="4" stroke="#969696" stroke-width="2" stroke-dasharray="5.0, 7.0"><g><path d="M 10 128L 13 128L 13.1 128C 24.642747 128.000004 33.999996 118.642756 33.999997 107.100004L 34 107L 34 30.9C 33.999999 19.357249 43.357248 10.000001 54.899999 10.000002L 55 10L 58 10"></path></g></g></g><g id="g-root-cu_4log541tsqccl-stroke" data-item-order="0" transform="translate(249, 363)"><g id="cu_4log541tsqccl-stroke" fill="none" stroke-linecap="round" stroke-linejoin="round" stroke-miterlimit="4" stroke="#969696" stroke-width="2" stroke-dasharray="5.0, 7.0"><g><path d="M 28 10L 28 22L 28 94C 28.000002 100.627415 22.627419 105.999998 16.000002 105.999998L 15.9 106L 10 106"></path></g></g></g><g id="g-root-tx_typesoft_1ur5hvc1tsqcy7-stroke" data-item-order="0" transform="translate(273, 39)"></g><g id="g-root-tx_poorcode_4jt0vs1tsnkzp-stroke" data-item-order="0" transform="translate(75, 189)"></g><g id="g-root-cu_18it12w1tsqd4z-stroke" data-item-order="0" transform="translate(249, 177)"><g id="cu_18it12w1tsqd4z-stroke" fill="none" stroke-linecap="round" stroke-linejoin="round" stroke-miterlimit="4" stroke="#969696" stroke-width="2" stroke-dasharray="5.0, 7.0"><g><path d="M 28 10L 28 22L 28 34L 19 34L 10 34"></path></g></g></g><g id="g-root-tx_manualpr_1cymj7c1tsnkst-stroke" data-item-order="0" transform="translate(579, 447)"></g><g id="g-root-cu_hwihfc1tsqd54-stroke" data-item-order="0" transform="translate(249, 177)"><g id="cu_hwihfc1tsqd54-stroke" fill="none" stroke-linecap="round" stroke-linejoin="round" stroke-miterlimit="4" stroke="#969696" stroke-width="2" stroke-dasharray="5.0, 7.0"><g><path d="M 28 10L 28 22L 28 94C 28.000002 100.627415 22.627419 105.999998 16.000002 105.999998L 15.9 106L 10 106"></path></g></g></g><g id="g-root-cu_mcbzjs1tsqccu-stroke" data-item-order="0" transform="translate(249, 177)"><g id="cu_mcbzjs1tsqccu-stroke" fill="none" stroke-linecap="round" stroke-linejoin="round" stroke-miterlimit="4" stroke="#969696" stroke-width="2" stroke-dasharray="5.0, 7.0"><g><path d="M 28 10L 28 40L 28 70L 19 70L 10 70"></path></g></g></g><g id="g-root-cu_90vh6g1tsqept-stroke" data-item-order="0" transform="translate(555, 363)"><g id="cu_90vh6g1tsqept-stroke" fill="none" stroke-linecap="round" stroke-linejoin="round" stroke-miterlimit="4" stroke="#969696" stroke-width="2" stroke-dasharray="5.0, 7.0"><g><path d="M 10 10L 10 22L 10 34L 19 34L 28 34"></path></g></g></g><g id="g-root-cu_hwihfc1tsqd56-stroke" data-item-order="0" transform="translate(555, 177)"><g id="cu_hwihfc1tsqd56-stroke" fill="none" stroke-linecap="round" stroke-linejoin="round" stroke-miterlimit="4" stroke="#969696" stroke-width="2" stroke-dasharray="5.0, 7.0"><g><path d="M 10 10L 10 22L 10 34L 19 34L 28 34"></path></g></g></g><g id="g-root-cu_dgozaw1tsqdxh-stroke" data-item-order="0" transform="translate(555, 177)"><g id="cu_dgozaw1tsqdxh-stroke" fill="none" stroke-linecap="round" stroke-linejoin="round" stroke-miterlimit="4" stroke="#969696" stroke-width="2" stroke-dasharray="5.0, 7.0"><g><path d="M 10 10L 10 40L 10 70L 19 70L 28 70"></path></g></g></g><g id="g-root-cu_dgozaw1tsqdxj-stroke" data-item-order="0" transform="translate(555, 177)"><g id="cu_dgozaw1tsqdxj-stroke" fill="none" stroke-linecap="round" stroke-linejoin="round" stroke-miterlimit="4" stroke="#969696" stroke-width="2" stroke-dasharray="5.0, 7.0"><g><path d="M 10 10L 10 22L 10 94C 10.000004 100.627423 15.372587 106.000006 22.000005 106.000005L 22.1 106L 28 106"></path></g></g></g><g id="g-root-cu_1cymj7c1tsqcco-stroke" data-item-order="0" transform="translate(291, 326)"><g id="cu_1cymj7c1tsqcco-stroke" fill="none" stroke-linecap="round" stroke-linejoin="round" stroke-miterlimit="4" stroke="#969696" stroke-width="2" stroke-dasharray="5.0, 7.0"><g><path d="M 58 10L 55 10L 54.9 10C 51.639401 10.016148 48.03708 10.453814 44.200002 11.299999C 41.965481 11.745013 38.361958 13.052173 34 14.999999C 29.638043 16.947825 26.03452 18.254985 23.8 18.699999C 19.962923 19.546185 16.360601 19.98385 13.1 20L 13 20L 10 20"></path></g></g></g><g id="g-root-cu_90vh6g1tsqepw-stroke" data-item-order="0" transform="translate(555, 363)"><g id="cu_90vh6g1tsqepw-stroke" fill="none" stroke-linecap="round" stroke-linejoin="round" stroke-miterlimit="4" stroke="#969696" stroke-width="2" stroke-dasharray="5.0, 7.0"><g><path d="M 10 10L 10 40L 10 70L 19 70L 28 70"></path></g></g></g><g id="g-root-cu_90vh6g1tsqepy-stroke" data-item-order="0" transform="translate(555, 363)"><g id="cu_90vh6g1tsqepy-stroke" fill="none" stroke-linecap="round" stroke-linejoin="round" stroke-miterlimit="4" stroke="#969696" stroke-width="2" stroke-dasharray="5.0, 7.0"><g><path d="M 10 10L 10 22L 10 94C 10.000004 100.627423 15.372587 106.000006 22.000005 106.000005L 22.1 106L 28 106"></path></g></g></g><g id="g-root-tx_violated_1qa31ko1tsnj7s-stroke" data-item-order="0" transform="translate(579, 189)"></g><g id="g-root-tx_lackofte_1upa2m01tsnlla-stroke" data-item-order="0" transform="translate(111, 225)"></g><g id="g-root-tx_legacysy_1cymj7c1tsnkss-stroke" data-item-order="0" transform="translate(579, 411)"></g><g id="g-root-cu_1cymj7c1tsqccl-stroke" data-item-order="0" transform="translate(483, 326)"><g id="cu_1cymj7c1tsqccl-stroke" fill="none" stroke-linecap="round" stroke-linejoin="round" stroke-miterlimit="4" stroke="#969696" stroke-width="2" stroke-dasharray="5.0, 7.0"><g><path d="M 10 10L 13 10L 13.1 10C 16.360602 10.01615 19.962923 10.453815 23.800001 11.3C 26.03452 11.745014 29.638043 13.052174 34 15.000001C 38.361958 16.947827 41.965481 18.254987 44.200001 18.700001C 48.03708 19.546186 51.639401 19.983851 54.900002 20.000001L 55 20L 58 20"></path></g></g></g><g id="g-root-tx_tribalkn_143m01k1tsnj7k-stroke" data-item-order="0" transform="translate(75, 447)"></g><g id="g-root-tx_poorsyst_1qa31ko1tsnj7t-stroke" data-item-order="0" transform="translate(579, 225)"></g><g id="g-root-tx_duplicat_1upa2m01tsnllb-stroke" data-item-order="0" transform="translate(99, 261)"></g><g id="g-root-tx_outdated_1lu9jg81tsnk03-stroke" data-item-order="0" transform="translate(579, 375)"></g><g id="g-root-tx_outdated_18it12w1tsnll3-stroke" data-item-order="0" transform="translate(15, 411)"></g><g id="g-root-tx_missingd_18it12w1tsnll2-stroke" data-item-order="0" transform="translate(111, 375)"></g><g id="g-root-cu_90vh6g1tsqeq0-stroke" data-item-order="0" transform="translate(249, 363)"><g id="cu_90vh6g1tsqeq0-stroke" fill="none" stroke-linecap="round" stroke-linejoin="round" stroke-miterlimit="4" stroke="#969696" stroke-width="2" stroke-dasharray="5.0, 7.0"><g><path d="M 28 10L 28 22L 28 34L 19 34L 10 34"></path></g></g></g><g id="g-root-tx_tightcou_1lu9jg81tsnk02-stroke" data-item-order="0" transform="translate(579, 261)"></g><g id="g-root-tx_architec_4njs8o1tt5tl3-stroke" data-item-order="1000000000" transform="translate(579, 138)"></g><g id="g-root-buil_7qa481tt5udc-stroke" data-item-order="1000000000" transform="translate(543, 135)"><g id="buil_7qa481tt5udc-stroke" fill="none" stroke-linecap="round" stroke-linejoin="round" stroke-miterlimit="4" stroke="#ba5de5" stroke-width="2"><g><path d="M 13.57375 21.875L 26.42625 21.875C 28.0548 21.875 29.375 23.1952 29.375 24.82375L 29.375 36.424999C 29.375 38.054241 28.054239 39.375 26.424999 39.375L 13.575 39.375C 11.94576 39.375 10.625 38.054241 10.625 36.424999L 10.625 24.82375C 10.625 23.1952 11.9452 21.875 13.57375 21.875ZM 13.74625 26.875L 17.5 26.875M 22.5 26.875L 26.25375 26.875M 22.5 33.125L 26.25375 33.125M 22.5 35.625L 26.25375 35.625M 15.625 25L 15.625 28.75M 14.3 33.047501L 16.953751 35.702499M 16.953751 33.05125L 14.3025 35.702499M 29.375 20L 29.375 11.25C 29.375 10.904822 29.654823 10.625 30 10.625L 38.75 10.625C 39.095177 10.625 39.375 10.904822 39.375 11.25L 39.375 27.5C 39.375 27.845177 39.095177 28.125 38.75 28.125L 31.875 28.125M 29.375 14.375L 31.875 14.375M 20.625 16.875L 23.125 16.875M 29.375 16.875L 33.125 16.875M 33.125 28.125L 33.125 23.75C 33.125 23.404823 33.404823 23.125 33.75 23.125L 36.25 23.125C 36.595177 23.125 36.875 23.404823 36.875 23.75L 36.875 28.125M 29.375 14.375L 21.25 14.375C 20.904823 14.375 20.625 14.654822 20.625 15L 20.625 18.75"></path></g></g></g><g id="g-root-beta_18gb1ko1tt1m2q-stroke" data-item-order="1000000000" transform="translate(387, 234)"><g id="beta_18gb1ko1tt1m2q-stroke" fill="none" stroke-linecap="round" stroke-linejoin="round" stroke-miterlimit="4" stroke="#484848" stroke-width="2"><g><path d="M 11 11L 38.599998 11L 38.599998 20.200001L 11 20.200001ZM 11 29.4L 57 29.4L 57 38.599998L 11 38.599998ZM 11 47.799999L 57 47.799999L 57 57L 11 57Z"></path></g></g></g><g id="g-root-tx_typesoft_1cw4jp41tt1lah-stroke" data-item-order="1000000000" transform="translate(363, 288)"></g><g id="g-root-aler_magkag1tsozya-stroke" data-item-order="1000000000" transform="translate(249, 135)"><g id="aler_magkag1tsozya-stroke" fill="none" stroke-linecap="round" stroke-linejoin="round" stroke-miterlimit="4" stroke="#e55753" stroke-width="2"><g><path d="M 23.202499 31.875L 13.2025 31.875C 11.821788 31.875 10.7025 30.755713 10.7025 29.375L 10.7025 13.125C 10.7025 11.744288 11.821788 10.625 13.2025 10.625L 31.952499 10.625C 33.33321 10.625 34.452499 11.744288 34.452499 13.125L 34.452499 21.875M 17.668751 17.262501L 14.99125 19.9925L 17.668751 22.723749M 27.032501 17.262501L 29.709999 19.9925L 27.032501 22.723749M 20.70125 23.40625L 23.432501 17.262501"></path></g></g></g><g id="g-root-tx_document_magkag1tsqdc4-stroke" data-item-order="1000000000" transform="translate(51, 324)"></g><g id="g-root-docs_detk1k1tsqe4t-stroke" data-item-order="1000000000" transform="translate(249, 321)"><g id="docs_detk1k1tsqe4t-stroke" fill="none" stroke-linecap="round" stroke-linejoin="round" stroke-miterlimit="4" stroke="#92bd39" stroke-width="2"><g><path d="M 36.875 36.875C 36.875 38.255714 35.755714 39.375 34.375 39.375L 15.625 39.375C 14.244288 39.375 13.125 38.255714 13.125 36.875L 13.125 13.125C 13.125 11.744288 14.244288 10.625 15.625 10.625L 28.75 10.625L 36.875 18.75ZM 36.875 18.75L 31.25 18.75C 29.869287 18.75 28.75 17.630713 28.75 16.25L 28.75 10.625ZM 31.875 23.125L 18.125 23.125M 31.875 27.0875L 18.125 27.0875M 31.875 31.0375L 18.125 31.0375M 25 35L 18.125 35"></path></g></g></g><g id="g-root-tx_codedebt_qqa2ew1tsoz61-stroke" data-item-order="1000000000" transform="translate(135, 138)"></g><g id="g-root-cash_qv9v3s1tsksud-stroke" data-item-order="1000000000" transform="translate(543, 321)"><g id="cash_qv9v3s1tsksud-stroke" fill="none" stroke-linecap="round" stroke-linejoin="round" stroke-miterlimit="4" stroke="#e0cb15" stroke-width="2"><g><path d="M 36.875 15.625C 36.875 17.005713 35.755714 18.125 34.375 18.125L 13.125 18.125C 11.744288 18.125 10.625 17.005713 10.625 15.625L 10.625 13.125C 10.625 11.744288 11.744288 10.625 13.125 10.625L 34.375 10.625C 35.755714 10.625 36.875 11.744288 36.875 13.125ZM 13.125 25.625C 11.744288 25.625 10.625 24.505713 10.625 23.125L 10.625 20.625C 10.625 19.244287 11.744288 18.125 13.125 18.125L 34.375 18.125C 35.755714 18.125 36.875 19.244287 36.875 20.625L 36.875 22.5M 15.9375 14.0625C 15.764912 14.0625 15.625 14.202411 15.625 14.375C 15.625 14.547589 15.764912 14.6875 15.9375 14.6875C 16.110088 14.6875 16.25 14.547589 16.25 14.375C 16.25 14.202411 16.110088 14.0625 15.9375 14.0625L 15.9375 14.0625M 20.3125 14.0625C 20.139912 14.0625 20 14.202411 20 14.375C 20 14.547589 20.139912 14.6875 20.3125 14.6875C 20.485088 14.6875 20.625 14.547589 20.625 14.375C 20.625 14.202411 20.485088 14.0625 20.3125 14.0625L 20.3125 14.0625M 15.9375 21.5625C 15.764912 21.5625 15.625 21.702412 15.625 21.875C 15.625 22.047588 15.764912 22.1875 15.9375 22.1875C 16.110088 22.1875 16.25 22.047588 16.25 21.875C 16.25 21.702412 16.110088 21.5625 15.9375 21.5625L 15.9375 21.5625M 20.3125 21.5625C 20.139912 21.5625 20 21.702412 20 21.875C 20 22.047588 20.139912 22.1875 20.3125 22.1875C 20.485088 22.1875 20.625 22.047588 20.625 21.875C 20.625 21.702412 20.485088 21.5625 20.3125 21.5625L 20.3125 21.5625M 21.25 33.125L 13.125 33.125C 11.744288 33.125 10.625 32.005714 10.625 30.625L 10.625 28.125C 10.625 26.744287 11.744288 25.625 13.125 25.625L 23.125 25.625M 15.9375 29.0625C 15.764912 29.0625 15.625 29.202412 15.625 29.375C 15.625 29.547588 15.764912 29.6875 15.9375 29.6875C 16.110088 29.6875 16.25 29.547588 16.25 29.375C 16.25 29.202412 16.110088 29.0625 15.9375 29.0625L 15.9375 29.0625M 20.3125 29.0625C 20.139912 29.0625 20 29.202412 20 29.375C 20 29.547588 20.139912 29.6875 20.3125 29.6875C 20.485088 29.6875 20.625 29.547588 20.625 29.375C 20.625 29.202412 20.485088 29.0625 20.3125 29.0625L 20.3125 29.0625M 33.75 28.125L 31.208748 28.125C 30.404253 28.124067 29.712368 28.694401 29.559761 29.484291C 29.407156 30.274181 29.836803 31.061193 30.583748 31.359999L 33.162502 32.391251C 33.910595 32.688881 34.341415 33.476349 34.188629 34.266846C 34.035847 35.057346 33.342625 35.627563 32.537498 35.625L 30 35.625M 31.875 36.875L 31.875 35.625M 31.875 28.125L 31.875 26.875M 24.375 31.875C 24.375002 36.017136 27.732864 39.375 31.875 39.375C 36.017136 39.375 39.375 36.017136 39.375 31.875C 39.375 27.732864 36.017136 24.375002 31.875 24.375002C 27.732864 24.375002 24.375002 27.732864 24.375002 31.875Z"></path></g></g></g><g id="g-root-tx_infrastr_146qdh41tskr9g-stroke" data-item-order="1000000000" transform="translate(579, 324)"></g></g></g></svg>