<?xml version="1.0" encoding="utf-8" standalone="yes"?>
<!DOCTYPE svg PUBLIC "-//W3C//DTD SVG 1.1//EN" "http://www.w3.org/Graphics/SVG/1.1/DTD/svg11.dtd">
<svg width="951" height="818" viewBox="0 0 951 818" style="fill:none;stroke:none;fill-rule:evenodd;clip-rule:evenodd;stroke-linecap:round;stroke-linejoin:round;stroke-miterlimit:1.5;" version="1.1" xmlns="http://www.w3.org/2000/svg" xmlns:xlink="http://www.w3.org/1999/xlink"><style class="text-font-style fontImports" data-font-family="Shantell Sans">@import url('https://fonts.googleapis.com/css2?family=Shantell+Sans:wght@300..800&amp;display=block');</style><rect id="" x="0" y="0" width="951" height="818" style="fill: #ffffff;"></rect><g id="items" style="isolation: isolate"><g id="blend" style="mix-blend-mode: normal"><g id="g-root-tf_13zv2ng1ghnxmz-fill" data-item-order="-774384" transform="translate(-9, -9)"><g id="tf_13zv2ng1ghnxmz-fill" stroke="none" fill="#ffffff"><g><path d="M 10 10L 959 10L 959 826L 10 826Z"></path></g></g></g><g id="g-root-5.g-5_fr_dg2fcc1gh737l-fill" data-item-order="-659522" transform="translate(231, 329.283203125)"><g id="5.g-5_fr_dg2fcc1gh737l-fill" stroke="none" fill="#ffe4cb"><g><path d="M 10 121.717285C 10.000002 158.168081 39.549208 187.717287 76.000002 187.717287C 112.450795 187.717287 142.000002 158.168081 142.000002 121.717287C 142.000002 85.266494 112.450795 55.717287 76.000002 55.717287C 39.549208 55.717287 10.000002 85.266494 10.000002 121.717287"></path></g></g><g id="5.g-5_fr_dg2fcc1gh737l-fill" stroke="none" fill="#ffe4cb"><g><path d="M 146.659203 79.8494L 159.917703 20.4843L 100.000203 10L 113.089503 29.5949C 103.661603 37.8234 95.098703 46.9122 87.495703 56.7149C 100.816703 59.0545 112.761803 65.389 122.050403 74.4373C 125.910203 69.9101 130.037803 65.5968 134.416903 61.5224L 146.659203 79.8494ZM 85.468903 187.043C 82.376703 187.487 79.215303 187.717 76.000303 187.717C 65.633503 187.717 55.825003 185.327 47.095703 181.068C 47.698303 200.223 51.153203 219.275 57.427603 237.58L 65.738803 211.434L 92.033003 221.16C 88.559703 210.026 86.368003 198.581 85.468903 187.043Z"></path></g></g></g><g id="g-root-4.g-4_fr_4l1w6k1gh70uj-fill" data-item-order="-659516" transform="translate(268.31201171875, 530.7158203125)"><g id="4.g-4_fr_4l1w6k1gh70uj-fill" stroke="none" fill="#fff8b6"><g><path d="M 85.4771 31.1019L 28.427 10L 10 67.9693L 29.3825 58.5018C 34.7146 69.3819 41.04 79.6961 48.2558 89.3227C 54.9814 78.2627 64.8669 69.3363 76.6588 63.7967C 71.6997 56.8701 67.3035 49.5235 63.5269 41.8236L 85.4771 31.1019ZM 170.668 125.223C 170.336 138.703 165.962 151.181 158.712 161.489C 173.67 164.99 189.067 166.709 204.583 166.557L 184.688 147.566L 204.606 128.554C 193.148 128.696 181.769 127.567 170.668 125.223Z"></path></g></g><g id="4.g-4_fr_4l1w6k1gh70uj-fill" stroke="none" fill="#fff8b6"><g><path d="M 170.6875 123.566284C 170.6875 160.017284 141.1385 189.566284 104.6875 189.566284C 68.2367 189.566284 38.6875 160.017284 38.6875 123.566284C 38.6875 87.115484 68.2367 57.566284 104.6875 57.566284C 141.1385 57.566284 170.6875 87.115484 170.6875 123.566284Z"></path></g></g></g><g id="g-root-3.g-3_fr_4l1w6k1gh70um-fill" data-item-order="-659510" transform="translate(443, 549.72265625)"><g id="3.g-3_fr_4l1w6k1gh70um-fill" stroke="none" fill="#d1f4ff"><g><path d="M 68.5 104.560059C 68.500002 141.010854 98.049208 170.560061 134.500002 170.560061C 170.950795 170.560061 200.500002 141.010854 200.500002 104.560061C 200.500002 68.109267 170.950795 38.560061 134.500002 38.560061C 98.049208 38.560061 68.500002 68.109267 68.500002 104.560061"></path></g></g><g id="3.g-3_fr_4l1w6k1gh70um-fill" stroke="none" fill="#d1f4ff"><g><path d="M 185.759 35.3724L 172.746 10C 168.39 21.3728 162.728 32.1433 155.907 42.1091C 168.262 46.3431 178.962 54.1401 186.782 64.2739C 195.774 51.2616 203.171 37.1356 208.763 22.189L 185.759 35.3724ZM 79.2246 140.638C 72.4428 130.269 68.5 117.875 68.5 104.5601C 68.5 104.4317 68.5004 104.3034 68.5011 104.1751C 63.7299 105.4667 58.8909 106.5317 54 107.3639L 54 86.56L 10 128.56L 54 170.56L 54 145.801C 62.538 144.64 70.964 142.912 79.2246 140.638Z"></path></g></g></g><g id="g-root-2.g-2_fr_90veb01gh70u8-fill" data-item-order="-659504" transform="translate(558.93798828125, 344.1416015625)"><g id="2.g-2_fr_90veb01gh70u8-fill" stroke="none" fill="#e9ffb9"><g><path d="M 18.5625 106.857727C 18.562502 143.308523 48.111708 172.857729 84.562502 172.857729C 121.013295 172.857729 150.562502 143.308523 150.562502 106.857729C 150.562502 70.406936 121.013295 40.857729 84.562502 40.857729C 48.111708 40.857729 18.562502 70.406936 18.562502 106.857729"></path></g></g><g id="2.g-2_fr_90veb01gh70u8-fill" stroke="none" fill="#e9ffb9"><g><path d="M 33.9924 64.4435C 26.9554 55.4774 18.9182 47.2729 10 40.0027L 38.2795 35.9682L 33.3334 10C 45.556 19.8724 56.464 31.1483 65.8613 43.5444C 53.259 47.2607 42.2258 54.6373 33.9924 64.4435ZM 66.7205 170.418C 66.213 178.056 65.1391 185.666 63.4984 193.185L 42.0616 186.828L 69.8201 240.953L 122.596 210.708L 100.0095 204.011C 102.6495 192.701 104.2545 181.213 104.8253 169.689C 98.4404 171.746 91.6308 172.858 84.5615 172.858C 78.3792 172.858 72.3953 172.008 66.7205 170.418Z"></path></g></g></g><g id="g-root-1.g-1_fr_58e241gh71my-fill" data-item-order="-659498" transform="translate(352.35198974609375, 243)"><g id="1.g-1_fr_58e241gh71my-fill" stroke="none" fill="#c8ffe5"><g><path d="M 52.648438 76C 52.648439 112.450795 82.197646 142.000002 118.648439 142.000002C 155.099233 142.000002 184.648439 112.450795 184.648439 76.000002C 184.648439 39.549208 155.099233 10.000002 118.648439 10.000002C 82.197646 10.000002 52.648439 39.549208 52.648439 76.000002"></path></g></g><g id="1.g-1_fr_58e241gh71my-fill" stroke="none" fill="#c8ffe5"><g><path d="M 184.536 79.877756C 183.762 93.224156 179.023 105.506756 171.479 115.564456C 180.459 118.820156 189.152 122.910756 197.438 127.802056L 184.648 145.701456L 244.866 137.110456L 233.485 77.357056L 219.599 96.789756C 208.464 89.955956 196.712 84.300256 184.536 79.877756ZM 65.8162 115.564356C 58.2721 105.506656 53.533 93.224156 52.7597 79.877756C 37.7145 85.342256 23.3429 92.680456 10 101.768756L 38.5648 106.766956L 32.8923 132.166356C 43.2073 125.315256 54.2649 119.752356 65.8162 115.564356Z"></path></g></g></g><g id="g-root-tx_software_1uqixws1gh7284-fill" data-item-order="0" transform="translate(177.5, 39)"><g id="tx_software_1uqixws1gh7284-fill" stroke="none" fill="#484848"><g><text style="font: bold 25px &quot;Shantell Sans&quot;, cursive; white-space: pre;" font-weight="bold" font-size="25px" font-family="'Shantell Sans', cursive"><tspan x="16.92" y="45" dominant-baseline="ideographic">Software Development Best Practices Cycle</tspan></text></g></g></g><g id="g-root-tx_sprintpl_1hjfr581ghmih5-fill" data-item-order="0" transform="translate(369, 135)"><g id="tx_sprintpl_1hjfr581ghmih5-fill" stroke="none" fill="#3cc583"><g><text style="font: bold 20px &quot;Shantell Sans&quot;, cursive; white-space: pre;" font-weight="bold" font-size="20px" font-family="'Shantell Sans', cursive"><tspan x="19.51" y="35" dominant-baseline="ideographic">Sprint Planning</tspan></text></g></g></g><g id="g-root-tx_establis_1d3m90s1ghmj9e-fill" data-item-order="0" transform="translate(369, 171)"><g id="tx_establis_1d3m90s1ghmj9e-fill" stroke="none" fill="#484848"><g><text style="font: 15px &quot;Shantell Sans&quot;, cursive; white-space: pre;" font-size="15px" font-family="'Shantell Sans', cursive"><tspan x="26.24" y="29" dominant-baseline="ideographic">Establish a plan for </tspan><tspan x="27.16" y="47" dominant-baseline="ideographic">development cycles</tspan></text></g></g></g><g id="g-root-1_1uqixws1gh7285-fill" data-item-order="0" transform="translate(431, 280.357421875)"></g><g id="g-root-tx_processo_v2z48c1ghnx1d-fill" data-item-order="0" transform="translate(15, 369)"><g id="tx_processo_v2z48c1ghnx1d-fill" stroke="none" fill="#de8431"><g><text style="font: bold 20px &quot;Shantell Sans&quot;, cursive; white-space: pre;" font-weight="bold" font-size="20px" font-family="'Shantell Sans', cursive"><tspan x="108.61" y="35" dominant-baseline="ideographic">Process </tspan><tspan x="53.41" y="59" dominant-baseline="ideographic">Optimization</tspan></text></g></g></g><g id="g-root-tx_coderevi_13ym4h81ghnvgt-fill" data-item-order="0" transform="translate(736, 381)"><g id="tx_coderevi_13ym4h81ghnvgt-fill" stroke="none" fill="#92bd39"><g><text style="font: bold 20px &quot;Shantell Sans&quot;, cursive; white-space: pre;" font-weight="bold" font-size="20px" font-family="'Shantell Sans', cursive"><tspan x="12" y="35" dominant-baseline="ideographic">Code Review</tspan></text></g></g></g><g id="g-root-up_18kodgs1ghjpq9-fill" data-item-order="0" transform="translate(267, 410.283203125)"></g><g id="g-root-sear_18nsqwc1gh9uyw-fill" data-item-order="0" transform="translate(603.5, 411)"></g><g id="g-root-tx_improvew_v2z48c1ghnx1e-fill" data-item-order="0" transform="translate(15, 429)"><g id="tx_improvew_v2z48c1ghnx1e-fill" stroke="none" fill="#484848"><g><text style="font: 15px &quot;Shantell Sans&quot;, cursive; white-space: pre;" font-size="15px" font-family="'Shantell Sans', cursive"><tspan x="13.39" y="29" dominant-baseline="ideographic">Improve workflows and </tspan><tspan x="119.69" y="47" dominant-baseline="ideographic">efficiency</tspan></text></g></g></g><g id="g-root-tx_ensureco_zismcs1ghnw92-fill" data-item-order="0" transform="translate(736, 417)"><g id="tx_ensureco_zismcs1ghnw92-fill" stroke="none" fill="#484848"><g><text style="font: 15px &quot;Shantell Sans&quot;, cursive; white-space: pre;" font-size="15px" font-family="'Shantell Sans', cursive"><tspan x="12" y="29" dominant-baseline="ideographic">Ensure code quality </tspan><tspan x="12" y="47" dominant-baseline="ideographic">and security</tspan></text></g></g></g><g id="g-root-idea_91hve41ghgw08-fill" data-item-order="0" transform="translate(333, 614)"></g><g id="g-root-jeng_4g23ho1ghe48y-fill" data-item-order="0" transform="translate(537.5, 614.283203125)"></g><g id="g-root-tx_knowledg_zismcs1ghnw93-fill" data-item-order="0" transform="translate(75, 627)"><g id="tx_knowledg_zismcs1ghnw93-fill" stroke="none" fill="#e0cb15"><g><text style="font: bold 20px &quot;Shantell Sans&quot;, cursive; white-space: pre;" font-weight="bold" font-size="20px" font-family="'Shantell Sans', cursive"><tspan x="72.59" y="35" dominant-baseline="ideographic">Knowledge </tspan><tspan x="107.23" y="59" dominant-baseline="ideographic">Sharing</tspan></text></g></g></g><g id="g-root-tx_architec_1d3m90s1ghmj9f-fill" data-item-order="0" transform="translate(676, 627)"><g id="tx_architec_1d3m90s1ghmj9f-fill" stroke="none" fill="#1eabda"><g><text style="font: bold 20px &quot;Shantell Sans&quot;, cursive; white-space: pre;" font-weight="bold" font-size="20px" font-family="'Shantell Sans', cursive"><tspan x="12" y="35" dominant-baseline="ideographic">Architecture </tspan><tspan x="12" y="59" dominant-baseline="ideographic">Review</tspan></text></g></g></g><g id="g-root-tx_facilita_zismcs1ghnw94-fill" data-item-order="0" transform="translate(75, 687)"><g id="tx_facilita_zismcs1ghnw94-fill" stroke="none" fill="#484848"><g><text style="font: 15px &quot;Shantell Sans&quot;, cursive; white-space: pre;" font-size="15px" font-family="'Shantell Sans', cursive"><tspan x="14.81" y="29" dominant-baseline="ideographic">Facilitate team learning </tspan><tspan x="101.88" y="47" dominant-baseline="ideographic">and growth</tspan></text></g></g></g><g id="g-root-tx_assesssy_13ym4h81ghnvgs-fill" data-item-order="0" transform="translate(676, 687)"><g id="tx_assesssy_13ym4h81ghnvgs-fill" stroke="none" fill="#484848"><g><text style="font: 15px &quot;Shantell Sans&quot;, cursive; white-space: pre;" font-size="15px" font-family="'Shantell Sans', cursive"><tspan x="12" y="29" dominant-baseline="ideographic">Assess system design </tspan><tspan x="12" y="47" dominant-baseline="ideographic">and scalability</tspan></text></g></g></g><g id="g-root-tf_13zv2ng1ghnxmz-stroke" data-item-order="-774384" transform="translate(-9, -9)"></g><g id="g-root-5.g-5_fr_dg2fcc1gh737l-stroke" data-item-order="-659522" transform="translate(231, 329.283203125)"><g id="5.g-5_fr_dg2fcc1gh737l-stroke" fill="none" stroke-linecap="round" stroke-linejoin="round" stroke-miterlimit="4" stroke="#ffffff" stroke-width="2"><g><path d="M 10 121.717285C 10.000002 158.168081 39.549208 187.717287 76.000002 187.717287C 112.450795 187.717287 142.000002 158.168081 142.000002 121.717287C 142.000002 85.266494 112.450795 55.717287 76.000002 55.717287C 39.549208 55.717287 10.000002 85.266494 10.000002 121.717287"></path></g></g><g id="5.g-5_fr_dg2fcc1gh737l-stroke" fill="none" stroke-linecap="round" stroke-linejoin="round" stroke-miterlimit="4" stroke="#ffffff" stroke-width="2"><g><path d="M 146.659203 79.8494L 159.917503 20.4843L 100.000203 10L 113.089503 29.5949C 103.661603 37.8234 95.098703 46.9122 87.495703 56.7149C 100.816703 59.0545 112.761803 65.389 122.050403 74.4373C 125.910203 69.9101 130.037803 65.5968 134.416903 61.5224L 146.659203 79.8494ZM 85.468903 187.0432C 82.376703 187.4874 79.215303 187.7173 76.000303 187.7173C 65.633503 187.7173 55.825003 185.3272 47.095703 181.0679C 47.698303 200.223 51.153103 219.2752 57.427603 237.5798L 65.738803 211.4337L 92.033003 221.1595C 88.559703 210.0263 86.368003 198.5809 85.468903 187.0432Z"></path></g></g></g><g id="g-root-4.g-4_fr_4l1w6k1gh70uj-stroke" data-item-order="-659516" transform="translate(268.31201171875, 530.7158203125)"><g id="4.g-4_fr_4l1w6k1gh70uj-stroke" fill="none" stroke-linecap="round" stroke-linejoin="round" stroke-miterlimit="4" stroke="#ffffff" stroke-width="2"><g><path d="M 85.4771 31.1019L 28.427 10L 10 67.9693L 29.3825 58.5018C 34.7146 69.3819 41.04 79.6961 48.2558 89.3227C 54.9814 78.2627 64.8669 69.3363 76.6588 63.7967C 71.6997 56.8701 67.3035 49.5235 63.5269 41.8236L 85.4771 31.1019ZM 170.6681 125.2228C 170.336 138.7031 165.9621 151.1806 158.7123 161.4894C 173.6701 164.9898 189.0668 166.7094 204.5835 166.5569L 184.6885 147.5663L 204.6057 128.5544C 193.1477 128.6961 181.7688 127.5666 170.6681 125.2228Z"></path></g></g><g id="4.g-4_fr_4l1w6k1gh70uj-stroke" fill="none" stroke-linecap="round" stroke-linejoin="round" stroke-miterlimit="4" stroke="#ffffff" stroke-width="2"><g><path d="M 170.6875 123.566284C 170.6875 160.017084 141.1383 189.566284 104.6875 189.566284C 68.2367 189.566284 38.6875 160.017084 38.6875 123.566284C 38.6875 87.115484 68.2367 57.566284 104.6875 57.566284C 141.1383 57.566284 170.6875 87.115484 170.6875 123.566284Z"></path></g></g></g><g id="g-root-3.g-3_fr_4l1w6k1gh70um-stroke" data-item-order="-659510" transform="translate(443, 549.72265625)"><g id="3.g-3_fr_4l1w6k1gh70um-stroke" fill="none" stroke-linecap="round" stroke-linejoin="round" stroke-miterlimit="4" stroke="#ffffff" stroke-width="2"><g><path d="M 68.5 104.560059C 68.500002 141.010854 98.049208 170.560061 134.500002 170.560061C 170.950795 170.560061 200.500002 141.010854 200.500002 104.560061C 200.500002 68.109267 170.950795 38.560061 134.500002 38.560061C 98.049208 38.560061 68.500002 68.109267 68.500002 104.560061"></path></g></g><g id="3.g-3_fr_4l1w6k1gh70um-stroke" fill="none" stroke-linecap="round" stroke-linejoin="round" stroke-miterlimit="4" stroke="#ffffff" stroke-width="2"><g><path d="M 185.7585 35.3724L 172.746 10C 168.3901 21.3728 162.7282 32.1433 155.9068 42.1091C 168.2616 46.3431 178.9623 54.1401 186.7824 64.2739C 195.7735 51.2616 203.1712 37.1356 208.7631 22.189L 185.7585 35.3724ZM 79.2246 140.6382C 72.4428 130.2689 68.5 117.8749 68.5 104.5601C 68.5 104.4317 68.5004 104.3034 68.5011 104.1751C 63.7299 105.4667 58.8909 106.5317 54 107.3639L 54 86.56L 10 128.56L 54 170.56L 54 145.8008C 62.538 144.64 70.964 142.9122 79.2246 140.6382Z"></path></g></g></g><g id="g-root-2.g-2_fr_90veb01gh70u8-stroke" data-item-order="-659504" transform="translate(558.93798828125, 344.1416015625)"><g id="2.g-2_fr_90veb01gh70u8-stroke" fill="none" stroke-linecap="round" stroke-linejoin="round" stroke-miterlimit="4" stroke="#ffffff" stroke-width="2"><g><path d="M 18.5625 106.857727C 18.562502 143.308523 48.111708 172.857729 84.562502 172.857729C 121.013295 172.857729 150.562502 143.308523 150.562502 106.857729C 150.562502 70.406936 121.013295 40.857729 84.562502 40.857729C 48.111708 40.857729 18.562502 70.406936 18.562502 106.857729"></path></g></g><g id="2.g-2_fr_90veb01gh70u8-stroke" fill="none" stroke-linecap="round" stroke-linejoin="round" stroke-miterlimit="4" stroke="#ffffff" stroke-width="2"><g><path d="M 33.9924 64.4435C 26.9554 55.4774 18.9182 47.2729 10 40.0027L 38.2795 35.9682L 33.3334 10C 45.556 19.8724 56.464 31.1483 65.8613 43.5444C 53.259 47.2607 42.2258 54.6373 33.9924 64.4435ZM 66.7205 170.4181C 66.213 178.0557 65.1391 185.6658 63.4984 193.1847L 42.0616 186.8283L 69.8201 240.9528L 122.5957 210.7083L 100.0095 204.011C 102.6495 192.7011 104.2545 181.2135 104.8253 169.6887C 98.4404 171.7463 91.6308 172.8577 84.5615 172.8577C 78.3792 172.8577 72.3953 172.0077 66.7205 170.4181Z"></path></g></g></g><g id="g-root-1.g-1_fr_58e241gh71my-stroke" data-item-order="-659498" transform="translate(352.35198974609375, 243)"><g id="1.g-1_fr_58e241gh71my-stroke" fill="none" stroke-linecap="round" stroke-linejoin="round" stroke-miterlimit="4" stroke="#ffffff" stroke-width="2"><g><path d="M 52.648438 76C 52.648439 112.450795 82.197646 142.000002 118.648439 142.000002C 155.099233 142.000002 184.648439 112.450795 184.648439 76.000002C 184.648439 39.549208 155.099233 10.000002 118.648439 10.000002C 82.197646 10.000002 52.648439 39.549208 52.648439 76.000002"></path></g></g><g id="1.g-1_fr_58e241gh71my-stroke" fill="none" stroke-linecap="round" stroke-linejoin="round" stroke-miterlimit="4" stroke="#ffffff" stroke-width="2"><g><path d="M 184.5357 79.877756C 183.7624 93.224156 179.0233 105.506756 171.4792 115.564456C 180.4592 118.820156 189.1518 122.910756 197.4381 127.802056L 184.6477 145.701456L 244.8656 137.110456L 233.4845 77.357056L 219.5985 96.789756C 208.4635 89.955956 196.7122 84.300256 184.5357 79.877756ZM 65.8162 115.564356C 58.2721 105.506656 53.533 93.224156 52.7597 79.877756C 37.7145 85.342256 23.3429 92.680456 10 101.768756L 38.5648 106.766956L 32.8923 132.166356C 43.2073 125.315256 54.2649 119.752356 65.8162 115.564356Z"></path></g></g></g><g id="g-root-tx_software_1uqixws1gh7284-stroke" data-item-order="0" transform="translate(177.5, 39)"></g><g id="g-root-tx_sprintpl_1hjfr581ghmih5-stroke" data-item-order="0" transform="translate(369, 135)"></g><g id="g-root-tx_establis_1d3m90s1ghmj9e-stroke" data-item-order="0" transform="translate(369, 171)"></g><g id="g-root-1_1uqixws1gh7285-stroke" data-item-order="0" transform="translate(431, 280.357421875)"><g id="1_1uqixws1gh7285-stroke" fill="none" stroke-linecap="round" stroke-linejoin="round" stroke-miterlimit="4" stroke="#3cc583" stroke-width="2"><g><path d="M 38.75 53.752499C 38.750004 62.036774 45.465729 68.752502 53.75 68.752502C 62.034271 68.752502 68.75 62.036774 68.75 53.752502C 68.75 45.468231 62.034271 38.752502 53.75 38.752502C 45.465729 38.752502 38.750004 45.468231 38.750004 53.752502ZM 60.434998 49.389999L 53.172497 59.074997C 52.845757 59.50956 52.346672 59.781136 51.804337 59.819496C 51.261997 59.857861 50.729656 59.659237 50.344997 59.274998L 46.594997 55.524998M 33.75 56.25L 13.75 56.25C 12.369288 56.25 11.25 55.130711 11.25 53.75L 11.25 18.75C 11.25 17.369287 12.369288 16.25 13.75 16.25L 58.75 16.25C 60.130711 16.25 61.25 17.369287 61.25 18.75L 61.25 35M 23.75 11.2525L 23.75 23.752501M 48.75 11.2525L 48.75 23.752501M 11.25 28.752501L 61.25 28.752501"></path></g></g></g><g id="g-root-tx_processo_v2z48c1ghnx1d-stroke" data-item-order="0" transform="translate(15, 369)"></g><g id="g-root-tx_coderevi_13ym4h81ghnvgt-stroke" data-item-order="0" transform="translate(736, 381)"></g><g id="g-root-up_18kodgs1ghjpq9-stroke" data-item-order="0" transform="translate(267, 410.283203125)"><g id="up_18kodgs1ghjpq9-stroke" fill="none" stroke-linecap="round" stroke-linejoin="round" stroke-miterlimit="4" stroke="#de8431" stroke-width="2"><g><path d="M 11.875 68.125C 15.6084 68.125 19.341825 68.125 23.075226 64.375C 26.808626 68.125 30.542027 68.125 31.5376 68.125C 32.533176 68.125 36.266502 68.125 40 64.375C 43.733498 68.125 47.466751 68.125 48.462502 68.125C 49.458 68.125 53.191254 68.125 56.924747 64.375C 60.658249 68.125 64.391495 68.125 68.125 68.125M 60.375 20.989525C 64.9645 20.989525 68.685249 18.949175 68.685249 16.432276C 68.685249 13.91535 64.9645 11.875 60.375 11.875C 55.785252 11.875 52.064747 13.91535 52.064747 16.432276C 52.064747 18.949175 55.785252 20.989525 60.375 20.989525ZM 52.064747 16.432125L 52.064747 28.76355C 52.064747 31.176226 55.817753 33.320824 60.375 33.320824C 64.932251 33.320824 68.685249 31.176226 68.685249 28.76355L 68.685249 16.432125M 15.74065 58.499752C 15.74065 57.671501 15.46455 56.843254 14.6362 56.014748L 12.979475 54.358002C 11.875008 53.529747 11.59888 51.873001 12.151115 50.768501C 12.70335 49.388 13.807825 48.835751 15.188425 48.835751L 17.397375 48.835751C 18.225725 48.835751 19.330175 48.55975 19.882425 48.0075C 20.43465 47.45525 20.710775 46.640503 20.710775 45.522251L 20.710775 43.313499C 20.710775 41.932751 21.539125 40.55225 22.6436 40.276001C 24.024176 39.723999 25.404776 40 26.233124 41.1045L 27.889851 42.76125C 28.442076 43.313499 29.270424 43.865749 30.374899 43.865749C 31.479349 43.865749 32.031574 43.5895 32.859924 42.76125L 34.516647 41.1045C 35.344997 40 37.001751 39.723999 38.106251 40.276001C 39.486748 40.828251 40.039001 41.932751 40.039001 43.313499L 40.039001 45.522251C 40.039001 46.35075 40.31525 47.45525 40.867249 48.0075C 41.419498 48.55975 42.523998 49.112 43.352501 48.835751L 45.561249 48.835751C 46.942001 48.835751 48.322502 49.663998 48.598751 50.768501C 49.151001 52.149246 48.874748 53.529747 47.770248 54.358002L 46.113503 56.014748C 45.561249 56.567001 45.008999 57.3955 45.008999 58.499752M 24.300224 58.499752C 24.300224 55.186249 27.061426 52.149002 30.650949 52.149002C 33.964352 52.149002 36.725498 54.910004 36.725498 58.499752M 60.375 39.249748L 60.375 57.499752M 10 10M 55.375 44.25L 60.375 39.25L 65.375 44.25M 68.685249 22.549576C 68.685249 25.119776 64.964752 27.20335 60.375 27.20335C 55.785252 27.20335 52.064747 25.119776 52.064747 22.549576"></path></g></g></g><g id="g-root-sear_18nsqwc1gh9uyw-stroke" data-item-order="0" transform="translate(603.5, 411)"><g id="sear_18nsqwc1gh9uyw-stroke" fill="none" stroke-linecap="round" stroke-linejoin="round" stroke-miterlimit="4" stroke="#92bd39" stroke-width="2"><g><path d="M 53.9575 53.862499L 68.847496 68.75M 11.25 36.212498C 11.25 50.019615 22.442883 61.212502 36.25 61.212502C 50.057121 61.212502 61.25 50.019615 61.25 36.212502C 61.25 22.40538 50.057121 11.212501 36.25 11.212501C 22.442883 11.212501 11.25 22.40538 11.25 36.212502ZM 45 28.75L 52.5 36.25L 45 43.75M 27.5 28.75L 20 36.25L 27.5 43.75M 40 26.25L 32.5 46.25"></path></g></g></g><g id="g-root-tx_improvew_v2z48c1ghnx1e-stroke" data-item-order="0" transform="translate(15, 429)"></g><g id="g-root-tx_ensureco_zismcs1ghnw92-stroke" data-item-order="0" transform="translate(736, 417)"></g><g id="g-root-idea_91hve41ghgw08-stroke" data-item-order="0" transform="translate(333, 614)"><g id="idea_91hve41ghgw08-stroke" fill="none" stroke-linecap="round" stroke-linejoin="round" stroke-miterlimit="4" stroke="#e0cb15" stroke-width="2"><g><path d="M 67.5 35L 67.5 57.552498C 67.500175 58.91774 66.405067 60.030655 65.040001 60.052498C 51.4575 60.450001 40 64.192497 40 68.75C 40 64.190002 28.539999 60.447502 14.96 60.037498C 13.594934 60.015656 12.499825 58.90274 12.5 57.537498L 12.5 21.295C 12.499903 20.624529 12.769121 19.982119 13.247194 19.512035C 13.725268 19.041954 14.372126 18.783602 15.0425 18.795C 28.5875 19.215 40 22.952501 40 27.5M 18.75 30C 24.323488 30.295017 29.811852 31.494858 35.000004 33.552502M 18.75 38.512501C 24.323189 38.806049 29.811523 40.004196 35 42.059998M 18.75 47.022499C 24.323357 47.314812 29.811888 48.513 35 50.57M 40 27.502501L 40 68.440002M 62.5 26.25C 62.514534 22.432293 59.65892 19.212877 55.86676 18.7717C 52.0746 18.330521 48.556168 20.808376 47.693867 24.527456C 46.831573 28.246536 48.900616 32.019894 52.5 33.2925L 52.5 36.25L 57.5 36.25L 57.5 33.294998C 60.491375 32.243752 62.494957 29.420713 62.500004 26.250002ZM 52.5 41.252502L 57.5 41.252502M 53.75 46.252502L 56.25 46.252502M 55 13.752501L 55 11.2525M 63.839996 17.415001L 65.607498 15.6475M 46.162498 17.415001L 44.392502 15.6475"></path></g></g></g><g id="g-root-jeng_4g23ho1ghe48y-stroke" data-item-order="0" transform="translate(537.5, 614.283203125)"><g id="jeng_4g23ho1ghe48y-stroke" fill="none" stroke-linecap="round" stroke-linejoin="round" stroke-miterlimit="4" stroke="#1eabda" stroke-width="2"><g><path d="M 13.9575 55L 18.9575 55C 18.9575 55 21.4575 55 21.4575 57.5L 21.4575 62.5C 21.4575 62.5 21.4575 65 18.9575 65L 13.9575 65C 13.9575 65 11.4575 65 11.4575 62.5L 11.4575 57.5C 11.4575 57.5 11.4575 55 13.9575 55M 36.4575 55L 43.9575 55C 43.9575 55 46.4575 55 46.4575 57.5L 46.4575 62.5C 46.4575 62.5 46.4575 65 43.9575 65L 36.4575 65C 36.4575 65 33.9575 65 33.9575 62.5L 33.9575 57.5C 33.9575 57.5 33.9575 55 36.4575 55M 23.9575 35L 31.4575 35C 31.4575 35 33.9575 35 33.9575 37.5L 33.9575 42.5C 33.9575 42.5 33.9575 45 31.4575 45L 23.9575 45C 23.9575 45 21.4575 45 21.4575 42.5L 21.4575 37.5C 21.4575 37.5 21.4575 35 23.9575 35M 23.9575 15L 31.4575 15C 31.4575 15 33.9575 15 33.9575 17.5L 33.9575 22.5C 33.9575 22.5 33.9575 25 31.4575 25L 23.9575 25C 23.9575 25 21.4575 25 21.4575 22.5L 21.4575 17.5C 21.4575 17.5 21.4575 15 23.9575 15M 36.4575 15L 43.9575 15C 43.9575 15 46.4575 15 46.4575 17.5L 46.4575 22.5C 46.4575 22.5 46.4575 25 43.9575 25L 36.4575 25C 36.4575 25 33.9575 25 33.9575 22.5L 33.9575 17.5C 33.9575 17.5 33.9575 15 36.4575 15M 13.9575 45L 43.9575 45C 43.9575 45 46.4575 45 46.4575 47.5L 46.4575 52.5C 46.4575 52.5 46.4575 55 43.9575 55L 13.9575 55C 13.9575 55 11.4575 55 11.4575 52.5L 11.4575 47.5C 11.4575 47.5 11.4575 45 13.9575 45M 46.4575 34.150002L 46.4575 27.5C 46.4575 26.119287 45.338211 25 43.9575 25L 13.9575 25C 12.576788 25 11.4575 26.119287 11.4575 27.5L 11.4575 32.5C 11.4575 33.880714 12.576788 35 13.9575 35L 45.2075 35M 67.527496 60.549999C 68.06221 60.156288 68.41832 59.566032 68.517288 58.909424C 68.616241 58.252815 68.449921 57.583817 68.055 57.049999L 51 33.912498C 50.606289 33.377792 50.016026 33.021675 49.359425 32.922718C 48.70282 32.823757 48.033821 32.990082 47.5 33.385002L 43.475002 36.352501C 42.940289 36.746212 42.584175 37.336472 42.485218 37.993076C 42.386257 38.649681 42.552582 39.31868 42.947498 39.852501L 60 63C 60.393711 63.534706 60.983971 63.890823 61.640579 63.989784C 62.29718 64.088737 62.966179 63.922421 63.5 63.527496Z"></path></g></g></g><g id="g-root-tx_knowledg_zismcs1ghnw93-stroke" data-item-order="0" transform="translate(75, 627)"></g><g id="g-root-tx_architec_1d3m90s1ghmj9f-stroke" data-item-order="0" transform="translate(676, 627)"></g><g id="g-root-tx_facilita_zismcs1ghnw94-stroke" data-item-order="0" transform="translate(75, 687)"></g><g id="g-root-tx_assesssy_13ym4h81ghnvgs-stroke" data-item-order="0" transform="translate(676, 687)"></g></g></g></svg>