<?xml version="1.0" encoding="utf-8" standalone="yes"?>
<!DOCTYPE svg PUBLIC "-//W3C//DTD SVG 1.1//EN" "http://www.w3.org/Graphics/SVG/1.1/DTD/svg11.dtd">
<svg width="866" height="626" viewBox="0 0 866 626" style="fill:none;stroke:none;fill-rule:evenodd;clip-rule:evenodd;stroke-linecap:round;stroke-linejoin:round;stroke-miterlimit:1.5;" version="1.1" xmlns="http://www.w3.org/2000/svg" xmlns:xlink="http://www.w3.org/1999/xlink"><style class="text-font-style fontImports" data-font-family="Roboto">@import url('https://fonts.googleapis.com/css2?family=Roboto:wght@400;700&amp;display=block');</style><rect id="" x="0" y="0" width="866" height="626" style="fill: #ffffff;"></rect><g id="items" style="isolation: isolate"><g id="blend" style="mix-blend-mode: normal"><g id="g-root-tf_vccl641cvrr42-fill" data-item-order="-539136" transform="translate(-9, -9)"><g id="tf_vccl641cvrr42-fill" stroke="none" fill="#ffffff"><g><path d="M 10 10L 874 10L 874 634L 10 634Z"></path></g></g></g><g id="g-root-0.g-0_fr_1upwtgs1cvgkjn-fill" data-item-order="-430839" transform="translate(39, 123)"></g><g id="g-root-1.g-1_fr_1upwtgs1cvgkjp-fill" data-item-order="-430836" transform="translate(459, 123)"><g id="1.g-1_fr_1upwtgs1cvgkjp-fill" stroke="none" fill="#3cc583"><g><path d="M 58 130L 34 154L 70 154L 178 130L 58 130Z"></path></g></g><g id="1.g-1_fr_1upwtgs1cvgkjp-fill" stroke="none" fill="#3cc583"><g><path d="M 58 130L 58 10L 34 118L 34 154L 58 130Z"></path></g></g><g id="1.g-1_fr_1upwtgs1cvgkjp-fill" stroke="none" fill="#3cc583"><g><path d="M 34 154L 34 118L 50 46L 10 46L 10 178L 142 178L 142 138L 69.769 154L 34 154Z"></path></g></g><g id="1.g-1_fr_1upwtgs1cvgkjp-fill" stroke="none" fill="#3cc583"><g><path d="M 178 10L 58 10L 58 130L 178 130L 178 10Z"></path></g></g></g><g id="g-root-2.g-2_fr_1qa3bcc1cvglc2-fill" data-item-order="-430832" transform="translate(459, 363)"><g id="2.g-2_fr_1qa3bcc1cvglc2-fill" stroke="none" fill="#4e88e7"><g><path d="M 58 58L 34 34L 70 34L 178 58L 58 58Z"></path></g></g><g id="2.g-2_fr_1qa3bcc1cvglc2-fill" stroke="none" fill="#4e88e7"><g><path d="M 58 58L 58 178L 34 70L 34 34L 58 58Z"></path></g></g><g id="2.g-2_fr_1qa3bcc1cvglc2-fill" stroke="none" fill="#4e88e7"><g><path d="M 34 34L 34 70L 50 142L 10 142L 10 10L 142 10L 142 50L 69.769 34L 34 34Z"></path></g></g><g id="2.g-2_fr_1qa3bcc1cvglc2-fill" stroke="none" fill="#4e88e7"><g><path d="M 178 178L 58 178L 58 58L 178 58L 178 178Z"></path></g></g></g><g id="g-root-3.g-3_fr_1hf2s6k1cvgiz3-fill" data-item-order="-430828" transform="translate(219, 363)"><g id="3.g-3_fr_1hf2s6k1cvgiz3-fill" stroke="none" fill="#de8431"><g><path d="M 130 58L 154 34L 118 34L 10 58L 130 58Z"></path></g></g><g id="3.g-3_fr_1hf2s6k1cvgiz3-fill" stroke="none" fill="#de8431"><g><path d="M 130 58L 130 178L 154 70L 154 34L 130 58Z"></path></g></g><g id="3.g-3_fr_1hf2s6k1cvgiz3-fill" stroke="none" fill="#de8431"><g><path d="M 154 34L 154 70L 138 142L 178 142L 178 10L 46 10L 46 50L 118.231 34L 154 34Z"></path></g></g><g id="3.g-3_fr_1hf2s6k1cvgiz3-fill" stroke="none" fill="#de8431"><g><path d="M 10 178L 130 178L 130 58L 10 58L 10 178Z"></path></g></g></g><g id="g-root-4.g-4_fr_1luwab01cvgiys-fill" data-item-order="-430824" transform="translate(219, 123)"><g id="4.g-4_fr_1luwab01cvgiys-fill" stroke="none" fill="#7f64ea"><g><path d="M 130 130L 154 154L 118 154L 10 130L 130 130Z"></path></g></g><g id="4.g-4_fr_1luwab01cvgiys-fill" stroke="none" fill="#7f64ea"><g><path d="M 130 130L 130 10L 154 118L 154 154L 130 130Z"></path></g></g><g id="4.g-4_fr_1luwab01cvgiys-fill" stroke="none" fill="#7f64ea"><g><path d="M 154 154L 154 118L 138 46L 178 46L 178 178L 46 178L 46 138L 118.231 154L 154 154Z"></path></g></g><g id="4.g-4_fr_1luwab01cvgiys-fill" stroke="none" fill="#7f64ea"><g><path d="M 10 10L 130 10L 130 130L 10 130L 10 10Z"></path></g></g></g><g id="g-root-tx_software_1hf2s6k1cvgjr5-fill" data-item-order="0" transform="translate(255, 39)"><g id="tx_software_1hf2s6k1cvgjr5-fill" stroke="none" fill="#484848"><g><text style="font: 20px Roboto, sans-serif; white-space: pre;" font-size="20px" font-family="Roboto, sans-serif"><tspan x="11.93" y="34" dominant-baseline="ideographic">Software Analysis and Tracking Tools</tspan></text></g></g></g><g id="g-root-tx_userexpe_8d44s1cvrsw0-fill" data-item-order="0" transform="translate(39, 87)"><g id="tx_userexpe_8d44s1cvrsw0-fill" stroke="none" fill="#7f64ea"><g><text style="font: bold 20px Roboto, sans-serif; white-space: pre;" font-weight="bold" font-size="20px" font-family="Roboto, sans-serif"><tspan x="110.41" y="34" dominant-baseline="ideographic">User </tspan><tspan x="52.66" y="58" dominant-baseline="ideographic">Experience </tspan><tspan x="83.59" y="82" dominant-baseline="ideographic">Metrics</tspan></text></g></g></g><g id="g-root-tx_sonarqub_hz0njg1cvrtoi-fill" data-item-order="0" transform="translate(663, 111)"><g id="tx_sonarqub_hz0njg1cvrtoi-fill" stroke="none" fill="#3cc583"><g><text style="font: bold 20px Roboto, sans-serif; white-space: pre;" font-weight="bold" font-size="20px" font-family="Roboto, sans-serif"><tspan x="12" y="34" dominant-baseline="ideographic">SonarQube </tspan><tspan x="12" y="58" dominant-baseline="ideographic">Metrics</tspan></text></g></g></g><g id="g-root-mete_18jfrxo1cvgkju-fill" data-item-order="0" transform="translate(243, 147)"></g><g id="g-root-leve_v5hd7w1cvks8y-fill" data-item-order="0" transform="translate(531, 147)"></g><g id="g-root-tx_userexpe_1qdu5v01cvrthl-fill" data-item-order="0" transform="translate(39, 171)"><g id="tx_userexpe_1qdu5v01cvrthl-fill" stroke="none" fill="#443e5c"><g><text style="font: 15px Roboto, sans-serif; white-space: pre;" font-size="15px" font-family="Roboto, sans-serif"><tspan x="44.66" y="28" dominant-baseline="ideographic">User Experience </tspan><tspan x="17.03" y="46" dominant-baseline="ideographic">Metrics evaluate the </tspan><tspan x="25.89" y="64" dominant-baseline="ideographic">impact of software </tspan><tspan x="90.69" y="82" dominant-baseline="ideographic">on users.</tspan></text></g></g></g><g id="g-root-tx_sonarqub_hz0njg1cvrtoj-fill" data-item-order="0" transform="translate(663, 171)"><g id="tx_sonarqub_hz0njg1cvrtoj-fill" stroke="none" fill="#374840"><g><text style="font: 15px Roboto, sans-serif; white-space: pre;" font-size="15px" font-family="Roboto, sans-serif"><tspan x="12" y="28" dominant-baseline="ideographic">SonarQube Metrics </tspan><tspan x="12" y="46" dominant-baseline="ideographic">provide insights into </tspan><tspan x="12" y="64" dominant-baseline="ideographic">code quality and </tspan><tspan x="12" y="82" dominant-baseline="ideographic">complexity.</tspan></text></g></g></g><g id="g-root-tx_jiratech_4o6m981cvrs3q-fill" data-item-order="0" transform="translate(39, 411)"><g id="tx_jiratech_4o6m981cvrs3q-fill" stroke="none" fill="#de8431"><g><text style="font: bold 20px Roboto, sans-serif; white-space: pre;" font-weight="bold" font-size="20px" font-family="Roboto, sans-serif"><tspan x="17.42" y="34" dominant-baseline="ideographic">JIRA Technical </tspan><tspan x="53.55" y="58" dominant-baseline="ideographic">Debt board</tspan></text></g></g></g><g id="g-root-tx_performa_9404do1cvrrbg-fill" data-item-order="0" transform="translate(663, 411)"><g id="tx_performa_9404do1cvrrbg-fill" stroke="none" fill="#4e88e7"><g><text style="font: bold 20px Roboto, sans-serif; white-space: pre;" font-weight="bold" font-size="20px" font-family="Roboto, sans-serif"><tspan x="12" y="34" dominant-baseline="ideographic">Performance </tspan><tspan x="12" y="58" dominant-baseline="ideographic">Monitoring</tspan></text></g></g></g><g id="g-root-soft_4l28to1cvqcqr-fill" data-item-order="0" transform="translate(243, 435)"></g><g id="g-root-wave_hvwa3w1cvnlz4-fill" data-item-order="0" transform="translate(531, 435)"></g><g id="g-root-tx_jiratech_4o6m981cvrs3r-fill" data-item-order="0" transform="translate(39, 471)"><g id="tx_jiratech_4o6m981cvrs3r-fill" stroke="none" fill="#4c4034"><g><text style="font: 15px Roboto, sans-serif; white-space: pre;" font-size="15px" font-family="Roboto, sans-serif"><tspan x="18.45" y="31" dominant-baseline="ideographic">JIRA Technical Debt </tspan><tspan x="66.08" y="49" dominant-baseline="ideographic">board aids in </tspan><tspan x="69.7" y="67" dominant-baseline="ideographic">tracking and </tspan><tspan x="21.17" y="85" dominant-baseline="ideographic">managing technical </tspan><tspan x="118.3" y="103" dominant-baseline="ideographic">debt.</tspan></text></g></g></g><g id="g-root-tx_performa_4o6m981cvrs3p-fill" data-item-order="0" transform="translate(663, 471)"><g id="tx_performa_4o6m981cvrs3p-fill" stroke="none" fill="#3a4455"><g><text style="font: 15px Roboto, sans-serif; white-space: pre;" font-size="15px" font-family="Roboto, sans-serif"><tspan x="12" y="31" dominant-baseline="ideographic">Performance </tspan><tspan x="12" y="49" dominant-baseline="ideographic">Monitoring helps in </tspan><tspan x="12" y="67" dominant-baseline="ideographic">real-time system </tspan><tspan x="12" y="85" dominant-baseline="ideographic">performance </tspan><tspan x="12" y="103" dominant-baseline="ideographic">evaluation.</tspan></text></g></g></g><g id="g-root-tf_vccl641cvrr42-stroke" data-item-order="-539136" transform="translate(-9, -9)"></g><g id="g-root-0.g-0_fr_1upwtgs1cvgkjn-stroke" data-item-order="-430839" transform="translate(39, 123)"><g id="0.g-0_fr_1upwtgs1cvgkjn-stroke" fill="none" stroke-linecap="round" stroke-linejoin="round" stroke-miterlimit="4" stroke="#484848" stroke-width="2" stroke-dasharray="5.0, 7.0"><g><path d="M 778 214L 394.1143 214M 394.1143 214L 10 214M 394.1143 214L 394.1143 10M 394.1143 214L 394.1143 418"></path></g></g></g><g id="g-root-1.g-1_fr_1upwtgs1cvgkjp-stroke" data-item-order="-430836" transform="translate(459, 123)"><g id="1.g-1_fr_1upwtgs1cvgkjp-stroke" fill="none" stroke-linecap="round" stroke-linejoin="round" stroke-miterlimit="4" stroke="#ffffff" stroke-width="2"><g><path d="M 58 130L 34 154L 70 154L 178 130L 58 130Z"></path></g></g><g id="1.g-1_fr_1upwtgs1cvgkjp-stroke" fill="none" stroke-linecap="round" stroke-linejoin="round" stroke-miterlimit="4" stroke="#ffffff" stroke-width="2"><g><path d="M 58 130L 58 10L 34 118L 34 154L 58 130Z"></path></g></g><g id="1.g-1_fr_1upwtgs1cvgkjp-stroke" fill="none" stroke-linecap="round" stroke-linejoin="round" stroke-miterlimit="4" stroke="#ffffff" stroke-width="2"><g><path d="M 34 154L 34 118L 50 46L 10 46L 10 178L 142 178L 142 138L 69.769 154L 34 154Z"></path></g></g><g id="1.g-1_fr_1upwtgs1cvgkjp-stroke" fill="none" stroke-linecap="round" stroke-linejoin="round" stroke-miterlimit="4" stroke="#ffffff" stroke-width="2"><g><path d="M 178 10L 58 10L 58 130L 178 130L 178 10Z"></path></g></g></g><g id="g-root-2.g-2_fr_1qa3bcc1cvglc2-stroke" data-item-order="-430832" transform="translate(459, 363)"><g id="2.g-2_fr_1qa3bcc1cvglc2-stroke" fill="none" stroke-linecap="round" stroke-linejoin="round" stroke-miterlimit="4" stroke="#ffffff" stroke-width="2"><g><path d="M 58 58L 34 34L 70 34L 178 58L 58 58Z"></path></g></g><g id="2.g-2_fr_1qa3bcc1cvglc2-stroke" fill="none" stroke-linecap="round" stroke-linejoin="round" stroke-miterlimit="4" stroke="#ffffff" stroke-width="2"><g><path d="M 58 58L 58 178L 34 70L 34 34L 58 58Z"></path></g></g><g id="2.g-2_fr_1qa3bcc1cvglc2-stroke" fill="none" stroke-linecap="round" stroke-linejoin="round" stroke-miterlimit="4" stroke="#ffffff" stroke-width="2"><g><path d="M 34 34L 34 70L 50 142L 10 142L 10 10L 142 10L 142 50L 69.769 34L 34 34Z"></path></g></g><g id="2.g-2_fr_1qa3bcc1cvglc2-stroke" fill="none" stroke-linecap="round" stroke-linejoin="round" stroke-miterlimit="4" stroke="#ffffff" stroke-width="2"><g><path d="M 178 178L 58 178L 58 58L 178 58L 178 178Z"></path></g></g></g><g id="g-root-3.g-3_fr_1hf2s6k1cvgiz3-stroke" data-item-order="-430828" transform="translate(219, 363)"><g id="3.g-3_fr_1hf2s6k1cvgiz3-stroke" fill="none" stroke-linecap="round" stroke-linejoin="round" stroke-miterlimit="4" stroke="#ffffff" stroke-width="2"><g><path d="M 130 58L 154 34L 118 34L 10 58L 130 58Z"></path></g></g><g id="3.g-3_fr_1hf2s6k1cvgiz3-stroke" fill="none" stroke-linecap="round" stroke-linejoin="round" stroke-miterlimit="4" stroke="#ffffff" stroke-width="2"><g><path d="M 130 58L 130 178L 154 70L 154 34L 130 58Z"></path></g></g><g id="3.g-3_fr_1hf2s6k1cvgiz3-stroke" fill="none" stroke-linecap="round" stroke-linejoin="round" stroke-miterlimit="4" stroke="#ffffff" stroke-width="2"><g><path d="M 154 34L 154 70L 138 142L 178 142L 178 10L 46 10L 46 50L 118.231 34L 154 34Z"></path></g></g><g id="3.g-3_fr_1hf2s6k1cvgiz3-stroke" fill="none" stroke-linecap="round" stroke-linejoin="round" stroke-miterlimit="4" stroke="#ffffff" stroke-width="2"><g><path d="M 10 178L 130 178L 130 58L 10 58L 10 178Z"></path></g></g></g><g id="g-root-4.g-4_fr_1luwab01cvgiys-stroke" data-item-order="-430824" transform="translate(219, 123)"><g id="4.g-4_fr_1luwab01cvgiys-stroke" fill="none" stroke-linecap="round" stroke-linejoin="round" stroke-miterlimit="4" stroke="#ffffff" stroke-width="2"><g><path d="M 130 130L 154 154L 118 154L 10 130L 130 130Z"></path></g></g><g id="4.g-4_fr_1luwab01cvgiys-stroke" fill="none" stroke-linecap="round" stroke-linejoin="round" stroke-miterlimit="4" stroke="#ffffff" stroke-width="2"><g><path d="M 130 130L 130 10L 154 118L 154 154L 130 130Z"></path></g></g><g id="4.g-4_fr_1luwab01cvgiys-stroke" fill="none" stroke-linecap="round" stroke-linejoin="round" stroke-miterlimit="4" stroke="#ffffff" stroke-width="2"><g><path d="M 154 154L 154 118L 138 46L 178 46L 178 178L 46 178L 46 138L 118.231 154L 154 154Z"></path></g></g><g id="4.g-4_fr_1luwab01cvgiys-stroke" fill="none" stroke-linecap="round" stroke-linejoin="round" stroke-miterlimit="4" stroke="#ffffff" stroke-width="2"><g><path d="M 10 10L 130 10L 130 130L 10 130L 10 10Z"></path></g></g></g><g id="g-root-tx_software_1hf2s6k1cvgjr5-stroke" data-item-order="0" transform="translate(255, 39)"></g><g id="g-root-tx_userexpe_8d44s1cvrsw0-stroke" data-item-order="0" transform="translate(39, 87)"></g><g id="g-root-tx_sonarqub_hz0njg1cvrtoi-stroke" data-item-order="0" transform="translate(663, 111)"></g><g id="g-root-mete_18jfrxo1cvgkju-stroke" data-item-order="0" transform="translate(243, 147)"><g id="mete_18jfrxo1cvgkju-stroke" fill="none" stroke-linecap="round" stroke-linejoin="round" stroke-miterlimit="4" stroke="#ffffff" stroke-width="2"><g><path d="M 58.48 35.5C 59.158104 37.427605 59.503033 39.456604 59.5 41.5M 23.5 41.5C 23.5 31.558876 31.558876 23.5 41.5 23.5C 46.27626 23.484211 50.85894 25.386454 54.220001 28.780001M 37 41.5C 37 43.985283 39.014721 46 41.5 46C 43.985283 46 46 43.985283 46 41.5C 46 39.014721 43.985283 37 41.5 37C 39.014721 37 37 39.014721 37 41.5M 44.68 38.32L 58 25M 47.5 64C 47.500004 73.112701 54.887306 80.5 64 80.5C 73.112701 80.5 80.5 73.112701 80.5 64C 80.5 54.887306 73.112701 47.500004 64 47.500004C 54.887306 47.500004 47.500004 54.887306 47.500004 64M 55 56.5L 55 68.5C 55 70.156853 56.343143 71.5 58 71.5C 59.656853 71.5 61 70.156853 61 68.5L 61 56.5M 67 56.5L 67 61.600002C 67.009781 65.122452 68.052864 68.564621 70 71.5C 71.947136 68.564621 72.990219 65.122452 73 61.600002L 73 56.5M 71.5 41.5C 71.503204 28.670338 63.347652 17.258636 51.208355 13.106807C 39.069057 8.954976 25.633194 12.982075 17.778887 23.126537C 9.924582 33.271 9.39048 47.287231 16.450001 58L 41.5 58"></path></g></g></g><g id="g-root-leve_v5hd7w1cvks8y-stroke" data-item-order="0" transform="translate(531, 147)"><g id="leve_v5hd7w1cvks8y-stroke" fill="none" stroke-linecap="round" stroke-linejoin="round" stroke-miterlimit="4" stroke="#ffffff" stroke-width="2"><g><path d="M 68.649994 24.25C 74.780197 24.25 79.75 21.563709 79.75 18.25C 79.75 14.93629 74.780197 12.25 68.649994 12.25C 62.519501 12.25 57.550003 14.93629 57.550003 18.25C 57.550003 21.563709 62.519501 24.25 68.649994 24.25ZM 57.550003 18.84973L 57.550003 35.94973C 57.550003 39.249733 62.350002 41.949699 68.649994 41.949699C 74.949997 41.949699 79.75 39.249733 79.75 35.94973L 79.75 18.84973M 57.550003 27.25C 57.550003 30.549999 62.350002 33.25 68.649994 33.25C 74.949997 33.25 79.75 30.549999 79.75 27.25M 22.43227 30.3997L 12.25 30.3997L 12.25 67.734695L 22.43227 67.734695L 22.43227 30.3997ZM 42.796898 43.9762L 32.614632 43.9762L 32.614632 67.734695L 42.796898 67.734695L 42.796898 43.9762ZM 63.161201 55.855301L 52.979198 55.855301L 52.979198 67.734695L 63.161201 67.734695L 63.161201 55.855301ZM 12.25 79.75C 16.73008 79.75 21.21019 79.75 25.690269 75.25C 30.170351 79.75 34.650429 79.75 35.845119 79.75C 37.03981 79.75 41.519802 79.75 46 75.25C 50.480198 79.75 54.960098 79.75 56.154999 79.75C 57.349602 79.75 61.829502 79.75 66.3097 75.25C 70.789902 79.75 75.269798 79.75 79.75 79.75"></path></g></g></g><g id="g-root-tx_userexpe_1qdu5v01cvrthl-stroke" data-item-order="0" transform="translate(39, 171)"></g><g id="g-root-tx_sonarqub_hz0njg1cvrtoj-stroke" data-item-order="0" transform="translate(663, 171)"></g><g id="g-root-tx_jiratech_4o6m981cvrs3q-stroke" data-item-order="0" transform="translate(39, 411)"></g><g id="g-root-tx_performa_9404do1cvrrbg-stroke" data-item-order="0" transform="translate(663, 411)"></g><g id="g-root-soft_4l28to1cvqcqr-stroke" data-item-order="0" transform="translate(243, 435)"><g id="soft_4l28to1cvqcqr-stroke" fill="none" stroke-linecap="round" stroke-linejoin="round" stroke-miterlimit="4" stroke="#ffffff" stroke-width="2"><g><path d="M 10 10M 46 34L 34 46L 48.550003 60.550003C 51.059811 63.054428 52.470261 66.454399 52.470261 70C 52.470261 73.545601 51.059811 76.945572 48.549999 79.449997C 47.136326 80.845352 44.863678 80.845352 43.450001 79.450005L 12.55 48.550003C 11.154648 47.136326 11.154648 44.863678 12.55 43.450001L 43.449997 12.55C 44.128784 11.878183 45.044975 11.500929 46.000004 11.5M 10 10M 46 58L 58 46L 43.449997 31.450001C 40.940189 28.945572 39.529739 25.545605 39.529739 22C 39.529739 18.454395 40.940189 15.054429 43.449997 12.55C 44.863678 11.154648 47.136326 11.154648 48.550003 12.55L 79.449997 43.449997C 80.845352 44.863678 80.845352 47.136326 79.450005 48.550003L 48.550003 79.449997C 47.87122 80.121819 46.955032 80.499069 46.000004 80.500008"></path></g></g></g><g id="g-root-wave_hvwa3w1cvnlz4-stroke" data-item-order="0" transform="translate(531, 435)"><g id="wave_hvwa3w1cvnlz4-stroke" fill="none" stroke-linecap="round" stroke-linejoin="round" stroke-miterlimit="4" stroke="#ffffff" stroke-width="2"><g><path d="M 17.5 13L 74.5 13C 74.5 13 80.5 13 80.5 19L 80.5 73C 80.5 73 80.5 79 74.5 79L 17.5 79C 17.5 79 11.5 79 11.5 73L 11.5 19C 11.5 19 11.5 13 17.5 13M 11.5 28L 80.5 28M 22 19.75C 22.414213 19.75 22.75 20.085787 22.75 20.5C 22.75 20.914213 22.414213 21.25 22 21.25C 21.585787 21.25 21.25 20.914213 21.25 20.5C 21.25 20.085787 21.585787 19.75 22 19.75M 31 19.75C 31.414213 19.75 31.75 20.085787 31.75 20.5C 31.75 20.914213 31.414213 21.25 31 21.25C 30.585787 21.25 30.25 20.914213 30.25 20.5C 30.25 20.085787 30.585787 19.75 31 19.75M 40 19.75C 40.414215 19.75 40.75 20.085787 40.75 20.5C 40.75 20.914213 40.414215 21.25 40 21.25C 39.585785 21.25 39.25 20.914213 39.25 20.5C 39.25 20.085787 39.585785 19.75 40 19.75M 11.5 53.5L 80.5 53.5M 28 28L 28 79M 28 49L 32.395 40.213001C 33.813152 37.374916 36.725464 35.593876 39.897995 35.624504C 43.070526 35.655132 45.947903 37.492065 47.311001 40.357002L 48.489998 42.828999C 49.79298 45.56641 52.484661 47.375763 55.511414 47.548809C 58.538162 47.721855 61.418522 46.231068 63.024998 43.66L 63.024998 43.66C 64.534775 41.242813 67.179352 39.769531 70.029274 39.757965C 72.879196 39.746391 75.53566 41.198154 77.065002 43.603001L 80.5 49M 28 67.278999L 32.923 62.355999C 33.914967 61.364002 35.303497 60.875732 36.698025 61.028549C 38.092552 61.181355 39.342396 61.958729 40.096001 63.142002L 43.782997 68.934998C 44.611786 70.238892 46.037144 71.04258 47.581764 71.076935C 49.126381 71.111282 50.586067 70.371758 51.472 69.106003L 53.994999 65.506004C 54.883698 64.234123 56.35149 63.493286 57.902557 63.533737C 59.453621 63.574188 60.880806 64.390533 61.701996 65.707001L 61.834 65.917C 62.652626 67.226135 64.070427 68.04055 65.613708 68.088135C 67.15699 68.135727 68.622276 67.410217 69.520004 66.153999L 69.520004 66.153999C 70.35318 64.989182 71.678871 64.27594 73.110001 64.222519C 74.541138 64.169106 75.916306 64.781532 76.834 65.881004L 80.5 70.278999"></path></g></g></g><g id="g-root-tx_jiratech_4o6m981cvrs3r-stroke" data-item-order="0" transform="translate(39, 471)"></g><g id="g-root-tx_performa_4o6m981cvrs3p-stroke" data-item-order="0" transform="translate(663, 471)"></g></g></g></svg>