<?xml version="1.0" encoding="utf-8" standalone="yes"?>
<!DOCTYPE svg PUBLIC "-//W3C//DTD SVG 1.1//EN" "http://www.w3.org/Graphics/SVG/1.1/DTD/svg11.dtd">
<svg width="750" height="1314" viewBox="0 0 750 1314" style="fill:none;stroke:none;fill-rule:evenodd;clip-rule:evenodd;stroke-linecap:round;stroke-linejoin:round;stroke-miterlimit:1.5;" version="1.1" xmlns="http://www.w3.org/2000/svg" xmlns:xlink="http://www.w3.org/1999/xlink"><style class="text-font-style fontImports" data-font-family="Roboto">@import url('https://fonts.googleapis.com/css2?family=Roboto:wght@400;700&amp;display=block');</style><rect id="" x="0" y="0" width="750" height="1314" style="fill: #ffffff;"></rect><g id="items" style="isolation: isolate"><g id="blend" style="mix-blend-mode: normal"><g id="g-root-tf_1uuwft81e9lkw3-fill" data-item-order="-981376" transform="translate(-9, -9)"><g id="tf_1uuwft81e9lkw3-fill" stroke="none" fill="#ffffff"><g><path d="M 10 10L 758 10L 758 1322L 10 1322Z"></path></g></g></g><g id="g-root-ro_dhy0wc1e9hbt5-fill" data-item-order="-24480" transform="translate(511, 675)"><g id="ro_dhy0wc1e9hbt5-fill" stroke="none" fill="#e8f9ff"><g><path d="M 22 10L 202 10C 202 10 214 10 214 22L 214 118C 214 118 214 130 202 130L 22 130C 22 130 10 130 10 118L 10 22C 10 22 10 10 22 10"></path></g></g></g><g id="g-root-ro_1ltn5sc1e97j7u-fill" data-item-order="-15552" transform="translate(239, 491)"><g id="ro_1ltn5sc1e97j7u-fill" stroke="none" fill="#e8f9ff"><g><path d="M 22 10L 214 10C 214 10 226 10 226 22L 226 70C 226 70 226 82 214 82L 22 82C 22 82 10 82 10 70L 10 22C 10 22 10 10 22 10"></path></g></g></g><g id="g-root-ro_zqwvm41e9sjd5-fill" data-item-order="-15552" transform="translate(239, 215)"><g id="ro_zqwvm41e9sjd5-fill" stroke="none" fill="#e8f9ff"><g><path d="M 22 10L 214 10C 214 10 226 10 226 22L 226 70C 226 70 226 82 214 82L 22 82C 22 82 10 82 10 70L 10 22C 10 22 10 10 22 10"></path></g></g></g><g id="g-root-ro_8vvrws1e98x6o-fill" data-item-order="-15552" transform="translate(239, 953)"><g id="ro_8vvrws1e98x6o-fill" stroke="none" fill="#e8f9ff"><g><path d="M 22 10L 214 10C 214 10 226 10 226 22L 226 70C 226 70 226 82 214 82L 22 82C 22 82 10 82 10 70L 10 22C 10 22 10 10 22 10"></path></g></g></g><g id="g-root-ro_142zmdo1e98vta-fill" data-item-order="-14688" transform="translate(511, 123)"><g id="ro_142zmdo1e98vta-fill" stroke="none" fill="#e8f9ff"><g><path d="M 22 10L 202 10C 202 10 214 10 214 22L 214 70C 214 70 214 82 202 82L 22 82C 22 82 10 82 10 70L 10 22C 10 22 10 10 22 10"></path></g></g></g><g id="g-root-ro_dj6z2k1e9lix3-fill" data-item-order="-14688" transform="translate(511, 1183)"><g id="ro_dj6z2k1e9lix3-fill" stroke="none" fill="#e8f9ff"><g><path d="M 22 10L 202 10C 202 10 214 10 214 22L 214 70C 214 70 214 82 202 82L 22 82C 22 82 10 82 10 70L 10 22C 10 22 10 10 22 10"></path></g></g></g><g id="g-root-ro_v6q51o1e9k5xd-fill" data-item-order="-14688" transform="translate(511, 1091)"><g id="ro_v6q51o1e9k5xd-fill" stroke="none" fill="#e8f9ff"><g><path d="M 22 10L 202 10C 202 10 214 10 214 22L 214 70C 214 70 214 82 202 82L 22 82C 22 82 10 82 10 70L 10 22C 10 22 10 10 22 10"></path></g></g></g><g id="g-root-ro_1lpwb9o1e9k4qz-fill" data-item-order="-14688" transform="translate(511, 999)"><g id="ro_1lpwb9o1e9k4qz-fill" stroke="none" fill="#e8f9ff"><g><path d="M 22 10L 202 10C 202 10 214 10 214 22L 214 70C 214 70 214 82 202 82L 22 82C 22 82 10 82 10 70L 10 22C 10 22 10 10 22 10"></path></g></g></g><g id="g-root-ro_v7cm4s1e9aarx-fill" data-item-order="-14688" transform="translate(511, 215)"><g id="ro_v7cm4s1e9aarx-fill" stroke="none" fill="#e8f9ff"><g><path d="M 22 10L 202 10C 202 10 214 10 214 22L 214 70C 214 70 214 82 202 82L 22 82C 22 82 10 82 10 70L 10 22C 10 22 10 10 22 10"></path></g></g></g><g id="g-root-ro_4g29sc1e9ek99-fill" data-item-order="-14688" transform="translate(511, 491)"><g id="ro_4g29sc1e9ek99-fill" stroke="none" fill="#e8f9ff"><g><path d="M 22 10L 202 10C 202 10 214 10 214 22L 214 70C 214 70 214 82 202 82L 22 82C 22 82 10 82 10 70L 10 22C 10 22 10 10 22 10"></path></g></g></g><g id="g-root-ro_13zv8y41e9fvur-fill" data-item-order="-14688" transform="translate(511, 583)"><g id="ro_13zv8y41e9fvur-fill" stroke="none" fill="#e8f9ff"><g><path d="M 22 10L 202 10C 202 10 214 10 214 22L 214 70C 214 70 214 82 202 82L 22 82C 22 82 10 82 10 70L 10 22C 10 22 10 10 22 10"></path></g></g></g><g id="g-root-ro_18it4i41e9d3wo-fill" data-item-order="-14688" transform="translate(511, 399)"><g id="ro_18it4i41e9d3wo-fill" stroke="none" fill="#e8f9ff"><g><path d="M 22 10L 202 10C 202 10 214 10 214 22L 214 70C 214 70 214 82 202 82L 22 82C 22 82 10 82 10 70L 10 22C 10 22 10 10 22 10"></path></g></g></g><g id="g-root-ro_1luw3yk1e9iqrp-fill" data-item-order="-14688" transform="translate(511, 907)"><g id="ro_1luw3yk1e9iqrp-fill" stroke="none" fill="#e8f9ff"><g><path d="M 22 10L 202 10C 202 10 214 10 214 22L 214 70C 214 70 214 82 202 82L 22 82C 22 82 10 82 10 70L 10 22C 10 22 10 10 22 10"></path></g></g></g><g id="g-root-ro_zjf9qk1e9iqkn-fill" data-item-order="-14688" transform="translate(511, 815)"><g id="ro_zjf9qk1e9iqkn-fill" stroke="none" fill="#e8f9ff"><g><path d="M 22 10L 202 10C 202 10 214 10 214 22L 214 70C 214 70 214 82 202 82L 22 82C 22 82 10 82 10 70L 10 22C 10 22 10 10 22 10"></path></g></g></g><g id="g-root-ro_i0vwgc1e9acju-fill" data-item-order="-14688" transform="translate(511, 307)"><g id="ro_i0vwgc1e9acju-fill" stroke="none" fill="#e8f9ff"><g><path d="M 22 10L 202 10C 202 10 214 10 214 22L 214 70C 214 70 214 82 202 82L 22 82C 22 82 10 82 10 70L 10 22C 10 22 10 10 22 10"></path></g></g></g><g id="g-root-ro_1lu9jpo1e9r4si-fill" data-item-order="-12096" transform="translate(15, 491)"><g id="ro_1lu9jpo1e9r4si-fill" stroke="none" fill="#f5f5f5"><g><path d="M 22 10L 166 10C 166 10 178 10 178 22L 178 70C 178 70 178 82 166 82L 22 82C 22 82 10 82 10 70L 10 22C 10 22 10 10 22 10"></path></g></g></g><g id="g-root-tx_software_958w7g1e9ljia-fill" data-item-order="0" transform="translate(113, 39)"><g id="tx_software_958w7g1e9ljia-fill" stroke="none" fill="#484848"><g><text style="font: 25px Roboto, sans-serif; white-space: pre;" font-size="25px" font-family="Roboto, sans-serif"><tspan x="14.26" y="42" dominant-baseline="ideographic">Software Development Prevention Strategies</tspan></text></g></g></g><g id="g-root-cu_dkfx8s1e9ll3d-fill" data-item-order="2" transform="translate(455, 851)"></g><g id="g-root-cu_958w7g1e9liq7-fill" data-item-order="2" transform="translate(455, 251)"></g><g id="g-root-cu_dkfx8s1e9ll3f-fill" data-item-order="2" transform="translate(455, 735)"></g><g id="g-root-cu_958w7g1e9liq4-fill" data-item-order="2" transform="translate(455, 251)"></g><g id="g-root-cu_958w7g1e9lji8-fill" data-item-order="2" transform="translate(183, 251)"></g><g id="g-root-cu_i09fd81e9lkb3-fill" data-item-order="2" transform="translate(455, 943)"></g><g id="g-root-cu_i09fd81e9ll34-fill" data-item-order="2" transform="translate(455, 527)"></g><g id="g-root-cu_i09fd81e9ll36-fill" data-item-order="2" transform="translate(455, 435)"></g><g id="g-root-cu_dkfx8s1e9ll3h-fill" data-item-order="2" transform="translate(455, 527)"></g><g id="g-root-cu_i09fd81e9lkaw-fill" data-item-order="2" transform="translate(455, 989)"></g><g id="g-root-cu_i09fd81e9lkaz-fill" data-item-order="2" transform="translate(455, 989)"></g><g id="g-root-cu_4pfe301e9ljim-fill" data-item-order="2" transform="translate(183, 527)"></g><g id="g-root-cu_dl2ebw1e9lipv-fill" data-item-order="2" transform="translate(183, 527)"></g><g id="g-root-cu_i09fd81e9lkb1-fill" data-item-order="2" transform="translate(455, 989)"></g><g id="g-root-cu_dl2ebw1e9lipt-fill" data-item-order="2" transform="translate(455, 159)"></g><g id="g-root-tx_developm_1upa6181e97if4-fill" data-item-order="1000000000" transform="translate(287, 503)"><g id="tx_developm_1upa6181e97if4-fill" stroke="none" fill="#1eabda"><g><text style="font: 20px Roboto, sans-serif; white-space: pre;" font-size="20px" font-family="Roboto, sans-serif"><tspan x="12" y="34" dominant-baseline="ideographic">Development </tspan><tspan x="12" y="58" dominant-baseline="ideographic">Practices</tspan></text></g></g></g><g id="g-root-bact_dbpa181e9ejgk-fill" data-item-order="1000000000" transform="translate(523, 512)"></g><g id="g-root-tx_testingr_dbpa181e9ejgj-fill" data-item-order="1000000000" transform="translate(559, 503)"><g id="tx_testingr_dbpa181e9ejgj-fill" stroke="none" fill="#1eabda"><g><text style="font: 20px Roboto, sans-serif; white-space: pre;" font-size="20px" font-family="Roboto, sans-serif"><tspan x="12" y="34" dominant-baseline="ideographic">Testing </tspan><tspan x="12" y="58" dominant-baseline="ideographic">Requirements</tspan></text></g></g></g><g id="g-root-cog_1upa6181e97if5-fill" data-item-order="1000000000" transform="translate(251, 512)"></g><g id="g-root-tx_preventi_1q9gkr01e9r760-fill" data-item-order="1000000000" transform="translate(63, 503)"><g id="tx_preventi_1q9gkr01e9r760-fill" stroke="none" fill="#969696"><g><text style="font: 20px Roboto, sans-serif; white-space: pre;" font-size="20px" font-family="Roboto, sans-serif"><tspan x="12" y="34" dominant-baseline="ideographic">Prevention </tspan><tspan x="12" y="58" dominant-baseline="ideographic">Strategies</tspan></text></g></g></g><g id="g-root-shie_1lu9jpo1e9r4sh-fill" data-item-order="1000000000" transform="translate(27, 512)"></g><g id="g-root-tx_versionc_1cymmmk1e9d34e-fill" data-item-order="1000000000" transform="translate(559, 411)"><g id="tx_versionc_1cymmmk1e9d34e-fill" stroke="none" fill="#1eabda"><g><text style="font: 20px Roboto, sans-serif; white-space: pre;" font-size="20px" font-family="Roboto, sans-serif"><tspan x="12" y="34" dominant-baseline="ideographic">Version </tspan><tspan x="12" y="58" dominant-baseline="ideographic">Control</tspan></text></g></g></g><g id="g-root-2_18f29zg1e9fy8a-fill" data-item-order="1000000000" transform="translate(523, 604)"></g><g id="g-root-tx_cicdpipe_18f29zg1e9fy89-fill" data-item-order="1000000000" transform="translate(559, 595)"><g id="tx_cicdpipe_18f29zg1e9fy89-fill" stroke="none" fill="#1eabda"><g><text style="font: 20px Roboto, sans-serif; white-space: pre;" font-size="20px" font-family="Roboto, sans-serif"><tspan x="12" y="34" dominant-baseline="ideographic">CI/CD </tspan><tspan x="12" y="58" dominant-baseline="ideographic">Pipeline</tspan></text></g></g></g><g id="g-root-bran_1cymmmk1e9d34f-fill" data-item-order="1000000000" transform="translate(523, 420)"></g><g id="g-root-tx_architec_qss26k1e9hddz-fill" data-item-order="1000000000" transform="translate(559, 687)"><g id="tx_architec_qss26k1e9hddz-fill" stroke="none" fill="#1eabda"><g><text style="font: 20px Roboto, sans-serif; white-space: pre;" font-size="20px" font-family="Roboto, sans-serif"><tspan x="12" y="34" dominant-baseline="ideographic">Architecture </tspan><tspan x="12" y="58" dominant-baseline="ideographic">Decision </tspan><tspan x="12" y="82" dominant-baseline="ideographic">Records </tspan><tspan x="12" y="106" dominant-baseline="ideographic">(ADRs)</tspan></text></g></g></g><g id="g-root-key_mdl1581e9hb0g-fill" data-item-order="1000000000" transform="translate(523, 720)"></g><g id="g-root-tx_architec_qwiwp81e9abr4-fill" data-item-order="1000000000" transform="translate(559, 319)"><g id="tx_architec_qwiwp81e9abr4-fill" stroke="none" fill="#1eabda"><g><text style="font: 20px Roboto, sans-serif; white-space: pre;" font-size="20px" font-family="Roboto, sans-serif"><tspan x="12" y="34" dominant-baseline="ideographic">Architecture </tspan><tspan x="12" y="58" dominant-baseline="ideographic">Standards</tspan></text></g></g></g><g id="g-root-text_13z8rv01e9ipse-fill" data-item-order="1000000000" transform="translate(523, 836)"></g><g id="g-root-tx_apidocum_1cuvs3w1e9iozp-fill" data-item-order="1000000000" transform="translate(559, 827)"><g id="tx_apidocum_1cuvs3w1e9iozp-fill" stroke="none" fill="#1eabda"><g><text style="font: 20px Roboto, sans-serif; white-space: pre;" font-size="20px" font-family="Roboto, sans-serif"><tspan x="12" y="34" dominant-baseline="ideographic">API </tspan><tspan x="12" y="58" dominant-baseline="ideographic">Documentation</tspan></text></g></g></g><g id="g-root-home_qwiwp81e9abr5-fill" data-item-order="1000000000" transform="translate(523, 328)"></g><g id="g-root-link_1qapm301e9ipzg-fill" data-item-order="1000000000" transform="translate(523, 928)"></g><g id="g-root-tx_systemde_58kcs1e9ipdv-fill" data-item-order="1000000000" transform="translate(559, 919)"><g id="tx_systemde_58kcs1e9ipdv-fill" stroke="none" fill="#1eabda"><g><text style="font: 20px Roboto, sans-serif; white-space: pre;" font-size="20px" font-family="Roboto, sans-serif"><tspan x="12" y="34" dominant-baseline="ideographic">System </tspan><tspan x="12" y="58" dominant-baseline="ideographic">Dependencies</tspan></text></g></g></g><g id="g-root-stac_4g29sc1e98x73-fill" data-item-order="1000000000" transform="translate(251, 974)"></g><g id="g-root-tx_document_dbpa181e98wee-fill" data-item-order="1000000000" transform="translate(287, 965)"><g id="tx_document_dbpa181e98wee-fill" stroke="none" fill="#1eabda"><g><text style="font: 20px Roboto, sans-serif; white-space: pre;" font-size="20px" font-family="Roboto, sans-serif"><tspan x="12" y="34" dominant-baseline="ideographic">Documentation </tspan><tspan x="12" y="58" dominant-baseline="ideographic">Requirements</tspan></text></g></g></g><g id="g-root-tx_codinggu_142zmdo1e9a9z7-fill" data-item-order="1000000000" transform="translate(559, 227)"><g id="tx_codinggu_142zmdo1e9a9z7-fill" stroke="none" fill="#1eabda"><g><text style="font: 20px Roboto, sans-serif; white-space: pre;" font-size="20px" font-family="Roboto, sans-serif"><tspan x="12" y="34" dominant-baseline="ideographic">Coding </tspan><tspan x="12" y="58" dominant-baseline="ideographic">Guidelines</tspan></text></g></g></g><g id="g-root-writ_v7cm4s1e9aarw-fill" data-item-order="1000000000" transform="translate(523, 236)"></g><g id="g-root-tx_codequal_1463wng1e9slqn-fill" data-item-order="1000000000" transform="translate(287, 227)"><g id="tx_codequal_1463wng1e9slqn-fill" stroke="none" fill="#1eabda"><g><text style="font: 20px Roboto, sans-serif; white-space: pre;" font-size="20px" font-family="Roboto, sans-serif"><tspan x="12" y="34" dominant-baseline="ideographic">Code Quality </tspan><tspan x="12" y="58" dominant-baseline="ideographic">Standards</tspan></text></g></g></g><g id="g-root-plus_zqwvm41e9sjd4-fill" data-item-order="1000000000" transform="translate(251, 236)"></g><g id="g-root-data_1lpwb9o1e9k4qy-fill" data-item-order="1000000000" transform="translate(523, 1020)"></g><g id="g-root-tx_dataflow_1uljbik1e9k3y9-fill" data-item-order="1000000000" transform="translate(559, 1011)"><g id="tx_dataflow_1uljbik1e9k3y9-fill" stroke="none" fill="#1eabda"><g><text style="font: 20px Roboto, sans-serif; white-space: pre;" font-size="20px" font-family="Roboto, sans-serif"><tspan x="12" y="34" dominant-baseline="ideographic">Data Flow </tspan><tspan x="12" y="58" dominant-baseline="ideographic">Diagrams</tspan></text></g></g></g><g id="g-root-map_zmjn641e9k554-fill" data-item-order="1000000000" transform="translate(523, 1112)"></g><g id="g-root-tx_deployme_142d5ak1e9k4cv-fill" data-item-order="1000000000" transform="translate(559, 1103)"><g id="tx_deployme_142d5ak1e9k4cv-fill" stroke="none" fill="#1eabda"><g><text style="font: 20px Roboto, sans-serif; white-space: pre;" font-size="20px" font-family="Roboto, sans-serif"><tspan x="12" y="34" dominant-baseline="ideographic">Deployment </tspan><tspan x="12" y="58" dominant-baseline="ideographic">Guides</tspan></text></g></g></g><g id="g-root-tx_cleancod_1cymmmk1e98v0k-fill" data-item-order="1000000000" transform="translate(559, 135)"><g id="tx_cleancod_1cymmmk1e98v0k-fill" stroke="none" fill="#1eabda"><g><text style="font: 20px Roboto, sans-serif; white-space: pre;" font-size="20px" font-family="Roboto, sans-serif"><tspan x="12" y="34" dominant-baseline="ideographic">Clean Code </tspan><tspan x="12" y="58" dominant-baseline="ideographic">Principles</tspan></text></g></g></g><g id="g-root-life_hz0h701e9li4u-fill" data-item-order="1000000000" transform="translate(523, 1204)"></g><g id="g-root-tx_recovery_qu10cs1e9lkhx-fill" data-item-order="1000000000" transform="translate(559, 1195)"><g id="tx_recovery_qu10cs1e9lkhx-fill" stroke="none" fill="#1eabda"><g><text style="font: 20px Roboto, sans-serif; white-space: pre;" font-size="20px" font-family="Roboto, sans-serif"><tspan x="12" y="34" dominant-baseline="ideographic">Recovery </tspan><tspan x="12" y="58" dominant-baseline="ideographic">Procedures</tspan></text></g></g></g><g id="g-root-brac_142zmdo1e98vt9-fill" data-item-order="1000000000" transform="translate(523, 144)"></g><g id="g-root-tf_1uuwft81e9lkw3-stroke" data-item-order="-981376" transform="translate(-9, -9)"></g><g id="g-root-ro_dhy0wc1e9hbt5-stroke" data-item-order="-24480" transform="translate(511, 675)"><g id="ro_dhy0wc1e9hbt5-stroke" fill="none" stroke-linecap="round" stroke-linejoin="round" stroke-miterlimit="4" stroke="#1eabda" stroke-width="2"><g><path d="M 22 10L 202 10C 202 10 214 10 214 22L 214 118C 214 118 214 130 202 130L 22 130C 22 130 10 130 10 118L 10 22C 10 22 10 10 22 10"></path></g></g></g><g id="g-root-ro_1ltn5sc1e97j7u-stroke" data-item-order="-15552" transform="translate(239, 491)"><g id="ro_1ltn5sc1e97j7u-stroke" fill="none" stroke-linecap="round" stroke-linejoin="round" stroke-miterlimit="4" stroke="#1eabda" stroke-width="2"><g><path d="M 22 10L 214 10C 214 10 226 10 226 22L 226 70C 226 70 226 82 214 82L 22 82C 22 82 10 82 10 70L 10 22C 10 22 10 10 22 10"></path></g></g></g><g id="g-root-ro_zqwvm41e9sjd5-stroke" data-item-order="-15552" transform="translate(239, 215)"><g id="ro_zqwvm41e9sjd5-stroke" fill="none" stroke-linecap="round" stroke-linejoin="round" stroke-miterlimit="4" stroke="#1eabda" stroke-width="2"><g><path d="M 22 10L 214 10C 214 10 226 10 226 22L 226 70C 226 70 226 82 214 82L 22 82C 22 82 10 82 10 70L 10 22C 10 22 10 10 22 10"></path></g></g></g><g id="g-root-ro_8vvrws1e98x6o-stroke" data-item-order="-15552" transform="translate(239, 953)"><g id="ro_8vvrws1e98x6o-stroke" fill="none" stroke-linecap="round" stroke-linejoin="round" stroke-miterlimit="4" stroke="#1eabda" stroke-width="2"><g><path d="M 22 10L 214 10C 214 10 226 10 226 22L 226 70C 226 70 226 82 214 82L 22 82C 22 82 10 82 10 70L 10 22C 10 22 10 10 22 10"></path></g></g></g><g id="g-root-ro_142zmdo1e98vta-stroke" data-item-order="-14688" transform="translate(511, 123)"><g id="ro_142zmdo1e98vta-stroke" fill="none" stroke-linecap="round" stroke-linejoin="round" stroke-miterlimit="4" stroke="#1eabda" stroke-width="2"><g><path d="M 22 10L 202 10C 202 10 214 10 214 22L 214 70C 214 70 214 82 202 82L 22 82C 22 82 10 82 10 70L 10 22C 10 22 10 10 22 10"></path></g></g></g><g id="g-root-ro_dj6z2k1e9lix3-stroke" data-item-order="-14688" transform="translate(511, 1183)"><g id="ro_dj6z2k1e9lix3-stroke" fill="none" stroke-linecap="round" stroke-linejoin="round" stroke-miterlimit="4" stroke="#1eabda" stroke-width="2"><g><path d="M 22 10L 202 10C 202 10 214 10 214 22L 214 70C 214 70 214 82 202 82L 22 82C 22 82 10 82 10 70L 10 22C 10 22 10 10 22 10"></path></g></g></g><g id="g-root-ro_v6q51o1e9k5xd-stroke" data-item-order="-14688" transform="translate(511, 1091)"><g id="ro_v6q51o1e9k5xd-stroke" fill="none" stroke-linecap="round" stroke-linejoin="round" stroke-miterlimit="4" stroke="#1eabda" stroke-width="2"><g><path d="M 22 10L 202 10C 202 10 214 10 214 22L 214 70C 214 70 214 82 202 82L 22 82C 22 82 10 82 10 70L 10 22C 10 22 10 10 22 10"></path></g></g></g><g id="g-root-ro_1lpwb9o1e9k4qz-stroke" data-item-order="-14688" transform="translate(511, 999)"><g id="ro_1lpwb9o1e9k4qz-stroke" fill="none" stroke-linecap="round" stroke-linejoin="round" stroke-miterlimit="4" stroke="#1eabda" stroke-width="2"><g><path d="M 22 10L 202 10C 202 10 214 10 214 22L 214 70C 214 70 214 82 202 82L 22 82C 22 82 10 82 10 70L 10 22C 10 22 10 10 22 10"></path></g></g></g><g id="g-root-ro_v7cm4s1e9aarx-stroke" data-item-order="-14688" transform="translate(511, 215)"><g id="ro_v7cm4s1e9aarx-stroke" fill="none" stroke-linecap="round" stroke-linejoin="round" stroke-miterlimit="4" stroke="#1eabda" stroke-width="2"><g><path d="M 22 10L 202 10C 202 10 214 10 214 22L 214 70C 214 70 214 82 202 82L 22 82C 22 82 10 82 10 70L 10 22C 10 22 10 10 22 10"></path></g></g></g><g id="g-root-ro_4g29sc1e9ek99-stroke" data-item-order="-14688" transform="translate(511, 491)"><g id="ro_4g29sc1e9ek99-stroke" fill="none" stroke-linecap="round" stroke-linejoin="round" stroke-miterlimit="4" stroke="#1eabda" stroke-width="2"><g><path d="M 22 10L 202 10C 202 10 214 10 214 22L 214 70C 214 70 214 82 202 82L 22 82C 22 82 10 82 10 70L 10 22C 10 22 10 10 22 10"></path></g></g></g><g id="g-root-ro_13zv8y41e9fvur-stroke" data-item-order="-14688" transform="translate(511, 583)"><g id="ro_13zv8y41e9fvur-stroke" fill="none" stroke-linecap="round" stroke-linejoin="round" stroke-miterlimit="4" stroke="#1eabda" stroke-width="2"><g><path d="M 22 10L 202 10C 202 10 214 10 214 22L 214 70C 214 70 214 82 202 82L 22 82C 22 82 10 82 10 70L 10 22C 10 22 10 10 22 10"></path></g></g></g><g id="g-root-ro_18it4i41e9d3wo-stroke" data-item-order="-14688" transform="translate(511, 399)"><g id="ro_18it4i41e9d3wo-stroke" fill="none" stroke-linecap="round" stroke-linejoin="round" stroke-miterlimit="4" stroke="#1eabda" stroke-width="2"><g><path d="M 22 10L 202 10C 202 10 214 10 214 22L 214 70C 214 70 214 82 202 82L 22 82C 22 82 10 82 10 70L 10 22C 10 22 10 10 22 10"></path></g></g></g><g id="g-root-ro_1luw3yk1e9iqrp-stroke" data-item-order="-14688" transform="translate(511, 907)"><g id="ro_1luw3yk1e9iqrp-stroke" fill="none" stroke-linecap="round" stroke-linejoin="round" stroke-miterlimit="4" stroke="#1eabda" stroke-width="2"><g><path d="M 22 10L 202 10C 202 10 214 10 214 22L 214 70C 214 70 214 82 202 82L 22 82C 22 82 10 82 10 70L 10 22C 10 22 10 10 22 10"></path></g></g></g><g id="g-root-ro_zjf9qk1e9iqkn-stroke" data-item-order="-14688" transform="translate(511, 815)"><g id="ro_zjf9qk1e9iqkn-stroke" fill="none" stroke-linecap="round" stroke-linejoin="round" stroke-miterlimit="4" stroke="#1eabda" stroke-width="2"><g><path d="M 22 10L 202 10C 202 10 214 10 214 22L 214 70C 214 70 214 82 202 82L 22 82C 22 82 10 82 10 70L 10 22C 10 22 10 10 22 10"></path></g></g></g><g id="g-root-ro_i0vwgc1e9acju-stroke" data-item-order="-14688" transform="translate(511, 307)"><g id="ro_i0vwgc1e9acju-stroke" fill="none" stroke-linecap="round" stroke-linejoin="round" stroke-miterlimit="4" stroke="#1eabda" stroke-width="2"><g><path d="M 22 10L 202 10C 202 10 214 10 214 22L 214 70C 214 70 214 82 202 82L 22 82C 22 82 10 82 10 70L 10 22C 10 22 10 10 22 10"></path></g></g></g><g id="g-root-ro_1lu9jpo1e9r4si-stroke" data-item-order="-12096" transform="translate(15, 491)"><g id="ro_1lu9jpo1e9r4si-stroke" fill="none" stroke-linecap="round" stroke-linejoin="round" stroke-miterlimit="4" stroke="#484848" stroke-width="2"><g><path d="M 22 10L 166 10C 166 10 178 10 178 22L 178 70C 178 70 178 82 166 82L 22 82C 22 82 10 82 10 70L 10 22C 10 22 10 10 22 10"></path></g></g></g><g id="g-root-tx_software_958w7g1e9ljia-stroke" data-item-order="0" transform="translate(113, 39)"></g><g id="g-root-cu_dkfx8s1e9ll3d-stroke" data-item-order="2" transform="translate(455, 851)"><g id="cu_dkfx8s1e9ll3d-stroke" fill="none" stroke-linecap="round" stroke-linejoin="round" stroke-miterlimit="4" stroke="#484848" stroke-width="2"><g><path d="M 10 148L 24 148L 38 148L 38 79L 38 10L 52 10L 64 10"></path><path d="M 58 16.5L 64.5 10L 58 3.5" stroke-dasharray="none"></path></g></g></g><g id="g-root-cu_958w7g1e9liq7-stroke" data-item-order="2" transform="translate(455, 251)"><g id="cu_958w7g1e9liq7-stroke" fill="none" stroke-linecap="round" stroke-linejoin="round" stroke-miterlimit="4" stroke="#484848" stroke-width="2"><g><path d="M 10 10L 38 10L 64 10"></path><path d="M 58 16.5L 64.5 10L 58 3.5" stroke-dasharray="none"></path></g></g></g><g id="g-root-cu_dkfx8s1e9ll3f-stroke" data-item-order="2" transform="translate(455, 735)"><g id="cu_dkfx8s1e9ll3f-stroke" fill="none" stroke-linecap="round" stroke-linejoin="round" stroke-miterlimit="4" stroke="#484848" stroke-width="2"><g><path d="M 10 264L 24 264L 38 264L 38 137L 38 10L 52 10L 64 10"></path><path d="M 58 16.5L 64.5 10L 58 3.5" stroke-dasharray="none"></path></g></g></g><g id="g-root-cu_958w7g1e9liq4-stroke" data-item-order="2" transform="translate(455, 251)"><g id="cu_958w7g1e9liq4-stroke" fill="none" stroke-linecap="round" stroke-linejoin="round" stroke-miterlimit="4" stroke="#484848" stroke-width="2"><g><path d="M 10 10L 24 10L 38 10L 38 56L 38 102L 52 102L 64 102"></path><path d="M 58 108.5L 64.5 102L 58 95.5" stroke-dasharray="none"></path></g></g></g><g id="g-root-cu_958w7g1e9lji8-stroke" data-item-order="2" transform="translate(183, 251)"><g id="cu_958w7g1e9lji8-stroke" fill="none" stroke-linecap="round" stroke-linejoin="round" stroke-miterlimit="4" stroke="#484848" stroke-width="2"><g><path d="M 10 286L 24 286L 38 286L 38 148L 38 10L 52 10L 64 10"></path><path d="M 58 16.5L 64.5 10L 58 3.5" stroke-dasharray="none"></path></g></g></g><g id="g-root-cu_i09fd81e9lkb3-stroke" data-item-order="2" transform="translate(455, 943)"><g id="cu_i09fd81e9lkb3-stroke" fill="none" stroke-linecap="round" stroke-linejoin="round" stroke-miterlimit="4" stroke="#484848" stroke-width="2"><g><path d="M 10 56L 24 56L 38 56L 38 33L 38 10L 52 10L 64 10"></path><path d="M 58 16.5L 64.5 10L 58 3.5" stroke-dasharray="none"></path></g></g></g><g id="g-root-cu_i09fd81e9ll34-stroke" data-item-order="2" transform="translate(455, 527)"><g id="cu_i09fd81e9ll34-stroke" fill="none" stroke-linecap="round" stroke-linejoin="round" stroke-miterlimit="4" stroke="#484848" stroke-width="2"><g><path d="M 10 10L 38 10L 64 10"></path><path d="M 58 16.5L 64.5 10L 58 3.5" stroke-dasharray="none"></path></g></g></g><g id="g-root-cu_i09fd81e9ll36-stroke" data-item-order="2" transform="translate(455, 435)"><g id="cu_i09fd81e9ll36-stroke" fill="none" stroke-linecap="round" stroke-linejoin="round" stroke-miterlimit="4" stroke="#484848" stroke-width="2"><g><path d="M 10 102L 24 102L 38 102L 38 56L 38 10L 52 10L 64 10"></path><path d="M 58 16.5L 64.5 10L 58 3.5" stroke-dasharray="none"></path></g></g></g><g id="g-root-cu_dkfx8s1e9ll3h-stroke" data-item-order="2" transform="translate(455, 527)"><g id="cu_dkfx8s1e9ll3h-stroke" fill="none" stroke-linecap="round" stroke-linejoin="round" stroke-miterlimit="4" stroke="#484848" stroke-width="2"><g><path d="M 10 10L 24 10L 38 10L 38 56L 38 102L 52 102L 64 102"></path><path d="M 58 108.5L 64.5 102L 58 95.5" stroke-dasharray="none"></path></g></g></g><g id="g-root-cu_i09fd81e9lkaw-stroke" data-item-order="2" transform="translate(455, 989)"><g id="cu_i09fd81e9lkaw-stroke" fill="none" stroke-linecap="round" stroke-linejoin="round" stroke-miterlimit="4" stroke="#484848" stroke-width="2"><g><path d="M 10 10L 24 10L 38 10L 38 125L 38 240L 52 240L 64 240"></path><path d="M 58 246.5L 64.5 240L 58 233.5" stroke-dasharray="none"></path></g></g></g><g id="g-root-cu_i09fd81e9lkaz-stroke" data-item-order="2" transform="translate(455, 989)"><g id="cu_i09fd81e9lkaz-stroke" fill="none" stroke-linecap="round" stroke-linejoin="round" stroke-miterlimit="4" stroke="#484848" stroke-width="2"><g><path d="M 10 10L 24 10L 38 10L 38 79L 38 148L 52 148L 64 148"></path><path d="M 58 154.5L 64.5 148L 58 141.5" stroke-dasharray="none"></path></g></g></g><g id="g-root-cu_4pfe301e9ljim-stroke" data-item-order="2" transform="translate(183, 527)"><g id="cu_4pfe301e9ljim-stroke" fill="none" stroke-linecap="round" stroke-linejoin="round" stroke-miterlimit="4" stroke="#484848" stroke-width="2"><g><path d="M 10 10L 38 10L 64 10"></path><path d="M 58 16.5L 64.5 10L 58 3.5" stroke-dasharray="none"></path></g></g></g><g id="g-root-cu_dl2ebw1e9lipv-stroke" data-item-order="2" transform="translate(183, 527)"><g id="cu_dl2ebw1e9lipv-stroke" fill="none" stroke-linecap="round" stroke-linejoin="round" stroke-miterlimit="4" stroke="#484848" stroke-width="2"><g><path d="M 10 10L 24 10L 38 10L 38 241L 38 472L 52 472L 64 472"></path><path d="M 58 478.5L 64.5 472L 58 465.5" stroke-dasharray="none"></path></g></g></g><g id="g-root-cu_i09fd81e9lkb1-stroke" data-item-order="2" transform="translate(455, 989)"><g id="cu_i09fd81e9lkb1-stroke" fill="none" stroke-linecap="round" stroke-linejoin="round" stroke-miterlimit="4" stroke="#484848" stroke-width="2"><g><path d="M 10 10L 24 10L 38 10L 38 33L 38 56L 52 56L 64 56"></path><path d="M 58 62.5L 64.5 56L 58 49.5" stroke-dasharray="none"></path></g></g></g><g id="g-root-cu_dl2ebw1e9lipt-stroke" data-item-order="2" transform="translate(455, 159)"><g id="cu_dl2ebw1e9lipt-stroke" fill="none" stroke-linecap="round" stroke-linejoin="round" stroke-miterlimit="4" stroke="#484848" stroke-width="2"><g><path d="M 10 102L 24 102L 38 102L 38 56L 38 10L 52 10L 64 10"></path><path d="M 58 16.5L 64.5 10L 58 3.5" stroke-dasharray="none"></path></g></g></g><g id="g-root-tx_developm_1upa6181e97if4-stroke" data-item-order="1000000000" transform="translate(287, 503)"></g><g id="g-root-bact_dbpa181e9ejgk-stroke" data-item-order="1000000000" transform="translate(523, 512)"><g id="bact_dbpa181e9ejgk-stroke" fill="none" stroke-linecap="round" stroke-linejoin="round" stroke-miterlimit="4" stroke="#1eabda" stroke-width="2"><g><path d="M 29.317501 16.25C 29.742691 16.25001 30.138721 16.466154 30.36875 16.82375L 35.190002 24.32375C 35.454964 24.735653 35.454964 25.264347 35.190002 25.67625L 30.36875 33.17625C 30.138721 33.533844 29.742691 33.749992 29.317501 33.75L 20.682499 33.75C 20.257309 33.749992 19.861279 33.533844 19.63125 33.17625L 14.81 25.67625C 14.545038 25.264347 14.545038 24.735653 14.81 24.32375L 19.63125 16.82375C 19.861279 16.466154 20.257309 16.25001 20.682499 16.25ZM 35.388752 25L 39.375 25M 10.625 25L 14.61125 25M 29.88875 16.389999L 32.5 13.125M 20.112499 16.389999L 17.5 13.125M 29.887501 33.608749L 32.5 36.875M 20.11125 33.610001L 17.5 36.875M 24.375 22.1875C 24.375 24.085979 25.914022 25.625 27.8125 25.625C 29.710979 25.625 31.25 24.085979 31.25 22.1875C 31.25 20.289022 29.710979 18.75 27.8125 18.75C 25.914022 18.75 24.375 20.289022 24.375 22.1875M 20.625 29.0625C 20.625 29.925446 21.324554 30.625 22.1875 30.625C 23.050446 30.625 23.75 29.925446 23.75 29.0625C 23.75 28.199556 23.050446 27.5 22.1875 27.5C 21.324554 27.5 20.625 28.199556 20.625 29.0625"></path></g></g></g><g id="g-root-tx_testingr_dbpa181e9ejgj-stroke" data-item-order="1000000000" transform="translate(559, 503)"></g><g id="g-root-cog_1upa6181e97if5-stroke" data-item-order="1000000000" transform="translate(251, 512)"><g id="cog_1upa6181e97if5-stroke" fill="none" stroke-linecap="round" stroke-linejoin="round" stroke-miterlimit="4" stroke="#1eabda" stroke-width="2"><g><path d="M 21.207142 14.821428L 22.128571 12.442857C 22.446623 11.618603 23.237944 11.074039 24.121428 11.071428L 25.878571 11.071428C 26.762056 11.074039 27.553377 11.618603 27.871428 12.442857L 28.792858 14.821428L 31.921427 16.621428L 34.450001 16.235714C 35.311115 16.11883 36.157558 16.533587 36.592857 17.285715L 37.450001 18.785713C 37.899624 19.55052 37.831463 20.513311 37.278568 21.207142L 35.714287 23.199999L 35.714287 26.799999L 37.321426 28.792858C 37.874317 29.486689 37.942482 30.449478 37.492855 31.214285L 36.635715 32.714287C 36.200413 33.466412 35.353973 33.881168 34.492859 33.764286L 31.964285 33.378571L 28.835714 35.17857L 27.914284 37.55714C 27.596233 38.381397 26.804913 38.925961 25.921427 38.92857L 24.121428 38.92857C 23.237944 38.925961 22.446623 38.381397 22.128571 37.55714L 21.207142 35.17857L 18.078571 33.378571L 15.549999 33.764286C 14.688885 33.881168 13.842443 33.466412 13.407143 32.714287L 12.55 31.214285C 12.100375 30.449478 12.168538 29.486689 12.721429 28.792858L 14.285714 26.799999L 14.285714 23.199999L 12.678572 21.207142C 12.125681 20.513311 12.057519 19.55052 12.507143 18.785713L 13.364285 17.285715C 13.799585 16.533587 14.646028 16.11883 15.507142 16.235714L 18.035713 16.621428ZM 20.714285 25C 20.714285 27.366934 22.633064 29.285713 25 29.285713C 27.366934 29.285713 29.285713 27.366934 29.285713 25C 29.285713 22.633064 27.366934 20.714285 25 20.714285C 22.633064 20.714285 20.714285 22.633064 20.714285 25Z"></path></g></g></g><g id="g-root-tx_preventi_1q9gkr01e9r760-stroke" data-item-order="1000000000" transform="translate(63, 503)"></g><g id="g-root-shie_1lu9jpo1e9r4sh-stroke" data-item-order="1000000000" transform="translate(27, 512)"><g id="shie_1lu9jpo1e9r4sh-stroke" fill="none" stroke-linecap="round" stroke-linejoin="round" stroke-miterlimit="4" stroke="#969696" stroke-width="2"><g><path d="M 31.875 18.75L 23.387501 26.674999C 22.903004 27.143318 22.134497 27.143318 21.65 26.674999L 19.375 24.375M 13.125 11.875C 13.125 11.184644 13.684644 10.625 14.375 10.625L 35.625 10.625C 36.315353 10.625 36.875 11.184644 36.875 11.875L 36.875 19.700001C 36.877621 27.95471 32.304981 35.530849 25 39.375C 17.695021 35.530849 13.12238 27.95471 13.125 19.700001Z"></path></g></g></g><g id="g-root-tx_versionc_1cymmmk1e9d34e-stroke" data-item-order="1000000000" transform="translate(559, 411)"></g><g id="g-root-2_18f29zg1e9fy8a-stroke" data-item-order="1000000000" transform="translate(523, 604)"><g id="2_18f29zg1e9fy8a-stroke" fill="none" stroke-linecap="round" stroke-linejoin="round" stroke-miterlimit="4" stroke="#1eabda" stroke-width="2"><g><path d="M 20.625 20.3125L 29.375 20.3125C 29.375 20.3125 30.625 20.3125 30.625 21.5625L 30.625 29.0625C 30.625 29.0625 30.625 30.3125 29.375 30.3125L 20.625 30.3125C 20.625 30.3125 19.375 30.3125 19.375 29.0625L 19.375 21.5625C 19.375 21.5625 19.375 20.3125 20.625 20.3125M 19.0625 14.375L 19.0625 11.5625C 19.0625 11.217322 19.342321 10.9375 19.6875 10.9375L 30.3125 10.9375C 30.657677 10.9375 30.9375 11.217322 30.9375 11.5625L 30.9375 14.375C 27.382305 16.901461 22.617695 16.901461 19.0625 14.375ZM 15.421249 17.43L 19.55875 14.6725C 19.395 14.56875 19.221251 14.48875 19.05875 14.375L 19.05875 11.59125C 18.753101 11.580616 18.451309 11.662053 18.192499 11.825L 12.5675 15.575C 11.925788 16.003218 11.692255 16.835443 12.0175 17.535L 14.205 22.2225C 14.569508 23.005709 15.499916 23.345133 16.283125 22.980625C 17.066334 22.616117 17.405758 21.685709 17.04125 20.9025ZM 23.125 20.3125L 26.875 20.3125L 26.875 24.6875L 23.125 24.6875ZM 37.428749 15.575L 31.803751 11.825C 31.54545 11.660895 31.24329 11.57936 30.9375 11.59125L 30.9375 14.375C 30.778749 14.4875 30.605 14.56875 30.4375 14.67125L 34.575001 17.43L 32.950001 20.9025C 32.711445 21.408897 32.762009 22.004219 33.082558 22.463127C 33.403103 22.922035 33.944649 23.174404 34.502213 23.124714C 35.059776 23.075024 35.548161 22.730862 35.782501 22.2225L 37.970001 17.535C 38.297516 16.83758 38.067745 16.005522 37.428749 15.575ZM 14.375 32.8125L 35.625 32.8125C 35.625 32.8125 38.75 32.8125 38.75 35.9375L 38.75 35.9375C 38.75 35.9375 38.75 39.0625 35.625 39.0625L 14.375 39.0625C 14.375 39.0625 11.25 39.0625 11.25 35.9375L 11.25 35.9375C 11.25 35.9375 11.25 32.8125 14.375 32.8125M 16.25 34.6875C 15.559644 34.6875 15 35.247147 15 35.9375C 15 36.627853 15.559644 37.1875 16.25 37.1875C 16.940355 37.1875 17.5 36.627853 17.5 35.9375C 17.5 35.247147 16.940355 34.6875 16.25 34.6875ZM 25 34.6875C 24.309643 34.6875 23.75 35.247147 23.75 35.9375C 23.75 36.627853 24.309643 37.1875 25 37.1875C 25.690357 37.1875 26.25 36.627853 26.25 35.9375C 26.25 35.247147 25.690357 34.6875 25 34.6875ZM 33.75 34.6875C 33.059647 34.6875 32.5 35.247147 32.5 35.9375C 32.5 36.627853 33.059647 37.1875 33.75 37.1875C 34.440353 37.1875 35 36.627853 35 35.9375C 35 35.247147 34.440353 34.6875 33.75 34.6875Z"></path></g></g></g><g id="g-root-tx_cicdpipe_18f29zg1e9fy89-stroke" data-item-order="1000000000" transform="translate(559, 595)"></g><g id="g-root-bran_1cymmmk1e9d34f-stroke" data-item-order="1000000000" transform="translate(523, 420)"><g id="bran_1cymmmk1e9d34f-stroke" fill="none" stroke-linecap="round" stroke-linejoin="round" stroke-miterlimit="4" stroke="#1eabda" stroke-width="2"><g><path d="M 14.7775 14.45875C 14.776908 16.576488 16.493509 18.29357 18.61125 18.29357C 20.728989 18.29357 22.445591 16.576488 22.445 14.45875C 22.445591 12.34101 20.728989 10.623929 18.61125 10.623929C 16.493509 10.623929 14.776908 12.34101 14.7775 14.45875M 14.7775 35.541252C 14.776908 37.658989 16.493509 39.376068 18.61125 39.376068C 20.728989 39.376068 22.445591 37.658989 22.445 35.541248C 22.445591 33.423508 20.728989 31.706429 18.61125 31.706429C 16.493509 31.706429 14.776908 33.423508 14.7775 35.541248M 27.555 18.29125C 27.554407 20.408989 29.271009 22.12607 31.388748 22.12607C 33.506489 22.12607 35.223091 20.408989 35.2225 18.291248C 35.223091 16.17351 33.506489 14.456429 31.388748 14.456429C 29.271009 14.456429 27.554407 16.17351 27.554998 18.291248M 18.61125 18.29125L 18.61125 31.708752M 31.38875 22.125C 31.388752 24.947866 29.100367 27.23625 26.2775 27.23625L 22.445 27.23625C 20.327679 27.23625 18.61125 28.952677 18.61125 31.07"></path></g></g></g><g id="g-root-tx_architec_qss26k1e9hddz-stroke" data-item-order="1000000000" transform="translate(559, 687)"></g><g id="g-root-key_mdl1581e9hb0g-stroke" data-item-order="1000000000" transform="translate(523, 720)"><g id="key_mdl1581e9hb0g-stroke" fill="none" stroke-linecap="round" stroke-linejoin="round" stroke-miterlimit="4" stroke="#1eabda" stroke-width="2"><g><path d="M 22.042856 25.814285L 34.642857 13.214286L 38.92857 17.5M 29.821428 18.035713L 33.571426 21.785713M 11.071428 30.357141C 11.071429 33.907543 13.949598 36.785713 17.5 36.785713C 21.050402 36.785713 23.928572 33.907543 23.928572 30.357141C 23.928572 26.80674 21.050402 23.928572 17.5 23.928572C 13.949598 23.928572 11.071429 26.80674 11.071429 30.357141"></path></g></g></g><g id="g-root-tx_architec_qwiwp81e9abr4-stroke" data-item-order="1000000000" transform="translate(559, 319)"></g><g id="g-root-text_13z8rv01e9ipse-stroke" data-item-order="1000000000" transform="translate(523, 836)"><g id="text_13z8rv01e9ipse-stroke" fill="none" stroke-linecap="round" stroke-linejoin="round" stroke-miterlimit="4" stroke="#1eabda" stroke-width="2"><g><path d="M 35.625 27.3825C 37.58778 26.475201 38.818138 24.482513 38.749996 22.321249C 38.726334 20.72193 38.053116 19.20104 36.885117 18.108257C 35.717125 17.015472 34.154858 16.44482 32.557499 16.5275C 31.133242 13.660934 28.200834 11.855703 25 11.875C 20.638153 11.816482 16.983438 15.161299 16.65625 19.51125C 15.35405 19.224945 13.992082 19.537447 12.944951 20.362804C 11.89782 21.18816 11.275809 22.439445 11.25 23.772499C 11.146051 25.720881 12.469007 27.457655 14.375 27.875002M 31.25 38.125L 18.75 38.125C 18.059645 38.125 17.5 37.565353 17.5 36.875L 17.5 24.375C 17.5 23.684643 18.059645 23.125 18.75 23.125L 31.25 23.125C 31.940355 23.125 32.5 23.684643 32.5 24.375L 32.5 36.875C 32.5 37.565353 31.940355 38.125 31.25 38.125ZM 21.25 26.875L 28.75 26.875M 21.25 30.625L 28.75 30.625M 21.25 34.375L 24.0625 34.375"></path></g></g></g><g id="g-root-tx_apidocum_1cuvs3w1e9iozp-stroke" data-item-order="1000000000" transform="translate(559, 827)"></g><g id="g-root-home_qwiwp81e9abr5-stroke" data-item-order="1000000000" transform="translate(523, 328)"><g id="home_qwiwp81e9abr5-stroke" fill="none" stroke-linecap="round" stroke-linejoin="round" stroke-miterlimit="4" stroke="#1eabda" stroke-width="2"><g><path d="M 36.875 38.75C 36.875 39.095177 36.595177 39.375 36.25 39.375L 13.75 39.375C 13.404822 39.375 13.125 39.095177 13.125 38.75L 13.125 11.25C 13.125 10.904822 13.404822 10.625 13.75 10.625L 28.75 10.625C 29.145874 10.646484 29.52252 10.802611 29.817501 11.0675L 36.432499 17.682499C 36.697388 17.97748 36.853516 18.354126 36.875 18.75ZM 29.375 10.78125L 29.375 17.5C 29.375 17.845179 29.654823 18.125 30 18.125L 36.7225 18.125M 28.151249 27.5L 28.151249 32.5C 28.151249 32.845177 27.871428 33.125 27.526249 33.125L 21.276249 33.125C 20.931072 33.125 20.651249 32.845177 20.651249 32.5L 20.651249 27.5M 18.202499 27.5L 23.97875 22.21875C 24.241728 21.985992 24.63702 21.985992 24.9 22.21875L 30.625 27.5"></path></g></g></g><g id="g-root-link_1qapm301e9ipzg-stroke" data-item-order="1000000000" transform="translate(523, 928)"><g id="link_1qapm301e9ipzg-stroke" fill="none" stroke-linecap="round" stroke-linejoin="round" stroke-miterlimit="4" stroke="#1eabda" stroke-width="2"><g><path d="M 18.571428 23.907143L 11.692857 30.721428C 11.287187 31.123783 11.059004 31.67149 11.059004 32.242855C 11.059004 32.814224 11.287187 33.361927 11.692857 33.764286L 16.235714 38.30714C 16.638071 38.712814 17.185776 38.940994 17.757143 38.940994C 18.328508 38.940994 18.876215 38.712814 19.27857 38.30714L 26.092857 31.42857M 31.42857 26.092857L 38.242855 19.27857C 38.648525 18.876215 38.876709 18.328508 38.876709 17.757143C 38.876709 17.185776 38.648525 16.638071 38.242855 16.235714L 33.764286 11.692857C 33.361927 11.287187 32.814224 11.059004 32.242855 11.059004C 31.67149 11.059004 31.123783 11.287187 30.721428 11.692857L 23.907143 18.571428M 29.285713 20.714285L 20.714285 29.285713"></path></g></g></g><g id="g-root-tx_systemde_58kcs1e9ipdv-stroke" data-item-order="1000000000" transform="translate(559, 919)"></g><g id="g-root-stac_4g29sc1e98x73-stroke" data-item-order="1000000000" transform="translate(251, 974)"><g id="stac_4g29sc1e98x73-stroke" fill="none" stroke-linecap="round" stroke-linejoin="round" stroke-miterlimit="4" stroke="#1eabda" stroke-width="2"><g><path d="M 33.260376 38.352001L 37.563499 38.352001C 38.253876 38.352001 38.813499 37.792374 38.813499 37.102001L 38.813499 18.82765C 38.813499 18.506088 38.689499 18.196899 38.467499 17.96435L 32.806999 12.037087C 32.571125 11.790112 32.244499 11.650388 31.903 11.650388L 19.812012 11.650388C 19.121651 11.650388 18.562012 12.210037 18.562012 12.900388L 18.562012 15.005187M 10 10M 24.158875 38.353249L 28.278749 38.353127C 28.969124 38.353127 29.528749 37.793499 29.528749 37.103249L 29.528749 24.005875C 29.528749 23.684376 29.404875 23.375126 29.182751 23.142626L 25.170626 18.941387C 24.934875 18.694412 24.60825 18.554688 24.266624 18.554688L 15.762938 18.554688C 15.072588 18.554688 14.512938 19.114338 14.512938 19.804688L 14.512938 21.914713M 11.186523 26.25C 11.186523 25.559624 11.746162 25 12.436525 25L 17.590313 25C 17.931826 25 18.258463 25.13975 18.494312 25.386749L 20.967175 27.976126C 21.189262 28.208626 21.313189 28.517874 21.313189 28.839375L 21.313189 37.102001C 21.313189 37.792374 20.753538 38.352001 20.063189 38.352001L 12.436525 38.352001C 11.746162 38.352001 11.186523 37.792374 11.186523 37.102001L 11.186523 26.25Z"></path></g></g></g><g id="g-root-tx_document_dbpa181e98wee-stroke" data-item-order="1000000000" transform="translate(287, 965)"></g><g id="g-root-tx_codinggu_142zmdo1e9a9z7-stroke" data-item-order="1000000000" transform="translate(559, 227)"></g><g id="g-root-writ_v7cm4s1e9aarw-stroke" data-item-order="1000000000" transform="translate(523, 236)"><g id="writ_v7cm4s1e9aarw-stroke" fill="none" stroke-linecap="round" stroke-linejoin="round" stroke-miterlimit="4" stroke="#1eabda" stroke-width="2"><g><path d="M 21.875 39.375L 11.875 39.375C 11.184644 39.375 10.625 38.815353 10.625 38.125L 10.625 14.375C 10.625 13.684644 11.184644 13.125 11.875 13.125L 14.375 13.125M 29.375 13.125L 31.875 13.125C 32.565353 13.125 33.125 13.684644 33.125 14.375L 33.125 23.125M 24.375 13.125C 24.375 11.744288 23.255713 10.625 21.875 10.625C 20.494287 10.625 19.375 11.744288 19.375 13.125L 16.875 13.125L 16.875 16.875L 26.875 16.875L 26.875 13.125ZM 30.625 23.125L 30.625 16.25C 30.625 15.904821 30.345177 15.625 30 15.625L 26.875 15.625M 16.875 15.625L 13.75 15.625C 13.404822 15.625 13.125 15.904821 13.125 16.25L 13.125 36.25C 13.125 36.595177 13.404822 36.875 13.75 36.875L 21.875 36.875M 16.875 20.623749L 26.875 20.623749M 16.875 24.373749L 26.875 24.373749M 16.875 28.123749L 21.875 28.123749M 29.625 37.875L 24.375 39.375L 25.875 34.125L 34.848751 25.151251C 35.884281 24.115715 37.563213 24.115715 38.598751 25.151249C 39.634281 26.186783 39.634281 27.865715 38.598751 28.901249ZM 33.723751 26.275002L 37.473751 30.025002M 25.875 34.123749L 29.625 37.873749"></path></g></g></g><g id="g-root-tx_codequal_1463wng1e9slqn-stroke" data-item-order="1000000000" transform="translate(287, 227)"></g><g id="g-root-plus_zqwvm41e9sjd4-stroke" data-item-order="1000000000" transform="translate(251, 236)"><g id="plus_zqwvm41e9sjd4-stroke" fill="none" stroke-linecap="round" stroke-linejoin="round" stroke-miterlimit="4" stroke="#1eabda" stroke-width="2"><g><path d="M 35.625 39.375C 36.315353 39.375 36.875 38.815353 36.875 38.125L 36.875 18.0975C 36.877071 13.971159 33.532593 10.624999 29.40625 10.625L 14.375 10.625C 13.684644 10.625 13.125 11.184644 13.125 11.875L 13.125 38.125C 13.125 38.815353 13.684644 39.375 14.375 39.375ZM 30.625 10.73L 30.625 15.625C 30.625 16.315355 31.184645 16.875 31.875 16.875L 36.775002 16.875M 24.375 26.879999L 24.375 31.879999M 26.875 29.379999L 21.875 29.379999M 31.875 26.879999L 31.875 31.879999M 34.375 29.379999L 29.375 29.379999M 19.375 33.125C 17.303932 33.125 15.625 31.446068 15.625 29.375C 15.625 27.303932 17.303932 25.625 19.375 25.625"></path></g></g></g><g id="g-root-data_1lpwb9o1e9k4qy-stroke" data-item-order="1000000000" transform="translate(523, 1020)"><g id="data_1lpwb9o1e9k4qy-stroke" fill="none" stroke-linecap="round" stroke-linejoin="round" stroke-miterlimit="4" stroke="#1eabda" stroke-width="2"><g><path d="M 33.125 35.3125L 10.625 35.3125L 16.875 14.6875L 39.375 14.6875L 33.125 35.3125Z"></path></g></g></g><g id="g-root-tx_dataflow_1uljbik1e9k3y9-stroke" data-item-order="1000000000" transform="translate(559, 1011)"></g><g id="g-root-map_zmjn641e9k554-stroke" data-item-order="1000000000" transform="translate(523, 1112)"><g id="map_zmjn641e9k554-stroke" fill="none" stroke-linecap="round" stroke-linejoin="round" stroke-miterlimit="4" stroke="#1eabda" stroke-width="2"><g><path d="M 31.25 16.875C 31.25 20.32625 25 25.803749 25 25.803749C 25 25.803749 18.75 20.32625 18.75 16.875C 18.75 13.423221 21.548222 10.625 25 10.625C 28.45178 10.625 31.25 13.423221 31.25 16.875ZM 33.75 15.625L 35.625 15.625C 36.315353 15.625 36.875 16.184645 36.875 16.875L 36.875 38.125C 36.875 38.815353 36.315353 39.375 35.625 39.375L 14.375 39.375C 13.684644 39.375 13.125 38.815353 13.125 38.125L 13.125 16.875C 13.125 16.184645 13.684644 15.625 14.375 15.625L 16.25 15.625"></path></g></g></g><g id="g-root-tx_deployme_142d5ak1e9k4cv-stroke" data-item-order="1000000000" transform="translate(559, 1103)"></g><g id="g-root-tx_cleancod_1cymmmk1e98v0k-stroke" data-item-order="1000000000" transform="translate(559, 135)"></g><g id="g-root-life_hz0h701e9li4u-stroke" data-item-order="1000000000" transform="translate(523, 1204)"><g id="life_hz0h701e9li4u-stroke" fill="none" stroke-linecap="round" stroke-linejoin="round" stroke-miterlimit="4" stroke="#1eabda" stroke-width="2"><g><path d="M 36.785713 13.214286L 29.478571 20.521427M 13.214286 13.214286L 20.521427 20.521427M 13.214286 36.785713L 20.521427 29.478571M 36.785713 36.785713L 29.478571 29.478571M 11.071428 25C 11.071429 32.692539 17.307463 38.92857 25 38.92857C 32.692539 38.92857 38.92857 32.692539 38.92857 25C 38.92857 17.307463 32.692539 11.071429 25 11.071429C 17.307463 11.071429 11.071429 17.307463 11.071429 25M 18.678572 25C 18.678572 28.491228 21.508772 31.32143 25 31.32143C 28.491228 31.32143 31.32143 28.491228 31.32143 25C 31.32143 21.508772 28.491228 18.678572 25 18.678572C 21.508772 18.678572 18.678572 21.508772 18.678572 25"></path></g></g></g><g id="g-root-tx_recovery_qu10cs1e9lkhx-stroke" data-item-order="1000000000" transform="translate(559, 1195)"></g><g id="g-root-brac_142zmdo1e98vt9-stroke" data-item-order="1000000000" transform="translate(523, 144)"><g id="brac_142zmdo1e98vt9-stroke" fill="none" stroke-linecap="round" stroke-linejoin="round" stroke-miterlimit="4" stroke="#1eabda" stroke-width="2"><g><path d="M 10 10M 18.785963 11.5521L 18.181263 11.5521C 16.800776 11.5521 15.681575 12.67105 15.681263 14.05155L 15.679413 22.5145C 15.6791 23.895 14.5599 25.013874 13.179399 25.013874L 12.43635 25.013874M 10 10M 31.218874 11.5521L 31.823626 11.5521C 33.204124 11.5521 34.32325 12.67105 34.323624 14.05155L 34.3255 22.5145C 34.325748 23.895 35.445 25.013874 36.8255 25.013874L 37.568501 25.013874M 18.785963 38.447876L 18.181263 38.447876C 16.800776 38.447876 15.681575 37.328999 15.681263 35.948502L 15.679413 27.4855C 15.6791 26.105 14.5599 24.986126 13.179399 24.986126L 12.43635 24.986126M 31.218874 38.447876L 31.823626 38.447876C 33.204124 38.447876 34.32325 37.328999 34.323624 35.948502L 34.3255 27.4855C 34.325748 26.105 35.445 24.986126 36.8255 24.986126L 37.568501 24.986126"></path></g></g></g></g></g></svg>