<?xml version="1.0" encoding="utf-8" standalone="yes"?>
<!DOCTYPE svg PUBLIC "-//W3C//DTD SVG 1.1//EN" "http://www.w3.org/Graphics/SVG/1.1/DTD/svg11.dtd">
<svg width="1034" height="518" viewBox="0 0 1034 518" style="fill:none;stroke:none;fill-rule:evenodd;clip-rule:evenodd;stroke-linecap:round;stroke-linejoin:round;stroke-miterlimit:1.5;" version="1.1" xmlns="http://www.w3.org/2000/svg" xmlns:xlink="http://www.w3.org/1999/xlink"><style class="text-font-style fontImports" data-font-family="Shantell Sans">@import url('https://fonts.googleapis.com/css2?family=Shantell+Sans:wght@300..800&amp;display=block');</style><rect id="" x="0" y="0" width="1034" height="518" style="fill: #ffffff;"></rect><g id="items" style="isolation: isolate"><g id="blend" style="mix-blend-mode: normal"><g id="g-root-tf_zitobg1dpnsi5-fill" data-item-order="-532512" transform="translate(-9, -9)"><g id="tf_zitobg1dpnsi5-fill" stroke="none" fill="#ffffff"><g><path d="M 10 10L 1042 10L 1042 526L 10 526Z"></path></g></g></g><g id="g-root-1.bubble-1_fr_959opo1dpqlfo-fill" data-item-order="-425078" transform="translate(27, 111)"><g id="1.bubble-1_fr_959opo1dpqlfo-fill" stroke="none" fill="#fff8b6"><g><path d="M 202 58L 10 58C 10.000001 51.3726 10 46 10 46L 202 46.000011L 202 58ZM 202 261.999969L 202 58L 10 58.000021L 10.000004 261.999969L 202 261.999969ZM 202 273.999935L 202 261.999935L 10 261.999935L 10 273.999935L 106 309.999935L 202 273.999935ZM 337 10.000019L 235 10L 10 46L 202 46L 337 10.000019Z"></path></g></g></g><g id="g-root-2.bubble-2_fr_959opo1dpqlfq-fill" data-item-order="-425050" transform="translate(219, 111)"><g id="2.bubble-2_fr_959opo1dpqlfq-fill" stroke="none" fill="#e9ffb9"><g><path d="M 202 58L 10 58C 10.000001 51.3726 10 46 10 46L 202 46.000011L 202 58ZM 202 261.999969L 202 58L 10 58.000021L 10.000004 261.999969L 202 261.999969ZM 202 297.99995L 202 261.99995L 10 261.99995L 10 297.99995L 106 333.99995L 202 297.99995ZM 247 10.000019L 145 10L 10 46L 202 46L 247 10.000019Z"></path></g></g></g><g id="g-root-3.bubble-3_fr_4g32ak1dprxmo-fill" data-item-order="-425022" transform="translate(411, 111)"><g id="3.bubble-3_fr_4g32ak1dprxmo-fill" stroke="none" fill="#c8ffe5"><g><path d="M 202 58L 10 58C 10.000001 51.3726 10 46 10 46L 202 46.000011L 202 58ZM 202 261.999969L 202 58L 10 58.000021L 10.000004 261.999969L 202 261.999969ZM 202 321.999962L 202 261.999962L 10 261.999962L 10 321.999962L 106 357.999962L 202 321.999962ZM 157 10.000019L 55 10L 10 46L 202 46L 157 10.000019Z"></path></g></g></g><g id="g-root-4.bubble-4_fr_4g32ak1dprxmq-fill" data-item-order="-424994" transform="translate(558, 111)"><g id="4.bubble-4_fr_4g32ak1dprxmq-fill" stroke="none" fill="#d1f4ff"><g><path d="M 247 58L 55 58C 55.000001 51.3726 55 46 55 46L 247 46.000011L 247 58ZM 247 261.999969L 247 58L 55 58.000021L 55.000004 261.999969L 247 261.999969ZM 247 297.99995L 247 261.99995L 55 261.99995L 55 297.99995L 151 333.99995L 247 297.99995ZM 112 10.000019L 10 10L 55 46L 247 46L 112 10.000019Z"></path></g></g></g><g id="g-root-5.bubble-5_fr_1ulk40s1dpry8c-fill" data-item-order="-424966" transform="translate(660, 111)"><g id="5.bubble-5_fr_1ulk40s1dpry8c-fill" stroke="none" fill="#dce9ff"><g><path d="M 337 58L 145 58C 145.000001 51.3726 145 46 145 46L 337 46.000011L 337 58ZM 337 261.999969L 337 58L 145 58.000021L 145.000004 261.999969L 337 261.999969ZM 337 273.999935L 337 261.999935L 145 261.999935L 145 273.999935L 241 309.999935L 337 273.999935ZM 112 10.000019L 10 10L 145 46L 337 46L 112 10.000019Z"></path></g></g></g><g id="g-root-tx_technica_1ulk40s1dpry8e-fill" data-item-order="0" transform="translate(303, 39)"><g id="tx_technica_1ulk40s1dpry8e-fill" stroke="none" fill="#484848"><g><text style="font: bold 25px &quot;Shantell Sans&quot;, cursive; white-space: pre;" font-weight="bold" font-size="25px" font-family="'Shantell Sans', cursive"><tspan x="14.1" y="45" dominant-baseline="ideographic">Technical Debt Impact Metrics</tspan></text></g></g></g><g id="g-root-incr_1q5qlwc1dprz0n-fill" data-item-order="0" transform="translate(93, 171)"></g><g id="g-root-1_1q7m4bg1dpdwcq-fill" data-item-order="0" transform="translate(285, 171)"></g><g id="g-root-in_de821o1dpi618-fill" data-item-order="0" transform="translate(477, 171)"></g><g id="g-root-dash_1ly1d241dpi610-fill" data-item-order="0" transform="translate(669, 171)"></g><g id="g-root-flas_zkp3ks1dpmdc7-fill" data-item-order="0" transform="translate(861, 171)"></g><g id="g-root-tx_developm_hsslzw1dpdwjl-fill" data-item-order="0" transform="translate(51, 243)"><g id="tx_developm_hsslzw1dpdwjl-fill" stroke="none" fill="#e0cb15"><g><text style="font: bold 20px &quot;Shantell Sans&quot;, cursive; white-space: pre;" font-weight="bold" font-size="20px" font-family="'Shantell Sans', cursive"><tspan x="13.31" y="35" dominant-baseline="ideographic">Development </tspan><tspan x="38.91" y="59" dominant-baseline="ideographic">Velocity</tspan></text></g></g></g><g id="g-root-tx_maintena_v5i2jg1dpi3ny-fill" data-item-order="0" transform="translate(237, 243)"><g id="tx_maintena_v5i2jg1dpi3ny-fill" stroke="none" fill="#92bd39"><g><text style="font: bold 20px &quot;Shantell Sans&quot;, cursive; white-space: pre;" font-weight="bold" font-size="20px" font-family="'Shantell Sans', cursive"><tspan x="17.38" y="35" dominant-baseline="ideographic">Maintenance </tspan><tspan x="63.6" y="59" dominant-baseline="ideographic">Cost</tspan></text></g></g></g><g id="g-root-tx_bugimpac_4o7bks1dpi3ur-fill" data-item-order="0" transform="translate(441, 243)"><g id="tx_bugimpac_4o7bks1dpi3ur-fill" stroke="none" fill="#3cc583"><g><text style="font: bold 20px &quot;Shantell Sans&quot;, cursive; white-space: pre;" font-weight="bold" font-size="20px" font-family="'Shantell Sans', cursive"><tspan x="16.16" y="35" dominant-baseline="ideographic">Bug Impact</tspan></text></g></g></g><g id="g-root-tx_systemst_959rvg1dpkxkw-fill" data-item-order="0" transform="translate(651, 243)"><g id="tx_systemst_959rvg1dpkxkw-fill" stroke="none" fill="#1eabda"><g><text style="font: bold 20px &quot;Shantell Sans&quot;, cursive; white-space: pre;" font-weight="bold" font-size="20px" font-family="'Shantell Sans', cursive"><tspan x="21.2" y="35" dominant-baseline="ideographic">System </tspan><tspan x="14.01" y="59" dominant-baseline="ideographic">Stability</tspan></text></g></g></g><g id="g-root-tx_develope_1d2ect81dpmdcb-fill" data-item-order="0" transform="translate(831, 243)"><g id="tx_develope_1d2ect81dpmdcb-fill" stroke="none" fill="#4e88e7"><g><text style="font: bold 20px &quot;Shantell Sans&quot;, cursive; white-space: pre;" font-weight="bold" font-size="20px" font-family="'Shantell Sans', cursive"><tspan x="17.24" y="35" dominant-baseline="ideographic">Developer </tspan><tspan x="12.51" y="59" dominant-baseline="ideographic">Experience</tspan></text></g></g></g><g id="g-root-tx_metricsa_4o7bks1dpi3ut-fill" data-item-order="0" transform="translate(435, 279)"><g id="tx_metricsa_4o7bks1dpi3ut-fill" stroke="none" fill="#3cc583"><g><text style="font: 15px &quot;Shantell Sans&quot;, cursive; white-space: pre;" font-size="15px" font-family="'Shantell Sans', cursive"><tspan x="16.63" y="32" dominant-baseline="ideographic">Metrics assessing </tspan><tspan x="12.45" y="50" dominant-baseline="ideographic">the impact of bugs </tspan><tspan x="27.43" y="68" dominant-baseline="ideographic">on the system.</tspan></text></g></g></g><g id="g-root-tx_metricsr_8x5lr01dpdxcb-fill" data-item-order="0" transform="translate(45, 303)"><g id="tx_metricsr_8x5lr01dpdxcb-fill" stroke="none" fill="#e0cb15"><g><text style="font: 15px &quot;Shantell Sans&quot;, cursive; white-space: pre;" font-size="15px" font-family="'Shantell Sans', cursive"><tspan x="20.65" y="32" dominant-baseline="ideographic">Metrics related to </tspan><tspan x="16.9" y="50" dominant-baseline="ideographic">development speed </tspan><tspan x="34.16" y="68" dominant-baseline="ideographic">and efficiency.</tspan></text></g></g></g><g id="g-root-tx_metricst_qpokf01dpi4g8-fill" data-item-order="0" transform="translate(243, 303)"><g id="tx_metricst_qpokf01dpi4g8-fill" stroke="none" fill="#92bd39"><g><text style="font: 15px &quot;Shantell Sans&quot;, cursive; white-space: pre;" font-size="15px" font-family="'Shantell Sans', cursive"><tspan x="13.91" y="32" dominant-baseline="ideographic">Metrics that track </tspan><tspan x="20.91" y="50" dominant-baseline="ideographic">costs associated </tspan><tspan x="13.41" y="68" dominant-baseline="ideographic">with maintenance.</tspan></text></g></g></g><g id="g-root-tx_metricse_1uuxbh81dpkyys-fill" data-item-order="0" transform="translate(627, 303)"><g id="tx_metricse_1uuxbh81dpkyys-fill" stroke="none" fill="#1eabda"><g><text style="font: 15px &quot;Shantell Sans&quot;, cursive; white-space: pre;" font-size="15px" font-family="'Shantell Sans', cursive"><tspan x="13.11" y="32" dominant-baseline="ideographic">Metrics evaluating </tspan><tspan x="12.34" y="50" dominant-baseline="ideographic">the stability of the </tspan><tspan x="53.77" y="68" dominant-baseline="ideographic">system.</tspan></text></g></g></g><g id="g-root-tx_metricsr_1d2ect81dpmdcc-fill" data-item-order="0" transform="translate(819, 303)"><g id="tx_metricsr_1d2ect81dpmdcc-fill" stroke="none" fill="#4e88e7"><g><text style="font: 15px &quot;Shantell Sans&quot;, cursive; white-space: pre;" font-size="15px" font-family="'Shantell Sans', cursive"><tspan x="15.41" y="32" dominant-baseline="ideographic">Metrics reflecting </tspan><tspan x="16.59" y="50" dominant-baseline="ideographic">the experience of </tspan><tspan x="38.85" y="68" dominant-baseline="ideographic">developers.</tspan></text></g></g></g><g id="g-root-tf_zitobg1dpnsi5-stroke" data-item-order="-532512" transform="translate(-9, -9)"></g><g id="g-root-1.bubble-1_fr_959opo1dpqlfo-stroke" data-item-order="-425078" transform="translate(27, 111)"><g id="1.bubble-1_fr_959opo1dpqlfo-stroke" fill="none" stroke-linecap="round" stroke-linejoin="round" stroke-miterlimit="4" stroke="#ffffff" stroke-width="2"><g><path d="M 202 58L 202 46L 10.0001 46L 10 58M 202 46L 337 10L 235 10L 10 46M 202 261.999695L 202 58M 10 261.999695L 10 58M 202 261.999935L 202 273.999935L 106 309.999935L 10 273.999935L 10 261.999935"></path></g></g></g><g id="g-root-2.bubble-2_fr_959opo1dpqlfq-stroke" data-item-order="-425050" transform="translate(219, 111)"><g id="2.bubble-2_fr_959opo1dpqlfq-stroke" fill="none" stroke-linecap="round" stroke-linejoin="round" stroke-miterlimit="4" stroke="#ffffff" stroke-width="2"><g><path d="M 202 58L 202 46L 10.0001 46L 10 58M 202 46L 247 10L 145 10L 10 46M 202 261.999695L 202 58M 10 261.999695L 10 58M 202 261.99995L 202 297.99995L 106 333.99995L 10 297.99995L 10 261.99995"></path></g></g></g><g id="g-root-3.bubble-3_fr_4g32ak1dprxmo-stroke" data-item-order="-425022" transform="translate(411, 111)"><g id="3.bubble-3_fr_4g32ak1dprxmo-stroke" fill="none" stroke-linecap="round" stroke-linejoin="round" stroke-miterlimit="4" stroke="#ffffff" stroke-width="2"><g><path d="M 202 58L 202 46L 10.0001 46L 10 58M 202 46L 157 10L 55 10L 10 46M 202 261.999695L 202 58M 10 261.999695L 10 58M 202 261.999962L 202 321.999962L 106 357.999962L 10 321.999962L 10 261.999962"></path></g></g></g><g id="g-root-4.bubble-4_fr_4g32ak1dprxmq-stroke" data-item-order="-424994" transform="translate(558, 111)"><g id="4.bubble-4_fr_4g32ak1dprxmq-stroke" fill="none" stroke-linecap="round" stroke-linejoin="round" stroke-miterlimit="4" stroke="#ffffff" stroke-width="2"><g><path d="M 247 58L 247 46L 55.0001 46L 55 58M 247 46L 112 10L 10 10L 55 46M 247 261.999695L 247 58M 55 261.999695L 55 58M 247 261.99995L 247 297.99995L 151 333.99995L 55 297.99995L 55 261.99995"></path></g></g></g><g id="g-root-5.bubble-5_fr_1ulk40s1dpry8c-stroke" data-item-order="-424966" transform="translate(660, 111)"><g id="5.bubble-5_fr_1ulk40s1dpry8c-stroke" fill="none" stroke-linecap="round" stroke-linejoin="round" stroke-miterlimit="4" stroke="#ffffff" stroke-width="2"><g><path d="M 337 58L 337 46L 145.0001 46L 145 58M 337 46L 112 10L 10 10L 145 46M 337 261.999695L 337 58M 145 261.999695L 145 58M 337 261.999935L 337 273.999935L 241 309.999935L 145 273.999935L 145 261.999935"></path></g></g></g><g id="g-root-tx_technica_1ulk40s1dpry8e-stroke" data-item-order="0" transform="translate(303, 39)"></g><g id="g-root-incr_1q5qlwc1dprz0n-stroke" data-item-order="0" transform="translate(93, 171)"><g id="incr_1q5qlwc1dprz0n-stroke" fill="none" stroke-linecap="round" stroke-linejoin="round" stroke-miterlimit="4" stroke="#e0cb15" stroke-width="2"><g><path d="M 10 10M 63.177498 19.375L 56.380001 45.637501C 54.095436 54.462036 46.132961 60.625374 37.017502 60.625L 11.25 60.625M 10 10M 54.152496 24.9475L 63.177498 19.375L 68.75 28.4"></path></g></g></g><g id="g-root-1_1q7m4bg1dpdwcq-stroke" data-item-order="0" transform="translate(285, 171)"><g id="1_1q7m4bg1dpdwcq-stroke" fill="none" stroke-linecap="round" stroke-linejoin="round" stroke-miterlimit="4" stroke="#92bd39" stroke-width="2"><g><path d="M 23.759998 11.25L 56.259998 11.25C 56.259998 11.25 62.509998 11.25 62.509998 17.5L 62.509998 62.5C 62.509998 62.5 62.509998 68.75 56.259998 68.75L 23.759998 68.75C 23.759998 68.75 17.51 68.75 17.51 62.5L 17.51 17.5C 17.51 17.5 17.51 11.25 23.759998 11.25M 17.51 48.75L 62.509998 48.75M 17.51 31.25L 62.509998 31.25M 40.009998 31.25L 40.009998 68.75M 23.76 41.25L 31.259998 41.25M 47.509998 41.25L 55.009998 41.25M 47.509998 61.25L 55.009998 61.25M 47.509998 56.25L 55.009998 56.25M 27.51 37.5L 27.51 45M 23.76 55L 31.259998 62.5M 31.259998 55L 23.76 62.5M 52.512497 23.75L 52.512497 18.75"></path></g></g></g><g id="g-root-in_de821o1dpi618-stroke" data-item-order="0" transform="translate(477, 171)"><g id="in_de821o1dpi618-stroke" fill="none" stroke-linecap="round" stroke-linejoin="round" stroke-miterlimit="4" stroke="#3cc583" stroke-width="2"><g><path d="M 33.75 40C 33.75 43.451782 36.548222 46.25 40 46.25C 43.451782 46.25 46.25 43.451782 46.25 40C 46.25 36.548222 43.451782 33.75 40 33.75C 36.548222 33.75 33.75 36.548222 33.75 40M 68.125 58.097L 45 58.097M 10 10M 56.113247 67.957748L 45.002251 58.096752L 56.113247 48.2355M 40 68.125C 24.466999 68.125 11.875 55.532997 11.875 40C 11.875 24.466999 24.466999 11.875 40 11.875C 55.532997 11.875 68.125 24.466999 68.125 40C 68.125 43.210999 67.586754 46.296501 66.595749 49.170998"></path></g></g></g><g id="g-root-dash_1ly1d241dpi610-stroke" data-item-order="0" transform="translate(669, 171)"><g id="dash_1ly1d241dpi610-stroke" fill="none" stroke-linecap="round" stroke-linejoin="round" stroke-miterlimit="4" stroke="#1eabda" stroke-width="2"><g><path d="M 36.25 45C 36.25 47.071068 37.928932 48.75 40 48.75C 42.071068 48.75 43.75 47.071068 43.75 45C 43.75 42.928932 42.071068 41.25 40 41.25C 37.928932 41.25 36.25 42.928932 36.25 45ZM 42.650002 42.3475L 55.0275 29.974998M 16.25 46.25L 21.25 46.25M 63.75 46.25L 58.75 46.25M 61.939999 35.912498L 57.322502 37.825001M 49.087502 23.057501L 47.174999 27.6775M 40 21.25L 40 26.25M 30.912498 23.057501L 32.825001 27.6775M 23.2075 28.205L 26.737501 31.742498M 18.059999 35.912498L 22.675001 37.825001M 40 16.25C 24.121815 16.25 11.25 29.121815 11.25 45L 11.25 53.75C 11.25 55.130711 12.369288 56.25 13.75 56.25L 66.25 56.25C 67.630707 56.25 68.75 55.130711 68.75 53.75L 68.75 45C 68.75 29.121815 55.878185 16.25 40 16.25Z"></path></g></g></g><g id="g-root-flas_zkp3ks1dpmdc7-stroke" data-item-order="0" transform="translate(861, 171)"><g id="flas_zkp3ks1dpmdc7-stroke" fill="none" stroke-linecap="round" stroke-linejoin="round" stroke-miterlimit="4" stroke="#4e88e7" stroke-width="2"><g><path d="M 53.125 30.585001C 53.125 34.381958 56.203045 37.459999 60 37.459999C 63.796959 37.459999 66.875 34.381958 66.875 30.585001C 66.875 26.788042 63.796959 23.710001 60 23.710001C 56.203045 23.710001 53.125 26.788042 53.125 30.585001ZM 68.75 48.709999C 68.75 43.87751 64.832489 39.960003 60 39.960003C 55.167511 39.960003 51.25 43.87751 51.25 48.710003L 51.25 56.209999L 55.2075 56.209999L 56.25 68.709999L 63.75 68.709999L 64.792496 56.209999L 68.75 56.209999ZM 13.125 30.585001C 13.125 34.381958 16.203043 37.459999 20 37.459999C 23.796957 37.459999 26.875 34.381958 26.875 30.585001C 26.875 26.788042 23.796957 23.710001 20 23.710001C 16.203043 23.710001 13.125 26.788042 13.125 30.585001ZM 28.75 48.709999C 28.75 43.87751 24.832493 39.960003 20 39.960003C 15.167509 39.960003 11.25 43.87751 11.25 48.710003L 11.25 56.209999L 15.2075 56.209999L 16.25 68.709999L 23.75 68.709999L 24.7925 56.209999L 28.75 56.209999ZM 32.5 28.7125L 36.25 28.7125L 36.25 38.712498L 48.450001 23.275C 48.767162 22.904198 48.839569 22.382738 48.635437 21.93955C 48.431297 21.496363 47.987942 21.212467 47.5 21.2125L 43.75 21.2125L 43.75 11.2125L 31.552502 26.647499C 31.234016 27.01787 31.16045 27.539824 31.364159 27.983791C 31.567869 28.427761 32.011528 28.712393 32.5 28.7125Z"></path></g></g></g><g id="g-root-tx_developm_hsslzw1dpdwjl-stroke" data-item-order="0" transform="translate(51, 243)"></g><g id="g-root-tx_maintena_v5i2jg1dpi3ny-stroke" data-item-order="0" transform="translate(237, 243)"></g><g id="g-root-tx_bugimpac_4o7bks1dpi3ur-stroke" data-item-order="0" transform="translate(441, 243)"></g><g id="g-root-tx_systemst_959rvg1dpkxkw-stroke" data-item-order="0" transform="translate(651, 243)"></g><g id="g-root-tx_develope_1d2ect81dpmdcb-stroke" data-item-order="0" transform="translate(831, 243)"></g><g id="g-root-tx_metricsa_4o7bks1dpi3ut-stroke" data-item-order="0" transform="translate(435, 279)"></g><g id="g-root-tx_metricsr_8x5lr01dpdxcb-stroke" data-item-order="0" transform="translate(45, 303)"></g><g id="g-root-tx_metricst_qpokf01dpi4g8-stroke" data-item-order="0" transform="translate(243, 303)"></g><g id="g-root-tx_metricse_1uuxbh81dpkyys-stroke" data-item-order="0" transform="translate(627, 303)"></g><g id="g-root-tx_metricsr_1d2ect81dpmdcc-stroke" data-item-order="0" transform="translate(819, 303)"></g></g></g></svg>